<svg width="95" height="89" viewBox="0 0 95 89" xmlns="http://www.w3.org/2000/svg"><title>arrival</title><g id="Page-1" fill="none" fill-rule="evenodd"><g id="home" transform="translate(-342 -2147)"><g id="Arrivals-Content" transform="translate(64 2140)"><g id="Arrival" transform="translate(275)"><path d="M85.739 71.418L12.143 43.945a7.07 7.07 0 0 1-4.546-5.763h-.008s-.713-5.854-2.553-20.423c-.391-3.091 2.447-3.538 3.947-1.298 2.759 4.115 6.482 9.697 9.945 14.898l15.232 5.686c-1.139-8.94-2.693-21.176-3.772-29.706l6.572 2.453a16448.786 16448.786 0 0 0 18.536 35.217l23.133 8.638c12.776 4.766 16.913 11.756 15.545 15.422-1.236 3.314-4.147 3.947-8.435 2.349zM30.587 54.816a3.515 3.515 0 0 0-4.519 2.061 3.51 3.51 0 0 0 2.06 4.52 3.508 3.508 0 0 0 4.521-2.055 3.514 3.514 0 0 0-2.062-4.526zm10.299 3.85a3.514 3.514 0 0 0-4.521 2.063 3.51 3.51 0 0 0 2.061 4.521 3.509 3.509 0 0 0 4.521-2.059 3.52 3.52 0 0 0-2.061-4.525zM95.14 89.959a2.701 2.701 0 0 0-2.7-2.703H39.718a2.702 2.702 0 0 0 0 5.404H92.44a2.7 2.7 0 0 0 2.7-2.701z" id="Shape" fill="#000"/></g></g></g></g></svg>