<svg width="99" height="107" viewBox="0 0 99 107" xmlns="http://www.w3.org/2000/svg"><title>breakfast</title><g id="Page-1" fill="none" fill-rule="evenodd"><g id="home" transform="translate(-348 -5137)" fill="#000"><g id="BREAKFAST-@-9-AM-+-Check-out-time-from--+-noun_17155_cc" transform="translate(119 5141)"><g id="noun_17155_cc" transform="translate(231)"><path d="M45.819 93.75h14.763c-.479-1.241-.858-2.637-1.153-4.167h-9.966a28.526 28.526 0 0 1-3.644 4.167zM81.422 72.917c0 1.151.933 2.083 2.084 2.083h1.888c.015-1.363.019-2.757.021-4.167h-1.908a2.084 2.084 0 0 0-2.085 2.084z" id="Shape"/><path d="M89.965 70.876c-.071-.008-.134-.043-.209-.043h-4.342c.002-.691.002-1.383.002-2.083a2.082 2.082 0 0 0-2.083-2.083H60.417a2.082 2.082 0 0 0-2.083 2.083c0 16.769 0 31.25 10.416 31.25H75c4.276 0 6.779-2.468 8.267-6.507l-.004.013c5.595-1.233 12.571-7.178 12.571-14.339-.001-4.883-2.297-8.069-5.869-8.291zM75 95.833h-6.25c-5.948 0-6.235-11.373-6.248-25h18.746c-.012 13.627-.299 25-6.248 25zm9.493-7.143c.655-3.917.849-8.606.901-13.69h4.189c1.933 0 2.083 3.19 2.083 4.167.001 4.222-3.782 7.897-7.173 9.523zM52.083 75h-4.462c-.79-3.035-3.225-5.412-6.313-6.066-1.443-3.63-7.034-4.232-10.435-4.33-.856-2.429-3.153-4.187-5.874-4.187-2.82 0-5.182 1.888-5.957 4.459a6.235 6.235 0 0 0-4.12 4.017c-4.046.548-7.276 2.972-8.3 6.107H2.083A2.082 2.082 0 0 0 0 77.083C0 86.099 9.841 100 22.917 100h8.333c13.076 0 22.917-13.901 22.917-22.917A2.082 2.082 0 0 0 52.083 75zM31.25 95.833h-8.333c-9.241 0-17.147-9.503-18.518-16.666h45.37c-1.373 7.163-9.278 16.666-18.519 16.666z" id="Shape"/><path d="M79.167 33.333a2.082 2.082 0 0 0-2.083 2.083V37.5H68.75v-4.167c0-6.539-7.169-11.751-16.666-12.423v-8.793c2.419-.865 4.166-3.156 4.166-5.868A6.257 6.257 0 0 0 50 0a6.257 6.257 0 0 0-6.25 6.25c0 2.712 1.748 5.003 4.167 5.865v8.795c-8.461.598-15.053 4.806-16.396 10.339H25a2.082 2.082 0 0 0-2.083 2.083c0 .513.206.966.513 1.329l7.821 9.82v20.142c1.243.045 2.712.167 4.167.468V35.417h29.167v31.25h4.166v-25h8.334v22.917c0 .717-.096 1.408-.229 2.084h4.224a14.49 14.49 0 0 0 .171-2.084V35.417a2.084 2.084 0 0 0-2.084-2.084zM31.25 37.812l-1.915-2.395h1.915v2.395zM50 4.167c1.149 0 2.084.936 2.084 2.083A2.087 2.087 0 0 1 50 8.333a2.086 2.086 0 0 1-2.083-2.083c0-1.147.933-2.083 2.083-2.083zM35.917 31.25C37.585 27.704 43.349 25 49.996 25h.006c6.649 0 12.413 2.704 14.081 6.25H35.917z" id="Shape"/></g></g></g></g></svg>