<svg width="104" height="45" viewBox="0 0 104 45" xmlns="http://www.w3.org/2000/svg"><title>carcar</title><g id="Page-1" fill="none" fill-rule="evenodd"><g id="home" transform="translate(-333 -8619)" fill="#000"><g id="LAND-+-Car" transform="translate(108 8589)"><g id="Car" transform="translate(226)"><g id="Layer_2" transform="translate(0 33)"><path d="M15.524 22.357a7.631 7.631 0 0 0 0 15.261 7.631 7.631 0 0 0 0-15.261zm0 10.832a3.22 3.22 0 1 1 .002-6.442 3.22 3.22 0 0 1-.002 6.442zM82.53 22.355a7.631 7.631 0 0 0-7.632 7.629 7.632 7.632 0 0 0 15.262 0 7.632 7.632 0 0 0-7.63-7.629zm0 10.834a3.222 3.222 0 1 1 3.223-3.22 3.222 3.222 0 0 1-3.223 3.22z" id="Shape"/><path d="M78.23 11.515S59.466 2.765 53.476 1.497C47.489.229 26.879 1.382 24.922 2.648l-11.515 5.64-11.282 5.527-1.827 10.65s-.05 6.318.388 7.773h5.527l.071-2.25c0-5.103 4.138-9.24 9.243-9.24 5.103 0 9.238 4.138 9.238 9.24l.158 2.25h48.359l.007-2.83c0-5.103 3.856-8.87 8.959-8.87s9.523 3.768 9.523 8.87l.19 2.616s5.845.33 7.688-.361c0 0 .69-9.787-2.878-13.357-3.168-2.998-9.558-4.866-18.541-6.791zm-52.274 1.381s2.363-5.01 4.943-6.924c1.911-1.627 12.446-1.583 12.446-1.583l.389 9.715-17.778-1.208zm45.657 2.302l-24.698-.978-.577-9.846c9.154-.344 19.576 4.549 25.563 8.06 5.989 3.512-.288 2.764-.288 2.764z" id="Shape"/></g></g></g></g></g></svg>