<svg width="68" height="103" viewBox="0 0 68 103" xmlns="http://www.w3.org/2000/svg"><title>ceremony</title><g id="Page-1" fill="none" fill-rule="evenodd"><g id="home" transform="translate(-362 -4062)" fill="#000"><g id="SEAL-THE-DEAL-@-5-PM-+-The-ceremony-will-be-+-Ceremony-Icon" transform="translate(119 4065)"><g id="Ceremony-Icon" transform="translate(247)"><g id="Group"><circle id="Oval" cx="16.555" cy="7.281" r="6.781"/><circle id="Oval" cx="37.323" cy="11.84" r="6.487"/><path d="M19.302 15.292l-2.167.641c-.022 0-.044.003-.066.006-.12-.153-.278-.249-.454-.249-.188 0-.357.107-.479.28a.385.385 0 0 0-.162-.037l-2.167-.641a.382.382 0 0 0-.381.381v1.907c0 .211.171.382.381.382l2.167-.607c.062 0 .12-.016.171-.042.122.166.287.268.47.268.169 0 .322-.09.441-.234a.417.417 0 0 0 .08.008l2.167.607a.382.382 0 0 0 .382-.382v-1.907a.383.383 0 0 0-.383-.381z" id="Shape"/><circle id="Oval" cx="16.555" cy="20.7" r="1.006"/><circle id="Oval" cx="16.555" cy="24.609" r="1.006"/><circle id="Oval" cx="16.555" cy="28.518" r="1.006"/><circle id="Oval" cx="16.555" cy="32.427" r="1.006"/><path d="M37.323.833c-6.39 0-10.055 4.012-10.055 11.007h2.081c0-4.072 1.383-8.927 7.974-8.927 6.592 0 7.976 4.854 7.976 8.927h2.079C47.377 4.845 43.713.833 37.323.833zM61.437 90.832L49.033 55.779V20.362H31.455s-.615-3.736-6.509-3.736h-3.779v15.377s-.035 3.537-4.611 3.537-4.611-3.571-4.611-3.571l-.069-15.342H5.497s-5.062.364-5.062 4.664v32.175s0 2.185 2.964 2.185c2.965 0 3.276-1.635 3.276-1.635v41.238h11.546s1.482.026 1.482-.884c.806.78 3.368 1.885 5.253 0 .962.65 2.704 2.029 5.07 0 0 0 2.756 2.314 5.071 0 1.274.78 2.34 1.846 5.122.156 1.301.676 3.147 1.716 5.071-.078 1.664.884 2.549 1.846 5.071 0 2.054 1.041 3.354 1.716 5.33-.286 1.611 2.052 6.76 2 5.746-3.33zM7.748 27.443a2.253 2.253 0 1 1 0-4.506 2.253 2.253 0 0 1 0 4.506zm50.447 66.449c-.951 0-1.724-.739-1.724-1.649 0-.488.224-.925.575-1.227h.005c0-.496-.656-.897-1.465-.897-.81 0-1.466.402-1.466.897h.011c.353.301.575.738.575 1.227 0 .911-.771 1.649-1.723 1.649-.951 0-1.723-.739-1.723-1.649 0-.489.224-.927.577-1.229h-.007c-.001-.495-.612-.896-1.365-.896-.754 0-1.365.402-1.365.897h.003c.353.301.575.738.575 1.227 0 .911-.772 1.649-1.724 1.649s-1.724-.739-1.724-1.649c0-.489.225-.927.578-1.229h-.028c-.002-.495-.648-.896-1.446-.896-.798 0-1.445.401-1.446.896h-.006c.354.301.578.739.578 1.229 0 .911-.772 1.649-1.724 1.649s-1.724-.739-1.724-1.649c0-.488.224-.925.575-1.227h.012c0-.496-.627-.897-1.4-.897-.772 0-1.399.402-1.399.897h.018c.353.301.575.738.575 1.227 0 .911-.772 1.649-1.723 1.649-.952 0-1.724-.739-1.724-1.649 0-.489.224-.927.577-1.229h-.006c-.002-.495-.659-.896-1.468-.896-.811 0-1.466.401-1.468.896h-.021c.354.301.577.739.577 1.229 0 .911-.771 1.649-1.723 1.649-.952 0-1.724-.739-1.724-1.649 0-.489.224-.927.578-1.229h-.017c-.001-.495-.572-.896-1.274-.896-.702 0-1.271.401-1.273.896h-.02c.354.301.578.739.578 1.229 0 .911-.771 1.649-1.723 1.649-.952 0-1.723-.739-1.723-1.649 0-.488.223-.925.575-1.227h.034c0-.496-.69-.897-1.541-.897s-1.541.402-1.541.897h.008c.352.301.575.738.575 1.227 0 .911-.771 1.649-1.723 1.649-.952 0-1.723-.739-1.723-1.649 0-.489.224-.927.578-1.229h-.02c-.002-.495-.616-.896-1.373-.896-.758 0-1.373.402-1.373.897h.009c.352.301.575.738.575 1.227 0 .911-.771 1.649-1.724 1.649-.951 0-1.723-.739-1.723-1.649 0-.489 2.146-8.076 2.146-8.076l-.017-26.229s-.104-1.109.971-1.109 1.057.954 1.057.954l.208 18.878 9.882-32.73h4.715c4.681-.087 2.774-6.085 2.774-6.085L32.226 22.78c-.277-.71.139-.728.139-.728h14.511c.606 0 .589.381.589.381l-.035 28.778-5.496-14.424 2.358-6.05s.485-.71-.365-1.04c-.849-.33-1.161.294-1.161.294l-2.409 6.882 19.363 54.14s.198.739.198 1.229c0 .911-.772 1.65-1.723 1.65z" id="Shape"/></g></g></g></g></g></svg>