<svg width="204" height="192" viewBox="0 0 204 192" xmlns="http://www.w3.org/2000/svg"><title>confetti</title><g id="Page-1" fill="none" fill-rule="evenodd"><g id="home" transform="translate(-275 -10421)" fill="#000"><g id="noun_98497_cc" transform="translate(281 10428)"><path d="M190.438 109.406c-.842-1.406-2.528-1.687-3.932-1.125-5.899 3.375-10.393-.281-18.257-7.031-5.618-4.781-12.078-10.406-20.224-12.094-8.707-1.687-16.291 2.25-21.066 7.594-1.405-.281-2.809-.281-4.213-.281h-.281c-3.37 0-7.022.562-10.393 1.687-2.528-5.062-6.18-10.125-10.673-14.906 5.336-2.531 8.988-8.156 8.988-14.344 0-8.719-7.022-16.031-16.01-16.031-7.584 0-14.045 5.344-15.45 12.375a62.85 62.85 0 0 0-8.145-3.375c1.124-1.688 2.528-3.656 4.214-5.625 4.213-4.5 5.617-9.844 3.932-14.906-.28-1.125-.843-2.25-1.685-3.375 2.808-6.188 2.247-12.938.28-17.719 2.528-3.375 4.776-7.313 5.9-12.094.28-1.406-.563-3.094-1.967-3.375-1.405-.281-3.09.563-3.37 1.969-.843 3.094-1.967 5.906-3.652 8.156-1.966-2.531-4.775-4.219-7.303-4.5-8.707-.844-12.92 2.813-14.044 6.75-1.124 3.657.562 7.594 3.932 9.563 3.37 1.968 7.584 1.968 11.797.281 1.405-.563 2.809-1.406 4.213-2.531.562 2.531.843 5.625 0 8.718-1.685-1.124-3.651-1.968-5.617-2.53-4.494-.845-8.708.28-11.516 3.655-1.967 2.25-2.528 5.063-1.686 7.876 1.124 3.093 3.933 5.624 7.303 6.187 2.528.563 7.303.281 12.078-5.063.843 3.094-.28 6.188-2.809 9-2.528 2.813-4.494 5.344-5.898 7.876-2.247-.282-4.213-.563-6.18-.563-5.898 0-10.954 1.969-14.605 5.344-1.686 1.687-3.09 3.937-3.933 6.469L.562 168.75c-.843 1.969-.562 4.219.562 6.188 1.123 1.968 3.37 2.812 5.336 2.812.843 0 1.686-.281 2.528-.563l60.11-24.75 36.795-15.187c2.528-.844 4.775-2.25 6.46-3.938 6.741-6.75 7.022-18 1.966-30.093 2.528-.844 5.337-1.125 7.865-1.125h.842c-3.932 7.594-3.09 15.75 1.686 21.375 2.809 3.094 6.18 4.219 9.269 4.219 2.809 0 5.618-1.126 7.584-2.813 4.494-3.938 6.74-11.531.561-19.406-2.527-3.094-5.617-5.625-9.269-7.031 3.652-3.094 8.427-4.782 13.764-3.657 6.74 1.406 12.358 6.188 17.695 10.688 7.584 6.469 15.168 12.937 24.718 7.594 1.685-.563 2.247-2.25 1.404-3.657zM66.85 21.937c-1.685.844-4.213 1.407-6.741 0-1.124-.562-1.685-1.968-1.405-3.093.562-1.407 2.247-2.813 6.46-2.813h1.686c1.124 0 2.809 1.125 4.213 3.094-1.404 1.406-2.809 2.25-4.213 2.813zm3.37 17.72c-2.246 2.812-4.774 4.218-7.021 3.656-1.405-.282-2.528-1.126-3.09-2.532-.281-.843 0-1.687.562-2.25 1.404-1.687 3.09-1.968 4.494-1.968.561 0 1.123 0 1.685.28 1.404.282 3.09 1.126 4.213 2.25-.562 0-.842.282-.842.563zM94.658 58.5c5.618 0 10.393 4.5 10.393 10.406 0 5.063-3.932 9.563-8.988 10.125-.562 0-.843.281-1.405.281-.561 0-1.404 0-1.966-.28h-.562c-.561 0-.842-.282-1.404-.563-.28 0-.28-.281-.562-.281-.28-.282-.842-.282-1.123-.563-.281-.281-.562-.281-.562-.563-.28-.28-.562-.28-.843-.562l-.842-.844c0-.281-.281-.281-.281-.562-.281-.563-.562-.844-.843-1.406-.562-1.126-.843-2.25-1.123-3.657v-.844C84.265 63.282 89.04 58.5 94.657 58.5zm-32.301 63.563c.28.28.562.562.843.562 1.123.844 2.247 1.969 3.37 2.813l.562.562c1.123.844 1.966 1.406 3.09 2.25.28.281.561.281.561.563 1.124.843 2.247 1.406 3.37 2.25.282.28.563.28.844.562 1.123.563 2.247 1.406 3.37 1.969h.281c1.124.562 2.247 1.125 3.652 1.687 0 0 .28 0 .28.281-24.717-2.812-43.817-16.312-49.435-30.375l2.809-7.03c3.651 5.343 8.988 9.562 15.73 12.937 2.246 2.812 4.493 5.625 7.302 8.437 1.124.563 2.247 1.688 3.37 2.531zm5.618 25.03c-11.517-1.405-37.077-6.468-42.975-22.78l5.055-12.657c9.55 16.594 31.46 26.719 53.087 29.25l-15.167 6.188zm-21.067 8.72c-10.392-.844-23.313-4.782-27.807-17.157l3.09-7.312c7.303 11.812 22.751 17.156 35.953 19.969l-11.236 4.5zm-18.819 7.593c-8.707 0-14.887-3.656-16.01-7.594l4.213-10.125c4.213 7.032 11.235 11.532 20.785 14.063l-8.988 3.656zM44.38 99.281c-2.528-2.25-4.213-4.781-5.898-7.875l1.685-3.937c.843 3.937 2.247 7.875 4.213 11.812zM7.022 172.125c-.562.281-.843 0-1.123-.281-.281-.281 0-.844 0-.844l3.651-8.719c2.247 2.25 5.056 4.219 8.707 5.344l-11.235 4.5zm101.68-42.75c-1.124 1.125-2.81 2.25-4.495 2.813-1.685.562-3.932.843-6.18.843-9.268 0-20.784-5.344-30.896-14.062-.281-.281-.843-.563-1.124-1.125-1.123-.844-1.966-1.969-3.09-2.813l-2.808-2.812c-.281-.281-.562-.844-.843-1.125-.562-.563-1.123-1.125-1.685-1.969-.281-.563-.562-.844-1.124-1.406-.561-.563-.842-1.125-1.404-1.688-.28-.562-.562-.844-.843-1.406-.28-.563-.842-1.125-1.123-1.688-.281-.562-.562-.843-.843-1.406-.562-.562-.843-1.406-1.123-1.969-.281-.28-.281-.562-.562-.843-.562-1.125-1.124-1.969-1.685-3.094 0-.281-.281-.563-.281-.563-.281-.843-.843-1.687-1.124-2.53 0-.282-.28-.563-.28-.844-.282-.844-.563-1.407-.843-2.25 0-.282-.281-.563-.281-.844-.281-.844-.562-1.688-.562-2.25 0-.281 0-.281-.28-.563-.282-.844-.282-1.687-.563-2.531v-.281c-.28-1.969-.28-3.656 0-5.344v-.281c0-.563.281-1.406.281-1.969 0-.281.281-.563.281-.844.562-2.25 1.685-3.937 3.09-5.344 2.528-2.53 5.898-3.656 10.392-3.656 1.124 0 2.247 0 3.371.281-2.528 5.626-2.809 9.563-2.809 10.688 0 1.688 1.124 2.813 2.809 2.813 1.404 0 2.809-1.126 2.809-2.813 0-.563.28-4.5 2.809-9.844 3.651 1.125 7.303 2.531 10.954 4.781.562 2.813 1.685 5.344 3.37 7.594l.282.281c.561.563.842 1.126 1.404 1.407.28 0 .28.281.562.281.561.563 1.123.844 1.685 1.125.28 0 .562.281.562.281.562.281 1.123.563 1.966.844.28 0 .562.281.562.281.842.281 1.404.563 2.247.563h.562c.842 0 1.685.281 2.527.281h.843c4.775 4.781 8.427 10.125 11.235 15.469-7.022 3.094-13.482 8.156-18.538 14.906-.842 1.125-.842 3.094.562 3.938 1.123.843 3.09.843 3.932-.563 4.775-5.906 10.393-10.406 16.572-13.219 4.494 10.406 4.775 19.688-.28 24.469zm29.492-20.25c4.213 5.344 2.809 9.844.281 11.813-2.247 1.968-6.18 2.53-9.27-1.126-4.212-4.78-3.089-11.25-.56-15.75.28-.28.28-.562.56-.843 3.652 1.125 6.742 3.094 8.99 5.906zM164.597 45c5.337 0 9.83-4.5 9.83-9.844 0-5.343-4.493-9.843-9.83-9.843s-9.83 4.5-9.83 9.843c0 5.344 4.212 9.844 9.83 9.844zm0-14.063c2.247 0 4.213 1.97 4.213 4.22s-1.966 4.218-4.213 4.218-4.213-1.969-4.213-4.219 1.685-4.218 4.213-4.218zM95.5 95.344a7.557 7.557 0 0 0-7.584-7.594 7.557 7.557 0 0 0-7.584 7.594 7.557 7.557 0 0 0 7.584 7.594c4.213 0 7.584-3.657 7.584-7.594zm-9.55 0c0-1.125.843-1.969 1.966-1.969 1.124 0 1.966.844 1.966 1.969s-.842 1.969-1.966 1.969c-1.123 0-1.966-1.126-1.966-1.97zm17.415-70.875l9.55 5.062 1.123 10.688c0 1.125.843 1.968 1.686 2.25.28 0 .561.281.842.281.843 0 1.405-.281 1.966-.844l7.865-7.312 10.674 2.25c1.123.281 2.247-.282 2.808-1.125.562-.844.843-1.969.281-2.813l-4.494-9.843 5.337-9.282c.562-.844.562-1.969 0-3.094-.562-.843-1.685-1.406-2.809-1.124l-10.673 1.687-7.303-8.156c-.843-.844-1.686-1.125-2.81-.844-1.123.281-1.684 1.125-1.965 2.25l-1.967 10.688-9.83 4.5c-.843.562-1.686 1.406-1.686 2.53 0 1.126.562 1.688 1.405 2.25zm13.763-4.782c.843-.28 1.404-1.125 1.685-1.968l1.124-6.469 4.494 4.781c.562.563 1.404 1.125 2.528.844l6.46-.844-3.37 5.625c-.562.844-.562 1.688 0 2.532l2.808 5.906-6.46-1.125c-.843-.282-1.966 0-2.528.843l-4.775 4.5-.562-6.468c0-.844-.561-1.688-1.404-2.25l-5.899-3.094 5.899-2.813zm13.482 35.157c-1.123-.282-2.247 0-2.809.562-.842.844-1.123 1.969-.561 2.813l2.247 6.75-4.213 5.625c-.562.844-.843 1.969-.281 3.094.561.843 1.404 1.406 2.528 1.687h7.022l3.932 5.906c.562.844 1.404 1.125 2.247 1.125h.28c1.124-.281 1.967-.844 2.248-1.969l2.247-6.75 6.741-1.968c1.124-.281 1.686-1.125 1.966-2.25.281-1.125-.28-2.25-1.123-2.813l-5.618-4.219.281-7.03c0-1.126-.562-1.97-1.404-2.532-.843-.563-1.966-.281-3.09.281l-5.618 4.219-7.022-2.531zm8.708 7.593l2.247-1.687v2.813c0 .843.28 1.687 1.123 2.25l2.247 1.687-2.809.844c-.842.281-1.685.844-1.966 1.969l-.842 2.812-1.686-2.25c-.561-.844-1.404-1.125-2.247-1.125h-2.809l1.686-2.25c.562-.844.842-1.688.562-2.531l-.843-2.813 2.809.844c.842.281 1.966 0 2.528-.563z" id="Shape"/></g></g></g></svg>