<svg width="89" height="94" viewBox="0 0 89 94" xmlns="http://www.w3.org/2000/svg"><title>drinks</title><g id="Page-1" fill="none" fill-rule="evenodd"><g id="home" transform="translate(-348 -4430)" fill="#000"><g id="PRE-GAMING-@-5:45-+-Drinks-will-be-serve-+-Drinks" transform="translate(119 4430)"><g id="Drinks" transform="translate(233)"><g id="Group"><path d="M17.6 62.5C8.8 59.2 7.3 51.7 9.8 45c1.4-3.7 26.2 6.5 25.1 9.4-2.5 6.6-8.5 11.4-17.3 8.1z" id="Shape"/><path d="M40.9 33.4l-.2-.4-21.3-7.9-.4.1c-5.6 1.7-14.7 14-15.1 25.4C3.8 56 5.6 63.1 14.7 67L8.1 84.6 1.3 82l-.8 2.2L15.8 90l.8-2.2-6.3-2.4 6.6-17.6c2.1.7 4.2 1 6.1 1 6.3 0 11.5-3.5 15.1-10.1 5-8.9 5.6-20.9 2.8-25.3zM36 57.6c-2.2 4-6.3 8.9-13.1 8.9-2 0-4.2-.4-6.4-1.3-7-2.6-10.4-7.5-10.2-14.5.3-10.3 8.6-21.3 13-23.1L39.1 35c1.9 3.7 1.5 14.4-3.1 22.6z" id="Shape"/><path id="Rectangle-path" transform="rotate(45 27.593 16.664)" d="M20.243 15.464h14.7v2.4h-14.7z"/><path id="Rectangle-path" d="M40.8 0h2.4v14.7h-2.4z"/><path id="Rectangle-path" transform="rotate(45 56.883 16.493)" d="M55.683 9.093h2.4v14.8h-2.4z"/><path d="M66.4 62.5c8.8-3.3 10.3-10.8 7.8-17.5-1.4-3.7-26.2 6.5-25.1 9.4 2.5 6.6 8.5 11.4 17.3 8.1z" id="Shape"/><path d="M82.7 82l-6.8 2.5L69.3 67c9.1-3.9 10.9-11 10.7-16.3-.3-11.4-9.5-23.7-15.1-25.4l-.4-.1L43.3 33l-.2.3c-2.8 4.4-2.1 16.5 2.8 25.4 3.6 6.6 8.9 10.1 15.1 10.1 1.9 0 4-.4 6.1-1l6.6 17.6-6.3 2.4.8 2.2 15.4-5.7-.9-2.3zM61 66.5c-6.7 0-10.8-4.8-13.1-8.9-4.5-8.2-4.9-18.9-3-22.6l19.7-7.3c4.4 1.8 12.7 12.8 13 23.1.2 7-3.2 11.8-10.2 14.5-2.2.7-4.4 1.2-6.4 1.2z" id="Shape"/></g></g></g></g></g></svg>