<svg width="229" height="228" viewBox="0 0 229 228" xmlns="http://www.w3.org/2000/svg"><title>giftsgifts</title><g id="Page-1" fill="none" fill-rule="evenodd"><g id="home" transform="translate(-270 -9507)" fill="#000"><g id="Imported-Layers-Copy-+-Gift" transform="translate(273 9510)"><g id="Imported-Layers-Copy"><path d="M111.5 0C49.92 0 0 49.92 0 111.5S49.92 223 111.5 223 223 173.08 223 111.5 173.08 0 111.5 0zm0 220.77c-60.348 0-109.269-48.922-109.269-109.27C2.231 51.151 51.152 2.231 111.5 2.231c60.348 0 109.269 48.92 109.269 109.269 0 60.348-48.921 109.27-109.269 109.27z" id="Fill-1"/><path d="M116.215 205.882l-.084-2.301-2.301.085.084 2.301 2.301-.085" id="Fill-2"/><path d="M127.146 204.709l-.35-2.275-2.275.348.349 2.277 2.276-.35" id="Fill-3"/><path d="M137.855 202.274l-.614-2.219-2.218.613.612 2.219 2.22-.613" id="Fill-4"/><path d="M148.191 198.61l-.867-2.132-2.133.868.868 2.132 2.132-.868" id="Fill-5"/><path d="M158.058 193.752l-1.111-2.017-2.017 1.111 1.111 2.016 2.017-1.11" id="Fill-6"/><path d="M167.289 187.78l-1.338-1.874-1.874 1.337 1.337 1.874 1.875-1.337" id="Fill-7"/><path d="M175.75 180.796l-1.545-1.708-1.707 1.545 1.544 1.707 1.708-1.544" id="Fill-8"/><path d="M183.364 172.865l-1.731-1.517-1.518 1.73 1.732 1.518 1.517-1.731" id="Fill-9"/><path d="M190.001 164.124l-1.895-1.308-1.307 1.895 1.894 1.308 1.308-1.895" id="Fill-10"/><path d="M195.586 154.665l-2.034-1.079-1.079 2.033 2.034 1.079 1.079-2.033" id="Fill-11"/><path d="M200.027 144.63l-2.145-.835-.835 2.145 2.145.835.835-2.145" id="Fill-12"/><path d="M203.269 134.134l-2.228-.578-.577 2.228 2.228.578.577-2.228" id="Fill-13"/><path d="M205.268 123.309l-2.282-.314-.313 2.28 2.28.315.315-2.281" id="Fill-14"/><path d="M205.994 112.363l-2.302-.049-.049 2.301 2.301.05.05-2.302" id="Fill-15"/><path d="M205.464 101.394l-2.292.213.214 2.293 2.292-.215-.214-2.291" id="Fill-16"/><path d="M203.667 90.549l-2.251.48.48 2.251 2.25-.479-.479-2.252" id="Fill-17"/><path d="M200.618 79.993l-2.18.739.74 2.181 2.179-.74-.739-2.18" id="Fill-18"/><path d="M196.359 69.875l-2.078.988.988 2.079 2.08-.989-.99-2.078" id="Fill-19"/><path d="M190.944 60.309l-1.949 1.224 1.224 1.95 1.95-1.224-1.225-1.95" id="Fill-20"/><path d="M184.471 51.453l-1.796 1.442 1.441 1.795 1.796-1.442-1.441-1.795" id="Fill-21"/><path d="M177.011 43.396l-1.617 1.639 1.639 1.616 1.616-1.638-1.638-1.617" id="Fill-22"/><path d="M168.657 36.241l-1.417 1.815 1.815 1.417 1.417-1.815-1.815-1.417" id="Fill-23"/><path d="M159.536 30.105l-1.197 1.966 1.967 1.198 1.196-1.967-1.966-1.197" id="Fill-24"/><path d="M149.789 25.081l-.961 2.092 2.093.961.96-2.093-2.092-.96" id="Fill-25"/><path d="M139.498 21.219l-.709 2.19 2.19.709.709-2.19-2.19-.709" id="Fill-26"/><path d="M128.828 18.588l-.447 2.258 2.258.448.448-2.258-2.259-.448" id="Fill-27"/><path d="M117.915 17.217l-.183 2.295 2.295.182.183-2.295-2.295-.182" id="Fill-28"/><path d="M106.955 17.109l.08 2.301 2.301-.08-.08-2.301-2.301.08" id="Fill-29"/><path d="M96.02 18.264l.344 2.276 2.277-.346-.346-2.275-2.275.345" id="Fill-30"/><path d="M85.304 20.681l.608 2.219 2.221-.608-.61-2.221-2.219.61" id="Fill-31"/><path d="M74.941 24.334l.865 2.134 2.134-.865-.865-2.133-2.134.864" id="Fill-32"/><path d="M65.082 29.169l1.108 2.018 2.018-1.107-1.106-2.019-2.02 1.108" id="Fill-33"/><path d="M55.854 35.115l1.334 1.876 1.877-1.333-1.334-1.877-1.877 1.334" id="Fill-34"/><path d="M47.367 42.096l1.542 1.71 1.71-1.541-1.542-1.71-1.71 1.541" id="Fill-35"/><path d="M39.751 50l1.728 1.522L43 49.793l-1.728-1.521L39.751 50" id="Fill-36"/><path d="M33.088 58.743l1.893 1.312 1.311-1.893-1.893-1.311-1.311 1.892" id="Fill-37"/><path d="M27.48 68.208l2.032 1.082 1.082-2.032-2.032-1.082-1.082 2.032" id="Fill-38"/><path d="M23.023 78.235l2.145.838.838-2.144-2.145-.838-.838 2.144" id="Fill-39"/><path d="M19.765 88.725l2.227.581.582-2.228-2.227-.581-.582 2.228" id="Fill-40"/><path d="M17.754 99.525l2.28.318.318-2.281-2.281-.317-.317 2.28" id="Fill-41"/><path d="M17.008 110.484l2.302.054.052-2.302-2.301-.052-.053 2.3" id="Fill-42"/><path d="M17.521 121.457l2.292-.211-.211-2.292-2.292.211.211 2.292" id="Fill-43"/><path d="M19.296 132.289l2.253-.475-.476-2.252-2.253.475.476 2.252" id="Fill-44"/><path d="M22.328 142.854l2.181-.737-.736-2.181-2.181.736.736 2.182" id="Fill-45"/><path d="M26.577 152.996l2.08-.985-.985-2.08-2.081.985.986 2.08" id="Fill-46"/><path d="M31.959 162.541l1.952-1.221-1.221-1.951-1.952 1.22 1.221 1.952" id="Fill-47"/><path d="M38.44 171.438l1.796-1.439-1.438-1.798-1.797 1.44 1.439 1.797" id="Fill-48"/><path d="M45.887 179.506l1.619-1.637-1.636-1.619-1.619 1.637 1.636 1.619" id="Fill-49"/><path d="M54.216 186.662l1.42-1.812-1.813-1.42-1.42 1.812 1.813 1.42" id="Fill-50"/><path d="M63.31 192.805l1.202-1.965-1.965-1.2-1.2 1.964 1.963 1.201" id="Fill-51"/><path d="M73.08 197.861l.964-2.091-2.091-.963-.964 2.091 2.091.963" id="Fill-52"/><path d="M83.363 201.738l.713-2.189-2.189-.712-.713 2.188 2.189.713" id="Fill-53"/><path d="M94.026 204.386l.453-2.258-2.258-.451-.452 2.257 2.257.452" id="Fill-54"/><path d="M104.898 205.77l.187-2.293-2.295-.188-.187 2.294 2.295.187" id="Fill-55"/></g><g id="Gift" transform="translate(76 51)"><text id="GIFTS" font-family="Bebas Neue" font-size="40" letter-spacing="2.353"><tspan x="0" y="111">GIFTS</tspan></text><g id="Your_Icon" transform="translate(11 12)"><path d="M53.452 19.987h-.006V9.878C53.446 4.445 49 0 43.567 0H9.886C4.453 0 .008 4.445.008 9.878v10.111H0v7.423h.008V43.56c0 5.432 4.445 9.878 9.878 9.878h33.681c5.433 0 9.879-4.446 9.879-9.878V27.417h.003l.003-7.43zM43.567 2.634c3.994 0 7.244 3.25 7.244 7.244v10.11l-1.356-.001h-.36c-.903 0-1.775.002-2.197.009-.275.004-.428-.084-.555-.33a20.429 20.429 0 0 1-1.873-5.245c-.13-.619-.378-.961-1.002-.952-.898.013-1.82.069-2.687.288-2.604.656-4.873 2.016-7.01 3.595-1.023.756-1.979 1.604-2.972 2.401-.147.118-.327.193-.568.332V2.635h13.336zM2.642 9.878c0-3.994 3.25-7.244 7.244-7.244h12.889v17.441c-.339-.116-.647-.168-.9-.317-.506-.302-.984-.65-1.466-.99-2.808-1.994-6.02-2.99-9.315-3.785a4.25 4.25 0 0 0-.757-.098c-1.386-.075-1.838.171-2.31 1.463-.391 1.074-.663 2.191-1.007 3.282-.045.14-.215.343-.33.343-.88.012-1.76.015-2.65.016H2.643V9.878zm0 33.682V27.406h9.645c-.328.353-.585.647-.862.923-1.004 1-2.01 1.998-3.03 2.984-.353.343-.375.737-.31 1.185.452 3.124.818 6.255.787 9.42-.006.569-.048 1.14-.078 1.815.162-.092.29-.126.359-.211.594-.722 1.116-1.512 1.775-2.167 2.256-2.248 4.588-4.424 6.837-6.68 1.62-1.623 3.155-3.33 4.727-5.001.075-.079.15-.158.283-.301v21.43H9.886c-3.995 0-7.244-3.25-7.244-7.243zm40.925 7.243H30.233V28.166c1.56 1.818 3.034 3.619 4.602 5.336 1.471 1.61 3.08 3.095 4.561 4.698 1.5 1.627 2.918 3.33 4.371 5l.308.353c.037-.207.073-.333.082-.462.286-3.702.563-7.404.862-11.103.03-.384-.042-.699-.308-.956a872.49 872.49 0 0 0-3.368-3.247c-.113-.108-.236-.205-.425-.368h9.894V43.56c0 3.994-3.25 7.243-7.245 7.243z" id="Shape"/></g></g></g></g></g></svg>