<svg width="162" height="228" viewBox="0 0 162 228" xmlns="http://www.w3.org/2000/svg"><title>H</title><g id="Page-1" fill="none" fill-rule="evenodd"><g id="home" transform="translate(-299 -10727)" fill="#B6B6B6"><path d="M447.545 10906.02h2.377v1.98h-43.183v-1.98h2.575c3.301 0 6.173-1.156 8.616-3.467 2.444-2.311 3.797-5.184 4.061-8.617v-51.503h-76.66v51.7c0 18.49-4.49 30.903-13.47 37.241-4.093 2.906-9.376 5.085-15.847 6.537l-.99-1.783c5.943-3.169 10.334-8.055 13.173-14.658 2.84-6.603 4.259-15.715 4.259-27.336V10783.6c0-3.433-1.255-6.339-3.764-8.716-2.509-2.377-5.48-3.565-8.914-3.565h-2.377v-1.981h43.183v1.98h-2.575c-3.434 0-6.372 1.19-8.815 3.566-2.443 2.377-3.73 5.283-3.863 8.716v52.89h76.66v-49.324c.132-16.904 3.896-28.657 11.291-35.26 4.49-3.962 10.565-6.8 18.224-8.518l.99 1.783c-5.942 3.17-10.366 8.056-13.271 14.659-2.905 6.603-4.358 15.715-4.358 27.336v106.373c0 3.433 1.221 6.371 3.665 8.814 2.443 2.444 5.447 3.665 9.013 3.665z" id="H"/></g></g></svg>