<svg width="58" height="104" viewBox="0 0 58 104" xmlns="http://www.w3.org/2000/svg"><title>hanging</title><g id="Page-1" fill="none" fill-rule="evenodd"><g id="home" transform="translate(-367 -3689)" fill="#000"><g id="HANGING-OUT-@-11-AM-Copy-+-We-will-be-hanging-o-+-Hanging-Out" transform="translate(119 3689)"><g id="Hanging-Out" transform="translate(251)"><g id="Group" transform="translate(.19)"><path d="M27.827 39.9c-2.951.42-6.113-3.36-6.113-6.09-.211-3.78 4.216-5.25 7.167-4.62 2.74.63 5.06 3.15 5.27 6.09.211 3.36-3.794 3.99-6.324 4.62-1.476.21-.843 2.73.843 2.31 4.216-.84 8.433-2.73 8.011-7.56-.422-4.62-4.849-7.56-9.065-8.19-4.638-.63-8.221 3.15-8.643 7.35-.422 4.2 4.849 9.03 8.854 8.61 1.687-.21 1.687-2.73 0-2.52zM5.903 26.04c-1.265-2.73-3.162-5.25-2.53-8.19.843-3.36 4.427-4.62 7.378-4.62 3.795 0 7.379 2.73 7.59 6.51.21 2.94-1.476 5.67-4.006 7.14-1.476.84-.21 3.15 1.265 2.31 3.795-2.1 5.27-6.3 5.27-10.5-.21-4.62-4.638-6.93-8.643-7.77-4.216-.84-8.01.84-10.54 4.2-2.952 4.2 0 8.4 1.686 12.39.843 1.47 3.162 0 2.53-1.47z" id="Shape"/><path d="M11.805 11.34V2.73c0-1.68-2.74-1.68-2.74 0 .21 2.94.21 5.67 0 8.61 0 1.68 2.74 1.68 2.74 0zM38.368 25.41c-3.795-1.26-3.373-7.35-1.265-9.87 2.108-2.31 6.324-2.52 9.065-1.89 6.746 1.47 6.324 10.29 1.475 13.44-1.475.84-.21 3.15 1.265 2.31 8.643-5.46 5.27-17.85-4.849-18.69-4.427-.42-9.486 1.89-10.962 6.3-1.475 4.2-.21 9.45 4.217 10.92 2.108.63 2.74-1.89 1.054-2.52z" id="Shape"/><path d="M44.27 12.18c.211-3.36 0-6.93-.421-10.29-.211-1.68-2.74-1.05-2.53.63.422 3.15.632 6.3.422 9.45-.211 1.89 2.53 1.89 2.53.21zM12.649 28.35c0 6.72-1.476 10.71 4.848 14.07 6.535 3.36 12.017 3.15 18.34-.42 5.06-2.94 6.958-5.46 5.904-11.55-.844-4.41 4.637-3.57 5.48-.21.844 2.94.844 6.3.844 9.24 0 5.25-9.276 7.98-13.07 9.66-1.476.63-.211 2.94 1.264 2.31 4.006-1.89 13.703-4.2 14.125-9.87.421-5.04.843-15.33-4.638-18.48-3.795-2.1-7.378.21-7.59 3.99 0 1.26.844 5.04.844 5.67.422 4.2-4.005 6.3-6.746 7.98-4.849 2.73-9.065 1.47-13.492-.63-4.427-2.1-3.584-7.77-3.373-11.76-.21-1.68-2.74-1.68-2.74 0z" id="Shape"/><path d="M33.94 50.4c-.21 10.71 2.952 20.16 6.746 30.03.844 2.1 1.687 4.2 2.32 6.51-2.32 2.52-4.638 4.83-6.957 7.35-.844-1.26-1.476-2.73-2.108-3.99-2.952-6.09-5.06-12.39-5.692-18.9-.211-1.68-2.74-1.68-2.74 0 .42 3.99 6.323 32.34 14.756 28.56 4.638-2.1 7.59-5.67 6.113-10.92-3.794-13.44-10.33-24.78-9.908-38.64 0-1.68-2.53-1.68-2.53 0z" id="Shape"/><path d="M24.665 70.35C23.4 74.97 21.714 79.59 20.027 84c-1.265 3.36-2.951 6.72-4.638 10.08-2.108-2.1-4.005-4.41-6.113-6.51.632-1.89 1.265-3.99 2.108-5.88 3.584-9.87 7.589-19.32 8.643-29.82.21-1.68-2.53-1.68-2.74 0C16.231 63.21 11.594 73.5 7.8 84c-1.476 3.99-4.005 11.34 1.054 14.28 11.173 6.51 16.654-21.21 18.551-27.09.211-1.68-2.319-2.31-2.74-.84z" id="Shape"/><path d="M18.34 49.98c-3.162 0-9.908-5.04-10.962-8.19-.632-1.89-.421-5.04-.632-7.14 0-1.26-.21-2.73-.21-3.99-.633-2.94 1.264-3.78 5.48-2.73.211 1.68 2.74 1.05 2.53-.63-.422-2.52-2.319-5.46-5.27-4.83-4.427.84-5.27 4.2-5.27 8.4 0 4.41-.422 10.92 2.53 14.7 2.529 3.15 7.8 7.56 12.015 7.35 1.476-.42 1.476-2.94-.21-2.94z" id="Shape"/></g></g></g></g></g></svg>