<svg width="114" height="116" viewBox="0 0 114 116" xmlns="http://www.w3.org/2000/svg"><title>henna</title><g id="Page-1" fill="none" fill-rule="evenodd"><g id="home" transform="translate(-336 -3170)" fill="#000"><g id="HENNA-PARTY-@-6:30-P-+-Jennifer’s-family-wi-+-Imported-Layers" transform="translate(119 3172)"><g id="Imported-Layers" transform="translate(221)"><path d="M61.73.15c1.42.65 2.238 3.923 0 4.203-.01-.292-.37-.233-.602-.3-.808-1.26.281-2.81.601-3.903" id="Fill-1"/><path d="M67.442 6.453c-.36 1.206-1.798 3.281-3.006 1.802-.559-1.657 1.908-.294 1.803-1.5-1.307-2.318-3.628-.9-3.608 1.2.017 1.791 3.95 4.543 6.012 6.605 3.945 3.937 7.782 7.957 9.022 14.41.029.771 1.173.43 1.202 1.2 7.388-3.072 12.739 7.269 18.943 5.105.695-.242 1.363-.798 1.504-2.101.281-1.006-2.488-.49-1.203-1.501.767-1.444 2.879.637 2.706 2.1.318.161 1.576-.09 1.803.902-.175.623-.63.97-.9 1.5-1.017.015-1.306-.699-1.805-1.201-.433.17-.733.469-.902.901.133 1.569 2.523.883 3.307 1.801.802 1.2.143 3.721-1.503 2.402-.774-.744.203-1.07.602-1.5-.325-.878-1.433-.973-2.707-.902-3.47 5.542-3.18 14.837-8.118 18.915 4.514 4.399 3.954 13.865 9.32 17.412.776-.428 1.703-.704 1.805-1.801-.55-1.47-1.27-.499-2.105 0-.268-.535-.84-.764-.6-1.802 4.097-1.548 4.197 3.719 1.803 5.104.782-.013 4.284-1.464 4.51.9-.166 1.52-3.246.93-3.908.3.05 1.492-1.125 4.149-3.61 3.003-.385-.922-.388-2.623.903-2.702.713.318-.645 1.383.301 1.8 1.092.193 1.18-.621 1.202-1.5-.436-1.554-1.413-1.723-3.006-1.2-5.026 1.644-11.173 8.264-18.342 8.104-.83 8.379-6.847 11.576-7.517 20.115 1.182 2.12 4.809-.059 3.308-2.402-.553.35-.209 1.594-1.503 1.201-.896-1.113.378-2.067.902-2.702 3.629.827 1.353 7.552-2.405 5.404-1.452.063-1.295 2.28-3.009 2.703-4.123 1.016-5.727-4.203-.901-3.903.282.596.979 1.429.3 2.101-1.238.237-.564-1.438-1.803-1.2-1.35.874.203 1.85.901 2.401 1.46-.245 2.276-1.131 3.008-2.102-3.646-7.867-18.001-5.042-21.048-13.51-3.657 4.291-21.829 1.43-22.25 7.805-.1 1.515 1.19 3.435 2.706 2.102.413-.946-1.974-.583-.902-1.2.278-1.624 2.058-.517 2.406.3-.192 1.81-1.688 2.318-3.91 2.1-.748-.851-1.49-1.714-1.202-3.601-2.19-.055-6.706.532-5.712-3.603.64-1.062 2.442-.964 4.209-.9.162 1.062-.255 1.545-.903 1.8-1.089.29-.305-1.296-.901-1.5-.63.373-1.13.874-1.504 1.5.039 2.476 3.735 2.486 5.112 1.201 1.807-6.124-3.572-11.618-3.608-17.712-.016-2.66 1.33-4.581 1.804-7.505-4.503-1.481-7.237-4.536-10.524-8.107-2.108-2.29-5.185-6.777-7.818-3.602-.289 1.59.567 2.038 1.504 2.402 1.59-.49-1.152-1.174 0-2.101 1.39.013 1.952.851 1.804 2.401-2.953 2.46-6.44-3.075-3.007-4.503-.96-.944-1.842-1.962-2.405-3.302.502-2.993 5.008-3.463 6.014-.6-.002 1.438-2.546 2.204-3.008.6-.193-1.556 1.433.361 1.504-.6-3.476-2.832-4.165 3.878.3 3.303 3.48-.45 8.71-14.358 14.733-15.613-3.803-6.32.02-14.699-.6-23.115a4.216 4.216 0 0 0-1.504-1.502c-1.138.165-1.74.865-1.804 2.102.37.912 1.033-.327 1.804 0 .195 1.094-.203 1.598-.6 2.1-4.006-.282-2.006-5.634.9-5.704-.563-5.918 8.734-2.941 4.21.9-1.08-.22-2.01-.594-1.803-2.1 1.33-.428.786 1.016 1.803.9.882-1.03-.224-1.998-.902-2.401-1.367.394-2.305 1.051-2.405 2.1-.496 5.183 9.586 2.585 15.335 2.703 4.633.096 7.732 1.653 9.32 3.303 2.83-7.082 12.33-7.504 13.832-15.911-.451-.351-.736-.868-1.504-.901-.753-.051-.941.461-1.202.9-.385 1.384 1.505.498.902 2.102-1.27.267-1.699-.307-2.105-.901.048-1.654 1.009-2.395 2.105-3.001 1.42-.22 1.976.427 2.705.9 1.709-1.715 4.311-1.762 5.413.6zm-5.713 3.603c-3.516 5.697-11.582 6.85-13.83 13.81-1.92-.069-2.481-1.725-4.21-2.4-5.43-2.124-13.549.991-19.244-.903-.05 7.986-3.39 16.623.3 23.118-6.95 3.266-9.536 10.892-14.732 15.911 5.328 4.286 8.472 10.754 15.635 13.21-4.364 8.504 2.249 16.482 2.104 24.316 5.544-3.67 16.02-2.418 21.65-6.002 2.95 7.96 15.41 6.426 20.746 12.007 1.623-7.586 6.645-11.777 7.817-19.814 9.524.002 12.537-6.496 20.146-8.406-.357-2.002-2.023-3.126-3.007-5.404-1.94-4.495-2.487-10.358-5.713-12.908 4.88-4.336 5.067-13.355 7.818-19.816-7.06-1.56-12.074-6.413-19.845-6.303-2.774-9.238-9.037-14.995-15.635-20.416z" id="Fill-2"/><path d="M61.73 11.858c5.808 6.109 13.076 10.76 14.432 21.316 7.642-2.112 12.46 3.215 18.642 4.502-1.295 7.913-2.384 16.035-8.42 19.214 5.22 3.495 5.52 11.9 9.322 16.811-6.177 2.664-10.375 8.824-20.446 6.605 1.29 8.63-4.081 13.111-6.014 19.515-7.751-2.969-17.4-4.042-19.845-12.31-3.599 5.615-13.832 4.603-20.145 7.507-1.996-7.28-5.993-16.772-1.203-23.718-7.638-1.379-10.741-7.287-15.935-11.108C17 54.66 19.766 47.015 27.452 44.28c-5.272-4.627-2.44-14.027-1.804-21.614 8.464.152 17.797-1.79 22.85 3.302 2.23-6.88 9.99-8.238 13.231-14.11zm0 2.402c-4.22 3.838-17.768 11.518-8.42 17.413 2.174-.877 2.618-1.504 4.21-1.802 8.654-1.625 9.244 9.013 17.138 4.503-.396-10.612-6.809-15.218-12.929-20.114zM48.498 28.37c-1.357-6.114-15.117-4.812-21.047-4.503-2.713 6.656-3.78 24.218 7.216 18.312 1.094-3.91 3.53-6.48 7.517-7.504-.368-1.915-3.062-5.011 0-6.006 1.944.567 1.735 4.04.902 5.705 3.571 1.856 5.974-3.471 5.412-6.004zm-4.81 13.51c-5.213.1-9.18 1.443-12.63 3.301 2.664 3.346 2.164 9.85 5.714 12.31-3.355 2.554-4.28 7.534-5.713 12.008 4.937.374 6.707 3.91 12.628 3.302.915 4.592 4.096 6.92 6.013 10.508 2.385-3.424 8.147-3.476 10.223-7.204 4.012 1.139 8.637-1.415 12.328.3-.249-4.098.756-7.705 0-11.41 2.868-2.84 5.001-6.415 8.72-8.404-3.321-2.388-4.935-6.482-8.419-8.708 1.7-3.168-1.001-7.637.302-11.407-4.343.268-10.02-.797-12.63 1.2-2.88-3.027-7.5-4.317-10.524-7.204-1.378 4.35-6.017 6.631-6.013 11.408zm11.425-9.308c1.462 1.629 2.398-.475 3.908-.6 3.213-.265 4.66 2.105 7.217 3.303.251-3.573-8.152-5.927-11.125-2.703zm18.943 7.206c4.516 1.144 6.862 7.375 4.51 12.61 1.268 2.516 3.717 4.204 6.616 3.602 6.236-1.297 6.976-11.496 8.118-17.713-4.957-2.035-18.629-9.55-19.244 1.501zM36.472 41.88c1.596-.109 1.68-1.726 2.105-3.002 1.052-1.853 5.094-.718 5.713-3.003-3.845-.414-7.356 2.047-7.818 6.005zm40.892 4.203c.374 1.53-1.018 3.345.301 4.803 1.478-3.846.034-8.715-3.608-9.307-.086 2.375 2.787 2.374 3.307 4.504zM28.053 55.99c.425-2.596 3.395-4.453 3.608-6.305.266-2.3-1.248-3.207-2.405-4.803-8.23 2.088-10.69 9.94-15.635 15.31 5.166 3.248 7.1 9.723 15.635 9.607 1.229-1.273 1.008-3.997 1.804-5.704-2.482-2.492-3.604-4.458-3.007-8.105zm3.608 6.604c.931-1.58-.782-2.197-.902-3.601-.225-2.64 2.073-4.477 1.504-6.906-3.626 1.278-3.774 8.646-.602 10.507zm53.22-5.104c-2.747-.14-4.528.684-5.713 2.102.52.48.881 1.122 1.202 1.801 1.64-.711 3.86-4.463 6.014-1.8-1.094 2.009-2.66 3.549-5.713 3.601-.262 5.242-3.398 7.615-7.216 9.307-1.056 5.554 3.032 7.251 6.915 7.206 5.477-.063 10.51-5.455 13.531-6.605-3.187-5.023-3.312-13.104-9.02-15.612zm-7.517 3.903c2.775 4.113-1.871 6.886-3.609 9.307 3.422.019 7.344-6.435 4.21-10.207-.027.473-.766.234-.601.9zM29.556 71c-4.986 6.515-1.752 14.947.3 22.216 7.92-1.067 23.261-2.978 17.14-12.009-7.016 1.446-9.876-3.708-11.125-9.005-1.848-.659-3.5-1.51-6.315-1.202zm16.237 9.006c-.344-1.958-3.428-1.18-4.81-2.101-1.334-1.37-1.827-3.58-3.308-4.803.6 4.217 3.388 7.807 8.118 6.904zm27.662-1.2c-1.435-1.02-6.177-3.3-6.614 0 2.429.577 5.677.336 5.712 3.302-2.135 2.415-5.602-.514-6.916-1.802-1.665 1.743-4.595 2.784-7.817 2.102 1.76 4.594-3.133 7.378-3.608 3.603-.266-2.105 3.36-2.931 2.405-4.503-8.462-.57-6.663 6.852-3.308 10.507 3.815 4.156 11.076 4.251 15.334 6.304 2.288-5.826 7.671-11.257 4.812-19.513zm-16.536 1.5c2.749 2.574 8.257.634 8.718-2.702-2.471 1.31-4.977 3.593-8.718 2.702z" id="Fill-3"/><path d="M20.536 16.66c-1.8-.167-3.388-1.932-3.006-3.301 1.213-.381 4.177 1.303 3.006 3.301" id="Fill-4"/><path d="M59.924 21.465c3.986.824 1.88 6.49 0 8.106-1.112-1.92-1.307-6.307 0-8.106" id="Fill-5"/><path d="M54.512 22.966c2.765.188 4.056 4.21 2.707 6.605-1.689-1.25-3.76-3.607-2.707-6.605" id="Fill-6"/><path d="M66.239 23.566c.871 2.912-.547 6.029-3.308 6.305-.147-3.18.707-6.859 3.308-6.305" id="Fill-7"/><path d="M52.709 26.267c.97 1.034 2.012 1.996 2.104 3.903-2.016 1.382-6.228-3.723-2.104-3.903" id="Fill-8"/><path d="M65.939 31.972c-.376-2.116 1.429-4.275 3.307-5.103 2.183 1.82.003 5.894-3.307 5.103" id="Fill-9"/><path d="M37.073 28.97c2.392.126 3.47 4.046 2.105 6.004-1.645-.87-3.715-3.801-2.105-6.004" id="Fill-10"/><path d="M36.773 36.476c-1.328-.357-4.832-1.58-5.112-3.302-.77-4.743 6.128-.924 5.112 3.302" id="Fill-11"/><path d="M35.27 38.878c-2.571-.212-5.72-.291-6.014-2.103-.613-3.758 6.26-1.398 6.014 2.103" id="Fill-12"/><path d="M76.763 35.575c1.95.423 1.054 3.477.3 4.503-1.621-.036-2.39-4.36-.3-4.503" id="Fill-13"/><path d="M82.175 36.476c.562 2.303-1.187 4.518-3.308 5.103-.854-2.506-.006-5.772 3.308-5.103" id="Fill-14"/><path d="M87.887 39.778c-.527 3.476-3.484 4.526-7.216 4.804 1.382-2.337 3.562-6.697 7.216-4.804" id="Fill-15"/><path d="M34.668 40.379c-.436 1.765-2.634 1.773-4.51 2.101-.407-.694-1.209-.994-.902-2.402 1.322-.972 4.372-.746 5.412.301" id="Fill-16"/><path d="M87.286 47.883c-1.466 1.02-5.515.885-6.313-.6.985-1.637 6.596-3.213 6.313.6" id="Fill-17"/><path d="M28.955 52.087c-2.032.422-5.593-.216-5.413-3.003 2.525-1.712 4.557 1.169 5.413 3.003" id="Fill-18"/><path d="M80.07 49.685c2.626.08 5.952-.54 6.314 1.802-1.247 2.738-7.187.382-6.313-1.802" id="Fill-19"/><path d="M27.752 55.69c-2.695.843-6.278.098-7.216-1.802 1.771-2.985 6.151.248 7.216 1.801" id="Fill-20"/><path d="M26.85 58.391c-1.69 1.276-5.185 2.884-7.216 1.201.09-2.922 5.816-3.041 7.217-1.2" id="Fill-21"/><path d="M4.6 58.993c.261 1.16-.734 1.067-.902 1.799-1.317-.185-2.589-.416-3.308-1.2.531-1.636 3.372-2.455 4.21-.6" id="Fill-22"/><path d="M28.053 61.393c-.489 2.461-3.652 4.61-6.014 3.303.13-2.804 3.737-3.63 6.014-3.303" id="Fill-23"/><path d="M29.556 63.194c.141 2.644.225 5.228-2.705 4.804-.855-2.219.706-4.45 2.705-4.804" id="Fill-24"/><path d="M88.189 64.095c-.068 2.8-6.055 2.705-7.216.9 1.429-1.186 5.366-2.898 7.216-.9" id="Fill-25"/><path d="M80.37 67.998c2.786.722 7.593-.576 8.12 2.402-1.735 3.826-7.137.021-8.12-2.402" id="Fill-26"/><path d="M78.568 70.1c2.336.97 4.605 2.005 4.508 5.404-2.875.663-4.487-2.247-4.508-5.404" id="Fill-27"/><path d="M76.162 71.901c1.7.802 2.879 2.13 2.705 4.803-2.599.247-3.54-2.605-2.705-4.803" id="Fill-28"/><path d="M36.171 75.203c-.821 1.625-3.365 2.984-5.713 2.102-.295-2.72 3.907-3.393 5.713-2.102" id="Fill-29"/><path d="M36.773 78.206c-.909 2.176-2.44 5.057-5.112 4.503-1.027-3.042 2.547-5.09 5.112-4.503" id="Fill-30"/><path d="M39.178 80.607c-.72 3.302-1.39 8.194-5.713 6.905.074-4.13 2.247-6.164 5.713-6.905" id="Fill-31"/><path d="M42.185 81.508c.782 2.533.331 6.299-2.105 6.604-2.004-1.88-.422-6.418 2.105-6.604" id="Fill-32"/><path d="M44.29 82.108c2 .812 3.037 6.827-.602 6.605-1.07-1.754-.72-5.456.602-6.605" id="Fill-33"/><path d="M64.735 82.108c2.31 1.098 5.674 1.14 6.014 4.204a1.518 1.518 0 0 0-.902.9c-2.991-.416-4.339-2.472-5.112-5.104" id="Fill-34"/><path d="M59.624 83.91c1.897.934 3.424 5.766 1.203 7.206-3.054-.321-2.127-5.26-1.203-7.206" id="Fill-35"/><path d="M66.54 92.015c-3.707-.3-3.412-4.597-4.21-7.806 2.06.59 5.162 4.209 4.21 7.806" id="Fill-36"/><path d="M25.046 101.321c.07 2.072-1.283 2.722-2.706 3.304-.88-1.62.63-4.636 2.706-3.304" id="Fill-37"/><path d="M71.952 107.026c1.497.307 1.512 2.093 1.503 3.903-1.423-.08-1.545-1.459-2.405-2.102-.013-.913.635-1.167.902-1.8" id="Fill-38"/><path d="M59.324 39.778c3.048-3.29 7.818-2.026 12.026-.6.16 3.241 1.636 8.097-.6 10.207 4.234.875 5.488 4.727 8.117 7.206-3.417 1.79-4.402 6.011-8.118 7.504 1.43 3.007.732 7.492-.301 10.508-3.818-.254-7.874 1.583-11.124 0-1.91 3.195-5.295 4.922-9.322 6.004-2.137-2.67-4.444-5.17-5.111-9.307-5.016 1.304-7.728-2.016-10.824-3.602 1.446-3.36 1.003-8.605 4.21-10.208-2.313-2.631-5.437-5.933-3.91-11.407 3.04-1.48 6.83-4.168 10.824-2.103-.657-4.991 3.107-7.809 5.412-10.806 2.983 2.125 7.285 2.933 8.72 6.604zm-8.12-4.503c-1.898 1.205-3.378 2.829-4.509 4.803-.176 2.777.08 5.124 1.203 6.605 1.171.069 1.558-.645 2.405-.901-6.324-5.02 4.368-13.173 6.014-4.803-.823 5.03-8.48.397-3.308-1.801-3.705-1.565-4.348 4.776-.601 5.704 1.206.298 2.67-.802 4.811-.3.51-1.292.95-2.654 1.503-3.904-1.533-2.773-4.385-4.229-7.517-5.403zm12.93 3.302c-3.159.32-7.217 5.508-3.307 6.905-.4-6.812 7.652-7.024 8.42-2.402 1.227 7.402-9.65 3.201-4.512-.6 1.55-.346 1.78.625 2.707.9-.57-1.333-1.036-2.431-2.405-2.401-3.978.088-2.524 7.546 0 9.307 5.978.766 5.746-4.67 5.41-10.208-2.423.163-3.824-1.753-6.313-1.5zM52.71 41.58c.805.488 1.142.69 1.803 0-.034-.765-.056-1.545-.902-1.501.32 1.12-1.127.475-.901 1.5zm12.628 2.701c-.094 1.196.578 1.627 1.803 1.502-.083-.526.847-1.497 0-1.802-.358 1.05-1.028.84-1.803.3zm-29.768 2.703c-1.09 6.903 2.798 10.403 8.72 9.307v-2.101c-6.674 2.09-10.126-8.174-2.405-8.407 5.546 1.016.352 9.996-2.105 3.903.201-1 .773-1.63 2.105-1.502.386 1.323-1.439 1.23-.602 2.103 1.27.266 1.699-.307 2.106-.901.053-1.054-1.016-.987-1.203-1.801-1.461.142-2.563.644-3.308 1.5.305 6.285 8.16 3.011 8.119-1.2-.836-.967-1.171-2.434-2.105-3.302-4.065-.917-6.903.806-9.322 2.401zm14.433 2.402c1.247-.345 1.172.631 2.105.6.164-1.237.99-1.814 1.804-2.401.94.363 1.307 1.296 2.406 1.5.127-.974 1.25-.953 1.503-1.8-3.2-.898-6.499.173-7.818 2.1zm9.922.3c-.573.427-.861 1.14-1.804 1.201-1.064.163-.739-1.064-1.803-.9.02 1.122-.483 1.718-1.203 2.1-2.49.527-3.039-2.855-4.21-.3 1.564.404 4.105 1.219 3.007 3.303h1.504c-1.47-4.636 3.808-2.795 6.012-3.602.604.499 1.398.805 1.504 1.8-.429.073-.506.495-.902.601-1.496.488-1.79-1.126-2.705-.3.05.45-.108 1.108.3 1.201 1.16-.747 3.08.319 3.608 1.2-.187.815-1.256.747-1.203 1.802.402.3.59.81 1.203.9 1.567-4.36-.498-9.232-3.908-10.508-.224.925.825.578.6 1.502zm-1.202.3c-.021-.88-.108-1.692-1.203-1.5-.126 1.025.092 1.71 1.203 1.5zm-6.013.3c.814.187.748 1.254 1.803 1.202.094-.708 1.044-.56.903-1.502-.47-1.596-2.493-1.349-2.706.3zm-5.112 2.103c.876.225 1.49.712 2.104 1.2.808-1.361.55-2.827-.901-3.302a11.422 11.422 0 0 1-1.203 2.102zm27.06 6.303c2.93-2.482-.45-6.487-2.705-7.505-2.245.06-4.632-.021-6.013.9.217.684.267 1.534.6 2.103 3.794-2.42 9.286.235 8.119 4.502zM61.73 53.288c.085-.785-.11-1.292-.902-1.201-.085.784.11 1.291.902 1.2zM50.603 56.59c-.171 1.53-2.719.685-3.306 1.8 1.014 1.889 1.82 3.988 3.908 4.803-.04-1.259.547-1.677 0-2.7-.926-.225-.578.824-1.504.599-.646-.555-1.526-.878-1.202-2.402.807-.642 1.598-.642 2.405 0 .254-1.44 1.297-1.97 2.706-1.5V55.39c-1.814.747-3.058-.164-3.909-1.201-1.029 1.178 1.369.857.902 2.402zm-3.607-.902c.523.023.935-.067 1.202-.3.09-.79-.416-.984-1.202-.9v1.2zm23.152 7.505c2.295-.06 3.473-3.85 3.909-3.902-1.227.147-1.308 1.273-2.405 1.201-5.022-.331-2.335-7.98.6-3.302-.673.8-1.506-.424-2.104.3.3 2.255 3.893.993 3.007-1.501-3.52-3.151-7.84.442-7.518 4.802 2.717-.097 2.427 2.46 4.51 2.402zM56.317 55.69c-.446 1.747 1.045 1.559 2.405 1.502.488 1.013 1.664 1.34 1.503 3.001-.85-.248-.778.423-1.503.301.385.917 1.124 1.479 1.503 2.402.715-.99 2.008-1.398 2.105-3.003-1.254.174-2.199-.958-1.503-1.801-1.168-.435-2.424-.782-2.105-2.701-.968-.066-1.272.53-2.405.3zm3.607 1.2c.235.068.594.01.601.302.847-.057 1.282-.522 1.204-1.502-.725.122-.653-.548-1.504-.3-.251.348-.396.806-.3 1.5zm-12.026 0c.618.624 1.525 0 1.503-.9-.944-.142-1.229.375-1.503.9zm-6.616 9.608c4.79.33 5.134-6.438 2.406-8.706-6.466-1.627-7.533 5.184-7.517 9.907 3.166 5.253 16.323 1.024 10.825-4.504-.288 6.172-9.424 5.442-9.02.6.088-1.074 1.654-3.616 3.607-3.602 5.687.04.095 9.31-1.202 3.002 1.346-.443.924.88 2.104.6-.006-.893.029-1.828-.902-1.8-1.49-.115-2.513 3.637-.3 4.503zm13.23-6.605c.53-.172 1.767.364 1.805-.3-.664-.037-.128-1.273-.3-1.8h-1.505c.314.849.314 1.25 0 2.1zm-2.104 1.802c.597.003.382.818 1.202.6-.164-.436.352-1.552-.3-1.502-.033.568-.994.21-.902.902zm2.104.9c.87-.132 1.372-.633 1.504-1.501-.407-.094-.575-.427-1.203-.301-.346.355-.34 1.063-.3 1.802zM69.246 72.5c4.43-4.684-3.03-14.036-6.014-8.406 4.294.961 5.366 3.057 4.81 6.005-.866 4.612-7.793 2.966-7.817-.3-.04-5.316 9.132-2.246 3.609.6-.893-.764.765-1.464 0-2.101-1.08-.177-1.455.348-2.105.6-.098 2.163 2.373 2.806 4.21 2.101 2.875-4.728-5.198-7.716-7.517-3.902.844 1.309 1.23 4.163.6 6.004 2.79 1.862 7.766 1.042 10.224-.6zM53.31 64.395c1.765-.138 4.3.49 4.81-.9-1.221-1.174-4.275-.703-4.81.9zM46.394 71c-.842 3.443 2.47 5.47 4.21 7.806 6.267.406 9.203-6.684 6.013-12.009h-2.105c2.372 3.475.94 8.359-2.104 9.007-2.584.55-4.876-1.035-4.81-3.602.086-3.438 5.716-4.746 6.012-.601-.59 1.03-2.2 2.582-3.007.9-.642-1.542 1.532-.273 1.203-1.5-3.229-1.97-2.968 3.536 0 3.302 3.8-.301 2.369-8.048-1.503-8.707.143 2.712-3.404 3.337-3.909 5.404z" id="Fill-39"/></g></g></g></g></svg>