<svg width="329" height="262" viewBox="0 0 329 262" xmlns="http://www.w3.org/2000/svg" xmlns:xlink="http://www.w3.org/1999/xlink"><title>hosted</title><defs><path d="M268.456 59.442v-38.25L87.886.876l14.09 20.316L86.842 38.38l181.614 21.06m51.995 10.803L54.492 58.172l-.234 38.281 266.218 32.527-.025-58.736M1.283 127.451l-.772 57.353 267.97 10.328-.607-38.174L1.283 127.451m53.74 68.231l-1.923 36.5 180.337 21.838-14.61-22.4 15.129-17.189-178.932-18.749" id="path-1"/></defs><g id="Page-1" fill="none" fill-rule="evenodd"><g id="home" transform="translate(-220 -1413)"><g id="Hosted-at-BG-+-Hosted-at-banner" transform="translate(-18 1063)"><g id="Hosted-at-banner" transform="translate(242 353)"><g id="3-tier-banner"><g id="Group-51"><mask id="mask-2" fill="#fff"><use xlink:href="#path-1"/></mask><path d="M368.542 144.766L169.079 343.925l.747.739 199.462-199.152-.746-.746" id="Fill-1" fill="#373737" mask="url(#mask-2)"/><path d="M164.321 339.168l.747.745 199.463-199.152-.747-.745-199.463 199.152" id="Fill-3" fill="#373737" mask="url(#mask-2)"/><path d="M159.564 334.418l.74.745 199.462-199.152-.74-.745-199.462 199.152" id="Fill-4" fill="#373737" mask="url(#mask-2)"/><path d="M154.806 329.667l.74.746L355.009 131.26l-.747-.752-199.456 199.158" id="Fill-5" fill="#373737" mask="url(#mask-2)"/><path d="M150.042 324.917l.746.739 199.463-199.152-.747-.746-199.462 199.159" id="Fill-6" fill="#373737" mask="url(#mask-2)"/><path d="M145.284 320.16l.746.745 199.457-199.152-.74-.745L145.283 320.16" id="Fill-7" fill="#373737" mask="url(#mask-2)"/><path d="M140.526 315.41l.74.745L340.73 117.003l-.74-.745L140.525 315.41" id="Fill-8" fill="#373737" mask="url(#mask-2)"/><path d="M135.762 310.66l.746.738 199.463-199.152-.747-.739L135.762 310.66" id="Fill-9" fill="#373737" mask="url(#mask-2)"/><path d="M131.004 305.902l.746.746 199.463-199.152-.747-.74-199.462 199.146" id="Fill-10" fill="#373737" mask="url(#mask-2)"/><path d="M126.246 301.152l.747.745 199.462-199.152-.746-.745-199.463 199.152" id="Fill-11" fill="#373737" mask="url(#mask-2)"/><path d="M121.488 296.401l.747.746L321.697 97.995l-.753-.746-199.456 199.152" id="Fill-12" fill="#373737" mask="url(#mask-2)"/><path d="M116.73 291.651l.74.74L316.94 93.243l-.753-.745L116.73 291.651" id="Fill-13" fill="#373737" mask="url(#mask-2)"/><path d="M111.966 286.894l.747.746L312.182 88.494l-.753-.752-199.463 199.152" id="Fill-14" fill="#373737" mask="url(#mask-2)"/><path d="M107.208 282.144l.747.745L307.417 83.737l-.74-.745-199.469 199.152" id="Fill-15" fill="#373737" mask="url(#mask-2)"/><path d="M102.45 277.393l.747.752L302.66 78.987l-.747-.746L102.45 277.393" id="Fill-16" fill="#373737" mask="url(#mask-2)"/><path d="M97.693 272.643l.74.745L297.902 74.236l-.747-.745L97.693 272.643" id="Fill-17" fill="#373737" mask="url(#mask-2)"/><path d="M92.928 267.886l.753.752L293.144 69.486l-.747-.746L92.928 267.886" id="Fill-18" fill="#373737" mask="url(#mask-2)"/><path d="M88.17 263.142l.747.746L288.38 64.729l-.747-.739L88.171 263.142" id="Fill-19" fill="#373737" mask="url(#mask-2)"/><path d="M83.413 258.392l.746.739L283.622 59.979l-.747-.746L83.413 258.392" id="Fill-20" fill="#373737" mask="url(#mask-2)"/><path d="M78.655 253.635l.746.745L278.865 55.228l-.746-.745L78.655 253.635" id="Fill-21" fill="#373737" mask="url(#mask-2)"/><path d="M73.89 248.884l.754.746L274.1 50.472l-.74-.74L73.89 248.884" id="Fill-22" fill="#373737" mask="url(#mask-2)"/><path d="M69.14 244.134l.74.745L269.341 45.727l-.74-.751L69.139 244.134" id="Fill-23" fill="#373737" mask="url(#mask-2)"/><path d="M64.375 239.384l.747.739L264.584 40.97l-.746-.746L64.375 239.384" id="Fill-24" fill="#373737" mask="url(#mask-2)"/><path d="M59.617 234.627l.747.745L259.826 36.22l-.746-.745L59.617 234.627" id="Fill-25" fill="#373737" mask="url(#mask-2)"/><path d="M54.86 229.876l.74.746L255.062 31.47l-.74-.746L54.859 229.876" id="Fill-26" fill="#373737" mask="url(#mask-2)"/><path d="M50.095 225.126l.753.745L250.304 26.72l-.746-.745L50.095 225.126" id="Fill-27" fill="#373737" mask="url(#mask-2)"/><path d="M45.337 220.376l.747.739L245.547 21.963l-.747-.74L45.337 220.376" id="Fill-28" fill="#373737" mask="url(#mask-2)"/><path d="M40.58 215.619l.746.745L240.79 17.212l-.747-.745L40.58 215.619" id="Fill-29" fill="#373737" mask="url(#mask-2)"/><path d="M35.822 210.868l.746.746L236.024 12.462l-.74-.746L35.822 210.868" id="Fill-30" fill="#373737" mask="url(#mask-2)"/><path d="M31.064 206.118l.74.739L231.273 7.705l-.753-.74L31.064 206.119" id="Fill-31" fill="#373737" mask="url(#mask-2)"/><path d="M26.306 201.361l.74.746L226.516 2.96l-.754-.752L26.306 201.361" id="Fill-32" fill="#373737" mask="url(#mask-2)"/><path d="M21.542 196.61l.746.746L221.751-1.796l-.74-.745L21.54 196.61" id="Fill-33" fill="#373737" mask="url(#mask-2)"/><path d="M16.784 191.86l.747.746L216.993-6.546l-.753-.746L16.784 191.86" id="Fill-34" fill="#373737" mask="url(#mask-2)"/><path d="M12.026 187.11l.74.745 199.47-199.152-.747-.745L12.026 187.11" id="Fill-35" fill="#373737" mask="url(#mask-2)"/><path d="M7.262 182.353l.747.752L207.47-16.047l-.74-.746L7.26 182.353" id="Fill-36" fill="#373737" mask="url(#mask-2)"/><path d="M2.504 177.603l.747.751L202.713-20.804l-.74-.74L2.504 177.604" id="Fill-37" fill="#373737" mask="url(#mask-2)"/><path d="M-2.254 172.852l.747.746L197.955-25.554l-.746-.746L-2.254 172.852" id="Fill-38" fill="#373737" mask="url(#mask-2)"/><path d="M-7.012 168.102l.747.745L193.198-30.305l-.747-.745L-7.012 168.102" id="Fill-39" fill="#373737" mask="url(#mask-2)"/><path d="M-11.77 163.351l.747.746L188.44-35.062l-.747-.739-199.462 199.152" id="Fill-40" fill="#373737" mask="url(#mask-2)"/><path d="M-16.527 158.6l.74.74L183.676-39.812l-.747-.74-199.456 199.153" id="Fill-41" fill="#373737" mask="url(#mask-2)"/><path d="M-21.291 153.844l.746.746L178.918-44.563l-.747-.745L-21.29 153.844" id="Fill-42" fill="#373737" mask="url(#mask-2)"/><path d="M-26.05 149.094l.747.745L174.16-49.313l-.747-.745-199.462 199.152" id="Fill-43" fill="#373737" mask="url(#mask-2)"/><path d="M-30.807 144.343l.74.746L169.396-54.063l-.74-.746-199.463 199.152" id="Fill-44" fill="#373737" mask="url(#mask-2)"/><path d="M-35.565 139.593l.74.745L164.638-58.814l-.74-.745-199.463 199.152" id="Fill-45" fill="#373737" mask="url(#mask-2)"/><path d="M-40.33 134.836l.747.745L159.88-63.57l-.747-.739-199.462 199.146" id="Fill-46" fill="#373737" mask="url(#mask-2)"/><path d="M-45.087 130.092l.747.739L155.122-68.321l-.746-.745-199.463 199.158" id="Fill-47" fill="#373737" mask="url(#mask-2)"/><path d="M-49.845 125.335l.747.746L150.364-73.071l-.746-.746-199.463 199.152" id="Fill-48" fill="#373737" mask="url(#mask-2)"/><path d="M-54.603 120.585l.747.745L145.606-77.828l-.746-.74-199.463 199.153" id="Fill-49" fill="#373737" mask="url(#mask-2)"/><path d="M-59.36 115.834l.74.74L140.849-82.58l-.753-.739-199.457 199.152" id="Fill-50" fill="#373737" mask="url(#mask-2)"/></g><path d="M268.456 59.442v-38.25L87.886.876l14.09 20.316L86.842 38.38l181.614 21.06zm-163.02-40.65L96.637 6.1l167.6 18.85v29.767L95.32 35.127l9.82-11.156 2.176-2.476-1.88-2.704z" id="Fill-52" fill="#353535"/><path d="M320.45 70.244L54.493 58.172l-.234 38.281 266.218 32.527-.025-58.736zM58.498 92.726l.184-30.145 257.556 11.687.02 49.949-257.76-31.49z" id="Fill-53" fill="#353535"/><path d="M1.283 127.451l-.772 57.353 267.97 10.328-.607-38.174L1.283 127.451zm3.505 53.31l.652-48.616 258.277 28.591.481 30.019-259.41-9.994z" id="Fill-54" fill="#353535"/><path d="M55.024 195.682l-1.924 36.5 180.337 21.838-14.61-22.4 15.129-17.189-178.932-18.749zM215.29 233.92l9.68 14.833-167.448-20.278 1.474-28.143 166.405 17.442-11.857 13.468 1.746 2.678z" id="Fill-55" fill="#353535"/><path d="M.511 126.1l319.934-55.9.038 58.755L.51 184.86V126.1" id="Fill-56" fill="#353535"/><path d="M54.214 58.223V96.44L268.456 59.36V21.14L54.214 58.223" id="Fill-57" fill="#353535"/><path d="M53.075 193.983V232.2l215.388-37.075-.576-38.218-214.812 37.075" id="Fill-58" fill="#353535"/><path d="M264.16 31.609c-.664 0-1.202-.506-1.202-1.131 0-.62.538-1.124 1.202-1.124.658 0 1.196.505 1.196 1.124 0 .625-.538 1.13-1.196 1.13" id="Fill-59" fill="#FFF"/><path d="M264.122 27.389c-.664 0-1.208-.505-1.208-1.13 0-.626.544-1.125 1.208-1.125.658 0 1.196.499 1.196 1.124 0 .626-.538 1.13-1.196 1.13" id="Fill-60" fill="#FFF"/><path d="M264.16 35.829c-.664 0-1.202-.506-1.202-1.125 0-.625.538-1.13 1.202-1.13.658 0 1.196.505 1.196 1.13 0 .62-.538 1.125-1.196 1.125" id="Fill-61" fill="#FFF"/><path d="M264.16 40.055c-.664 0-1.202-.512-1.202-1.131 0-.625.538-1.125 1.202-1.125.658 0 1.196.5 1.196 1.125 0 .619-.538 1.13-1.196 1.13" id="Fill-62" fill="#FFF"/><path d="M264.16 44.274c-.664 0-1.202-.505-1.202-1.13 0-.62.538-1.125 1.202-1.125.658 0 1.196.506 1.196 1.125 0 .625-.538 1.13-1.196 1.13" id="Fill-63" fill="#FFF"/><path d="M264.16 48.494c-.664 0-1.202-.505-1.202-1.124 0-.626.538-1.13 1.202-1.13.658 0 1.196.504 1.196 1.13 0 .619-.538 1.124-1.196 1.124" id="Fill-64" fill="#FFF"/><path d="M264.16 52.714c-.664 0-1.202-.505-1.202-1.124 0-.626.538-1.131 1.202-1.131.658 0 1.196.505 1.196 1.13 0 .62-.538 1.125-1.196 1.125" id="Fill-65" fill="#FFF"/><path d="M264.16 56.94c-.664 0-1.202-.505-1.202-1.13 0-.62.538-1.125 1.202-1.125.658 0 1.196.505 1.196 1.124 0 .626-.538 1.131-1.196 1.131" id="Fill-66" fill="#FFF"/><path d="M258.504 56.789a1.202 1.202 0 0 1 .98-1.384 1.196 1.196 0 0 1 .405 2.356 1.2 1.2 0 0 1-1.385-.972" id="Fill-67" fill="#FFF"/><path d="M254.037 57.56c-.107-.651.323-1.27.968-1.384a1.195 1.195 0 0 1 1.386.979c.114.65-.317 1.27-.968 1.377a1.198 1.198 0 0 1-1.386-.973" id="Fill-68" fill="#FFF"/><path d="M249.564 58.336a1.212 1.212 0 0 1 .974-1.39 1.192 1.192 0 0 1 1.38.98c.12.65-.323 1.27-.968 1.383a1.206 1.206 0 0 1-1.386-.973" id="Fill-69" fill="#FFF"/><path d="M245.097 59.107a1.21 1.21 0 0 1 .968-1.39 1.2 1.2 0 0 1 .418 2.363 1.194 1.194 0 0 1-1.386-.973" id="Fill-70" fill="#FFF"/><path d="M240.624 59.878a1.202 1.202 0 0 1 .975-1.384 1.202 1.202 0 0 1 1.385.973c.114.65-.323 1.27-.974 1.39a1.21 1.21 0 0 1-1.386-.98" id="Fill-71" fill="#FFF"/><path d="M236.157 60.648c-.114-.65.323-1.27.968-1.383a1.199 1.199 0 0 1 1.386.979c.114.65-.323 1.27-.968 1.383a1.202 1.202 0 0 1-1.386-.979" id="Fill-72" fill="#FFF"/><path d="M231.69 61.419c-.12-.644.323-1.27.969-1.377a1.2 1.2 0 0 1 1.385.973 1.2 1.2 0 0 1-.974 1.383 1.192 1.192 0 0 1-1.38-.979" id="Fill-73" fill="#FFF"/><path d="M227.217 62.196c-.113-.65.323-1.27.975-1.383a1.191 1.191 0 0 1 1.379.979c.114.65-.323 1.27-.968 1.377a1.194 1.194 0 0 1-1.386-.973" id="Fill-74" fill="#FFF"/><path d="M222.744 62.967a1.2 1.2 0 0 1 .975-1.384 1.205 1.205 0 0 1 1.385.98 1.2 1.2 0 0 1-.974 1.383 1.207 1.207 0 0 1-1.386-.98" id="Fill-75" fill="#FFF"/><path d="M218.277 63.744a1.203 1.203 0 0 1 .968-1.39 1.203 1.203 0 0 1 1.386.98 1.194 1.194 0 1 1-2.354.41" id="Fill-76" fill="#FFF"/><path d="M213.81 64.514a1.193 1.193 0 0 1 .969-1.383 1.198 1.198 0 0 1 1.385.973 1.2 1.2 0 0 1-.974 1.383 1.188 1.188 0 0 1-1.38-.973" id="Fill-77" fill="#FFF"/><path d="M209.338 65.285c-.114-.65.322-1.27.974-1.383a1.196 1.196 0 0 1 1.38.979c.113.65-.324 1.27-.975 1.377a1.187 1.187 0 0 1-1.38-.973" id="Fill-78" fill="#FFF"/><path d="M204.87 66.056c-.12-.645.323-1.27.969-1.377a1.193 1.193 0 0 1 1.385.972 1.2 1.2 0 0 1-.974 1.384 1.192 1.192 0 0 1-1.38-.98" id="Fill-79" fill="#FFF"/><path d="M200.398 66.833a1.193 1.193 0 0 1 .974-1.384 1.196 1.196 0 0 1 .405 2.356 1.195 1.195 0 0 1-1.38-.972" id="Fill-80" fill="#FFF"/><path d="M195.93 67.603c-.113-.65.317-1.27.969-1.383a1.198 1.198 0 0 1 1.385.973 1.197 1.197 0 0 1-.974 1.383 1.188 1.188 0 0 1-1.38-.973" id="Fill-81" fill="#FFF"/><path d="M191.458 68.374c-.114-.65.316-1.27.974-1.383a1.199 1.199 0 0 1 .405 2.362 1.2 1.2 0 0 1-1.38-.979" id="Fill-82" fill="#FFF"/><path d="M186.99 69.151c-.12-.65.317-1.276.969-1.39a1.207 1.207 0 0 1 1.385.98 1.2 1.2 0 0 1-.98 1.383 1.185 1.185 0 0 1-1.373-.973" id="Fill-83" fill="#FFF"/><path d="M182.511 69.922a1.202 1.202 0 0 1 .981-1.384 1.196 1.196 0 0 1 .405 2.356 1.204 1.204 0 0 1-1.386-.972" id="Fill-84" fill="#FFF"/><path d="M178.045 70.692a1.2 1.2 0 0 1 .974-1.383 1.205 1.205 0 0 1 1.386.98c.107.65-.323 1.269-.975 1.376a1.193 1.193 0 0 1-1.385-.973" id="Fill-85" fill="#FFF"/><path d="M173.571 71.47a1.207 1.207 0 0 1 .981-1.39 1.199 1.199 0 0 1 .405 2.362 1.2 1.2 0 0 1-1.386-.973" id="Fill-86" fill="#FFF"/><path d="M169.105 72.24c-.114-.65.322-1.27.974-1.383a1.188 1.188 0 0 1 1.38.973 1.188 1.188 0 0 1-.969 1.383 1.198 1.198 0 0 1-1.385-.973" id="Fill-87" fill="#FFF"/><path d="M164.638 73.01c-.114-.65.322-1.269.974-1.383a1.19 1.19 0 0 1 1.373.973c.12.65-.316 1.276-.968 1.39a1.197 1.197 0 0 1-1.38-.98" id="Fill-88" fill="#FFF"/><path d="M160.165 73.782c-.114-.651.322-1.27.974-1.384a1.2 1.2 0 0 1 1.38.98c.113.65-.317 1.269-.969 1.383a1.202 1.202 0 0 1-1.385-.98" id="Fill-89" fill="#FFF"/><path d="M155.698 74.559a1.188 1.188 0 0 1 .974-1.384 1.196 1.196 0 0 1 .405 2.356 1.188 1.188 0 0 1-1.38-.972" id="Fill-90" fill="#FFF"/><path d="M151.225 75.33a1.194 1.194 0 0 1 2.354-.404c.113.65-.323 1.269-.975 1.376a1.195 1.195 0 0 1-1.38-.973" id="Fill-91" fill="#FFF"/><path d="M146.758 76.1a1.195 1.195 0 0 1 .968-1.384 1.202 1.202 0 0 1 1.386.98c.113.65-.323 1.27-.975 1.383a1.197 1.197 0 0 1-1.38-.98" id="Fill-92" fill="#FFF"/><path d="M142.285 76.877c-.114-.65.322-1.27.968-1.39a1.207 1.207 0 0 1 1.385.98 1.195 1.195 0 0 1-2.354.41" id="Fill-93" fill="#FFF"/><path d="M137.818 77.648c-.114-.651.316-1.27.968-1.384a1.202 1.202 0 0 1 1.386.973c.113.65-.323 1.27-.975 1.39a1.197 1.197 0 0 1-1.379-.98" id="Fill-94" fill="#FFF"/><path d="M133.345 78.418c-.114-.65.323-1.27.974-1.383a1.2 1.2 0 0 1 .405 2.363 1.199 1.199 0 0 1-1.38-.98" id="Fill-95" fill="#FFF"/><path d="M128.872 79.189a1.19 1.19 0 0 1 .974-1.377 1.196 1.196 0 1 1-.974 1.377" id="Fill-96" fill="#FFF"/><path d="M124.405 79.966a1.195 1.195 0 0 1 2.354-.41 1.193 1.193 0 0 1-.975 1.383 1.191 1.191 0 0 1-1.38-.973" id="Fill-97" fill="#FFF"/><path d="M119.932 80.737c-.114-.651.322-1.27.974-1.384a1.196 1.196 0 0 1 1.38.98c.113.65-.317 1.269-.969 1.383a1.207 1.207 0 0 1-1.385-.98" id="Fill-98" fill="#FFF"/><path d="M115.465 81.514a1.199 1.199 0 0 1 .974-1.39 1.204 1.204 0 0 1 1.38.979c.113.65-.323 1.27-.968 1.383-.652.108-1.278-.322-1.386-.972" id="Fill-99" fill="#FFF"/><path d="M110.992 82.284a1.193 1.193 0 0 1 .974-1.383 1.196 1.196 0 0 1 .411 2.356 1.198 1.198 0 0 1-1.385-.973" id="Fill-100" fill="#FFF"/><path d="M106.525 83.055c-.114-.65.323-1.27.974-1.383a1.199 1.199 0 0 1 1.38.979 1.193 1.193 0 0 1-.975 1.377 1.191 1.191 0 0 1-1.379-.973" id="Fill-101" fill="#FFF"/><path d="M102.052 83.826a1.2 1.2 0 0 1 .974-1.384 1.192 1.192 0 0 1 1.38.98c.113.65-.317 1.27-.975 1.376a1.19 1.19 0 0 1-1.38-.972" id="Fill-102" fill="#FFF"/><path d="M97.585 84.603a1.195 1.195 0 1 1 1.38.973 1.191 1.191 0 0 1-1.38-.973" id="Fill-103" fill="#FFF"/><path d="M93.112 85.373c-.114-.65.323-1.27.974-1.383a1.188 1.188 0 0 1 1.38.973 1.195 1.195 0 1 1-2.354.41" id="Fill-104" fill="#FFF"/><path d="M88.645 86.144c-.114-.65.316-1.27.968-1.383A1.202 1.202 0 0 1 91 85.74c.114.65-.323 1.27-.975 1.383a1.2 1.2 0 0 1-1.379-.979" id="Fill-105" fill="#FFF"/><path d="M84.172 86.921a1.202 1.202 0 0 1 .974-1.39 1.204 1.204 0 0 1 1.38.98 1.195 1.195 0 1 1-2.354.41" id="Fill-106" fill="#FFF"/><path d="M79.705 87.692a1.188 1.188 0 0 1 .968-1.384 1.202 1.202 0 0 1 1.386.973c.114.65-.323 1.27-.975 1.384a1.188 1.188 0 0 1-1.379-.973" id="Fill-107" fill="#FFF"/><path d="M75.232 88.462c-.114-.65.323-1.27.974-1.383a1.199 1.199 0 0 1 1.38.98c.114.65-.323 1.269-.968 1.376a1.193 1.193 0 0 1-1.386-.973" id="Fill-108" fill="#FFF"/><path d="M70.759 89.24a1.207 1.207 0 0 1 .974-1.39 1.202 1.202 0 0 1 1.386.979c.114.65-.323 1.27-.974 1.383a1.206 1.206 0 0 1-1.386-.973" id="Fill-109" fill="#FFF"/><path d="M66.292 90.01a1.195 1.195 0 0 1 2.354-.41 1.195 1.195 0 1 1-2.354.41" id="Fill-110" fill="#FFF"/><path d="M61.819 90.78c-.114-.65.323-1.269.974-1.383a1.193 1.193 0 0 1 1.38.973 1.198 1.198 0 0 1-.968 1.39 1.207 1.207 0 0 1-1.386-.98" id="Fill-111" fill="#FFF"/><path d="M57.352 91.551c-.114-.65.323-1.27.975-1.383a1.204 1.204 0 0 1 1.379.98c.114.65-.323 1.269-.975 1.383a1.199 1.199 0 0 1-1.379-.98" id="Fill-112" fill="#FFF"/><path d="M58.428 85.992c.664 0 1.202.506 1.202 1.131 0 .62-.538 1.125-1.202 1.125-.658 0-1.196-.506-1.196-1.125 0-.625.538-1.13 1.196-1.13" id="Fill-113" fill="#FFF"/><path d="M58.428 81.766c.664 0 1.202.506 1.202 1.131 0 .62-.538 1.124-1.202 1.124-.658 0-1.196-.505-1.196-1.124 0-.625.538-1.13 1.196-1.13" id="Fill-114" fill="#FFF"/><path d="M58.428 77.54c.664 0 1.202.506 1.202 1.125 0 .625-.538 1.13-1.202 1.13-.658 0-1.196-.505-1.196-1.13 0-.62.538-1.125 1.196-1.125" id="Fill-115" fill="#FFF"/><path d="M58.428 73.308c.664 0 1.202.505 1.202 1.13 0 .626-.538 1.131-1.202 1.131-.658 0-1.196-.505-1.196-1.13 0-.626.538-1.131 1.196-1.131" id="Fill-116" fill="#FFF"/><path d="M58.428 69.082c.664 0 1.202.505 1.202 1.13 0 .626-.538 1.131-1.202 1.131-.658 0-1.196-.505-1.196-1.13 0-.626.538-1.131 1.196-1.131" id="Fill-117" fill="#FFF"/><path d="M58.428 64.855c.664 0 1.202.506 1.202 1.125 0 .625-.538 1.13-1.202 1.13-.658 0-1.196-.505-1.196-1.13 0-.62.538-1.125 1.196-1.125" id="Fill-118" fill="#FFF"/><path d="M64.078 60.781a1.2 1.2 0 0 1-.975 1.383 1.192 1.192 0 0 1-1.379-.979c-.114-.65.323-1.27.968-1.377a1.193 1.193 0 0 1 1.386.973" id="Fill-119" fill="#FFF"/><path d="M59.605 61.552c.113.65-.323 1.27-.975 1.383a1.196 1.196 0 0 1-1.38-.979c-.113-.65.317-1.27.975-1.377a1.195 1.195 0 0 1 1.38.973" id="Fill-120" fill="#FFF"/><path d="M68.544 60.01a1.2 1.2 0 0 1-.974 1.384 1.199 1.199 0 0 1-.405-2.363 1.196 1.196 0 0 1 1.38.98" id="Fill-121" fill="#FFF"/><path d="M73.018 59.233a1.193 1.193 0 0 1-.968 1.384 1.196 1.196 0 0 1-.411-2.356 1.196 1.196 0 0 1 1.379.972" id="Fill-122" fill="#FFF"/><path d="M77.49 58.463a1.193 1.193 0 0 1-.974 1.383 1.188 1.188 0 0 1-1.379-.973c-.114-.65.323-1.27.968-1.383a1.202 1.202 0 0 1 1.386.973" id="Fill-123" fill="#FFF"/><path d="M81.958 57.692c.12.65-.317 1.27-.968 1.383a1.196 1.196 0 0 1-.411-2.356 1.188 1.188 0 0 1 1.379.973" id="Fill-124" fill="#FFF"/><path d="M86.437 56.921c.108.65-.329 1.27-.974 1.384a1.202 1.202 0 0 1-1.386-.98c-.114-.65.323-1.27.974-1.377a1.2 1.2 0 0 1 1.386.973" id="Fill-125" fill="#FFF"/><path d="M90.904 56.15c.114.651-.323 1.27-.974 1.384a1.199 1.199 0 0 1-1.38-.98c-.114-.65.323-1.269.968-1.376a1.198 1.198 0 0 1 1.386.973" id="Fill-126" fill="#FFF"/><path d="M95.377 55.38a1.2 1.2 0 0 1-.974 1.383 1.196 1.196 0 0 1-1.38-.979c-.114-.65.323-1.27.968-1.377a1.193 1.193 0 0 1 1.386.973" id="Fill-127" fill="#FFF"/><path d="M99.85 54.61a1.209 1.209 0 0 1-.974 1.383 1.192 1.192 0 0 1-1.38-.98c-.12-.65.317-1.27.969-1.383a1.202 1.202 0 0 1 1.385.98" id="Fill-128" fill="#FFF"/><path d="M104.317 53.832a1.193 1.193 0 0 1-.974 1.384 1.19 1.19 0 0 1-1.38-.973 1.2 1.2 0 0 1 .975-1.384 1.191 1.191 0 0 1 1.379.973" id="Fill-129" fill="#FFF"/><path d="M108.79 53.062c.114.65-.323 1.27-.974 1.383a1.191 1.191 0 0 1-1.38-.973 1.193 1.193 0 0 1 .968-1.383 1.198 1.198 0 0 1 1.386.973" id="Fill-130" fill="#FFF"/><path d="M113.263 52.29c.114.651-.322 1.27-.974 1.384a1.196 1.196 0 0 1-1.38-.973 1.185 1.185 0 0 1 .969-1.383 1.198 1.198 0 0 1 1.385.973" id="Fill-131" fill="#FFF"/><path d="M117.73 51.52c.114.65-.316 1.27-.968 1.384a1.202 1.202 0 0 1-1.386-.98c-.107-.65.323-1.27.975-1.377a1.188 1.188 0 0 1 1.379.973" id="Fill-132" fill="#FFF"/><path d="M122.203 50.75a1.195 1.195 0 0 1-.974 1.383 1.199 1.199 0 0 1-.411-2.363 1.203 1.203 0 0 1 1.385.98" id="Fill-133" fill="#FFF"/><path d="M126.676 49.972a1.202 1.202 0 0 1-.974 1.39A1.199 1.199 0 0 1 125.29 49a1.207 1.207 0 0 1 1.385.972" id="Fill-134" fill="#FFF"/><path d="M131.15 49.202a1.207 1.207 0 0 1-.975 1.39 1.207 1.207 0 0 1-1.386-.98c-.107-.65.33-1.27.975-1.383a1.198 1.198 0 0 1 1.385.973" id="Fill-135" fill="#FFF"/><path d="M135.616 48.431c.114.65-.316 1.27-.968 1.384a1.196 1.196 0 0 1-.411-2.356 1.188 1.188 0 0 1 1.38.972" id="Fill-136" fill="#FFF"/><path d="M140.09 47.66c.113.651-.323 1.27-.969 1.384a1.198 1.198 0 0 1-1.385-.973 1.195 1.195 0 1 1 2.354-.41" id="Fill-137" fill="#FFF"/><path d="M144.562 46.89a1.195 1.195 0 0 1-2.354.41 1.195 1.195 0 1 1 2.354-.41" id="Fill-138" fill="#FFF"/><path d="M149.036 46.119a1.196 1.196 0 1 1-2.36.404 1.2 1.2 0 0 1 .974-1.383 1.207 1.207 0 0 1 1.386.979" id="Fill-139" fill="#FFF"/><path d="M153.502 45.348c.114.651-.322 1.27-.968 1.384a1.192 1.192 0 0 1-1.379-.98c-.12-.65.316-1.27.968-1.383a1.197 1.197 0 0 1 1.38.98" id="Fill-140" fill="#FFF"/><path d="M157.976 44.571a1.202 1.202 0 0 1-.975 1.39 1.199 1.199 0 0 1-.405-2.362 1.204 1.204 0 0 1 1.38.972" id="Fill-141" fill="#FFF"/><path d="M162.449 43.8a1.193 1.193 0 0 1-.975 1.384 1.2 1.2 0 0 1-1.385-.973c-.108-.65.329-1.27.974-1.383a1.198 1.198 0 0 1 1.386.973" id="Fill-142" fill="#FFF"/><path d="M166.922 43.03c.107.65-.33 1.27-.975 1.39a1.197 1.197 0 0 1-1.379-.98c-.114-.65.317-1.27.968-1.383a1.198 1.198 0 0 1 1.386.973" id="Fill-143" fill="#FFF"/><path d="M171.395 42.26c.108.65-.329 1.269-.98 1.383a1.185 1.185 0 0 1-1.374-.973c-.12-.65.317-1.276.968-1.384a1.2 1.2 0 0 1 1.386.973" id="Fill-144" fill="#FFF"/><path d="M175.862 41.489a1.2 1.2 0 0 1-.975 1.383 1.196 1.196 0 0 1-1.379-.973 1.198 1.198 0 0 1 .968-1.39 1.203 1.203 0 0 1 1.386.98" id="Fill-145" fill="#FFF"/><path d="M180.335 40.718a1.2 1.2 0 0 1-.974 1.383 1.193 1.193 0 0 1-1.38-.972 1.2 1.2 0 0 1 .968-1.39 1.207 1.207 0 0 1 1.386.979" id="Fill-146" fill="#FFF"/><path d="M184.808 39.941a1.203 1.203 0 0 1-.98 1.39 1.199 1.199 0 0 1-.406-2.363 1.21 1.21 0 0 1 1.386.973" id="Fill-147" fill="#FFF"/><path d="M189.281 39.17c.108.65-.329 1.27-.974 1.39a1.203 1.203 0 0 1-1.386-.98c-.114-.65.323-1.269.975-1.383a1.2 1.2 0 0 1 1.385.973" id="Fill-148" fill="#FFF"/><path d="M193.748 38.4a1.203 1.203 0 0 1-.968 1.39 1.2 1.2 0 0 1-.418-2.363 1.194 1.194 0 0 1 1.386.973" id="Fill-149" fill="#FFF"/><path d="M198.221 37.629c.114.65-.323 1.27-.974 1.39a1.197 1.197 0 0 1-1.38-.98 1.193 1.193 0 0 1 .969-1.383 1.2 1.2 0 0 1 1.385.973" id="Fill-150" fill="#FFF"/><path d="M202.694 36.858c.108.65-.329 1.27-.974 1.384a1.196 1.196 0 0 1-1.38-.973c-.12-.65.323-1.276.969-1.39a1.21 1.21 0 0 1 1.385.98" id="Fill-151" fill="#FFF"/><path d="M207.161 36.088c.114.65-.323 1.27-.968 1.383a1.202 1.202 0 0 1-1.386-.973 1.203 1.203 0 0 1 .968-1.39 1.203 1.203 0 0 1 1.386.98" id="Fill-152" fill="#FFF"/><path d="M211.634 35.317c.114.65-.322 1.27-.974 1.383a1.196 1.196 0 0 1-1.38-.979c-.113-.65.323-1.27.969-1.383a1.2 1.2 0 0 1 1.385.979" id="Fill-153" fill="#FFF"/><path d="M216.107 34.546a1.2 1.2 0 0 1-.974 1.384 1.21 1.21 0 0 1-1.386-.98 1.2 1.2 0 0 1 .975-1.383 1.202 1.202 0 0 1 1.385.98" id="Fill-154" fill="#FFF"/><path d="M220.574 33.77c.12.65-.323 1.275-.968 1.389a1.207 1.207 0 0 1-1.385-.98 1.2 1.2 0 0 1 .974-1.383 1.188 1.188 0 0 1 1.38.973" id="Fill-155" fill="#FFF"/><path d="M225.047 32.998a1.203 1.203 0 0 1-.968 1.39 1.203 1.203 0 0 1-1.385-.979 1.194 1.194 0 1 1 2.354-.41" id="Fill-156" fill="#FFF"/><path d="M229.52 32.228a1.2 1.2 0 0 1-.974 1.383 1.196 1.196 0 0 1-.411-2.356 1.198 1.198 0 0 1 1.385.973" id="Fill-157" fill="#FFF"/><path d="M233.987 31.457c.12.65-.316 1.27-.968 1.384a1.196 1.196 0 0 1-1.38-.973c-.113-.65.324-1.27.969-1.39a1.197 1.197 0 0 1 1.38.98" id="Fill-158" fill="#FFF"/><path d="M238.46 30.686c.114.651-.316 1.27-.968 1.384a1.207 1.207 0 0 1-1.385-.98 1.204 1.204 0 0 1 .968-1.383 1.2 1.2 0 0 1 1.385.98" id="Fill-159" fill="#FFF"/><path d="M242.933 29.916c.114.65-.316 1.27-.974 1.383a1.204 1.204 0 0 1-1.38-.979c-.113-.65.324-1.27.969-1.383a1.19 1.19 0 0 1 1.385.979" id="Fill-160" fill="#FFF"/><path d="M247.407 29.145c.113.65-.323 1.27-.975 1.384a1.213 1.213 0 0 1-1.385-.98c-.108-.65.329-1.27.98-1.383a1.199 1.199 0 0 1 1.38.98" id="Fill-161" fill="#FFF"/><path d="M251.873 28.368c.12.65-.316 1.276-.968 1.384a1.198 1.198 0 0 1-1.385-.973 1.2 1.2 0 0 1 .98-1.384 1.185 1.185 0 0 1 1.373.973" id="Fill-162" fill="#FFF"/><path d="M256.347 27.597a1.188 1.188 0 0 1-.968 1.384 1.202 1.202 0 0 1-1.386-.973 1.2 1.2 0 0 1 .974-1.383 1.188 1.188 0 0 1 1.38.972" id="Fill-163" fill="#FFF"/><path d="M260.82 26.827c.114.65-.323 1.27-.975 1.383a1.199 1.199 0 0 1-1.379-.979 1.203 1.203 0 0 1 .974-1.383 1.204 1.204 0 0 1 1.38.979" id="Fill-164" fill="#FFF"/><path d="M316.237 80.92a1.211 1.211 0 0 1-1.202-1.213c0-.676.538-1.22 1.196-1.22.664 0 1.202.544 1.202 1.214a1.204 1.204 0 0 1-1.196 1.219" id="Fill-165" fill="#FFF"/><path d="M316.237 76.359a1.216 1.216 0 0 1-1.202-1.213c0-.676.538-1.22 1.196-1.22.664 0 1.208.544 1.208 1.214 0 .676-.537 1.219-1.202 1.219" id="Fill-166" fill="#FFF"/><path d="M316.237 85.48a1.206 1.206 0 0 1-1.196-1.212c0-.67.538-1.22 1.196-1.22.665 0 1.202.544 1.202 1.22 0 .67-.537 1.213-1.202 1.213" id="Fill-167" fill="#FFF"/><path d="M316.237 90.048c-.651 0-1.196-.55-1.196-1.22 0-.669.538-1.218 1.196-1.218.665 0 1.202.543 1.202 1.219 0 .67-.531 1.219-1.202 1.219" id="Fill-168" fill="#FFF"/><path d="M316.244 94.609c-.658 0-1.196-.55-1.196-1.22 0-.669.538-1.212 1.196-1.212.664 0 1.202.537 1.202 1.213 0 .67-.538 1.219-1.202 1.219" id="Fill-169" fill="#FFF"/><path d="M316.25 99.17a1.213 1.213 0 0 1-1.202-1.22c0-.669.538-1.212 1.196-1.212.664 0 1.202.543 1.202 1.213a1.208 1.208 0 0 1-1.196 1.219" id="Fill-170" fill="#FFF"/><path d="M316.25 103.73a1.208 1.208 0 0 1-1.196-1.218c0-.67.538-1.213 1.196-1.213.664 0 1.202.543 1.202 1.213 0 .675-.538 1.219-1.202 1.219" id="Fill-171" fill="#FFF"/><path d="M316.25 108.292a1.212 1.212 0 0 1-1.196-1.22c0-.67.538-1.212 1.196-1.212.664 0 1.202.543 1.202 1.212 0 .676-.531 1.22-1.202 1.22" id="Fill-172" fill="#FFF"/><path d="M316.256 112.853a1.206 1.206 0 0 1-1.196-1.213c0-.67.538-1.22 1.196-1.22.665 0 1.202.544 1.202 1.22 0 .67-.537 1.213-1.202 1.213" id="Fill-173" fill="#FFF"/><path d="M316.263 117.414a1.211 1.211 0 0 1-1.203-1.213c0-.676.538-1.22 1.196-1.22.665 0 1.202.544 1.209 1.22 0 .67-.544 1.213-1.202 1.213" id="Fill-174" fill="#FFF"/><path d="M316.263 121.974a1.206 1.206 0 0 1-1.196-1.212c0-.676.538-1.213 1.196-1.213.664 0 1.202.537 1.202 1.213 0 .67-.538 1.212-1.202 1.212" id="Fill-175" fill="#FFF"/><path d="M316.263 126.542a1.208 1.208 0 0 1-1.196-1.22c0-.67.538-1.212 1.196-1.212.664 0 1.202.543 1.202 1.213s-.538 1.219-1.202 1.219" id="Fill-176" fill="#FFF"/><path d="M310.568 126.295a1.2 1.2 0 0 1 .981-1.39 1.2 1.2 0 1 1 .418 2.363 1.2 1.2 0 0 1-1.399-.973" id="Fill-177" fill="#FFF"/><path d="M306.05 127.085a1.2 1.2 0 0 1 .982-1.383 1.206 1.206 0 0 1 1.398.966 1.208 1.208 0 0 1-2.38.417" id="Fill-178" fill="#FFF"/><path d="M301.533 127.875a1.2 1.2 0 0 1 .981-1.384 1.21 1.21 0 0 1 1.398.967 1.203 1.203 0 0 1-.98 1.39 1.21 1.21 0 0 1-1.399-.973" id="Fill-179" fill="#FFF"/><path d="M297.022 128.664a1.2 1.2 0 0 1 .975-1.383 1.207 1.207 0 0 1 1.398.973c.114.65-.323 1.27-.98 1.383a1.2 1.2 0 0 1-1.393-.973" id="Fill-180" fill="#FFF"/><path d="M292.505 129.46a1.207 1.207 0 0 1 .98-1.39 1.197 1.197 0 0 1 1.393.973c.12.65-.317 1.27-.981 1.39a1.205 1.205 0 0 1-1.392-.973" id="Fill-181" fill="#FFF"/><path d="M287.988 130.25a1.211 1.211 0 0 1 .986-1.39 1.194 1.194 0 0 1 1.386.973c.12.65-.316 1.276-.974 1.39a1.21 1.21 0 0 1-1.399-.973" id="Fill-182" fill="#FFF"/><path d="M283.47 131.04c-.107-.651.33-1.27.987-1.39a1.199 1.199 0 1 1 .411 2.363 1.213 1.213 0 0 1-1.398-.974" id="Fill-183" fill="#FFF"/><path d="M278.965 131.83c-.12-.652.317-1.27.981-1.384a1.2 1.2 0 0 1 1.392.966 1.203 1.203 0 0 1-.987 1.39 1.194 1.194 0 0 1-1.386-.973" id="Fill-184" fill="#FFF"/><path d="M274.448 132.619c-.12-.65.316-1.27.974-1.384a1.204 1.204 0 0 1 1.398.967 1.203 1.203 0 0 1-.98 1.39 1.197 1.197 0 0 1-1.392-.973" id="Fill-185" fill="#FFF"/><path d="M269.93 133.408a1.204 1.204 0 0 1 .981-1.383 1.21 1.21 0 0 1 1.398.973 1.2 1.2 0 0 1-.98 1.383 1.21 1.21 0 0 1-1.399-.973" id="Fill-186" fill="#FFF"/><path d="M265.413 134.204a1.207 1.207 0 1 1 2.379-.417 1.2 1.2 0 0 1-.98 1.384 1.206 1.206 0 0 1-1.399-.967" id="Fill-187" fill="#FFF"/><path d="M260.902 134.994a1.202 1.202 0 0 1 .974-1.39c.658-.114 1.291.322 1.399.973a1.207 1.207 0 0 1-.981 1.39 1.2 1.2 0 0 1-1.392-.973" id="Fill-188" fill="#FFF"/><path d="M256.385 135.784a1.21 1.21 0 0 1 .987-1.39 1.194 1.194 0 0 1 1.385.973c.12.65-.323 1.276-.98 1.39a1.204 1.204 0 0 1-1.392-.973" id="Fill-189" fill="#FFF"/><path d="M251.867 136.573c-.107-.65.33-1.27.987-1.383a1.19 1.19 0 0 1 1.386.966c.12.651-.317 1.276-.975 1.39a1.213 1.213 0 0 1-1.398-.973" id="Fill-190" fill="#FFF"/><path d="M247.362 137.363c-.12-.65.317-1.27.975-1.384a1.21 1.21 0 0 1 1.398.967 1.211 1.211 0 0 1-.987 1.39 1.194 1.194 0 0 1-1.386-.973" id="Fill-191" fill="#FFF"/><path d="M242.845 138.152a1.19 1.19 0 0 1 .974-1.383 1.21 1.21 0 0 1 1.399.973 1.203 1.203 0 0 1-.987 1.383 1.194 1.194 0 0 1-1.386-.973" id="Fill-192" fill="#FFF"/><path d="M238.327 138.948a1.202 1.202 0 0 1 .981-1.39 1.196 1.196 0 1 1 .418 2.356 1.196 1.196 0 0 1-1.399-.966" id="Fill-193" fill="#FFF"/><path d="M233.81 139.738a1.207 1.207 0 0 1 2.379-.417 1.207 1.207 0 1 1-2.379.417" id="Fill-194" fill="#FFF"/><path d="M229.293 140.528a1.21 1.21 0 0 1 .98-1.39 1.21 1.21 0 0 1 1.399.973 1.207 1.207 0 0 1-2.38.417" id="Fill-195" fill="#FFF"/><path d="M224.782 141.317c-.114-.65.322-1.27.98-1.383.652-.114 1.285.316 1.392.966a1.207 1.207 0 0 1-.98 1.39 1.2 1.2 0 0 1-1.392-.973" id="Fill-196" fill="#FFF"/><path d="M220.264 142.107a1.2 1.2 0 0 1 .987-1.383 1.195 1.195 0 1 1 .405 2.356 1.204 1.204 0 0 1-1.392-.973" id="Fill-197" fill="#FFF"/><path d="M215.747 142.897a1.203 1.203 0 0 1 .987-1.384 1.194 1.194 0 0 1 1.385.973 1.19 1.19 0 0 1-.974 1.383 1.21 1.21 0 0 1-1.398-.972" id="Fill-198" fill="#FFF"/><path d="M211.236 143.686a1.199 1.199 0 0 1 .98-1.383 1.213 1.213 0 0 1 1.399.973c.107.65-.33 1.27-.987 1.383a1.2 1.2 0 0 1-1.392-.973" id="Fill-199" fill="#FFF"/><path d="M206.718 144.482a1.202 1.202 0 0 1 .98-1.39 1.207 1.207 0 0 1 1.4.973c.107.65-.33 1.27-.988 1.39a1.204 1.204 0 0 1-1.392-.973" id="Fill-200" fill="#FFF"/><path d="M202.207 145.272c-.12-.65.323-1.276.974-1.39a1.203 1.203 0 0 1 1.399.973 1.207 1.207 0 0 1-.981 1.39 1.197 1.197 0 0 1-1.392-.973" id="Fill-201" fill="#FFF"/><path d="M197.69 146.061a1.21 1.21 0 0 1 .98-1.39 1.205 1.205 0 0 1 1.392.974c.12.65-.322 1.276-.974 1.39a1.21 1.21 0 0 1-1.398-.974" id="Fill-202" fill="#FFF"/><path d="M193.172 146.851a1.207 1.207 0 1 1 2.379-.417 1.207 1.207 0 0 1-2.379.417" id="Fill-203" fill="#FFF"/><path d="M188.661 147.64c-.114-.65.323-1.269.98-1.389.652-.107 1.285.328 1.393.98a1.204 1.204 0 0 1-2.373.41" id="Fill-204" fill="#FFF"/><path d="M184.144 148.43a1.203 1.203 0 0 1 .987-1.383 1.194 1.194 0 0 1 1.385.973c.12.65-.322 1.27-.98 1.383a1.196 1.196 0 0 1-1.392-.973" id="Fill-205" fill="#FFF"/><path d="M179.626 149.226a1.211 1.211 0 0 1 .987-1.39 1.194 1.194 0 0 1 1.386.973c.12.651-.316 1.276-.974 1.39a1.21 1.21 0 0 1-1.399-.973" id="Fill-206" fill="#FFF"/><path d="M175.115 150.016a1.204 1.204 0 1 1 2.373-.417 1.204 1.204 0 1 1-2.373.417" id="Fill-207" fill="#FFF"/><path d="M170.598 150.806c-.114-.651.322-1.27.98-1.39a1.21 1.21 0 0 1 1.399.973 1.211 1.211 0 0 1-.987 1.39 1.204 1.204 0 0 1-1.392-.973" id="Fill-208" fill="#FFF"/><path d="M166.08 151.595a1.207 1.207 0 1 1 2.379-.417 1.207 1.207 0 1 1-2.379.417" id="Fill-209" fill="#FFF"/><path d="M161.57 152.385c-.115-.65.322-1.27.98-1.384a1.196 1.196 0 1 1 .411 2.357 1.204 1.204 0 0 1-1.392-.973" id="Fill-210" fill="#FFF"/><path d="M157.052 153.174a1.207 1.207 0 1 1 2.379-.41 1.2 1.2 0 0 1-.98 1.383 1.207 1.207 0 0 1-1.4-.973" id="Fill-211" fill="#FFF"/><path d="M152.54 153.97a1.204 1.204 0 1 1 2.373-.417 1.202 1.202 0 0 1-.98 1.39 1.2 1.2 0 0 1-1.392-.973" id="Fill-212" fill="#FFF"/><path d="M148.023 154.76a1.207 1.207 0 0 1 .981-1.39 1.2 1.2 0 0 1 1.392.973 1.192 1.192 0 0 1-.98 1.384 1.192 1.192 0 0 1-1.393-.967" id="Fill-213" fill="#FFF"/><path d="M143.512 155.55c-.12-.651.323-1.27.98-1.384a1.192 1.192 0 1 1 .411 2.35 1.192 1.192 0 0 1-1.39-.966" id="Fill-214" fill="#FFF"/><path d="M138.995 156.34a1.205 1.205 0 0 1 2.372-.418 1.202 1.202 0 0 1-.98 1.39 1.2 1.2 0 0 1-1.392-.973" id="Fill-215" fill="#FFF"/><path d="M134.477 157.129a1.2 1.2 0 0 1 .981-1.383 1.202 1.202 0 0 1 1.398.972 1.208 1.208 0 0 1-2.379.411" id="Fill-216" fill="#FFF"/><path d="M129.96 157.919a1.203 1.203 0 0 1 .987-1.384 1.196 1.196 0 1 1 .411 2.356 1.207 1.207 0 0 1-1.398-.972" id="Fill-217" fill="#FFF"/><path d="M125.449 158.715a1.202 1.202 0 0 1 .98-1.39 1.2 1.2 0 0 1 1.392.973 1.205 1.205 0 0 1-2.372.417" id="Fill-218" fill="#FFF"/><path d="M120.931 159.504a1.207 1.207 0 0 1 2.38-.417 1.207 1.207 0 1 1-2.379.417" id="Fill-219" fill="#FFF"/><path d="M116.42 160.294c-.114-.65.323-1.27.975-1.384a1.198 1.198 0 0 1 1.398.967 1.197 1.197 0 0 1-.98 1.383 1.192 1.192 0 0 1-1.393-.966" id="Fill-220" fill="#FFF"/><path d="M111.903 161.083c-.114-.65.323-1.27.98-1.383a1.196 1.196 0 0 1 1.392.967 1.202 1.202 0 0 1-.98 1.39 1.2 1.2 0 0 1-1.392-.974" id="Fill-221" fill="#FFF"/><path d="M107.392 161.873c-.12-.65.322-1.27.974-1.383a1.202 1.202 0 0 1 1.398.972 1.204 1.204 0 0 1-.98 1.384 1.197 1.197 0 0 1-1.392-.973" id="Fill-222" fill="#FFF"/><path d="M102.874 162.663a1.199 1.199 0 0 1 .981-1.384 1.196 1.196 0 1 1 .411 2.356 1.2 1.2 0 0 1-1.392-.972" id="Fill-223" fill="#FFF"/><path d="M98.357 163.459a1.204 1.204 0 1 1 2.373-.417c.113.65-.323 1.27-.981 1.383a1.2 1.2 0 0 1-1.392-.966" id="Fill-224" fill="#FFF"/><path d="M93.84 164.248a1.207 1.207 0 0 1 .98-1.39 1.207 1.207 0 0 1 1.398.973 1.207 1.207 0 1 1-2.379.417" id="Fill-225" fill="#FFF"/><path d="M89.328 165.038c-.113-.65.323-1.27.981-1.383a1.195 1.195 0 0 1 1.392.966 1.205 1.205 0 0 1-2.373.417" id="Fill-226" fill="#FFF"/><path d="M84.811 165.828c-.114-.651.323-1.27.98-1.384a1.206 1.206 0 0 1 1.399.967 1.21 1.21 0 0 1-.987 1.39 1.204 1.204 0 0 1-1.392-.973" id="Fill-227" fill="#FFF"/><path d="M80.294 166.617a1.202 1.202 0 0 1 .98-1.383 1.202 1.202 0 0 1 1.399.966 1.202 1.202 0 0 1-.981 1.39 1.207 1.207 0 0 1-1.398-.973" id="Fill-228" fill="#FFF"/><path d="M75.782 167.407a1.199 1.199 0 0 1 .981-1.384 1.196 1.196 0 1 1 .411 2.357 1.204 1.204 0 0 1-1.392-.973" id="Fill-229" fill="#FFF"/><path d="M71.265 168.203a1.202 1.202 0 0 1 .98-1.39 1.21 1.21 0 0 1 1.399.973 1.21 1.21 0 0 1-.98 1.39 1.212 1.212 0 0 1-1.399-.973" id="Fill-230" fill="#FFF"/><path d="M66.754 168.992a1.202 1.202 0 0 1 .974-1.39 1.207 1.207 0 0 1 1.399.974 1.205 1.205 0 0 1-2.373.416" id="Fill-231" fill="#FFF"/><path d="M62.237 169.782a1.207 1.207 0 0 1 .98-1.39 1.2 1.2 0 0 1 1.392.973 1.206 1.206 0 0 1-2.372.417" id="Fill-232" fill="#FFF"/><path d="M57.72 170.572a1.207 1.207 0 1 1 2.379-.417c.107.65-.33 1.27-.982 1.39a1.207 1.207 0 0 1-1.398-.973" id="Fill-233" fill="#FFF"/><path d="M53.208 171.361a1.2 1.2 0 0 1 .98-1.39 1.209 1.209 0 0 1 1.393.973 1.202 1.202 0 0 1-.981 1.39 1.2 1.2 0 0 1-1.392-.973" id="Fill-234" fill="#FFF"/><path d="M48.69 172.151a1.209 1.209 0 0 1 .981-1.39 1.208 1.208 0 0 1 1.392.98 1.199 1.199 0 0 1-.98 1.383 1.204 1.204 0 0 1-1.392-.973" id="Fill-235" fill="#FFF"/><path d="M44.173 172.947a1.202 1.202 0 0 1 .987-1.39 1.204 1.204 0 0 1 1.392.973c.114.65-.323 1.27-.98 1.383a1.202 1.202 0 0 1-1.399-.966" id="Fill-236" fill="#FFF"/><path d="M39.662 173.737a1.204 1.204 0 1 1 2.373-.417c.114.65-.323 1.27-.981 1.39a1.209 1.209 0 0 1-1.392-.973" id="Fill-237" fill="#FFF"/><path d="M35.145 174.526a1.205 1.205 0 0 1 2.372-.417 1.2 1.2 0 0 1-.98 1.39 1.204 1.204 0 0 1-1.392-.973" id="Fill-238" fill="#FFF"/><path d="M30.634 175.316a1.206 1.206 0 0 1 2.372-.417 1.207 1.207 0 0 1-.98 1.39 1.197 1.197 0 0 1-1.392-.973" id="Fill-239" fill="#FFF"/><path d="M26.116 176.105a1.205 1.205 0 0 1 2.373-.416 1.202 1.202 0 0 1-.98 1.39 1.2 1.2 0 0 1-1.393-.974" id="Fill-240" fill="#FFF"/><path d="M21.599 176.895a1.213 1.213 0 0 1 .98-1.39 1.205 1.205 0 0 1 1.392.98c.12.644-.322 1.27-.974 1.383a1.202 1.202 0 0 1-1.398-.973" id="Fill-241" fill="#FFF"/><path d="M17.081 177.685a1.218 1.218 0 0 1 .981-1.39 1.216 1.216 0 0 1 1.398.98 1.199 1.199 0 0 1-.98 1.383 1.205 1.205 0 0 1-1.399-.973" id="Fill-242" fill="#FFF"/><path d="M12.57 178.474a1.199 1.199 0 0 1 .98-1.383 1.204 1.204 0 0 1 1.393.973c.114.65-.323 1.27-.98 1.383a1.191 1.191 0 0 1-1.393-.973" id="Fill-243" fill="#FFF"/><path d="M8.053 179.27a1.207 1.207 0 0 1 .98-1.39 1.207 1.207 0 0 1 1.399.973 1.197 1.197 0 0 1-.987 1.384 1.195 1.195 0 0 1-1.392-.967" id="Fill-244" fill="#FFF"/><path d="M4.731 174.084c.658 0 1.202.543 1.202 1.22 0 .669-.544 1.218-1.202 1.218-.658 0-1.196-.55-1.196-1.219 0-.676.538-1.219 1.196-1.219" id="Fill-245" fill="#FFF"/><path d="M4.731 178.651c.658 0 1.202.537 1.202 1.213 0 .67-.544 1.213-1.202 1.213a1.206 1.206 0 0 1-1.196-1.213c0-.676.538-1.213 1.196-1.213" id="Fill-246" fill="#FFF"/><path d="M4.731 169.523c.658 0 1.202.55 1.202 1.213 0 .676-.544 1.22-1.202 1.22a1.208 1.208 0 0 1-1.196-1.22 1.21 1.21 0 0 1 1.196-1.213" id="Fill-247" fill="#FFF"/><path d="M4.731 164.968c.658 0 1.202.537 1.202 1.213 0 .67-.544 1.213-1.202 1.213a1.206 1.206 0 0 1-1.196-1.213c0-.676.538-1.213 1.196-1.213" id="Fill-248" fill="#FFF"/><path d="M4.731 160.401a1.217 1.217 0 0 1 0 2.432 1.206 1.206 0 0 1-1.196-1.213c0-.67.538-1.219 1.196-1.219" id="Fill-249" fill="#FFF"/><path d="M4.731 155.847c.658 0 1.202.543 1.202 1.212 0 .67-.544 1.22-1.202 1.22-.658 0-1.196-.55-1.196-1.22 0-.67.538-1.212 1.196-1.212" id="Fill-250" fill="#FFF"/><path d="M4.731 151.28c.658 0 1.202.549 1.202 1.219 0 .675-.544 1.219-1.202 1.219a1.208 1.208 0 0 1-1.196-1.22c0-.669.538-1.219 1.196-1.219" id="Fill-251" fill="#FFF"/><path d="M4.731 146.725c.658 0 1.202.543 1.202 1.213 0 .676-.544 1.219-1.202 1.219a1.208 1.208 0 0 1-1.196-1.22c0-.669.538-1.212 1.196-1.212" id="Fill-252" fill="#FFF"/><path d="M4.731 142.164c.658 0 1.202.543 1.202 1.219 0 .67-.544 1.213-1.202 1.213a1.206 1.206 0 0 1-1.196-1.213c0-.676.538-1.22 1.196-1.22" id="Fill-253" fill="#FFF"/><path d="M4.731 137.603c.658 0 1.202.543 1.202 1.213 0 .676-.544 1.219-1.202 1.219a1.208 1.208 0 0 1-1.196-1.22c0-.669.538-1.212 1.196-1.212" id="Fill-254" fill="#FFF"/><path d="M4.731 133.042c.658 0 1.202.543 1.202 1.22 0 .669-.544 1.212-1.202 1.212a1.206 1.206 0 0 1-1.196-1.213c0-.676.538-1.219 1.196-1.219" id="Fill-255" fill="#FFF"/><path d="M4.731 128.481a1.217 1.217 0 0 1 0 2.432 1.206 1.206 0 0 1-1.196-1.213c0-.67.538-1.219 1.196-1.219" id="Fill-256" fill="#FFF"/><path d="M10.432 128.765a1.203 1.203 0 0 1-.987 1.384 1.204 1.204 0 0 1-1.392-.973 1.2 1.2 0 0 1 .98-1.384 1.207 1.207 0 0 1 1.399.973" id="Fill-257" fill="#FFF"/><path d="M14.943 127.97a1.202 1.202 0 0 1-.98 1.39 1.2 1.2 0 0 1-1.393-.974 1.205 1.205 0 0 1 2.373-.417" id="Fill-258" fill="#FFF"/><path d="M19.46 127.18a1.207 1.207 0 0 1-2.379.417 1.207 1.207 0 1 1 2.379-.417" id="Fill-259" fill="#FFF"/><path d="M23.971 126.39a1.2 1.2 0 0 1-.974 1.39 1.206 1.206 0 0 1-1.398-.98c-.114-.65.322-1.269.98-1.383a1.2 1.2 0 0 1 1.392.973" id="Fill-260" fill="#FFF"/><path d="M28.489 125.6c.114.651-.323 1.27-.98 1.384a1.193 1.193 0 0 1-1.393-.973c-.114-.65.323-1.27.98-1.383a1.204 1.204 0 0 1 1.393.972" id="Fill-261" fill="#FFF"/><path d="M33.006 124.81c.108.651-.329 1.27-.987 1.384a1.204 1.204 0 0 1-1.392-.973c-.114-.65.323-1.27.98-1.383a1.21 1.21 0 0 1 1.4.973" id="Fill-262" fill="#FFF"/><path d="M37.517 124.015a1.202 1.202 0 0 1-.98 1.39 1.196 1.196 0 1 1-.411-2.356 1.204 1.204 0 0 1 1.391.966" id="Fill-263" fill="#FFF"/><path d="M42.028 123.225a1.202 1.202 0 0 1-.974 1.39 1.207 1.207 0 0 1-1.398-.973 1.21 1.21 0 0 1 .98-1.39 1.202 1.202 0 0 1 1.392.973" id="Fill-264" fill="#FFF"/><path d="M46.546 122.436a1.202 1.202 0 0 1-.98 1.39 1.209 1.209 0 0 1-1.393-.973 1.202 1.202 0 0 1 .98-1.39 1.2 1.2 0 0 1 1.393.973" id="Fill-265" fill="#FFF"/><path d="M51.063 121.646a1.207 1.207 0 1 1-2.379.417 1.208 1.208 0 0 1 2.38-.417" id="Fill-266" fill="#FFF"/><path d="M55.574 120.856c.114.651-.322 1.27-.98 1.384a1.2 1.2 0 0 1-1.392-.967 1.199 1.199 0 0 1 .98-1.39 1.2 1.2 0 0 1 1.392.973" id="Fill-267" fill="#FFF"/><path d="M60.092 120.067c.114.65-.323 1.27-.98 1.383a1.21 1.21 0 0 1-1.4-.966 1.203 1.203 0 0 1 .981-1.39 1.207 1.207 0 0 1 1.399.973" id="Fill-268" fill="#FFF"/><path d="M64.603 119.277a1.2 1.2 0 0 1-.975 1.384 1.207 1.207 0 0 1-1.398-.973 1.2 1.2 0 0 1 .98-1.384 1.196 1.196 0 0 1 1.393.973" id="Fill-269" fill="#FFF"/><path d="M69.12 118.481a1.202 1.202 0 0 1-.98 1.39 1.2 1.2 0 0 1-1.392-.973 1.205 1.205 0 0 1 2.372-.417" id="Fill-270" fill="#FFF"/><path d="M73.631 117.691c.12.651-.322 1.277-.98 1.39a1.204 1.204 0 0 1-1.392-.973 1.202 1.202 0 0 1 .98-1.39 1.2 1.2 0 0 1 1.392.973" id="Fill-271" fill="#FFF"/><path d="M78.149 116.902a1.205 1.205 0 0 1-2.373.417 1.204 1.204 0 1 1 2.373-.417" id="Fill-272" fill="#FFF"/><path d="M82.666 116.112c.114.65-.322 1.27-.98 1.384a1.202 1.202 0 0 1-1.399-.967 1.202 1.202 0 0 1 .987-1.39 1.204 1.204 0 0 1 1.392.973" id="Fill-273" fill="#FFF"/><path d="M87.177 115.323c.114.65-.322 1.27-.98 1.383a1.2 1.2 0 0 1-1.392-.973 1.199 1.199 0 0 1 .98-1.383 1.204 1.204 0 0 1 1.392.973" id="Fill-274" fill="#FFF"/><path d="M91.695 114.533a1.204 1.204 0 0 1-2.373.41c-.12-.65.323-1.27.974-1.383a1.202 1.202 0 0 1 1.399.973" id="Fill-275" fill="#FFF"/><path d="M96.206 113.737a1.202 1.202 0 0 1-.975 1.39 1.207 1.207 0 0 1-1.398-.973 1.21 1.21 0 0 1 .98-1.39 1.2 1.2 0 0 1 1.393.973" id="Fill-276" fill="#FFF"/><path d="M100.723 112.947a1.207 1.207 0 0 1-.98 1.39 1.2 1.2 0 0 1-1.392-.973 1.204 1.204 0 1 1 2.373-.417" id="Fill-277" fill="#FFF"/><path d="M105.24 112.158a1.21 1.21 0 0 1-.986 1.39 1.199 1.199 0 1 1-.411-2.363 1.207 1.207 0 0 1 1.398.973" id="Fill-278" fill="#FFF"/><path d="M109.752 111.368c.114.65-.323 1.27-.98 1.384a1.2 1.2 0 0 1-1.393-.967 1.199 1.199 0 0 1 .98-1.39 1.204 1.204 0 0 1 1.393.973" id="Fill-279" fill="#FFF"/><path d="M114.263 110.578c.114.651-.323 1.27-.975 1.384a1.207 1.207 0 0 1-1.398-.973 1.2 1.2 0 0 1 .98-1.383 1.197 1.197 0 0 1 1.393.972" id="Fill-280" fill="#FFF"/><path d="M118.78 109.789a1.199 1.199 0 0 1-.98 1.383 1.204 1.204 0 0 1-1.392-.973c-.114-.65.322-1.27.98-1.383a1.2 1.2 0 0 1 1.392.973" id="Fill-281" fill="#FFF"/><path d="M123.298 108.993a1.207 1.207 0 0 1-.981 1.39 1.207 1.207 0 0 1-1.398-.973c-.108-.65.329-1.27.98-1.39a1.212 1.212 0 0 1 1.399.973" id="Fill-282" fill="#FFF"/><path d="M127.809 108.203a1.204 1.204 0 1 1-2.373.417 1.202 1.202 0 0 1 .98-1.39 1.2 1.2 0 0 1 1.393.973" id="Fill-283" fill="#FFF"/><path d="M132.326 107.414c.114.65-.322 1.27-.98 1.39a1.21 1.21 0 0 1-1.399-.973 1.206 1.206 0 0 1 .987-1.39 1.204 1.204 0 0 1 1.392.973" id="Fill-284" fill="#FFF"/><path d="M136.837 106.624c.114.65-.322 1.27-.974 1.383a1.202 1.202 0 0 1-1.398-.966 1.207 1.207 0 0 1 .98-1.39 1.2 1.2 0 0 1 1.392.973" id="Fill-285" fill="#FFF"/><path d="M141.355 105.834c.114.651-.323 1.27-.98 1.384a1.2 1.2 0 0 1-1.393-.967 1.204 1.204 0 1 1 2.373-.417" id="Fill-286" fill="#FFF"/><path d="M145.866 105.045c.12.644-.323 1.27-.975 1.383a1.21 1.21 0 0 1-1.398-.973 1.2 1.2 0 0 1 .98-1.383 1.2 1.2 0 0 1 1.393.973" id="Fill-287" fill="#FFF"/><path d="M150.383 104.249a1.204 1.204 0 1 1-2.373.417 1.205 1.205 0 0 1 2.373-.417" id="Fill-288" fill="#FFF"/><path d="M154.9 103.46a1.202 1.202 0 0 1-.98 1.389 1.21 1.21 0 0 1-1.398-.973 1.207 1.207 0 1 1 2.379-.417" id="Fill-289" fill="#FFF"/><path d="M159.412 102.67a1.205 1.205 0 0 1-2.373.416 1.204 1.204 0 1 1 2.373-.417" id="Fill-290" fill="#FFF"/><path d="M163.93 101.88c.113.65-.323 1.27-.981 1.383a1.196 1.196 0 1 1-.412-2.356 1.204 1.204 0 0 1 1.392.973" id="Fill-291" fill="#FFF"/><path d="M168.447 101.09a1.207 1.207 0 1 1-2.379.417 1.202 1.202 0 0 1 .98-1.39 1.21 1.21 0 0 1 1.399.973" id="Fill-292" fill="#FFF"/><path d="M172.958 100.3a1.2 1.2 0 0 1-.975 1.384 1.196 1.196 0 1 1-.418-2.356 1.2 1.2 0 0 1 1.393.973" id="Fill-293" fill="#FFF"/><path d="M177.475 99.505a1.206 1.206 0 0 1-.987 1.39 1.194 1.194 0 0 1-1.385-.973c-.12-.651.316-1.27.974-1.39a1.212 1.212 0 0 1 1.398.973" id="Fill-294" fill="#FFF"/><path d="M181.993 98.715a1.211 1.211 0 0 1-.987 1.39 1.194 1.194 0 0 1-1.386-.973c-.12-.65.316-1.276.974-1.39a1.213 1.213 0 0 1 1.399.973" id="Fill-295" fill="#FFF"/><path d="M186.497 97.925c.12.651-.316 1.27-.974 1.39a1.21 1.21 0 0 1-1.398-.973 1.206 1.206 0 0 1 .987-1.39 1.194 1.194 0 0 1 1.385.973" id="Fill-296" fill="#FFF"/><path d="M191.015 97.136c.12.65-.323 1.27-.98 1.383a1.195 1.195 0 1 1-.412-2.356 1.197 1.197 0 0 1 1.392.973" id="Fill-297" fill="#FFF"/><path d="M195.532 96.346a1.2 1.2 0 0 1-.98 1.384 1.196 1.196 0 1 1-.418-2.357 1.207 1.207 0 0 1 1.398.973" id="Fill-298" fill="#FFF"/><path d="M200.043 95.556c.12.645-.322 1.27-.974 1.384a1.207 1.207 0 0 1-1.398-.973 1.2 1.2 0 0 1 .98-1.383 1.2 1.2 0 0 1 1.392.972" id="Fill-299" fill="#FFF"/><path d="M204.56 94.76a1.207 1.207 0 0 1-.98 1.39 1.197 1.197 0 0 1-1.392-.973 1.2 1.2 0 0 1 .98-1.39 1.205 1.205 0 0 1 1.393.974" id="Fill-300" fill="#FFF"/><path d="M209.078 93.97a1.211 1.211 0 0 1-.98 1.39 1.197 1.197 0 0 1-1.392-.972c-.12-.65.316-1.276.974-1.39a1.213 1.213 0 0 1 1.398.973" id="Fill-301" fill="#FFF"/><path d="M213.59 93.181a1.205 1.205 0 0 1-2.373.417 1.204 1.204 0 1 1 2.373-.417" id="Fill-302" fill="#FFF"/><path d="M218.1 92.392c.12.65-.316 1.27-.98 1.383a1.195 1.195 0 0 1-1.392-.966 1.206 1.206 0 0 1 .987-1.39 1.194 1.194 0 0 1 1.385.973" id="Fill-303" fill="#FFF"/><path d="M222.618 91.602c.114.65-.323 1.27-.98 1.383a1.2 1.2 0 0 1-1.393-.966 1.202 1.202 0 0 1 .98-1.39 1.2 1.2 0 0 1 1.393.973" id="Fill-304" fill="#FFF"/><path d="M227.135 90.812a1.204 1.204 0 0 1-.98 1.384 1.205 1.205 0 0 1-1.399-.973 1.207 1.207 0 0 1 2.379-.41" id="Fill-305" fill="#FFF"/><path d="M231.646 90.016c.12.651-.322 1.276-.974 1.39a1.207 1.207 0 0 1-1.398-.973c-.108-.65.329-1.27.98-1.39a1.202 1.202 0 0 1 1.392.973" id="Fill-306" fill="#FFF"/><path d="M236.164 89.227a1.202 1.202 0 0 1-.981 1.39 1.2 1.2 0 0 1-1.392-.973 1.2 1.2 0 0 1 .974-1.39 1.207 1.207 0 0 1 1.399.973" id="Fill-307" fill="#FFF"/><path d="M240.681 88.437c.108.65-.329 1.27-.98 1.39a1.207 1.207 0 0 1-1.399-.973 1.207 1.207 0 0 1 2.38-.417" id="Fill-308" fill="#FFF"/><path d="M245.199 87.647c.107.651-.33 1.27-.987 1.384a1.195 1.195 0 0 1-1.392-.967c-.114-.65.322-1.27.98-1.39a1.21 1.21 0 0 1 1.399.973" id="Fill-309" fill="#FFF"/><path d="M249.71 86.858c.113.65-.323 1.27-.981 1.383a1.193 1.193 0 0 1-1.392-.966c-.12-.65.316-1.276.974-1.39a1.207 1.207 0 0 1 1.399.973" id="Fill-310" fill="#FFF"/><path d="M254.227 86.068a1.208 1.208 0 0 1-.987 1.384 1.196 1.196 0 1 1-.411-2.356 1.213 1.213 0 0 1 1.398.972" id="Fill-311" fill="#FFF"/><path d="M258.738 85.272a1.202 1.202 0 0 1-.98 1.39 1.213 1.213 0 0 1-1.399-.973c-.107-.65.33-1.27.987-1.39a1.209 1.209 0 0 1 1.392.973" id="Fill-312" fill="#FFF"/><path d="M263.25 84.483a1.197 1.197 0 0 1-.981 1.39 1.2 1.2 0 0 1-1.392-.973c-.114-.651.322-1.27.98-1.39a1.197 1.197 0 0 1 1.392.973" id="Fill-313" fill="#FFF"/><path d="M267.767 83.693a1.21 1.21 0 0 1-.981 1.39 1.2 1.2 0 0 1-1.392-.973 1.2 1.2 0 0 1 .974-1.39 1.207 1.207 0 0 1 1.399.973" id="Fill-314" fill="#FFF"/><path d="M272.284 82.903a1.207 1.207 0 1 1-2.379.417 1.21 1.21 0 0 1 .98-1.39 1.21 1.21 0 0 1 1.4.973" id="Fill-315" fill="#FFF"/><path d="M276.795 82.114a1.206 1.206 0 0 1-2.372.417 1.202 1.202 0 0 1 .98-1.39 1.2 1.2 0 0 1 1.392.973" id="Fill-316" fill="#FFF"/><path d="M281.313 81.324a1.218 1.218 0 0 1-.981 1.39 1.202 1.202 0 0 1-1.392-.98c-.12-.65.323-1.269.974-1.383a1.21 1.21 0 0 1 1.399.973" id="Fill-317" fill="#FFF"/><path d="M285.83 80.528a1.211 1.211 0 0 1-.987 1.39 1.204 1.204 0 0 1-1.392-.973c-.114-.65.323-1.27.98-1.39a1.218 1.218 0 0 1 1.399.973" id="Fill-318" fill="#FFF"/><path d="M290.341 79.739a1.202 1.202 0 0 1-.98 1.39 1.2 1.2 0 0 1-1.392-.974 1.205 1.205 0 0 1 2.372-.416" id="Fill-319" fill="#FFF"/><path d="M294.852 78.949a1.2 1.2 0 0 1-.98 1.39 1.204 1.204 0 0 1-1.392-.973c-.114-.65.322-1.27.98-1.39a1.197 1.197 0 0 1 1.392.973" id="Fill-320" fill="#FFF"/><path d="M299.37 78.16a1.2 1.2 0 0 1-.981 1.383 1.192 1.192 0 0 1-1.392-.967 1.206 1.206 0 0 1 2.373-.417" id="Fill-321" fill="#FFF"/><path d="M303.88 77.37a1.2 1.2 0 0 1-.974 1.39 1.212 1.212 0 0 1-1.398-.973 1.207 1.207 0 0 1 .98-1.39 1.197 1.197 0 0 1 1.393.973" id="Fill-322" fill="#FFF"/><path d="M308.398 76.58c.12.644-.329 1.27-.98 1.383a1.196 1.196 0 0 1-1.392-.972c-.12-.651.322-1.27.98-1.384a1.2 1.2 0 0 1 1.392.973" id="Fill-323" fill="#FFF"/><path d="M312.916 75.784a1.211 1.211 0 0 1-.981 1.39 1.197 1.197 0 0 1-1.392-.973c-.12-.65.323-1.27.974-1.383a1.202 1.202 0 0 1 1.399.966" id="Fill-324" fill="#FFF"/><path d="M264.135 167.4c-.664.007-1.202-.486-1.221-1.118-.013-.619.525-1.137 1.183-1.143.658-.013 1.208.486 1.215 1.112.012.625-.519 1.137-1.177 1.15" id="Fill-325" fill="#FFF"/><path d="M264.205 171.595c-.671.013-1.215-.486-1.228-1.105-.006-.632.525-1.144 1.19-1.156.658-.007 1.202.492 1.214 1.118.007.619-.525 1.137-1.176 1.143" id="Fill-326" fill="#FFF"/><path d="M264.262 175.796c-.658.013-1.203-.486-1.215-1.112-.007-.625.525-1.137 1.183-1.15.664-.012 1.208.487 1.215 1.112.012.626-.52 1.137-1.183 1.15" id="Fill-327" fill="#FFF"/><path d="M264.325 179.99c-.652.013-1.202-.486-1.209-1.105-.012-.625.52-1.137 1.177-1.15.664-.012 1.209.487 1.221 1.112.007.62-.519 1.137-1.19 1.143" id="Fill-328" fill="#FFF"/><path d="M264.394 184.191c-.664.013-1.202-.486-1.22-1.105 0-.632.524-1.144 1.189-1.156.664-.007 1.202.493 1.208 1.118.013.619-.519 1.137-1.177 1.143" id="Fill-329" fill="#FFF"/><path d="M264.49 188.392c-.665.006-1.215-.486-1.222-1.112-.006-.625.525-1.137 1.183-1.15.658-.006 1.209.487 1.215 1.112.013.626-.519 1.144-1.177 1.15" id="Fill-330" fill="#FFF"/><path d="M258.782 192.51a1.205 1.205 0 0 1 2.373-.41 1.197 1.197 0 0 1-.98 1.384 1.209 1.209 0 0 1-1.393-.973" id="Fill-331" fill="#FFF"/><path d="M263.28 191.734c-.107-.65.33-1.27.982-1.384a1.194 1.194 0 0 1 1.385.973 1.197 1.197 0 0 1-.974 1.384 1.205 1.205 0 0 1-1.392-.973" id="Fill-332" fill="#FFF"/><path d="M254.29 193.288a1.212 1.212 0 0 1 .975-1.39 1.206 1.206 0 0 1 1.392.98 1.192 1.192 0 0 1-.981 1.383 1.202 1.202 0 0 1-1.386-.973" id="Fill-333" fill="#FFF"/><path d="M249.792 194.065c-.108-.65.329-1.27.987-1.384a1.194 1.194 0 1 1 .405 2.356 1.212 1.212 0 0 1-1.392-.972" id="Fill-334" fill="#FFF"/><path d="M245.3 194.842a1.206 1.206 0 0 1 .987-1.39 1.2 1.2 0 0 1 1.379.986 1.19 1.19 0 0 1-.974 1.377 1.2 1.2 0 0 1-1.392-.973" id="Fill-335" fill="#FFF"/><path d="M240.801 195.619c-.107-.65.33-1.27.987-1.39a1.197 1.197 0 0 1 1.38.986 1.18 1.18 0 0 1-.975 1.377 1.207 1.207 0 0 1-1.392-.973" id="Fill-336" fill="#FFF"/><path d="M236.31 196.396c-.108-.65.328-1.27.98-1.39a1.203 1.203 0 0 1 1.385.986 1.19 1.19 0 0 1-.98 1.377 1.2 1.2 0 0 1-1.386-.973" id="Fill-337" fill="#FFF"/><path d="M231.817 197.173c-.114-.65.323-1.27.98-1.39a1.213 1.213 0 0 1 1.393.986 1.199 1.199 0 0 1-.987 1.377 1.194 1.194 0 0 1-1.386-.973" id="Fill-338" fill="#FFF"/><path d="M227.325 197.95c-.114-.65.323-1.27.98-1.39a1.2 1.2 0 0 1 1.38.986 1.19 1.19 0 0 1-.98 1.377 1.191 1.191 0 0 1-1.38-.973" id="Fill-339" fill="#FFF"/><path d="M222.827 198.727c-.114-.65.322-1.27.98-1.384a1.199 1.199 0 0 1 .405 2.363 1.203 1.203 0 0 1-1.385-.98" id="Fill-340" fill="#FFF"/><path d="M218.334 199.504c-.113-.65.323-1.27.975-1.384a1.203 1.203 0 0 1 1.392.98 1.208 1.208 0 0 1-.987 1.383 1.197 1.197 0 0 1-1.38-.98" id="Fill-341" fill="#FFF"/><path d="M213.836 200.28a1.203 1.203 0 0 1 2.373-.404 1.203 1.203 0 1 1-2.373.404" id="Fill-342" fill="#FFF"/><path d="M209.344 201.058a1.197 1.197 0 0 1 .98-1.384 1.197 1.197 0 0 1 1.386.98 1.212 1.212 0 0 1-.974 1.383 1.206 1.206 0 0 1-1.392-.98" id="Fill-343" fill="#FFF"/><path d="M204.845 201.835a1.2 1.2 0 0 1 2.367-.404c.114.65-.323 1.27-.981 1.383a1.207 1.207 0 0 1-1.386-.98" id="Fill-344" fill="#FFF"/><path d="M200.353 202.612a1.197 1.197 0 0 1 .975-1.384 1.205 1.205 0 0 1 1.392.973 1.211 1.211 0 0 1-.981 1.39 1.203 1.203 0 0 1-1.386-.98" id="Fill-345" fill="#FFF"/><path d="M195.855 203.395a1.203 1.203 0 0 1 2.372-.41c.108.65-.329 1.27-.98 1.383-.658.107-1.285-.328-1.392-.973" id="Fill-346" fill="#FFF"/><path d="M191.363 204.172a1.2 1.2 0 0 1 .98-1.39 1.198 1.198 0 0 1 1.386.973 1.212 1.212 0 0 1-.974 1.39 1.21 1.21 0 0 1-1.392-.973" id="Fill-347" fill="#FFF"/><path d="M186.864 204.943a1.197 1.197 0 0 1 .981-1.384 1.199 1.199 0 0 1 .411 2.363 1.21 1.21 0 0 1-1.392-.98" id="Fill-348" fill="#FFF"/><path d="M182.372 205.726a1.208 1.208 0 0 1 .975-1.39 1.202 1.202 0 0 1 1.391.973 1.207 1.207 0 0 1-.98 1.39 1.199 1.199 0 0 1-1.386-.973" id="Fill-349" fill="#FFF"/><path d="M177.874 206.503a1.203 1.203 0 0 1 2.372-.41 1.205 1.205 0 0 1-2.373.41" id="Fill-350" fill="#FFF"/><path d="M173.382 207.28a1.208 1.208 0 0 1 .98-1.39 1.199 1.199 0 0 1 1.386.973 1.207 1.207 0 0 1-.974 1.39 1.205 1.205 0 0 1-1.392-.973" id="Fill-351" fill="#FFF"/><path d="M168.883 208.05c-.107-.65.33-1.269.98-1.383a1.196 1.196 0 0 1 1.386.973 1.194 1.194 0 0 1-.974 1.39 1.205 1.205 0 0 1-1.392-.98" id="Fill-352" fill="#FFF"/><path d="M164.391 208.834a1.203 1.203 0 0 1 .98-1.39 1.199 1.199 0 1 1 .411 2.363 1.205 1.205 0 0 1-1.39-.973" id="Fill-353" fill="#FFF"/><path d="M159.893 209.605a1.205 1.205 0 0 1 2.372-.41 1.208 1.208 0 0 1-.98 1.389 1.208 1.208 0 0 1-1.392-.98" id="Fill-354" fill="#FFF"/><path d="M155.4 210.382a1.2 1.2 0 0 1 2.367-.404c.114.65-.323 1.27-.98 1.383a1.202 1.202 0 0 1-1.387-.98" id="Fill-355" fill="#FFF"/><path d="M150.902 211.159c-.107-.65.33-1.27.987-1.384a1.207 1.207 0 0 1 1.386.98 1.203 1.203 0 1 1-2.373.404" id="Fill-356" fill="#FFF"/><path d="M146.41 211.936a1.204 1.204 0 0 1 .98-1.384 1.216 1.216 0 0 1 1.393.98c.107.65-.33 1.27-.987 1.377a1.188 1.188 0 0 1-1.386-.973" id="Fill-357" fill="#FFF"/><path d="M141.918 212.713c-.114-.65.322-1.27.98-1.384a1.207 1.207 0 0 1 1.386.98 1.19 1.19 0 0 1-.98 1.377 1.188 1.188 0 0 1-1.386-.973" id="Fill-358" fill="#FFF"/><path d="M137.42 213.49a1.209 1.209 0 0 1 .98-1.384 1.213 1.213 0 0 1 1.392.98c.108.65-.329 1.27-.987 1.377a1.188 1.188 0 0 1-1.386-.973" id="Fill-359" fill="#FFF"/><path d="M132.927 214.267a1.199 1.199 0 0 1 .98-1.384 1.207 1.207 0 0 1 1.387.98 1.2 1.2 0 0 1-.981 1.383 1.194 1.194 0 0 1-1.386-.98" id="Fill-360" fill="#FFF"/><path d="M128.429 215.044a1.209 1.209 0 0 1 .98-1.384 1.21 1.21 0 0 1 1.392.98c.108.65-.329 1.27-.987 1.383a1.197 1.197 0 0 1-1.385-.98" id="Fill-361" fill="#FFF"/><path d="M123.937 215.82a1.194 1.194 0 0 1 .98-1.376 1.198 1.198 0 0 1 1.386.973 1.2 1.2 0 0 1-.98 1.383 1.194 1.194 0 0 1-1.386-.98" id="Fill-362" fill="#FFF"/><path d="M119.438 216.598a1.199 1.199 0 0 1 .98-1.377 1.2 1.2 0 0 1 1.393.973c.107.65-.33 1.27-.987 1.383a1.2 1.2 0 0 1-1.386-.98" id="Fill-363" fill="#FFF"/><path d="M114.946 217.375a1.194 1.194 0 0 1 .98-1.377 1.196 1.196 0 0 1 .411 2.356 1.197 1.197 0 0 1-1.39-.98" id="Fill-364" fill="#FFF"/><path d="M110.448 218.152a1.199 1.199 0 0 1 .98-1.377 1.2 1.2 0 0 1 1.392.973 1.203 1.203 0 0 1-2.373.404" id="Fill-365" fill="#FFF"/><path d="M105.956 218.929a1.194 1.194 0 0 1 .98-1.377 1.198 1.198 0 0 1 1.386.973 1.192 1.192 0 0 1-.98 1.383 1.197 1.197 0 0 1-1.386-.98" id="Fill-366" fill="#FFF"/><path d="M101.457 219.712a1.202 1.202 0 0 1 .98-1.383 1.2 1.2 0 0 1 1.393.973 1.205 1.205 0 0 1-2.373.41" id="Fill-367" fill="#FFF"/><path d="M96.965 220.483a1.194 1.194 0 0 1 .98-1.377 1.199 1.199 0 0 1 1.386.973 1.192 1.192 0 0 1-.98 1.383 1.197 1.197 0 0 1-1.386-.98" id="Fill-368" fill="#FFF"/><path d="M92.473 221.266a1.193 1.193 0 0 1 .974-1.383 1.2 1.2 0 0 1 1.392.973 1.2 1.2 0 0 1-2.366.41" id="Fill-369" fill="#FFF"/><path d="M87.974 222.043a1.202 1.202 0 0 1 2.367-.41 1.192 1.192 0 0 1-.98 1.383 1.193 1.193 0 0 1-1.387-.973" id="Fill-370" fill="#FFF"/><path d="M83.482 222.82c-.114-.65.323-1.27.975-1.383a1.2 1.2 0 0 1 1.392.973 1.2 1.2 0 0 1-.981 1.383 1.196 1.196 0 0 1-1.386-.973" id="Fill-371" fill="#FFF"/><path d="M78.984 223.597c-.108-.65.329-1.27.98-1.383a1.196 1.196 0 0 1 .405 2.356 1.198 1.198 0 0 1-1.385-.973" id="Fill-372" fill="#FFF"/><path d="M74.492 224.374a1.2 1.2 0 0 1 2.366-.41 1.197 1.197 0 0 1-.98 1.383 1.199 1.199 0 0 1-1.386-.973" id="Fill-373" fill="#FFF"/><path d="M69.993 225.151c-.107-.65.33-1.27.987-1.383a1.188 1.188 0 0 1 1.38.973 1.193 1.193 0 0 1-.975 1.383 1.209 1.209 0 0 1-1.392-.973" id="Fill-374" fill="#FFF"/><path d="M65.501 225.928a1.2 1.2 0 0 1 .98-1.383 1.198 1.198 0 0 1 1.387.973 1.192 1.192 0 0 1-.981 1.383 1.199 1.199 0 0 1-1.386-.973" id="Fill-375" fill="#FFF"/><path d="M61.003 226.705c-.108-.65.329-1.27.98-1.383a1.191 1.191 0 0 1 1.386.973 1.193 1.193 0 0 1-.974 1.383 1.205 1.205 0 0 1-1.392-.973" id="Fill-376" fill="#FFF"/><path d="M56.51 227.482c-.113-.65.323-1.27.981-1.383a1.198 1.198 0 0 1 1.386.973 1.192 1.192 0 0 1-.98 1.383 1.198 1.198 0 0 1-1.386-.973" id="Fill-377" fill="#FFF"/><path d="M57.599 221.854c.658 0 1.202.505 1.202 1.137 0 .625-.544 1.13-1.202 1.13-.658 0-1.196-.505-1.196-1.13 0-.632.538-1.137 1.196-1.137" id="Fill-378" fill="#FFF"/><path d="M57.599 217.634c.658 0 1.202.505 1.202 1.13 0 .626-.544 1.131-1.202 1.131-.658 0-1.196-.505-1.196-1.13 0-.626.538-1.131 1.196-1.131" id="Fill-379" fill="#FFF"/><path d="M57.599 213.414c.658 0 1.202.512 1.202 1.13 0 .626-.544 1.132-1.202 1.132-.658 0-1.196-.506-1.196-1.131 0-.62.538-1.13 1.196-1.13" id="Fill-380" fill="#FFF"/><path d="M57.599 209.188c.658 0 1.202.505 1.202 1.13 0 .626-.544 1.131-1.202 1.131-.658 0-1.196-.505-1.196-1.13 0-.626.538-1.131 1.196-1.131" id="Fill-381" fill="#FFF"/><path d="M57.599 204.974c.658 0 1.202.5 1.202 1.125s-.544 1.13-1.202 1.13c-.658 0-1.196-.505-1.196-1.13 0-.625.538-1.125 1.196-1.125" id="Fill-382" fill="#FFF"/><path d="M57.599 200.755c.658 0 1.202.505 1.202 1.124 0 .626-.544 1.13-1.202 1.13-.658 0-1.196-.504-1.196-1.13 0-.619.538-1.124 1.196-1.124" id="Fill-383" fill="#FFF"/><path d="M63.141 196.61a1.202 1.202 0 0 1-.974 1.39 1.195 1.195 0 0 1-1.386-.979 1.199 1.199 0 0 1 2.36-.41" id="Fill-384" fill="#FFF"/><path d="M58.65 197.388a1.199 1.199 0 1 1-1.386-.98 1.202 1.202 0 0 1 1.385.98" id="Fill-385" fill="#FFF"/><path d="M67.633 195.84c.114.65-.322 1.27-.974 1.383a1.202 1.202 0 0 1-1.386-.972 1.19 1.19 0 0 1 .975-1.384 1.186 1.186 0 0 1 1.385.973" id="Fill-386" fill="#FFF"/><path d="M72.126 195.063a1.199 1.199 0 0 1-.975 1.39 1.203 1.203 0 0 1-1.385-.98c-.114-.65.322-1.27.98-1.383a1.193 1.193 0 0 1 1.38.973" id="Fill-387" fill="#FFF"/><path d="M76.618 194.292c.114.651-.323 1.27-.975 1.384a1.202 1.202 0 0 1-1.385-.973 1.193 1.193 0 0 1 .974-1.384 1.186 1.186 0 0 1 1.386.973" id="Fill-388" fill="#FFF"/><path d="M81.11 193.515a1.199 1.199 0 0 1-.975 1.39 1.207 1.207 0 0 1-1.385-.98c-.114-.65.323-1.269.974-1.383a1.199 1.199 0 0 1 1.386.973" id="Fill-389" fill="#FFF"/><path d="M85.602 192.745c.114.65-.323 1.27-.974 1.39a1.206 1.206 0 0 1-1.386-.986 1.19 1.19 0 0 1 .974-1.377 1.194 1.194 0 0 1 1.386.973" id="Fill-390" fill="#FFF"/><path d="M90.1 191.974a1.209 1.209 0 0 1-.98 1.383 1.207 1.207 0 0 1-1.386-.979c-.114-.65.323-1.27.974-1.377a1.198 1.198 0 0 1 1.392.973" id="Fill-391" fill="#FFF"/><path d="M94.586 191.197c.114.65-.323 1.27-.974 1.39a1.206 1.206 0 0 1-1.386-.986 1.19 1.19 0 0 1 .975-1.377 1.191 1.191 0 0 1 1.385.973" id="Fill-392" fill="#FFF"/><path d="M99.085 190.426a1.209 1.209 0 0 1-.981 1.384 1.2 1.2 0 1 1 .98-1.383" id="Fill-393" fill="#FFF"/><path d="M103.57 189.656c.12.644-.322 1.27-.974 1.377a1.198 1.198 0 0 1-1.386-.973 1.21 1.21 0 0 1 .981-1.39 1.197 1.197 0 0 1 1.38.986" id="Fill-394" fill="#FFF"/><path d="M108.069 188.879a1.199 1.199 0 0 1-.98 1.377 1.188 1.188 0 0 1-1.386-.973 1.204 1.204 0 0 1 .98-1.384 1.207 1.207 0 0 1 1.386.98" id="Fill-395" fill="#FFF"/><path d="M112.56 188.108a1.199 1.199 0 0 1-.98 1.377 1.198 1.198 0 0 1-1.385-.973 1.2 1.2 0 0 1 2.366-.404" id="Fill-396" fill="#FFF"/><path d="M117.053 187.33c.108.652-.329 1.27-.98 1.384a1.197 1.197 0 0 1-1.386-.979c-.114-.65.322-1.27.98-1.383a1.207 1.207 0 0 1 1.386.979" id="Fill-397" fill="#FFF"/><path d="M121.545 186.554a1.197 1.197 0 0 1-.98 1.383 1.202 1.202 0 0 1-1.386-.972 1.2 1.2 0 0 1 2.366-.411" id="Fill-398" fill="#FFF"/><path d="M126.037 185.777a1.2 1.2 0 0 1-.98 1.39 1.202 1.202 0 0 1-1.386-.973 1.207 1.207 0 0 1 .974-1.39 1.21 1.21 0 0 1 1.392.973" id="Fill-399" fill="#FFF"/><path d="M130.53 185.006a1.202 1.202 0 0 1-.981 1.384 1.198 1.198 0 0 1-1.386-.973 1.2 1.2 0 0 1 2.366-.41" id="Fill-400" fill="#FFF"/><path d="M135.021 184.236a1.2 1.2 0 0 1-2.366.41 1.197 1.197 0 0 1 .98-1.383 1.193 1.193 0 0 1 1.386.973" id="Fill-401" fill="#FFF"/><path d="M139.514 183.459a1.207 1.207 0 0 1-.981 1.39 1.202 1.202 0 0 1-1.386-.98c-.114-.65.323-1.27.981-1.383a1.202 1.202 0 0 1 1.386.973" id="Fill-402" fill="#FFF"/><path d="M144.006 182.688a1.2 1.2 0 0 1-2.367.41 1.202 1.202 0 0 1 2.367-.41" id="Fill-403" fill="#FFF"/><path d="M148.498 181.91a1.199 1.199 0 1 1-2.361.417 1.199 1.199 0 0 1 2.36-.416" id="Fill-404" fill="#FFF"/><path d="M152.99 181.14a1.199 1.199 0 0 1-.98 1.384 1.193 1.193 0 0 1-1.38-.973c-.12-.65.323-1.276.974-1.384a1.202 1.202 0 0 1 1.386.973" id="Fill-405" fill="#FFF"/><path d="M157.482 180.37c.114.65-.323 1.27-.98 1.383a1.207 1.207 0 0 1-1.386-.98c-.108-.65.329-1.269.98-1.376a1.188 1.188 0 0 1 1.386.972" id="Fill-406" fill="#FFF"/><path d="M161.974 179.592a1.209 1.209 0 0 1-.98 1.39 1.206 1.206 0 0 1-1.386-.985 1.199 1.199 0 0 1 .98-1.377 1.198 1.198 0 0 1 1.386.972" id="Fill-407" fill="#FFF"/><path d="M166.466 178.822a1.2 1.2 0 0 1-.974 1.383 1.21 1.21 0 0 1-1.392-.979c-.108-.65.329-1.27.98-1.383a1.197 1.197 0 0 1 1.386.979" id="Fill-408" fill="#FFF"/><path d="M170.958 178.045a1.202 1.202 0 0 1-.98 1.39 1.21 1.21 0 0 1-1.386-.98c-.107-.65.33-1.27.98-1.383a1.198 1.198 0 0 1 1.386.973" id="Fill-409" fill="#FFF"/><path d="M175.45 177.274a1.2 1.2 0 1 1-2.366.404 1.209 1.209 0 0 1 .98-1.383 1.203 1.203 0 0 1 1.387.98" id="Fill-410" fill="#FFF"/><path d="M179.943 176.503a1.19 1.19 0 0 1-.975 1.378 1.2 1.2 0 0 1-1.392-.973 1.202 1.202 0 0 1 .975-1.384 1.197 1.197 0 0 1 1.392.98" id="Fill-411" fill="#FFF"/><path d="M184.435 175.726a1.2 1.2 0 0 1-.975 1.384 1.203 1.203 0 0 1-1.392-.98 1.208 1.208 0 0 1 .987-1.383 1.2 1.2 0 0 1 1.38.98" id="Fill-412" fill="#FFF"/><path d="M188.927 174.95a1.2 1.2 0 1 1-2.366.41c-.108-.65.329-1.27.974-1.383a1.197 1.197 0 0 1 1.392.972" id="Fill-413" fill="#FFF"/><path d="M193.419 174.179a1.2 1.2 0 0 1-.974 1.383 1.208 1.208 0 0 1-1.392-.979 1.2 1.2 0 0 1 .98-1.383 1.207 1.207 0 0 1 1.386.979" id="Fill-414" fill="#FFF"/><path d="M197.911 173.402a1.207 1.207 0 0 1-.974 1.39 1.213 1.213 0 0 1-1.392-.98c-.108-.65.329-1.27.98-1.383a1.194 1.194 0 0 1 1.386.973" id="Fill-415" fill="#FFF"/><path d="M202.403 172.631a1.204 1.204 0 0 1-.974 1.384 1.199 1.199 0 0 1-1.386-.98c-.12-.65.323-1.27.975-1.377a1.194 1.194 0 0 1 1.385.973" id="Fill-416" fill="#FFF"/><path d="M206.895 171.854a1.207 1.207 0 0 1-.974 1.39 1.213 1.213 0 0 1-1.392-.98 1.2 1.2 0 0 1 2.366-.41" id="Fill-417" fill="#FFF"/><path d="M211.387 171.083a1.2 1.2 0 0 1-.974 1.384 1.199 1.199 0 0 1-.411-2.363 1.203 1.203 0 0 1 1.385.98" id="Fill-418" fill="#FFF"/><path d="M215.88 170.313a1.194 1.194 0 0 1-.975 1.377 1.186 1.186 0 0 1-1.385-.973c-.12-.65.322-1.27.974-1.383a1.202 1.202 0 0 1 1.386.979" id="Fill-419" fill="#FFF"/><path d="M220.372 169.536c.114.65-.323 1.27-.975 1.383a1.19 1.19 0 0 1-1.385-.979c-.12-.644.322-1.27.974-1.377a1.198 1.198 0 0 1 1.386.973" id="Fill-420" fill="#FFF"/><path d="M224.864 168.765c.114.65-.323 1.27-.975 1.383a1.2 1.2 0 0 1-1.385-.979c-.12-.65.323-1.27.974-1.383a1.202 1.202 0 0 1 1.386.979" id="Fill-421" fill="#FFF"/><path d="M229.356 167.988c.114.65-.323 1.27-.98 1.383a1.188 1.188 0 0 1-1.38-.979c-.114-.65.316-1.27.974-1.377a1.194 1.194 0 0 1 1.386.973" id="Fill-422" fill="#FFF"/><path d="M233.854 167.211a1.212 1.212 0 0 1-.974 1.39 1.205 1.205 0 0 1-1.392-.98 1.2 1.2 0 0 1 .974-1.383 1.205 1.205 0 0 1 1.392.973" id="Fill-423" fill="#FFF"/><path d="M238.346 166.44c.108.651-.329 1.27-.98 1.384a1.202 1.202 0 0 1-1.386-.973c-.114-.65.323-1.27.975-1.383a1.2 1.2 0 0 1 1.391.972" id="Fill-424" fill="#FFF"/><path d="M242.839 165.67a1.209 1.209 0 0 1-.981 1.383 1.202 1.202 0 0 1-1.386-.979c-.114-.65.323-1.27.981-1.383a1.205 1.205 0 0 1 1.386.979" id="Fill-425" fill="#FFF"/><path d="M247.33 164.893c.108.65-.328 1.27-.98 1.39a1.203 1.203 0 0 1-1.386-.98c-.113-.65.323-1.27.975-1.383a1.204 1.204 0 0 1 1.392.973" id="Fill-426" fill="#FFF"/><path d="M251.823 164.122a1.2 1.2 0 0 1-.98 1.383 1.207 1.207 0 0 1-1.386-.979c-.114-.65.322-1.27.98-1.383a1.205 1.205 0 0 1 1.386.979" id="Fill-427" fill="#FFF"/><path d="M256.315 163.345a1.202 1.202 0 0 1-2.366.41 1.2 1.2 0 0 1 2.366-.41" id="Fill-428" fill="#FFF"/><path d="M260.8 162.574c.115.651-.316 1.27-.974 1.384a1.193 1.193 0 0 1-1.379-.973c-.12-.65.316-1.276.974-1.39a1.2 1.2 0 0 1 1.38.98" id="Fill-429" fill="#FFF"/><path d="M265.293 161.804a1.19 1.19 0 0 1-.975 1.377 1.196 1.196 0 0 1-.405-2.356 1.196 1.196 0 0 1 1.38.979" id="Fill-430" fill="#FFF"/></g><path d="M112.83 73.985c.121.144.181.343.181.598v.675l-3.782.658v-.675c0-.255.06-.475.181-.661.12-.186.242-.335.362-.446a.637.637 0 0 0 .17-.187c.038-.066.057-.175.057-.325v-5.355c0-.21-.106-.296-.317-.26l-2.696.47c-.226.039-.34.171-.34.396V74.206c0 .15.023.25.069.303a.608.608 0 0 0 .158.13c.121.069.242.175.363.319.12.144.18.344.18.599v.675l-3.76.654v-.675c0-.255.057-.475.17-.66.114-.185.231-.332.352-.443a.805.805 0 0 0 .181-.19c.045-.067.068-.176.068-.326v-12.51c0-.15-.023-.251-.068-.303a.79.79 0 0 0-.181-.149 1.235 1.235 0 0 1-.351-.321c-.114-.146-.17-.346-.17-.6v-.653l3.76-.654v.652c0 .255-.06.476-.181.662-.121.186-.242.334-.363.445-.06.07-.113.14-.158.208-.046.068-.068.177-.068.327v4.635c0 .12.037.2.113.239a.35.35 0 0 0 .226.039l2.696-.47a.346.346 0 0 0 .238-.142.432.432 0 0 0 .079-.25v-4.635c0-.15-.019-.251-.057-.305a.575.575 0 0 0-.17-.15 1.385 1.385 0 0 1-.362-.32c-.12-.144-.181-.343-.181-.598v-.653l3.782-.658v.653c0 .255-.06.475-.18.661-.122.186-.242.335-.363.446a.962.962 0 0 0-.17.21c-.038.066-.057.174-.057.324V73.21c0 .172.02.274.057.327a.384.384 0 0 0 .17.128c.12.07.241.176.362.32zm13.46-10.52c.166.338.249.71.249 1.115v5.287c0 .975-.325 1.8-.974 2.476-.65.675-1.518 1.108-2.605 1.297-1.133.197-2.016.058-2.65-.417-.634-.474-.951-1.29-.951-2.444v-4.545c0-1.155.317-2.07.95-2.742.635-.673 1.518-1.108 2.65-1.305.545-.094 1.035-.101 1.473-.02.438.082.816.233 1.133.456.317.222.558.503.725.841zm-1.903 1.894c0-.645-.144-1.055-.43-1.23-.287-.175-.635-.227-1.042-.156-.423.073-.763.241-1.02.503-.256.262-.385.693-.385 1.293v4.748c0 .585.136.97.408 1.155.272.185.62.241 1.042.168a1.73 1.73 0 0 0 1.02-.56c.271-.302.407-.709.407-1.219V65.36zm11.149-2.784c-.03.148-.045.282-.045.402 0 .307.12.568.362.758.242.19.54.353.895.486s.74.261 1.155.384c.415.123.8.277 1.155.463.355.185.653.418.895.699.241.28.362.653.362 1.118v.585c0 1.035-.313 1.87-.94 2.504-.627.634-1.476 1.044-2.548 1.23-1.102.192-1.997.112-2.684-.241s-1.03-1.017-1.03-1.992v-1.418l1.019-.177c.437-.076.743-.062.917.043.174.105.26.375.26.81v.045c0 .39.091.704.272.942.181.239.559.308 1.133.208s.955-.301 1.144-.604c.188-.303.283-.657.283-1.062v-.225c0-.24-.117-.433-.351-.58a4.368 4.368 0 0 0-.895-.407l-1.155-.395a5.773 5.773 0 0 1-1.155-.541 2.915 2.915 0 0 1-.895-.846c-.234-.342-.351-.783-.351-1.323v-.54c0-.84.306-1.523.917-2.05.612-.526 1.378-.869 2.3-1.03.664-.115 1.226-.138 1.687-.068.46.07.834.211 1.12.424.288.212.495.488.624.825.128.338.192.717.192 1.137v1.102l-.86.15c-.408.07-.737.08-.986.025-.249-.054-.374-.321-.374-.801 0-.3-.105-.57-.317-.811-.211-.24-.536-.323-.974-.247a1.41 1.41 0 0 0-.589.226 1.44 1.44 0 0 0-.362.367c-.09.136-.15.278-.181.425zm15.905 5.412c0 .195-.034.332-.102.411a.637.637 0 0 1-.17.153c-.543.23-1.038.346-1.483.349-.445.002-.83-.073-1.155-.227a1.68 1.68 0 0 1-.748-.669 1.922 1.922 0 0 1-.26-1v-7.11l-1.314.228v-.54c0-.48.098-.85.295-1.109.196-.259.536-.43 1.019-.515v-2.835c0-.495.113-.897.34-1.206a2.68 2.68 0 0 1 .747-.715c.317-.205.68-.35 1.087-.437v4.815l1.405-.244v.45c0 .42-.102.79-.306 1.11-.204.321-.57.527-1.099.62v6.75c0 .314.117.541.351.68.234.14.57.134 1.008-.017a.42.42 0 0 1 .25-.01c.09.022.135.1.135.235v.833zm9.564-2.744c.408-.071.74-.238.996-.5a1.18 1.18 0 0 0 .363-.907v-.09c0-.345.102-.659.306-.942.204-.283.51-.46.917-.53l.929-.162v1.507c0 .975-.321 1.74-.963 2.294-.642.554-1.514.927-2.616 1.12-1.133.196-2.016.072-2.65-.372-.634-.445-.951-1.237-.951-2.377v-4.455c0-1.155.317-2.103.95-2.843.635-.74 1.518-1.21 2.65-1.406 1.118-.195 1.994-.032 2.628.487.635.52.952 1.357.952 2.512v1.44c0 .75-.499 1.212-1.495 1.386l-3.534.614v2.048c0 .6.148.964.442 1.093.294.129.653.156 1.076.083zm1.359-6.402c0-.585-.136-.996-.408-1.234-.272-.237-.611-.32-1.02-.25-.422.074-.77.277-1.041.609-.272.332-.408.79-.408 1.376v1.147l2.582-.449.295-.051V58.84zm16.743 4.917l-2.423.422c-.106.018-.189.01-.25-.024a.608.608 0 0 1-.158-.13.327.327 0 0 1-.113-.206 1.76 1.76 0 0 1-.408.341 2.726 2.726 0 0 1-.577.28 4.982 4.982 0 0 1-.85.216c-1.117.195-1.936.018-2.457-.529-.521-.546-.782-1.397-.782-2.552v-4.073c0-1.155.234-2.103.702-2.844.469-.742 1.261-1.21 2.379-1.404.317-.055.6-.071.85-.047.248.024.456.06.622.106.196.055.37.123.521.201v-3.87c0-.21-.083-.353-.25-.429a1.299 1.299 0 0 1-.35-.31c-.114-.138-.17-.342-.17-.612v-.742l1.585-.276c.514-.09.869-.046 1.065.13.196.176.294.474.294.894v13.387c0 .15.023.251.068.303a.79.79 0 0 0 .182.149c.105.056.218.157.34.3.12.145.18.36.18.644v.675zm-4.394-8.73c-.422.073-.774.27-1.053.588-.28.318-.419.785-.419 1.4v4.298c0 .6.117 1.018.351 1.255.234.237.555.32.963.249.256-.045.487-.123.69-.233.204-.11.374-.222.51-.336.136-.114.238-.218.306-.312l.102-.142V55.45a3.702 3.702 0 0 0-.43-.262 5.284 5.284 0 0 0-.453-.146 1.285 1.285 0 0 0-.567-.014zm35.888-8.112c.318.695.476 1.567.476 2.617 0 .99-.098 1.836-.294 2.538-.197.701-.442 1.295-.736 1.782-.295.486-.612.875-.952 1.166-.34.292-.66.52-.962.685a3.34 3.34 0 0 1-.77.326c-.212.051-.333.08-.363.085-.528.092-.989.127-1.382.105a1.329 1.329 0 0 1-.974-.483c-.15.192-.34.36-.566.504-.196.14-.442.264-.736.376a4.03 4.03 0 0 1-1.03.224c-.53.047-1 .005-1.416-.125a1.962 1.962 0 0 1-.997-.682c-.249-.324-.404-.754-.464-1.291-.06-.537 0-1.19.181-1.956.302-1.267.755-2.227 1.36-2.88.603-.652 1.366-1.074 2.287-1.264a4.06 4.06 0 0 1 1.62-.046c.188.035.331.074.43.117l.147.064a1.5 1.5 0 0 1 .181-.279c.166-.239.438-.391.815-.457l1.722-.3v.743c0 .255-.053.47-.159.646-.105.176-.219.32-.34.43a.502.502 0 0 0-.226.355l-.951 3.766c-.03.2.034.339.192.416a.852.852 0 0 0 .533.065c.453-.079.807-.26 1.064-.545a2.54 2.54 0 0 0 .555-1.03 5.96 5.96 0 0 0 .204-1.34c.023-.492.034-.978.034-1.458 0-.78-.113-1.417-.34-1.91a2.488 2.488 0 0 0-.996-1.131c-.438-.262-.97-.413-1.597-.454-.627-.04-1.34.009-2.14.148a6.458 6.458 0 0 0-2.458.979 8.614 8.614 0 0 0-3.364 4.23 7.692 7.692 0 0 0-.498 2.708c0 .885.113 1.611.34 2.18.226.568.543 1.011.95 1.33.409.32.888.517 1.44.594.55.076 1.158.057 1.823-.059a9.118 9.118 0 0 0 1.744-.46c.483-.19.853-.352 1.11-.486.105-.049.188-.06.249-.032.06.027.098.076.113.149.015.072.041.217.08.436.037.218.07.407.101.567.03.145.03.242 0 .293a.425.425 0 0 1-.159.14c-.21.141-.577.329-1.098.562a7.696 7.696 0 0 1-1.823.531c-1.057.184-2.001.232-2.832.144-.83-.088-1.529-.338-2.095-.75-.566-.41-1-.995-1.302-1.753-.302-.757-.453-1.713-.453-2.868 0-1.335.219-2.577.657-3.726a10.142 10.142 0 0 1 1.8-3.047 9.991 9.991 0 0 1 2.673-2.186 10.224 10.224 0 0 1 3.296-1.17c1.042-.181 1.978-.232 2.808-.151.83.08 1.54.313 2.13.698.588.385 1.041.925 1.358 1.62zm-7.021 3.45c-.483.158-.838.422-1.065.792-.226.37-.445.902-.657 1.6-.211.711-.249 1.258-.113 1.639s.544.535 1.223.462c.302-.037.54-.101.714-.192.173-.09.306-.18.396-.271a.756.756 0 0 0 .204-.35l.906-3.42a1.009 1.009 0 0 0-.408-.267 1.679 1.679 0 0 0-.51-.092 2.14 2.14 0 0 0-.69.098z" id="Hosted-@-the" fill="#FFF"/><path d="M100.545 207.214l-9.023 1.566-3.15 6.982-.697.12 8.415-18.74 8.438 15.816-.788.136-3.195-5.88zm-4.523-8.508l-4.207 9.37 8.46-1.468-4.253-7.902zm12.33 9.988v-13.275l.72-.125v13.275c0 .915.304 1.62.912 2.114.607.495 1.346.666 2.216.515v.63c-1.065.185-1.972-.013-2.722-.596-.75-.582-1.125-1.428-1.125-2.538zm7.448-1.293v-13.275l.72-.125v13.275c0 .915.304 1.62.911 2.114.608.495 1.346.667 2.216.516v.63c-1.065.185-1.972-.014-2.722-.596-.75-.583-1.125-1.429-1.125-2.539zm23.737-1.938l3.128-7.855-3.487-7.54.81-.14 3.127 6.86 3.218-7.962.63-.109-3.51 8.732 3.195 6.848 6.817-16.709.607-.105-7.492 18.468-3.578-7.614-3.577 8.856-7.403-15.883.833-.144 6.683 14.297zM154.5 199.2c0-1.425.525-2.75 1.575-3.975 1.05-1.225 2.347-1.971 3.893-2.24 1.545-.267 2.872.117 3.982 1.155l-7.065 8.2c.975.612 1.912.839 2.813.683a5.538 5.538 0 0 0 2.418-1.039 6.872 6.872 0 0 0 1.766-1.96v1.147c-1.065 1.355-2.354 2.164-3.87 2.427l-.202.035c-1.425.247-2.666-.073-3.724-.962-1.057-.89-1.586-2.046-1.586-3.471zm8.46-4.889c-.93-.648-1.991-.869-3.184-.662-1.192.207-2.25.852-3.172 1.934-.923 1.083-1.384 2.224-1.384 3.424 0 1.2.397 2.181 1.192 2.943l6.548-7.639zm4.477 2.643c0-1.425.525-2.75 1.575-3.974 1.05-1.225 2.348-1.972 3.893-2.24 1.545-.268 2.872.117 3.982 1.154l-7.065 8.201c.976.611 1.913.838 2.813.682a5.538 5.538 0 0 0 2.419-1.039 6.872 6.872 0 0 0 1.766-1.96v1.148c-1.065 1.354-2.355 2.163-3.87 2.426l-.202.035c-1.426.248-2.667-.073-3.724-.962-1.058-.889-1.587-2.046-1.587-3.47zm8.46-4.888c-.93-.649-1.99-.87-3.183-.663-1.193.207-2.25.852-3.173 1.935-.922 1.082-1.383 2.224-1.383 3.424 0 1.2.397 2.18 1.192 2.943l6.548-7.64zm9.653-3.296l.922-.16-4.635 4.855 5.806 5.067-.968.168-5.13-4.442v5.332l-.72.125v-16.83l.72-.125v10.215l4.005-4.205zm4.14 4.322c0-1.425.525-2.75 1.575-3.975 1.05-1.225 2.347-1.971 3.893-2.24 1.545-.267 2.872.117 3.982 1.154l-7.065 8.202c.975.61 1.912.838 2.813.682a5.538 5.538 0 0 0 2.418-1.039 6.872 6.872 0 0 0 1.766-1.96v1.147c-1.065 1.355-2.354 2.164-3.87 2.427l-.202.035c-1.425.247-2.666-.073-3.724-.962-1.057-.89-1.586-2.046-1.586-3.471zm8.46-4.889c-.93-.648-1.991-.87-3.184-.662-1.192.207-2.25.852-3.172 1.934-.923 1.083-1.384 2.224-1.384 3.424 0 1.2.397 2.181 1.192 2.943l6.548-7.639zm5.648-2.6v2.048c.765-1.663 2.07-2.655 3.915-2.975 1.26-.219 2.317.033 3.172.754.855.722 1.282 1.705 1.282 2.95v5.895l-.72.125v-5.895c0-1.035-.363-1.872-1.09-2.51-.728-.64-1.61-.869-2.644-.689-1.036.18-1.947.72-2.734 1.622-.788.902-1.181 1.87-1.181 2.905v5.895l-.72.125v-10.125l.72-.125zm22.252 3.81a6.428 6.428 0 0 1-1.958 2.309c-.855.636-1.732 1.032-2.632 1.188-1.485.258-2.749-.044-3.791-.906-1.043-.861-1.564-2.02-1.564-3.475s.521-2.794 1.564-4.017c1.042-1.224 2.306-1.964 3.791-2.222a4.862 4.862 0 0 1 2.689.276c.862.345 1.496.895 1.901 1.65v-9.225l.72-.125v16.875l-.72.125v-2.453zm.045-2.595c0-1.26-.461-2.279-1.384-3.056-.922-.778-2.013-1.057-3.274-.838-1.26.218-2.343.871-3.25 1.959-.908 1.088-1.362 2.265-1.362 3.533 0 1.267.45 2.284 1.35 3.05.9.767 1.984 1.04 3.251.82 1.268-.22 2.363-.872 3.285-1.954.923-1.083 1.384-2.254 1.384-3.514z" id="All-Weekend" fill="#FFF"/><path d="M58.95 157.169a32.615 32.615 0 0 1 .112-2.616c.05-.623.1-1.33.15-2.12.05-.79.15-1.69.3-2.699.025-.183.05-.377.074-.582a.452.452 0 0 1-.15-.342c0-.224.1-.409.3-.556.075-.504.15-.998.224-1.48a88.49 88.49 0 0 0 .449-2.792c.1-.889.237-1.762.411-2.619.15-.83.262-1.565.336-2.203.075-.66.162-1.307.262-1.939.1-.632.187-1.177.262-1.637.075-.46.124-.837.15-1.132.05-.321.112-.578.186-.77.05-.255.162-.43.337-.529a.627.627 0 0 1 .504-.073 3.648 3.648 0 0 1 .655.27c.199.254.361.66.486 1.22.124.49.261 1.086.41 1.785.15.7.3 1.432.45 2.198a45.714 45.714 0 0 1 .673 4.687c.074.813.143 1.615.205 2.408.062.793.093 1.58.093 2.361 0 .804.025 1.548.075 2.231l.075 2.063c.025.666.062 1.217.112 1.655.075.433.112.818.112 1.153.025.24.05.426.075.556.05.17.075.366.075.59l.037.26c0 .18-.062.34-.187.486a.843.843 0 0 1-.448.28.643.643 0 0 1-.486-.064.424.424 0 0 1-.225-.396v-.267a15.71 15.71 0 0 0-.074-.423 3.88 3.88 0 0 1-.113-.75c0-.29-.025-.643-.074-1.059a14.025 14.025 0 0 1-.15-1.715l-.075-2.096a30.797 30.797 0 0 1-.074-2.231v-.134c-.1.018-.2.047-.3.087-.199.08-.436.166-.71.26-.274.07-.523.137-.747.2-.35.084-.648.16-.898.226-.299.098-.585.17-.86.22l-.074.013c-.025.16-.05.332-.075.515a40.21 40.21 0 0 0-.262 2.626c-.05.79-.1 1.491-.15 2.103a12.23 12.23 0 0 0-.111 1.477v1.524c.025.151-.031.301-.169.448a.856.856 0 0 1-.485.27c-.187.034-.343.006-.468-.084a.536.536 0 0 1-.224-.362v-.502zm2.73-9.394c.274-.093.56-.178.86-.253l.747-.2c.25-.066.436-.133.561-.2.2-.08.399-.138.598-.173a13.494 13.494 0 0 1-.037-.998 87.438 87.438 0 0 0-.187-2.379c-.1-.808-.2-1.583-.3-2.324a70.178 70.178 0 0 0-.41-2.272c-.15-.755-.3-1.476-.449-2.164-.05-.26-.1-.507-.15-.744-.05.322-.1.676-.15 1.065-.099.62-.186 1.25-.26 1.888-.075.684-.2 1.454-.375 2.31-.15.831-.286 1.682-.41 2.552-.1.911-.238 1.862-.412 2.853l-.224 1.179c.2-.036.398-.082.598-.14zm28.278-20.06c.075.054.175.08.3.081.199.01.423.014.672.015.224.004.461.007.71.007.35-.04.698-.023 1.047.049.324.054.604.127.841.219s.455.187.654.286c.2.12.387.255.561.403.15.152.3.326.449.523.174.192.311.413.41.664.125.268.2.556.225.864 0 .223.013.456.038.697v.804c0 .29-.02.606-.057.947a6.322 6.322 0 0 1-.168.934 10.5 10.5 0 0 1-.187.837c-.074.282-.143.556-.205.824-.063.268-.119.54-.169.817a9.777 9.777 0 0 1-.261.884c-.1.263-.212.54-.337.83-.1.308-.211.607-.336.897-.125.312-.25.591-.374.837a13.199 13.199 0 0 1-1.047 1.492 4.021 4.021 0 0 0-.355.532c-.112.198-.28.429-.504.692-.2.214-.387.448-.561.703l-.3.455c-.099.129-.236.231-.41.307.025.487.037.987.037 1.5.025.51.05.985.075 1.428.025.442.037.83.037 1.165.025.33.025.643 0 .938-.025.25-.037.464-.037.643V151.262a4.378 4.378 0 0 0-.038.509v.234c0 .156-.068.308-.205.455a.83.83 0 0 1-.468.267.592.592 0 0 1-.467-.1.451.451 0 0 1-.205-.383v-.234c0-.157.012-.349.037-.576v-1.206c0-.201.012-.438.037-.71a4.697 4.697 0 0 0 0-.837c0-.335-.012-.724-.037-1.166-.025-.442-.05-.918-.075-1.427 0-.536-.012-1.07-.037-1.6a41.95 41.95 0 0 1-.038-1.87v-7.804c0-.647.013-1.263.038-1.848.025-.585.037-1.101.037-1.548 0-.469.013-.861.038-1.179.024-.339.05-.622.074-.85.025-.16.063-.301.112-.422a1.918 1.918 0 0 1-.41-.161l-.225-.128a.498.498 0 0 1-.262-.372.577.577 0 0 1 .131-.459.868.868 0 0 1 .449-.297.734.734 0 0 1 .504.01l.262.155zm.935 14.47c.15-.182.261-.325.336-.428.15-.25.3-.477.449-.682.15-.183.311-.402.486-.656a9.38 9.38 0 0 0 .43-.68 6.02 6.02 0 0 0 .317-.658c.1-.286.212-.574.337-.864.1-.286.2-.56.299-.823.1-.241.162-.476.187-.703.074-.282.143-.562.205-.84.063-.28.131-.571.206-.875.075-.259.137-.526.187-.803.075-.237.124-.502.15-.797.024-.295.037-.565.037-.81v-.737a7.1 7.1 0 0 1-.038-.73 1.91 1.91 0 0 0-.15-.476 3.332 3.332 0 0 0-.26-.523 5.788 5.788 0 0 0-.375-.37 1.18 1.18 0 0 0-.336-.274 17.77 17.77 0 0 0-.523-.209 3.758 3.758 0 0 0-.673-.182 6.815 6.815 0 0 0-.673-.048c-.25.022-.474.028-.673.02a.685.685 0 0 0-.075.314c-.05.187-.075.426-.075.716a13.61 13.61 0 0 0-.037 1.112c0 .47-.012.996-.037 1.581a41.86 41.86 0 0 0-.038 1.782v8.038c.1-.13.212-.26.337-.395zm9.896-1.89c0-.38-.013-.747-.038-1.1a29.898 29.898 0 0 1-.15-2.05c0-.67-.024-1.335-.074-1.996a26.595 26.595 0 0 1-.075-1.93v-3.281a14.892 14.892 0 0 1 .187-2.412l.075-.415c.025-.16.118-.305.28-.435a.706.706 0 0 1 .505-.173c.349-.017.536.14.56.47a4.19 4.19 0 0 1 1.234-.052c.424.037.81.147 1.16.33.348.14.66.33.934.571.274.242.51.535.71.879.175.326.324.668.449 1.025.1.362.162.787.187 1.273.025.443.006.887-.056 1.333a8.462 8.462 0 0 1-.318 1.38c-.15.517-.411 1.1-.785 1.747-.35.598-.71 1.175-1.084 1.733-.35.53-.686 1.015-1.01 1.452-.249.334-.448.604-.598.81.125-.023.274-.038.449-.047a3.09 3.09 0 0 1 .934.102c.3.059.586.153.86.283.324.143.598.33.823.557.224.228.398.51.523.845.15.286.25.603.299.952.075.321.125.67.15 1.045l.074 1.092c.025.353.038.708.038 1.065v3.785c0 .134.012.265.037.395l.037.228a.627.627 0 0 1-.112.455.83.83 0 0 1-.43.328.68.68 0 0 1-.504.006.421.421 0 0 1-.262-.356l-.075-.221a4.735 4.735 0 0 1-.037-.596v-3.785c0-.335-.013-.679-.037-1.032-.025-.33-.05-.683-.075-1.058a8.531 8.531 0 0 0-.112-.901 2.844 2.844 0 0 0-.262-.774 1.432 1.432 0 0 0-.336-.577 1.655 1.655 0 0 0-.486-.349 2.774 2.774 0 0 0-.636-.189 1.863 1.863 0 0 0-.635-.054c-.2.013-.4.037-.599.073l-.336.06v.133c.025.666.056 1.319.093 1.96.038.64.081 1.247.131 1.819.05.616.088 1.167.112 1.654a18.327 18.327 0 0 0 .113 2.124c.025.263.037.484.037.663v1.172c0 .157-.069.308-.206.455a.83.83 0 0 1-.467.268.592.592 0 0 1-.467-.102.451.451 0 0 1-.206-.382v-1.172c0-.156-.012-.344-.037-.563-.025-.263-.05-.566-.075-.907-.025-.342-.037-.77-.037-1.283a53.476 53.476 0 0 0-.112-1.588 70.96 70.96 0 0 1-.131-1.87 99.756 99.756 0 0 1-.094-1.975v-.436l-.075-.187c0-.09.013-.181.038-.275zm1.607-2.195c.324-.415.66-.888 1.01-1.419.349-.508.685-1.048 1.009-1.62.324-.548.548-1.035.673-1.459.124-.401.212-.796.262-1.185.05-.388.062-.77.037-1.145a5.77 5.77 0 0 0-.15-1.012c-.1-.272-.224-.54-.373-.804a2.297 2.297 0 0 0-.524-.644 2.424 2.424 0 0 0-.673-.45 1.875 1.875 0 0 0-.747-.202c-.3-.036-.61-.026-.935.032l-.112.02a.962.962 0 0 1-.037.24c-.025.362-.038.778-.038 1.247v3.282c0 .58.025 1.201.075 1.862.05.661.075 1.338.075 2.03.025.554.062 1.117.112 1.688.1-.13.212-.283.336-.461zm10.644-10.9c0 .268.013.59.038.965.024.375.037.763.037 1.165 0 .357.012.757.037 1.2.025.464.038.953.038 1.466v1.641c0 .58.006 1.16.018 1.739.013.578.038 1.188.075 1.828.037.641.081 1.27.131 1.886l.15 1.816a174.418 174.418 0 0 0 .149 2.887c.025.398.05.762.075 1.092.025.353.03.664.018.935-.012.27-.018.505-.018.706l-.075.616a.613.613 0 0 0 0 .302l.075.221a.681.681 0 0 1-.112.472.805.805 0 0 1-.43.344.68.68 0 0 1-.505.006.511.511 0 0 1-.299-.349l-.037-.194a2.131 2.131 0 0 1-.038-.697c.025-.183.05-.377.075-.582 0-.179.006-.387.019-.623.012-.237.006-.52-.019-.85a128.528 128.528 0 0 1-.224-4.013 21.169 21.169 0 0 0-.15-1.75 78.963 78.963 0 0 1-.13-1.919 53.611 53.611 0 0 1-.075-1.879 83.045 83.045 0 0 1-.02-1.755v-1.64c0-.514-.012-.981-.036-1.4a23.81 23.81 0 0 1-.038-1.267c0-.357-.012-.723-.037-1.099a16.796 16.796 0 0 1-.038-1.031v-1.24c0-.178.069-.335.206-.471a.87.87 0 0 1 .467-.25.634.634 0 0 1 .468.084.44.44 0 0 1 .205.399v1.239zm6.794-2.948c.1.272.211.554.336.844.15.309.3.662.449 1.06.15.397.299.862.448 1.393.125.492.274 1.057.449 1.696.2.634.361 1.287.486 1.957.15.665.293 1.354.43 2.067.137.712.28 1.446.43 2.201.124.76.243 1.514.355 2.265.112.75.205 1.465.28 2.144.075.679.15 1.302.224 1.869v.234c.025-.093.038-.185.038-.274.1-.71.187-1.462.261-2.257.075-.795.175-1.605.3-2.431.124-.826.249-1.686.373-2.579.15-.897.268-1.688.355-2.374.088-.685.144-1.354.169-2.006.05-.7.112-1.326.187-1.875.1-.553.174-1.103.224-1.647.05-.5.087-.965.112-1.393.025-.474.05-.88.075-1.22.025-.317.025-.551 0-.703 0-.178.012-.393.037-.643v-.335a.814.814 0 0 1 .243-.478.807.807 0 0 1 .486-.237.567.567 0 0 1 .467.134.431.431 0 0 1 .15.41v.334a4.57 4.57 0 0 0-.037.543c.024.174.024.442 0 .804-.025.339-.05.745-.075 1.219-.025.428-.063.915-.112 1.46-.075.571-.15 1.12-.225 1.647a30.71 30.71 0 0 0-.187 1.808 24.279 24.279 0 0 1-.168 2.073c-.087.708-.205 1.51-.355 2.408-.15.897-.287 1.748-.411 2.551-.1.822-.187 1.619-.262 2.391-.075.817-.162 1.58-.261 2.29-.1.688-.175 1.383-.225 2.084a17.421 17.421 0 0 1-.261 1.72c-.05.077-.125.168-.225.275-.1.107-.255.257-.467.451-.212.194-.393.288-.542.28-.15-.006-.237-.141-.262-.405-.025-.152-.05-.315-.075-.489-.05-.192-.1-.44-.15-.744l-.298-1.119c-.1-.473-.175-.996-.224-1.568-.05-.549-.119-1.162-.206-1.839-.087-.676-.18-1.38-.28-2.11-.1-.73-.225-1.473-.374-2.228-.15-.777-.287-1.512-.411-2.205a37.317 37.317 0 0 0-.412-2.037 15.63 15.63 0 0 0-.486-1.89 95.074 95.074 0 0 0-.486-1.722c-.124-.491-.249-.927-.373-1.306a18.313 18.313 0 0 1-.785-1.937l-.15-.41c-.05-.147-.031-.306.056-.478a.774.774 0 0 1 .393-.371.713.713 0 0 1 .504-.04.45.45 0 0 1 .318.296l.15.442zm11.952 19.982c0-.312.006-.67.018-1.075.013-.404.044-.917.094-1.54s.1-1.33.15-2.12c.05-.79.149-1.69.299-2.7.024-.182.05-.376.074-.582a.452.452 0 0 1-.15-.342c0-.223.1-.408.3-.555.075-.505.15-.998.224-1.48.175-.991.324-1.922.449-2.793.1-.888.236-1.761.41-2.618.15-.83.263-1.565.337-2.203.075-.661.162-1.307.262-1.94.1-.63.187-1.177.262-1.637.074-.46.124-.837.15-1.131.05-.322.111-.578.186-.77.05-.255.162-.431.337-.529a.627.627 0 0 1 .504-.073 3.648 3.648 0 0 1 .654.27c.2.254.362.66.486 1.219.125.491.262 1.087.412 1.786.15.699.299 1.432.448 2.198a45.713 45.713 0 0 1 .673 4.687c.075.812.143 1.615.206 2.408.062.793.093 1.58.093 2.361 0 .804.025 1.548.075 2.23l.075 2.064c.025.666.062 1.217.112 1.655.075.433.112.817.112 1.152.025.241.05.427.075.556.05.17.075.367.075.59l.037.261c0 .179-.062.34-.187.486a.843.843 0 0 1-.449.28.643.643 0 0 1-.486-.064.424.424 0 0 1-.224-.396v-.268c-.025-.152-.05-.292-.075-.422a3.88 3.88 0 0 1-.112-.75c0-.29-.025-.643-.075-1.059a14.025 14.025 0 0 1-.15-1.715l-.074-2.097a30.797 30.797 0 0 1-.075-2.23v-.134c-.1.017-.199.046-.299.086-.199.08-.436.167-.71.26-.274.071-.523.138-.748.2-.348.084-.648.16-.897.226-.299.098-.585.171-.86.22l-.074.013c-.025.161-.05.333-.075.516a40.21 40.21 0 0 0-.262 2.625c-.05.79-.1 1.492-.15 2.104a12.23 12.23 0 0 0-.111 1.476v1.524c.024.152-.032.302-.169.449a.856.856 0 0 1-.486.27c-.187.034-.342.005-.467-.084a.536.536 0 0 1-.224-.362v-.503zm2.729-9.393c.274-.094.56-.178.86-.253l.747-.2c.25-.067.436-.133.56-.2.2-.08.4-.138.599-.173a13.494 13.494 0 0 1-.037-.999 87.44 87.44 0 0 0-.187-2.378c-.1-.808-.2-1.583-.3-2.325a70.178 70.178 0 0 0-.41-2.271c-.15-.755-.3-1.477-.45-2.164-.049-.26-.099-.507-.149-.744-.05.321-.1.676-.15 1.065-.099.62-.186 1.25-.26 1.888-.076.683-.2 1.453-.375 2.31-.15.83-.286 1.681-.41 2.552-.1.91-.238 1.862-.412 2.853l-.224 1.178c.199-.035.398-.082.598-.14zm10.232-14.344a9.5 9.5 0 0 1 1.16-.34c.398-.093.871-.199 1.42-.319a29.32 29.32 0 0 0 1.72-.439c.672-.186 1.333-.36 1.98-.52a19.448 19.448 0 0 1 1.758-.412l1.345-.239c.424-.075.736-.141.935-.2l.299-.052c.2-.058.368-.043.505.044a.467.467 0 0 1 .224.379.625.625 0 0 1-.168.465.949.949 0 0 1-.449.298l-.299.053a12.47 12.47 0 0 1-1.047.219l-1.383.246c-.448.08-.984.208-1.607.386a3.3 3.3 0 0 0-.449.113.52.52 0 0 1 .038.194v1.608c0 .29.024.598.074.924.025.375.05.773.075 1.193v1.373c0 .469.013.969.037 1.5l.075 1.561c.025.532.038 1.099.038 1.702-.025.562-.044 1.13-.056 1.701a87.719 87.719 0 0 1-.057 1.752 375.921 375.921 0 0 1-.15 3.192c-.024.54-.049 1.046-.074 1.52-.05.455-.075.85-.075 1.185.025.33.038.641.038.931.025.286.037.507.037.664v.234a.687.687 0 0 1-.187.452.779.779 0 0 1-.467.267.66.66 0 0 1-.486-.081.44.44 0 0 1-.206-.399v-.201c0-.156-.012-.366-.037-.63 0-.312-.012-.645-.037-.998 0-.357.025-.786.074-1.286l.075-1.453.075-1.554c.025-.496.05-1.042.075-1.638.025-.596.043-1.18.056-1.751.012-.572.03-1.14.056-1.702 0-.558-.013-1.092-.038-1.6l-.074-1.595a32.784 32.784 0 0 1-.038-1.534v-1.34c-.025-.397-.05-.773-.074-1.125a7.233 7.233 0 0 1-.075-1.025v-1.608a.28.28 0 0 1 .037-.107.878.878 0 0 1-.224.073c-.648.182-1.252.334-1.813.456-.56.122-1.028.227-1.402.316-.349.062-.66.15-.935.267l-.448.18a.847.847 0 0 1-.505.006.408.408 0 0 1-.299-.316.631.631 0 0 1 .094-.485c.1-.163.236-.271.41-.324l.45-.18zm17.71-4.116l.299-.053c.174-.053.36-.109.56-.166.25-.067.486-.12.71-.16l.636-.113 1.981-.352a.592.592 0 0 1 .468.101.466.466 0 0 1 .205.4c0 .167-.068.319-.205.455a.87.87 0 0 1-.468.25l-1.98.352-.674.12c-.15.026-.324.068-.523.126-.15.026-.287.062-.411.106v.1a9.196 9.196 0 0 0-.038.945v1.574c-.025.63-.037 1.302-.037 2.017-.025.674-.05 1.437-.075 2.29-.025.853-.1 1.693-.224 2.519l-.3 2.33c.225-.084.45-.158.674-.22.274-.07.535-.117.785-.14.224-.017.41-.039.56-.065.15-.027.337-.082.561-.167l.411-.173a.653.653 0 0 1 .505-.023c.162.06.262.166.3.315a.632.632 0 0 1-.076.466.809.809 0 0 1-.43.36l-.373.134c-.324.147-.611.243-.86.287-.225.04-.461.07-.71.092l-.561.1a7.875 7.875 0 0 0-.673.22l-.262.08c-.05.366-.087.73-.112 1.092-.05.723-.087 1.4-.112 2.03 0 .602.012 1.147.037 1.634a23.335 23.335 0 0 0 .262 2.532c.075.344.112.661.112.951-.025.116-.037.23-.037.342a2.15 2.15 0 0 0 .523-.093c.3-.075.598-.162.897-.26.324-.08.586-.148.785-.206.175-.031.33-.064.468-.1.137-.035.292-.08.467-.133l.299-.12a.696.696 0 0 1 .486.014c.15.063.243.175.28.335a.56.56 0 0 1-.112.472 1.03 1.03 0 0 1-.43.345l-.261.08c-.2.057-.387.113-.561.166a4.779 4.779 0 0 1-.56.133c-.175.054-.4.116-.674.187-.299.098-.598.184-.897.26a3.22 3.22 0 0 1-1.121.132c-.624-.024-.935-.27-.935-.739 0-.134.012-.337.037-.61 0-.222-.025-.475-.074-.756a8.695 8.695 0 0 1-.187-1.14c-.05-.46-.088-.955-.112-1.486a35.86 35.86 0 0 1-.038-1.735 55.722 55.722 0 0 1 .374-4.42c.1-.822.212-1.635.336-2.439.125-.78.187-1.573.187-2.377.025-.808.05-1.572.075-2.291 0-.714.013-1.375.037-1.983v-1.574c0-.446.013-.806.038-1.078l.075-.382c0-.09.025-.183.074-.281a.759.759 0 0 1 .599-.609zm28.876-5.128l.299-.053c.174-.053.361-.109.56-.166.25-.067.487-.12.71-.16l.636-.113 1.982-.352a.592.592 0 0 1 .467.101.466.466 0 0 1 .206.4c0 .167-.069.319-.206.455a.87.87 0 0 1-.467.25l-1.982.352-.672.12c-.15.026-.324.068-.524.126-.15.026-.286.062-.411.106v.1a9.196 9.196 0 0 0-.037.945v1.574c-.025.63-.038 1.302-.038 2.017-.025.674-.05 1.437-.075 2.29-.024.853-.1 1.693-.224 2.519l-.299 2.33c.224-.084.449-.158.673-.22.274-.07.536-.117.785-.14.224-.017.411-.039.56-.065.15-.027.337-.082.561-.167l.412-.173a.653.653 0 0 1 .504-.023c.162.06.262.166.3.315a.632.632 0 0 1-.075.466.809.809 0 0 1-.43.36l-.374.134c-.324.147-.61.243-.86.287-.224.04-.46.07-.71.092l-.56.1a7.875 7.875 0 0 0-.674.22l-.261.08c-.05.366-.088.73-.113 1.092-.05.723-.087 1.4-.112 2.03 0 .602.013 1.147.038 1.634a23.333 23.333 0 0 0 .262 2.532c.074.344.111.661.111.951-.024.116-.037.23-.037.342a2.15 2.15 0 0 0 .523-.093c.3-.075.599-.162.898-.26.324-.08.585-.148.785-.206.174-.031.33-.064.467-.1.137-.035.293-.08.467-.133l.3-.12a.696.696 0 0 1 .485.014c.15.063.243.175.28.335a.56.56 0 0 1-.112.472 1.03 1.03 0 0 1-.43.345l-.261.08c-.2.057-.386.113-.56.166a4.779 4.779 0 0 1-.562.133c-.174.054-.398.116-.672.187-.3.098-.599.184-.898.26a3.22 3.22 0 0 1-1.121.132c-.623-.024-.935-.27-.935-.739 0-.134.013-.337.038-.61 0-.222-.025-.475-.075-.756a8.695 8.695 0 0 1-.187-1.14c-.05-.46-.087-.955-.112-1.486a35.862 35.862 0 0 1-.038-1.735 55.72 55.72 0 0 1 .374-4.42c.1-.822.212-1.635.337-2.439.124-.78.187-1.573.187-2.377.025-.808.05-1.572.074-2.291 0-.714.013-1.375.038-1.983v-1.574c0-.446.012-.806.037-1.078l.075-.382c0-.09.025-.183.075-.281a.759.759 0 0 1 .598-.609zm15.092-.67a1.135 1.135 0 0 0-.486-.115c-.15-.018-.374.01-.673.086a4.043 4.043 0 0 0-.878.39 2.74 2.74 0 0 0-.73.666c-.248.312-.498.68-.747 1.104a7.373 7.373 0 0 0-.56 1.255c-.15.44-.237.874-.262 1.302-.025.384.025.766.15 1.146.1.407.249.748.448 1.026.224.295.449.556.673.784.224.229.635.535 1.233.92.624.403 1.184.772 1.683 1.108.498.358.922.696 1.27 1.014.35.34.649.7.898 1.08.25.38.448.768.598 1.166.15.398.268.8.355 1.21.087.408.143.79.168 1.142 0 .335-.012.689-.037 1.062a5.285 5.285 0 0 1-.187 1.088c-.075.37-.2.772-.374 1.205-.2.415-.386.783-.56 1.104a6.405 6.405 0 0 1-.71.93c-.25.268-.487.5-.711.696-.25.178-.498.345-.748.501-.224.13-.523.272-.897.427a8.28 8.28 0 0 1-.785.307c-.25.089-.523.138-.822.146l-.337.026a.514.514 0 0 1-.43-.174.5.5 0 0 1-.13-.43c.024-.16.118-.305.28-.434a.873.873 0 0 1 .505-.207l.336.007a.7.7 0 0 0 .299-.053c.174-.053.424-.153.748-.3.299-.12.536-.23.71-.327.15-.094.311-.212.486-.355a3.883 3.883 0 0 0 1.047-1.157c.15-.272.299-.589.448-.95a3.92 3.92 0 0 0 .337-.964 5.78 5.78 0 0 0 .15-.931c.024-.34.037-.654.037-.945a7.584 7.584 0 0 0-.15-.944 8.395 8.395 0 0 0-.299-1.086 6.619 6.619 0 0 0-.523-.995c-.2-.311-.449-.607-.748-.89-.324-.299-.71-.61-1.159-.932-.498-.336-1.047-.707-1.645-1.115-.648-.42-1.109-.763-1.383-1.027a7.23 7.23 0 0 1-.785-.899 4.454 4.454 0 0 1-.598-1.3 4.642 4.642 0 0 1-.187-1.541c.05-.5.162-1.023.337-1.567a8.681 8.681 0 0 1 .672-1.56c.275-.473.574-.894.898-1.264.348-.42.722-.76 1.121-1.02a4.62 4.62 0 0 1 1.346-.59c.498-.156.91-.207 1.233-.153.3.014.561.068.785.162l.3.115c.15.062.243.174.28.335a.584.584 0 0 1-.094.469.818.818 0 0 1-.41.324.642.642 0 0 1-.487.003l-.299-.081zm8.663-2.577a9.5 9.5 0 0 1 1.159-.34c.398-.093.872-.2 1.42-.319a29.319 29.319 0 0 0 1.72-.44c.673-.186 1.333-.359 1.981-.519a19.448 19.448 0 0 1 1.757-.412l1.346-.24c.423-.074.735-.14.934-.199l.3-.053c.199-.057.367-.043.504.045a.467.467 0 0 1 .224.379.625.625 0 0 1-.168.465.949.949 0 0 1-.448.297l-.3.053a12.47 12.47 0 0 1-1.046.22l-1.383.245c-.449.08-.985.209-1.608.386a3.3 3.3 0 0 0-.448.113.52.52 0 0 1 .037.195v1.607c0 .29.025.599.075.925.025.375.05.772.075 1.192v1.373c0 .47.012.97.037 1.501l.075 1.56c.025.532.037 1.1.037 1.702-.025.563-.044 1.13-.056 1.702a87.719 87.719 0 0 1-.056 1.751c-.025.596-.05 1.142-.075 1.638-.025.54-.05 1.058-.075 1.554-.025.54-.05 1.047-.074 1.52-.05.456-.075.85-.075 1.186.025.33.037.64.037.931.025.286.038.507.038.663v.235a.687.687 0 0 1-.187.451.779.779 0 0 1-.468.268.66.66 0 0 1-.486-.081.44.44 0 0 1-.205-.4v-.2c0-.157-.013-.367-.038-.63 0-.313-.012-.645-.037-.998 0-.357.025-.786.075-1.286l.075-1.454.074-1.554c.025-.495.05-1.041.075-1.637.025-.596.044-1.18.056-1.752.013-.571.031-1.139.056-1.701 0-.558-.012-1.092-.037-1.601l-.075-1.595a32.785 32.785 0 0 1-.037-1.534v-1.34c-.025-.397-.05-.772-.075-1.125a7.233 7.233 0 0 1-.075-1.025v-1.607a.28.28 0 0 1 .038-.107.878.878 0 0 1-.225.073c-.648.182-1.252.334-1.813.456-.56.122-1.028.227-1.402.316-.348.062-.66.15-.934.266l-.449.18a.847.847 0 0 1-.504.006.408.408 0 0 1-.3-.315.631.631 0 0 1 .094-.486c.1-.162.237-.27.411-.324l.449-.18zm15.915 18.61c0-.314.006-.672.018-1.076.013-.404.044-.918.094-1.54.05-.623.1-1.33.15-2.12.05-.79.149-1.69.298-2.7.025-.182.05-.377.075-.582a.452.452 0 0 1-.15-.342c0-.223.1-.408.3-.555.074-.505.15-.998.224-1.48.174-.992.324-1.922.448-2.793.1-.888.237-1.761.412-2.618.15-.83.261-1.565.336-2.204.075-.66.162-1.307.262-1.938.1-.632.187-1.178.262-1.638.074-.46.124-.837.149-1.132.05-.321.112-.578.187-.77.05-.254.162-.43.336-.528a.627.627 0 0 1 .505-.073 3.648 3.648 0 0 1 .654.269c.2.255.362.661.486 1.22.125.491.262 1.086.411 1.785.15.7.3 1.432.449 2.198a45.713 45.713 0 0 1 .673 4.687c.075.813.143 1.616.206 2.408.062.793.093 1.58.093 2.362 0 .804.025 1.547.075 2.23l.075 2.064c.024.665.062 1.217.112 1.655.074.433.112.817.112 1.152.025.241.05.426.075.556.05.17.074.366.074.59l.038.26c0 .18-.063.341-.187.486a.843.843 0 0 1-.449.28.643.643 0 0 1-.486-.064.424.424 0 0 1-.224-.395v-.268c-.025-.152-.05-.293-.075-.422a3.88 3.88 0 0 1-.112-.75c0-.29-.025-.644-.075-1.06a14.025 14.025 0 0 1-.15-1.714c-.024-.688-.05-1.387-.074-2.097a30.797 30.797 0 0 1-.075-2.23v-.135c-.1.018-.2.047-.299.087-.2.08-.436.167-.71.26-.274.071-.523.138-.748.2-.349.084-.648.16-.897.226-.299.098-.586.171-.86.22l-.075.013c-.024.16-.05.333-.074.516a40.21 40.21 0 0 0-.262 2.625c-.05.79-.1 1.491-.15 2.103a12.23 12.23 0 0 0-.112 1.477v1.524c.025.152-.03.301-.168.448a.856.856 0 0 1-.486.271c-.187.033-.343.005-.467-.084a.536.536 0 0 1-.224-.363v-.502zm2.729-9.395c.274-.093.56-.177.86-.253l.747-.2c.25-.066.436-.133.56-.2.2-.08.4-.137.599-.173a13.494 13.494 0 0 1-.038-.998 87.44 87.44 0 0 0-.186-2.378c-.1-.809-.2-1.584-.3-2.325a70.178 70.178 0 0 0-.41-2.271c-.15-.755-.3-1.477-.45-2.165-.05-.259-.099-.507-.149-.744-.05.322-.1.677-.15 1.065-.1.62-.186 1.25-.261 1.889-.075.683-.2 1.453-.374 2.31-.15.83-.287 1.681-.411 2.552-.1.91-.237 1.861-.411 2.853l-.225 1.178c.2-.035.4-.082.599-.14zm10.232-14.343a9.5 9.5 0 0 1 1.159-.34c.399-.093.872-.2 1.42-.319a29.32 29.32 0 0 0 1.72-.44c.673-.186 1.333-.359 1.981-.519a19.448 19.448 0 0 1 1.757-.412l1.346-.24c.424-.074.735-.14.935-.199l.299-.053c.2-.057.367-.043.504.045a.467.467 0 0 1 .225.379.625.625 0 0 1-.168.465.949.949 0 0 1-.45.297l-.298.053a12.47 12.47 0 0 1-1.047.22l-1.383.245c-.449.08-.984.209-1.607.386a3.3 3.3 0 0 0-.449.113.52.52 0 0 1 .037.195v1.607c0 .29.025.599.075.925.025.375.05.772.075 1.192v1.373c0 .47.012.97.037 1.501l.075 1.56c.025.532.037 1.1.037 1.702-.025.563-.043 1.13-.056 1.702a87.719 87.719 0 0 1-.056 1.751c-.025.596-.05 1.142-.075 1.638-.024.54-.05 1.058-.074 1.554-.025.54-.05 1.047-.075 1.52-.05.456-.075.85-.075 1.186.025.33.038.64.038.931.025.286.037.507.037.663v.235a.687.687 0 0 1-.187.451.779.779 0 0 1-.467.268.66.66 0 0 1-.486-.081.44.44 0 0 1-.206-.4v-.2c0-.157-.012-.367-.037-.63 0-.313-.013-.645-.038-.998 0-.357.025-.786.075-1.286l.075-1.454.075-1.554c.025-.495.05-1.041.074-1.637.025-.596.044-1.18.057-1.752.012-.571.03-1.138.056-1.701 0-.558-.013-1.092-.038-1.601l-.075-1.595a32.784 32.784 0 0 1-.037-1.534v-1.34c-.025-.397-.05-.772-.075-1.125a7.233 7.233 0 0 1-.074-1.025v-1.607a.28.28 0 0 1 .037-.107.878.878 0 0 1-.224.073c-.648.182-1.253.334-1.813.456-.561.122-1.028.227-1.402.316-.35.062-.66.15-.935.266l-.448.18a.847.847 0 0 1-.505.006.408.408 0 0 1-.3-.315.631.631 0 0 1 .094-.486c.1-.162.237-.27.412-.324l.448-.18zm17.71-4.116l.298-.053c.175-.054.362-.109.561-.167.25-.066.486-.12.71-.16l.636-.112 1.981-.352a.592.592 0 0 1 .467.101.466.466 0 0 1 .206.399c0 .168-.069.32-.206.455a.87.87 0 0 1-.467.25l-1.981.352-.673.12c-.15.027-.324.069-.523.126-.15.027-.287.062-.412.107v.1a9.196 9.196 0 0 0-.037.945v1.574c-.025.63-.037 1.302-.037 2.016-.025.674-.05 1.438-.075 2.291-.025.853-.1 1.692-.224 2.518l-.3 2.33c.225-.084.45-.157.673-.22.275-.07.536-.117.785-.139.225-.017.412-.04.561-.066.15-.026.337-.082.56-.166l.412-.174a.653.653 0 0 1 .505-.022c.162.06.261.165.299.315a.632.632 0 0 1-.075.465.809.809 0 0 1-.43.361l-.374.134c-.324.147-.61.242-.86.286-.224.04-.46.071-.71.093l-.56.1a7.875 7.875 0 0 0-.673.22l-.262.08c-.05.366-.087.73-.112 1.091-.05.724-.087 1.4-.112 2.03 0 .603.012 1.147.037 1.634a23.335 23.335 0 0 0 .262 2.532c.075.345.112.662.112.952-.025.116-.037.23-.037.342a2.15 2.15 0 0 0 .523-.093c.299-.076.598-.162.897-.26.324-.08.586-.149.785-.206.175-.031.33-.065.467-.1.137-.036.293-.08.468-.133l.299-.12a.696.696 0 0 1 .486.014c.15.062.243.174.28.335a.56.56 0 0 1-.112.472 1.03 1.03 0 0 1-.43.344l-.262.08c-.199.058-.386.114-.56.167a4.779 4.779 0 0 1-.561.133c-.175.053-.399.115-.673.186-.3.098-.598.185-.897.26a3.22 3.22 0 0 1-1.122.132c-.623-.023-.934-.269-.934-.738 0-.134.012-.337.037-.61 0-.223-.025-.475-.075-.756a8.695 8.695 0 0 1-.187-1.14c-.05-.46-.087-.955-.112-1.487a35.86 35.86 0 0 1-.037-1.735c.025-.63.068-1.324.13-2.083a74.391 74.391 0 0 1 .58-4.775c.125-.781.187-1.574.187-2.378.025-.808.05-1.571.075-2.29 0-.715.012-1.376.037-1.983v-1.574c0-.447.013-.806.038-1.079l.074-.381c0-.09.025-.183.075-.281a.759.759 0 0 1 .598-.61z" id="A-Private-Estate" fill="#FFF"/></g></g></g></g></svg>