<svg width="404" height="85" viewBox="0 0 404 85" xmlns="http://www.w3.org/2000/svg"><title>home</title><g id="Page-1" fill="none" fill-rule="evenodd"><g id="home" transform="translate(-192 -93)"><g id="Header" transform="translate(0 72)"><g id="Jacob-&amp;-Jennifer-Black" transform="translate(203 20)"><g id="Group-Copy-6-+-&amp;" transform="translate(129.54)"><path d="M21.678 11.918h-.812a9.001 9.001 0 0 0-9.01 9.006v1.315l-1.219.492A9 9 0 0 0 5.662 34.46l.603 1.494-1.083 1.083a9 9 0 0 0 .002 12.74l1.418 1.417-.688 1.792a9 9 0 0 0 5.183 11.637l.76.291v.742a9 9 0 0 0 9.009 9.007h1.039l.389.963a9.001 9.001 0 0 0 11.726 4.98l1.42-.574 1.14 1.14a9.001 9.001 0 0 0 12.739.002l1.358-1.358 1.871.719a9.001 9.001 0 0 0 11.639-5.18l.266-.692h.812a9.001 9.001 0 0 0 9.01-9.007v-1.314l1.219-.493a9 9 0 0 0 4.975-11.727l-.604-1.495 1.084-1.083a9 9 0 0 0-.003-12.739l-1.417-1.417.688-1.793a9 9 0 0 0-5.184-11.637l-.758-.291v-.742a9 9 0 0 0-9.01-9.006h-1.039l-.39-.964a9.001 9.001 0 0 0-11.725-4.98l-1.42.575-1.14-1.14a9.001 9.001 0 0 0-12.74-.002l-1.357 1.357-1.871-.718a9.001 9.001 0 0 0-11.639 5.18l-.266.692z" id="Rectangle-26" fill="#000"/><text id="&amp;" font-family="Great Vibes" font-size="53.101" fill="#FFF"><tspan x="23.753" y="61.106">&amp;</tspan></text></g><text id="Jacob" font-family="Arizonia" font-size="51.453" fill="#000"><tspan x="0" y="50.836">Jacob</tspan></text><text id="Jennifer" font-family="Arizonia" font-size="51.453" fill="#000"><tspan x="232.898" y="51.527">Jennifer</tspan></text></g></g></g></g></svg>