<svg width="111" height="97" viewBox="0 0 111 97" xmlns="http://www.w3.org/2000/svg"><title>pool</title><g id="Page-1" fill="none" fill-rule="evenodd"><g id="home" transform="translate(-334 -2756)" fill="#000"><g id="POOL-PARTY-@-11-AM-+-Its-fall-but-it-will-+-Pool" transform="translate(119 2760)"><g id="Pool" transform="translate(220)"><path d="M48.335 58.634c-.001 0-.001 0 0 0-3.67 0-6.629-1.657-8.331-4.669-2.982-5.274-2.062-9.132-.764-11.438 2.199-3.91 7.139-6.136 10.669-6.246l.32-.005c1.992 0 8.687.725 11.248 10.042.596 2.171.03 4.536-1.591 6.663-2.538 3.328-7.29 5.653-11.551 5.653zm1.894-18.203c-2.182.065-5.841 1.421-7.367 4.133-1.126 2-.871 4.476.76 7.356.959 1.698 2.545 2.559 4.712 2.559h.001c2.954 0 6.499-1.727 8.245-4.02.578-.757 1.203-1.9.889-3.043-1.732-6.305-5.639-6.985-7.24-6.985z" id="Shape"/><path d="M86.776 61.234a30.027 30.027 0 0 1-1.457-.743c-2.926-1.542-7.815-4.118-12.902-4.118h-.051c-5.607.02-9.51 1.407-12.95 2.635-3.062 1.09-5.953 2.121-9.812 2.121-4.311 0-7.262-1.06-10.386-2.182-3.501-1.258-7.123-2.559-12.718-2.579h-.047c-5.003 0-9.999 2.764-12.604 4.46-3.695 2.393-6.914 6.469-5.918 9.629.203.646 1.132 2.756 4.424 2.634 2.744-.097 4.955-1.241 6.906-2.25 1.601-.828 2.982-1.544 4.346-1.556 3.51-.063 8.948 1.187 10.937 2.465 2.64 1.698 1.657 9.132 1.288 11.93-.126.956-.211 1.683-.211 2.065h4.155c.001-.286.082-.819.175-1.52.592-4.49 1.697-12.847-3.159-15.972-2.982-1.917-9.254-3.094-13.226-3.124-2.354.024-4.315 1.038-6.214 2.021-1.714.885-3.332 1.725-5.143 1.785-.1.009-.188.004-.259 0 .25-.88 1.514-2.909 4.234-4.67 3.656-2.378 7.397-3.742 10.271-3.742h.032c4.879.017 8.012 1.143 11.329 2.334 3.321 1.192 6.756 2.427 11.79 2.427 4.578 0 7.947-1.201 11.206-2.362 3.433-1.222 6.673-2.378 11.569-2.394h.038c4.059 0 8.38 2.276 10.965 3.64.68.356 1.25.657 1.682.852 4.612 2.086 5.571 3.957 5.602 4.204-.091.109-.761.499-2.404.394-2.286-.146-4.773-1.16-7.178-2.143-2.912-1.187-5.908-2.397-8.954-2.32-4.035.125-7.456 4.09-9.294 6.218-3.604 4.174-3.291 9.851-3.142 12.578.021.365.039.669.039.9h4.155c0-.288-.021-.669-.045-1.128-.13-2.352-.371-6.729 2.137-9.636 1.32-1.529 4.068-4.713 6.277-4.78 2.167-.062 4.632.944 7.256 2.016 2.715 1.107 5.519 2.252 8.48 2.442 4.24.276 6.207-1.611 6.669-3.461.37-1.486.343-5.346-7.888-9.07z" id="Shape"/><path id="Rectangle-path" d="M0 62.686h12.289v4.155H0zM88.977 62.686h10.749v4.155H88.977z"/><path d="M76.282 34.482c-2.869 0-6.998-1.101-10.382-6.347-2.67-4.137-3.47-7.875-2.374-11.11 1.704-5.041 7.477-7.117 9.647-7.898 5.648-2.031 11.685.131 15.104 5.236 2.335 3.485 2.995 7.572 1.721 10.667-1.872 4.546-7.648 9.452-13.716 9.452zm1.31-21.997c-.981 0-1.996.186-3.013.551-1.655.597-6.057 2.179-7.117 5.321-.67 1.974-.021 4.506 1.927 7.526 1.903 2.948 4.223 4.443 6.893 4.443 4.149.001 8.534-3.625 9.873-6.878.73-1.774.196-4.496-1.329-6.774-.844-1.259-3.239-4.189-7.234-4.189zM76.844 6.926a2.078 2.078 0 0 1-2.078-2.078v-2.77a2.078 2.078 0 0 1 4.155 0v2.771a2.076 2.076 0 0 1-2.077 2.077zM65.128 11.254a2.07 2.07 0 0 1-1.54-.684l-3.444-3.808a2.078 2.078 0 1 1 3.081-2.788l3.444 3.809a2.078 2.078 0 0 1-1.541 3.471zM59.214 22.173h-3.883a2.078 2.078 0 1 1 0-4.156h3.883a2.078 2.078 0 1 1 0 4.156zM60.873 36.806a2.076 2.076 0 0 1-1.359-3.648l3.599-3.117a2.077 2.077 0 1 1 2.719 3.141l-3.599 3.116a2.064 2.064 0 0 1-1.36.508zM76.844 44.917a2.077 2.077 0 0 1-2.078-2.077v-5.442a2.078 2.078 0 0 1 4.155 0v5.442a2.075 2.075 0 0 1-2.077 2.077zM93.934 36.014a2.06 2.06 0 0 1-.747-.14l-3.975-1.53a2.077 2.077 0 0 1-1.193-2.685 2.084 2.084 0 0 1 2.687-1.192l3.975 1.53a2.077 2.077 0 0 1-.747 4.017zM93.931 21.123a2.077 2.077 0 0 1-.175-4.147l3.988-.346c1.154-.129 2.149.748 2.248 1.89a2.076 2.076 0 0 1-1.891 2.249l-3.989.346a1.84 1.84 0 0 1-.181.008zM88.559 10.735a2.076 2.076 0 0 1-1.911-2.892l1.399-3.289a2.077 2.077 0 1 1 3.824 1.627l-1.4 3.289a2.078 2.078 0 0 1-1.912 1.265zM99.726 75.899c-1.339 1.43-7.205 7.042-17.039 7.394-2.783.099-4.809-.469-6.097-1.681-1.437-1.353-1.495-3.12-1.497-3.169a2.078 2.078 0 0 0-3.85-1.088c-.042.071-4.524 7.136-17.256 7.323-1.538.028-2.732-.378-3.603-1.224-1.685-1.644-1.734-4.476-1.734-4.492a2.075 2.075 0 1 0-3.906-.987c-.042.077-4.346 7.795-16.359 6.708-6.585-.593-7.219-5.202-7.268-5.701a2.074 2.074 0 0 0-1.463-1.832 2.082 2.082 0 0 0-2.239.695c-.035.045-3.47 4.322-8.106 5.509-2.933.748-7.168-2.533-9.309-4.558v5.433c2.801 2.07 6.673 4.091 10.34 3.151 3.273-.838 5.991-2.755 7.817-4.368 1.461 2.634 4.436 5.324 9.856 5.811.93.081 1.821.122 2.678.122 7.397 0 12.112-2.918 14.803-5.432.436.988 1.062 2.001 1.959 2.885 1.681 1.656 3.943 2.474 6.595 2.436 9.4-.139 15.075-3.614 18.058-6.28a8.957 8.957 0 0 0 1.557 2.009c2.13 2.054 5.255 3.025 9.171 2.881 7.884-.279 13.553-3.446 16.893-6.001v-5.544h-.001z" id="Shape"/></g></g></g></g></svg>