<svg width="53" height="71" viewBox="0 0 53 71" xmlns="http://www.w3.org/2000/svg"><title>reception</title><g id="Page-1" fill="none" fill-rule="evenodd"><g id="home" transform="translate(-371 -4721)"><g id="reception-+-RECEPTION-@-7-PM-+-The-vows-have-been-s-+-Rock-On" transform="translate(119 4721)"><path d="M293 4c-3.86 0-7 3.14-7 7v13.68c-.91-.44-1.93-.68-3-.68-1.96 0-3.73.81-5 2.11a6.97 6.97 0 0 0-5-2.11c-1.07 0-2.09.24-3 .68V11c0-3.86-3.14-7-7-7s-7 3.14-7 7v35c0 12.13 9.87 22 22 22 12.06 0 21.89-9.76 21.99-21.8.01-.07.01-.13.01-.2V11c0-3.86-3.14-7-7-7zm-3 7c0-1.65 1.35-3 3-3s3 1.35 3 3v25.78c-1.87-1.51-4.09-2.29-6-2.61V11zm-10 20c0-1.65 1.35-3 3-3s3 1.35 3 3v3h-6v-3zm-10 0c0-1.65 1.35-3 3-3s3 1.35 3 3v3h-6v-3zm8 33c-9.93 0-18-8.08-18-18V11c0-1.65 1.35-3 3-3s3 1.35 3 3v25c0 1.64.39 3.85 1.44 5.92C269.06 45.11 272.25 48 278 48h.73c-1.61 1.83-2.73 4.42-2.73 8 0 1.1.9 2 2 2s2-.9 2-2c0-7.71 7.19-7.99 8-8 1.1 0 2-.9 2-2s-.9-2-2-2h-10c-2.66 0-4.43-.85-5.61-2-1.26-1.22-1.85-2.77-2.14-4h17.74c.24 0 1.02.03 2.01.26 2.07.471 5.06 1.84 5.82 5.74.12.6.18 1.27.18 2 0 .68-.04 1.34-.11 2-1 8.98-8.65 16-17.89 16z" id="Rock-On" fill="#000"/></g></g></g></svg>