<svg width="228" height="226" viewBox="0 0 228 226" xmlns="http://www.w3.org/2000/svg"><title>schedule</title><g id="Page-1" fill="none" fill-rule="evenodd"><g id="home" transform="translate(-274 -1797)"><g id="Schedule-Badge-2" transform="translate(275 1797)"><path d="M217.306 122.321l7.019-6.515-6.36-6.588 5.994-7.109-7.564-6.127 5.181-8.06-7.777-4.785 4.034-8.369-8.872-4.064 3.017-9.106-8.701-2.695 1.825-9.094-9.625-1.733.66-9.589-9.08-.445-.496-9.242-9.766.716-1.75-9.473-8.895 1.824-2.77-8.804-9.289 3.123-4.063-8.763-8.157 3.977-4.858-7.816-8.221 5.337-6.132-7.5-6.914 5.883L109.117.96l-6.632 7.21-7.827-5.756-5.238 7.425-7.975-4.483-4.625 8.622-9.036-3.639-3.233 8.509-8.816-2.352-2.33 9.483-9.68-1.28-1.018 9.067-9.103-.086.101 9.742-9.714 1.169 1.273 9.059-8.822 2.178 2.513 9.385-9.129 3.553 3.496 8.483-7.996 4.299 4.755 8.44-7.964 5.715 5.513 7.37-6.673 6.151 6.685 6.972-6.291 7.516 7.193 5.785-4.938 7.62 8.188 5.078-4.222 8.836 8.429 3.824-2.891 8.621 9.171 2.875-1.887 9.594 9.133 1.612-.656 9.085 9.58.503.556 9.743 9.262-.712 1.627 8.985 9.395-1.892 2.953 9.274 8.803-2.995 3.821 8.321 8.624-4.167 5.153 8.226 7.782-5.091 5.788 7.132 7.318-6.183 7.017 6.666 6.267-6.862 7.403 5.485 5.556-7.815 8.43 4.698 4.359-8.194 8.558 3.481 3.443-8.967 9.31 2.449 2.179-9.003 9.178 1.247 1.108-9.563 9.605.057-.129-9.239 9.219-1.077-1.308-9.562 9.301-2.331-2.414-8.891 8.672-3.34-3.655-8.961 8.422-4.567-4.536-7.987 7.574-5.396-5.786-7.793zm-2.622 19.636l-8.001 4.338 3.472 8.514-8.239 3.173 2.294 8.447-8.837 2.214 1.243 9.084-8.758 1.023.122 8.776-9.124-.052-1.052 9.084-8.72-1.185-2.069 8.553-8.845-2.326-3.272 8.518-8.13-3.308-4.14 7.785-8.009-4.463-5.278 7.425-7.032-5.211-5.955 6.519-6.665-6.333-6.953 5.873-5.499-6.775-7.392 4.837-4.896-7.815-8.192 3.959-3.63-7.906-8.363 2.846-2.806-8.811-8.924 1.798-1.546-8.536-8.8.677-.528-9.256-9.1-.478.624-8.631-8.678-1.531 1.794-9.115-8.713-2.732 2.746-8.188-8.007-3.633 4.01-8.394-7.777-4.825 4.69-7.239-6.834-5.496 5.977-7.14-6.351-6.624 6.34-5.842-5.237-7.001 7.565-5.43-4.517-8.019 7.596-4.083-3.321-8.059 8.673-3.376-2.388-8.915 8.381-2.069-1.209-8.606 9.228-1.111-.095-9.255 8.646.081.967-8.612 9.197 1.215 2.214-9.008 8.374 2.234 3.071-8.084 8.585 3.457 4.394-8.19 7.576 4.257 4.977-7.053 7.435 5.469 6.3-6.85 6.298 6.026 6.568-5.588 5.825 7.125 7.81-5.071 4.616 7.427 7.749-3.78 3.859 8.327 8.825-2.969 2.632 8.365 8.45-1.733 1.662 8.999 9.278-.68.47 8.78 8.627.423-.626 9.109 9.142 1.646-1.732 8.64 8.266 2.559-2.866 8.653 8.428 3.859-3.833 7.95 7.388 4.546-4.922 7.658 7.186 5.821-5.695 6.753 6.043 6.258-6.669 6.19 5.497 7.404-7.195 5.126 4.31 7.587z" id="Fill-1" fill="#000"/><path d="M113 17.807c-53.126 0-96.193 43.067-96.193 96.193S59.874 210.193 113 210.193s96.193-43.067 96.193-96.193S166.126 17.807 113 17.807" id="Fill-2" fill="#000"/><path d="M114.657 46.711l5.668-5.742-.948-.961-5.668 5.742-.209-.212-.201.203-5.466-5.538-.966.979 5.466 5.538L93 66.308V76h16.4l4.1-11.77L117.6 76H134v-9.692l-19.343-19.597" id="Fill-3" fill="#FFF"/><path d="M127.996 184.139l-4.454-4.452c-.582.424-2.68.324-2.73.304l-6.552-6.547 10.898-10.883c.111.998.637 1.885 1.176 2.558.12-1.984.467-4.111 1.581-6.126a13.444 13.444 0 0 1-6.134 1.579c.581.536 1.549 1.067 2.54 1.182l-10.883 10.868-10.817-10.808c.996-.117 1.971-.651 2.556-1.19a13.53 13.53 0 0 1-6.173-1.591c1.121 2.029 1.47 4.171 1.591 6.169.543-.678 1.071-1.571 1.183-2.575l10.83 10.822-6.364 6.356c-.05.02-2.135.12-2.714-.301l-4.427 4.42c.936.724 2.423.822 3.841-.011-.818 1.459-.711 2.821-.009 3.836l4.426-4.42c-.416-.547-.364-2.551-.311-2.684l6.382-6.374 6.568 6.565c.054.135.106 2.153-.313 2.703l4.455 4.451c.706-1.021.813-2.393-.01-3.862 1.427.839 2.924.74 3.864.011" id="Fill-4" fill="#FFF"/><path d="M72.277 99.761c3.21 0 4.86 1.92 4.86 5.28v.659h-3.12v-.87c0-1.499-.6-2.069-1.65-2.069-1.05 0-1.65.57-1.65 2.069 0 4.32 6.45 5.13 6.45 11.13 0 3.36-1.68 5.28-4.92 5.28s-4.92-1.92-4.92-5.28v-1.29h3.12v1.5c0 1.5.66 2.04 1.71 2.04 1.05 0 1.71-.54 1.71-2.04 0-4.319-6.45-5.13-6.45-11.129 0-3.36 1.65-5.28 4.86-5.28" id="Fill-5" fill="#FFF"/><path d="M88.626 113.17v2.79c0 3.36-1.679 5.28-4.919 5.28-3.24 0-4.92-1.92-4.92-5.28v-10.919c0-3.36 1.68-5.28 4.92-5.28s4.919 1.92 4.919 5.28v2.039h-3.119v-2.25c0-1.499-.66-2.069-1.71-2.069-1.05 0-1.71.57-1.71 2.069v11.34c0 1.5.66 2.04 1.71 2.04 1.05 0 1.71-.54 1.71-2.04v-3h3.119" id="Fill-6" fill="#FFF"/><path d="M93.936 121h-3.299v-20.999h3.299V109h3.75v-8.999h3.36V121h-3.36v-9h-3.75v9" id="Fill-7" fill="#FFF"/><path d="M106.746 108.851h4.53v3h-4.53V118h5.7v3h-9v-20.999h9v3h-5.7v5.85" id="Fill-8" fill="#FFF"/><path d="M114.486 100.001h5.22c3.3 0 4.92 1.83 4.92 5.189v10.621c0 3.359-1.62 5.189-4.92 5.189h-5.22v-20.999zm3.3 3V118h1.86c1.05 0 1.68-.54 1.68-2.04v-10.919c0-1.5-.63-2.04-1.68-2.04h-1.86z" id="Fill-9" fill="#FFF"/><path d="M129.876 100.001V116.2c0 1.5.659 2.04 1.71 2.04 1.05 0 1.71-.54 1.71-2.04v-16.199h3.119v15.989c0 3.36-1.68 5.28-4.92 5.28-3.239 0-4.919-1.92-4.919-5.28v-15.989h3.3" id="Fill-10" fill="#FFF"/><path d="M138.666 100.001h3.3V118h5.43v3h-8.73v-20.999" id="Fill-11" fill="#FFF"/><path d="M152.135 108.851h4.53v3h-4.53V118h5.7v3h-9v-20.999h9v3h-5.7v5.85" id="Fill-12" fill="#FFF"/><path d="M66.954 129.995h4.763v1.4h-1.611v8.405h-1.541v-8.405h-1.611v-1.4" id="Fill-13" fill="#FFF"/><path d="M73.436 129.995h1.541v9.805h-1.541v-9.805z" id="Fill-14" fill="#FFF"/><path d="M80.41 136.956l1.05-6.961h2.143v9.805h-1.456v-7.031l-1.065 7.031h-1.457l-1.148-6.934v6.934h-1.345v-9.805h2.143l1.135 6.961" id="Fill-15" fill="#FFF"/><path d="M87.31 134.127h2.116v1.4H87.31v2.872h2.662v1.401H85.77v-9.805h4.202v1.4H87.31v2.732" id="Fill-16" fill="#FFF"/><path d="M94.744 129.995h4.762v1.4h-1.611v8.405h-1.541v-8.405h-1.61v-1.4" id="Fill-17" fill="#FFF"/><path d="M101.1 132.348c0-1.569.826-2.465 2.339-2.465s2.339.896 2.339 2.465v5.098c0 1.57-.826 2.466-2.339 2.466s-2.339-.896-2.339-2.466v-5.098zm1.54 5.197c0 .7.308.967.799.967.49 0 .798-.267.798-.967v-5.295c0-.7-.308-.967-.798-.967-.491 0-.799.267-.799.967v5.295z" id="Fill-18" fill="#FFF"/><path d="M112.58 139.8h-1.54v-9.805h1.54v4.202h1.751v-4.202h1.569v9.805h-1.569v-4.202h-1.751v4.202" id="Fill-19" fill="#FFF"/><path d="M123.054 139.8h-1.555l-.266-1.779h-1.891l-.266 1.779h-1.415l1.568-9.805h2.256l1.569 9.805zm-3.516-3.11h1.484l-.742-4.959-.742 4.959z" id="Fill-20" fill="#FFF"/><path d="M126.791 137.993l1.176-7.998h1.415l-1.513 9.805h-2.297l-1.513-9.805h1.555l1.177 7.998" id="Fill-21" fill="#FFF"/><path d="M132.684 134.127h2.115v1.4h-2.115v2.872h2.662v1.401h-4.202v-9.805h4.202v1.4h-2.662v2.732" id="Fill-22" fill="#FFF"/><path d="M142.105 134.351h1.99v1.401h-1.99v4.048h-1.54v-9.805h4.077v1.4h-2.537v2.956" id="Fill-23" fill="#FFF"/><path d="M147.902 129.995v7.564c0 .7.308.953.798.953.49 0 .799-.253.799-.953v-7.564h1.456v7.466c0 1.568-.784 2.465-2.297 2.465-1.513 0-2.297-.897-2.297-2.465v-7.466h1.541" id="Fill-24" fill="#FFF"/><path d="M154.426 132.698v7.102h-1.387v-9.805h1.933l1.583 5.869v-5.869h1.373v9.805h-1.583l-1.919-7.102" id="Fill-25" fill="#FFF"/><path d="M163 136h21v-2h-21v2zm-121 0h21v-2H42v2z" id="Fill-26" fill="#FFF"/></g></g></g></svg>