<svg width="104" height="63" viewBox="0 0 104 63" xmlns="http://www.w3.org/2000/svg"><title>sleephotel</title><g id="Page-1" fill="none" fill-rule="evenodd"><g id="home" transform="translate(-333 -6359)" fill="#000"><g id="sleep-+-SLEEP" transform="translate(111 6359)"><g id="Sleep-Icon" transform="translate(224 .376)"><path d="M91.669 45.384v15.537h8.203V37.693H8.139V4.088A4.074 4.074 0 0 0 4.063 0C1.814 0 0 1.84 0 4.088v56.833h8.139V45.384h83.53z" id="Shape"/><path d="M20.661 20.469a7.369 7.369 0 0 0 7.372-7.385c0-4.063-3.296-7.359-7.372-7.359-4.076 0-7.373 3.296-7.373 7.359a7.37 7.37 0 0 0 7.373 7.385z" id="Shape"/><path d="M100 31.585l-.025-10.145c-.026-3.22-2.734-5.443-5.878-5.826L36.185 9.838c-.115-.025-.217-.077-.319-.077a3.633 3.633 0 0 0-3.628 3.628v10.938H17.096a3.64 3.64 0 0 0-3.654 3.629c0 2.019 1.623 3.629 3.654 3.629H100z" id="Shape"/></g></g></g></g></svg>