<svg width="95" height="95" viewBox="0 0 95 95" xmlns="http://www.w3.org/2000/svg" style="background:#fff"><title>noun_449258_cc</title><g id="Page-1" fill="none" fill-rule="evenodd"><g id="home" transform="translate(-337 -2755)" fill="#000"><g id="noun_449258_cc" transform="translate(337 2755)"><g id="Group"><path d="M78.9 28.1C68.9 19.2 54.3 18 42.4 25c-2.9-.8-6.2 0-8.4 2.2-1.5 1.5-2.3 3.3-2.5 5.4-.7.3-1.3.7-1.8 1.2-1.8 0-3.6.8-4.9 2.1-1.3 1.3-2 3-2.1 4.8-.9.4-1.7 1-2.4 1.7-.9.9-1.5 1.9-2 3-.9.3-1.8.7-2.5 1.4-1.6 1.6-2.1 4-1.2 6l-.2.2c-3.4 3.4-3.4 8.9 0 12.3.6.6 1.4 1.2 2.2 1.6.8 5.9 3.2 11.5 7.3 16.2 1.4 1.6 3.4 2.5 5.5 2.6h.2c2.1 0 4-.8 5.4-2.3l42.5-42.5 1.3-1.3.2-.2.1-.1c1.5-1.5 2.3-3.5 2.3-5.7.1-2.1-.9-4.1-2.5-5.5zm-1.3 1.5c1.2 1.1 1.9 2.5 1.9 4.1v.4c-.3-1.2-.9-2.3-1.8-3.2-2.1-2.1-5.3-2.6-8-1.4-.1-.1-.2-.3-.4-.4-1.8-1.8-4.6-2.4-7-1.6-.2-.3-.5-.5-.8-.7-2.6-2.1-6.2-2.4-9-.7-2.1-1.6-5.2-1.5-7.2.3-.2-.2-.4-.3-.7-.5 11-5.7 24-4.3 33 3.7zm-51.4 7.6c1-1 2.4-1.6 3.9-1.5.3 0 .6-.1.8-.3 0-.1.1-.1.2-.2.4-.4 1-.7 1.6-.9.4-.1.7-.5.7-1 0-1.8.7-3.4 2-4.7 2.6-2.6 6.8-2.6 9.4-.1.2.2.5.3.8.2.3 0 .6-.2.7-.4l.3-.3c1.4-1.4 3.7-1.4 5.1 0l.1.1c.3.4.9.4 1.3.1 2.2-1.6 5.2-1.5 7.2.2.3.3.7.6.9 1 .3.4.8.5 1.2.3 1.8-.9 4-.5 5.4.9.2.2.5.5.6.8.1.2.4.4.6.4.3.1.5 0 .8-.1 2-1.3 4.6-1 6.3.7 1.7 1.7 1.9 4.4.6 6.4-1 .7-2.2 1.1-3.4 1.1-1.6 0-3.2-.6-4.3-1.8-11.1-11.3-30.8-10.4-43 1.8-.4.4-.8.8-1.2 1.3-.2-1.5.4-3 1.4-4zM15.9 63.9c-2.6-2.6-2.6-6.9 0-9.5l.6-.6c.4-.3.5-.9.2-1.3-.8-1.4-.6-3.2.5-4.4.5-.5 1.2-.9 2-1 .4-.1.7-.3.8-.7.3-1.1.9-2 1.7-2.8.6-.6 1.3-1 2-1.4-5.2 6.4-7.7 14.3-7.3 22-.2 0-.3-.2-.5-.3zM33.8 82c-1.1 1.1-2.6 1.7-4.2 1.7-.3 0-.5 0-.8-.1l11-11c.4-.4.4-1 0-1.4-.4-.4-1-.4-1.4 0L26.7 82.8c-.5-.3-.9-.6-1.3-1.1-.2-.2-.3-.4-.5-.6l10.2-10.2c.4-.4.4-1 0-1.4-.4-.4-1-.4-1.4 0l-10 10c-.5-.7-.9-1.4-1.3-2.1l8.3-8.3c.4-.4.4-1 0-1.4-.4-.4-1-.4-1.4 0l-7.9 7.9c-.4-.8-.7-1.6-1-2.4l6.5-6.5c.4-.4.4-1 0-1.4-.4-.4-1-.4-1.4 0l-5.8 5.8c-.3-.9-.5-1.8-.7-2.7l5.5-5.5c.4-.4.4-1 0-1.4-.4-.4-1-.4-1.4 0L18.6 66c-.1-1.1-.2-2.1-.2-3.2l4.4-4.4c.4-.4.4-1 0-1.4-.4-.4-1-.4-1.4 0l-2.8 2.8c.1-1.4.4-2.8.7-4.2 0 0 .1 0 .1-.1l3.1-3.1c.4-.4.4-1 0-1.4-.4-.4-1-.4-1.4 0l-.4.4c1.5-3.7 3.7-7.2 6.7-10.2C38.8 29.9 57.3 29 67.7 39.4c1.5 1.5 3.6 2.4 5.7 2.4h.5L33.8 82zM93.8 35.6l.5-.5c.4-.4.4-1 0-1.4-.4-.4-1-.4-1.4 0l-.5.5-.5-.5c-.4-.4-1-.4-1.4 0-.4.4-.4 1 0 1.4l.5.5-.5.5c-.4.4-.4 1 0 1.4.2.2.5.3.7.3.2 0 .5-.1.7-.3l.5-.5.5.5c.2.2.5.3.7.3.2 0 .5-.1.7-.3.4-.4.4-1 0-1.4l-.5-.5zM22.1 17.3c.2.2.5.3.7.3.2 0 .5-.1.7-.3l.5-.5.5.5c.2.2.5.3.7.3.2 0 .5-.1.7-.3.4-.4.4-1 0-1.4l-.5-.5.5-.5c.4-.4.4-1 0-1.4-.4-.4-1-.4-1.4 0l-.5.5-.5-.5c-.4-.4-1-.4-1.4 0-.4.4-.4 1 0 1.4l.5.5-.5.5c-.4.4-.4 1.1 0 1.4zM74.8 67.1h-.7v-.7c0-.6-.4-1-1-1s-1 .4-1 1v.7h-.7c-.6 0-1 .4-1 1s.4 1 1 1h.7v.7c0 .6.4 1 1 1s1-.4 1-1v-.7h.7c.6 0 1-.4 1-1s-.4-1-1-1zM9.2 74.6c-.4-.4-1-.4-1.4 0l-.3.3-.3-.3c-.4-.4-1-.4-1.4 0-.4.4-.4 1 0 1.4l.3.3-.3.3c-.4.4-.4 1 0 1.4.2.2.5.3.7.3.2 0 .5-.1.7-.3l.3-.3.3.3c.2.2.5.3.7.3.2 0 .5-.1.7-.3.4-.4.4-1 0-1.4l-.3-.3.3-.3c.4-.4.4-1 0-1.4zM73 11.6c.2.2.5.3.7.3.2 0 .5-.1.7-.3l.3-.3.3.3c.2.2.5.3.7.3.2 0 .5-.1.7-.3.4-.4.4-1 0-1.4l-.3-.3.3-.3c.4-.4.4-1 0-1.4-.4-.4-1-.4-1.4 0l-.3.3-.3-.3c-.4-.4-1-.4-1.4 0-.4.4-.4 1 0 1.4l.3.3-.3.3c-.4.4-.4 1 0 1.4zM59.2 77.7c-1.8 0-3.3 1.5-3.3 3.3 0 1.8 1.5 3.3 3.3 3.3 1.8 0 3.3-1.5 3.3-3.3 0-1.8-1.5-3.3-3.3-3.3zm0 4.7c-.7 0-1.3-.6-1.3-1.3 0-.7.6-1.3 1.3-1.3.7 0 1.3.6 1.3 1.3 0 .7-.6 1.3-1.3 1.3zM83.5 77.1c-1.4 0-2.5 1.1-2.5 2.5s1.1 2.5 2.5 2.5S86 81 86 79.6s-1.2-2.5-2.5-2.5zm0 3c-.3 0-.5-.2-.5-.5s.2-.5.5-.5.5.2.5.5-.3.5-.5.5zM13.7 32.5c0-1.6-1.3-3-3-3s-3 1.3-3 3 1.3 3 3 3 3-1.4 3-3zm-3 1c-.5 0-1-.4-1-1 0-.5.4-1 1-1s1 .4 1 1c0 .5-.5 1-1 1z" id="Shape"/><circle id="Oval" transform="rotate(-83.679 10.68 15.412)" cx="10.681" cy="15.412" r="1.2"/><circle id="Oval" transform="rotate(-83.679 71.14 85.328)" cx="71.141" cy="85.328" r="1.2"/><circle id="Oval" transform="rotate(-30.001 68.407 56.82)" cx="68.407" cy="56.82" r="1.2"/><circle id="Oval" transform="rotate(-83.679 90.164 63.904)" cx="90.164" cy="63.904" r="1.2"/><circle id="Oval" transform="rotate(-83.679 41.017 93.211)" cx="41.017" cy="93.211" r="1.2"/><circle id="Oval" transform="rotate(-83.679 22.277 27.721)" cx="22.277" cy="27.721" r="1.2"/><circle id="Oval" transform="rotate(-55.751 44.73 81.1)" cx="44.731" cy="81.1" r="1.2"/><circle id="Oval" transform="rotate(-55.751 5.296 63.927)" cx="5.296" cy="63.927" r="1.2"/><circle id="Oval" cx="21" cy="89.8" r="1.2"/><circle id="Oval" cx="59.2" cy="14.2" r="1.2"/><circle id="Oval" cx="43.5" cy="11.2" r="1.2"/><circle id="Oval" cx="34.3" cy="3.4" r="1.2"/><circle id="Oval" cx="86.1" cy="20.3" r="1.2"/><path d="M84.1 54.6c.5 0 .9-.3 1-.8.1-.5-.3-1.1-.8-1.2l-3.4-.6c-.5-.1-1.1.3-1.2.8-.1.5.3 1.1.8 1.2l3.4.6h.2zM53.2 6.1h.2c.5 0 .9-.3 1-.8l.6-3.4c.1-.5-.3-1.1-.8-1.2-.6 0-1.1.3-1.2.9L52.4 5c-.1.5.2 1 .8 1.1zM5.5 46.4c-.3-.4-.9-.6-1.4-.2l-2.8 2c-.4.3-.6.9-.2 1.4.2.2.5.4.8.4.2 0 .4-.1.6-.2l2.8-2c.4-.3.5-.9.2-1.4zM59.3 71.6h.2c.5-.1.9-.6.8-1.1l-.3-1.7c-.1-.5-.6-.9-1.1-.8-.5.1-.9.6-.8 1.1l.3 1.7c0 .5.5.8.9.8z" id="Shape"/></g></g></g></g></svg>