<?xml version="1.0" encoding="UTF-8" standalone="no"?>
<svg width="95px" height="89px" viewBox="0 0 95 89" version="1.1" xmlns="http://www.w3.org/2000/svg" xmlns:xlink="http://www.w3.org/1999/xlink" xmlns:sketch="http://www.bohemiancoding.com/sketch/ns">
    <!-- Generator: Sketch 3.3.2 (12043) - http://www.bohemiancoding.com/sketch -->
    <title>arrival</title>
    <desc>Created with Sketch.</desc>
    <defs></defs>
    <g id="Page-1" stroke="none" stroke-width="1" fill="none" fill-rule="evenodd" sketch:type="MSPage">
        <g id="home" sketch:type="MSArtboardGroup" transform="translate(-342.000000, -2147.000000)">
            <g id="Arrivals-Content" sketch:type="MSLayerGroup" transform="translate(64.000000, 2140.000000)">
                <g id="Arrival" transform="translate(275.000000, 0.000000)">
                    <g id="Group"></g>
                    <path d="M85.739,71.418 L12.143,43.945 C9.586,42.994 7.913,40.714 7.597,38.182 L7.589,38.182 C7.589,38.182 6.876,32.328 5.036,17.759 C4.645,14.668 7.483,14.221 8.983,16.461 C11.742,20.576 15.465,26.158 18.928,31.359 L34.16,37.045 C33.021,28.105 31.467,15.869 30.388,7.339 L36.96,9.792 C43.384,22.041 50.408,35.367 55.496,45.009 L78.629,53.647 C91.405,58.413 95.542,65.403 94.174,69.069 C92.938,72.383 90.027,73.016 85.739,71.418 L85.739,71.418 Z M30.587,54.816 C28.767,54.14 26.746,55.062 26.068,56.877 C25.389,58.695 26.309,60.717 28.128,61.397 C29.948,62.081 31.969,61.157 32.649,59.342 C33.33,57.52 32.408,55.498 30.587,54.816 L30.587,54.816 Z M40.886,58.666 C39.067,57.986 37.045,58.912 36.365,60.729 C35.684,62.545 36.607,64.573 38.426,65.25 C40.247,65.932 42.269,65.008 42.947,63.191 C43.625,61.375 42.706,59.35 40.886,58.666 L40.886,58.666 Z M95.14,89.959 C95.14,88.467 93.932,87.256 92.44,87.256 L39.718,87.256 C38.226,87.256 37.015,88.467 37.015,89.959 C37.015,91.451 38.226,92.66 39.718,92.66 L92.44,92.66 C93.932,92.66 95.14,91.451 95.14,89.959 L95.14,89.959 Z" id="Shape" fill="#000000" sketch:type="MSShapeGroup"></path>
                </g>
            </g>
        </g>
    </g>
</svg>