<?xml version="1.0" encoding="UTF-8" standalone="no"?>
<svg width="99px" height="107px" viewBox="0 0 99 107" version="1.1" xmlns="http://www.w3.org/2000/svg" xmlns:xlink="http://www.w3.org/1999/xlink" xmlns:sketch="http://www.bohemiancoding.com/sketch/ns">
    <!-- Generator: Sketch 3.3.2 (12043) - http://www.bohemiancoding.com/sketch -->
    <title>breakfast</title>
    <desc>Created with Sketch.</desc>
    <defs></defs>
    <g id="Page-1" stroke="none" stroke-width="1" fill="none" fill-rule="evenodd" sketch:type="MSPage">
        <g id="home" sketch:type="MSArtboardGroup" transform="translate(-348.000000, -5137.000000)" fill="#000000">
            <g id="BREAKFAST-@-9-AM-+-Check-out-time-from--+-noun_17155_cc" sketch:type="MSLayerGroup" transform="translate(119.000000, 5141.000000)">
                <g id="noun_17155_cc" transform="translate(231.000000, 0.000000)" sketch:type="MSShapeGroup">
                    <path d="M45.819,93.75 L60.582,93.75 C60.103,92.509 59.724,91.113 59.429,89.583 L49.463,89.583 C48.399,91.061 47.184,92.473 45.819,93.75 L45.819,93.75 Z" id="Shape"></path>
                    <path d="M81.422,72.917 C81.422,74.068 82.355,75 83.506,75 L85.394,75 C85.409,73.637 85.413,72.243 85.415,70.833 L83.507,70.833 C82.355,70.833 81.422,71.766 81.422,72.917 L81.422,72.917 Z" id="Shape"></path>
                    <path d="M89.965,70.876 C89.894,70.868 89.831,70.833 89.756,70.833 L85.414,70.833 C85.416,70.142 85.416,69.45 85.416,68.75 C85.416,67.599 84.484,66.667 83.333,66.667 L60.417,66.667 C59.266,66.667 58.334,67.599 58.334,68.75 C58.334,85.519 58.334,100 68.75,100 L75,100 C79.276,100 81.779,97.532 83.267,93.493 C83.265,93.498 83.265,93.502 83.263,93.506 C88.858,92.273 95.834,86.328 95.834,79.167 C95.833,74.284 93.537,71.098 89.965,70.876 L89.965,70.876 Z M75,95.833 L68.75,95.833 C62.802,95.833 62.515,84.46 62.502,70.833 L81.248,70.833 C81.236,84.46 80.949,95.833 75,95.833 L75,95.833 Z M84.493,88.69 C85.148,84.773 85.342,80.084 85.394,75 L89.583,75 C91.516,75 91.666,78.19 91.666,79.167 C91.667,83.389 87.884,87.064 84.493,88.69 L84.493,88.69 Z" id="Shape"></path>
                    <path d="M52.083,75 L47.621,75 C46.831,71.965 44.396,69.588 41.308,68.934 C39.865,65.304 34.274,64.702 30.873,64.604 C30.017,62.175 27.72,60.417 24.999,60.417 C22.179,60.417 19.817,62.305 19.042,64.876 C17.093,65.464 15.559,66.964 14.922,68.893 C10.876,69.441 7.646,71.865 6.622,75 L2.083,75 C0.932,75 0,75.932 0,77.083 C0,86.099 9.841,100 22.917,100 L31.25,100 C44.326,100 54.167,86.099 54.167,77.083 C54.167,75.932 53.235,75 52.083,75 L52.083,75 Z M31.25,95.833 L22.917,95.833 C13.676,95.833 5.77,86.33 4.399,79.167 L49.769,79.167 C48.396,86.33 40.491,95.833 31.25,95.833 L31.25,95.833 Z" id="Shape"></path>
                    <path d="M79.167,33.333 C78.016,33.333 77.084,34.265 77.084,35.416 L77.084,37.5 L68.75,37.5 L68.75,33.333 C68.75,26.794 61.581,21.582 52.084,20.91 L52.084,12.117 C54.503,11.252 56.25,8.961 56.25,6.249 C56.25,2.804 53.446,0 50,0 C46.554,0 43.75,2.804 43.75,6.25 C43.75,8.962 45.498,11.253 47.917,12.115 L47.917,20.91 C39.456,21.508 32.864,25.716 31.521,31.249 L25,31.249 C23.848,31.249 22.917,32.181 22.917,33.332 C22.917,33.845 23.123,34.298 23.43,34.661 L31.251,44.481 L31.251,64.623 C32.494,64.668 33.963,64.79 35.418,65.091 L35.418,35.417 L64.585,35.417 L64.585,66.667 L68.751,66.667 L68.751,41.667 L77.085,41.667 L77.085,64.584 C77.085,65.301 76.989,65.992 76.856,66.668 L81.08,66.668 C81.178,65.99 81.251,65.299 81.251,64.584 L81.251,35.417 C81.25,34.265 80.318,33.333 79.167,33.333 L79.167,33.333 Z M31.25,37.812 L29.335,35.417 L31.25,35.417 L31.25,37.812 L31.25,37.812 Z M50,4.167 C51.149,4.167 52.084,5.103 52.084,6.25 C52.084,7.397 51.149,8.333 50,8.333 C48.851,8.333 47.917,7.397 47.917,6.25 C47.917,5.103 48.85,4.167 50,4.167 L50,4.167 Z M35.917,31.25 C37.585,27.704 43.349,25 49.996,25 L49.998,25 L50.002,25 C56.651,25 62.415,27.704 64.083,31.25 L35.917,31.25 L35.917,31.25 Z" id="Shape"></path>
                </g>
            </g>
        </g>
    </g>
</svg>