<?xml version="1.0" encoding="UTF-8" standalone="no"?>
<svg width="104px" height="45px" viewBox="0 0 104 45" version="1.1" xmlns="http://www.w3.org/2000/svg" xmlns:xlink="http://www.w3.org/1999/xlink" xmlns:sketch="http://www.bohemiancoding.com/sketch/ns">
    <!-- Generator: Sketch 3.3.2 (12043) - http://www.bohemiancoding.com/sketch -->
    <title>carcar</title>
    <desc>Created with Sketch.</desc>
    <defs></defs>
    <g id="Page-1" stroke="none" stroke-width="1" fill="none" fill-rule="evenodd" sketch:type="MSPage">
        <g id="home" sketch:type="MSArtboardGroup" transform="translate(-333.000000, -8619.000000)" fill="#000000">
            <g id="LAND-+-Car" sketch:type="MSLayerGroup" transform="translate(108.000000, 8589.000000)">
                <g id="Car" transform="translate(226.000000, 0.000000)" sketch:type="MSShapeGroup">
                    <g id="Layer_2" transform="translate(0.000000, 33.000000)">
                        <path d="M15.524,22.357 C11.311,22.357 7.895,25.775 7.895,29.988 C7.895,34.201 11.311,37.618 15.524,37.618 C19.739,37.618 23.154,34.201 23.154,29.988 C23.154,25.775 19.738,22.357 15.524,22.357 L15.524,22.357 Z M15.524,33.189 C13.746,33.189 12.305,31.748 12.305,29.969 C12.305,28.19 13.746,26.748 15.524,26.748 C17.301,26.748 18.743,28.19 18.743,29.969 C18.742,31.748 17.301,33.189 15.524,33.189 L15.524,33.189 Z" id="Shape"></path>
                        <path d="M82.53,22.355 C78.315,22.355 74.898,25.772 74.898,29.984 C74.898,34.198 78.315,37.615 82.53,37.615 C86.742,37.615 90.16,34.198 90.16,29.984 C90.16,25.772 86.742,22.355 82.53,22.355 L82.53,22.355 Z M82.53,33.189 C80.752,33.189 79.308,31.748 79.308,29.969 C79.308,28.19 80.751,26.748 82.53,26.748 C84.309,26.748 85.753,28.19 85.753,29.969 C85.753,31.748 84.309,33.189 82.53,33.189 L82.53,33.189 Z" id="Shape"></path>
                        <path d="M78.23,11.515 C78.23,11.515 59.466,2.765 53.476,1.497 C47.489,0.229 26.879,1.382 24.922,2.648 L13.407,8.288 L2.125,13.815 L0.298,24.465 C0.298,24.465 0.248,30.783 0.686,32.238 L6.213,32.238 L6.284,29.988 C6.284,24.885 10.422,20.748 15.527,20.748 C20.63,20.748 24.765,24.886 24.765,29.988 L24.923,32.238 L73.282,32.238 L73.289,29.408 C73.289,24.305 77.145,20.538 82.248,20.538 C87.351,20.538 91.771,24.306 91.771,29.408 L91.961,32.024 C91.961,32.024 97.806,32.354 99.649,31.663 C99.649,31.663 100.339,21.876 96.771,18.306 C93.603,15.308 87.213,13.44 78.23,11.515 L78.23,11.515 Z M25.956,12.896 C25.956,12.896 28.319,7.886 30.899,5.972 C32.81,4.345 43.345,4.389 43.345,4.389 L43.734,14.104 L25.956,12.896 L25.956,12.896 Z M71.613,15.198 L46.915,14.22 L46.338,4.374 C55.492,4.03 65.914,8.923 71.901,12.434 C77.89,15.946 71.613,15.198 71.613,15.198 L71.613,15.198 Z" id="Shape"></path>
                    </g>
                </g>
            </g>
        </g>
    </g>
</svg>