<?xml version="1.0" encoding="UTF-8" standalone="no"?>
<svg width="68px" height="103px" viewBox="0 0 68 103" version="1.1" xmlns="http://www.w3.org/2000/svg" xmlns:xlink="http://www.w3.org/1999/xlink" xmlns:sketch="http://www.bohemiancoding.com/sketch/ns">
    <!-- Generator: Sketch 3.3.2 (12043) - http://www.bohemiancoding.com/sketch -->
    <title>ceremony</title>
    <desc>Created with Sketch.</desc>
    <defs></defs>
    <g id="Page-1" stroke="none" stroke-width="1" fill="none" fill-rule="evenodd" sketch:type="MSPage">
        <g id="home" sketch:type="MSArtboardGroup" transform="translate(-362.000000, -4062.000000)" fill="#000000">
            <g id="SEAL-THE-DEAL-@-5-PM-+-The-ceremony-will-be-+-Ceremony-Icon" sketch:type="MSLayerGroup" transform="translate(119.000000, 4065.000000)">
                <g id="Ceremony-Icon" transform="translate(247.000000, 0.000000)" sketch:type="MSShapeGroup">
                    <g id="Group">
                        <circle id="Oval" cx="16.555" cy="7.281" r="6.781"></circle>
                        <circle id="Oval" cx="37.323" cy="11.84" r="6.487"></circle>
                        <path d="M19.302,15.292 L17.135,15.933 C17.113,15.933 17.091,15.936 17.069,15.939 C16.949,15.786 16.791,15.69 16.615,15.69 C16.427,15.69 16.258,15.797 16.136,15.97 C16.086,15.947 16.032,15.933 15.974,15.933 L13.807,15.292 C13.597,15.292 13.426,15.463 13.426,15.673 L13.426,17.58 C13.426,17.791 13.597,17.962 13.807,17.962 L15.974,17.355 C16.036,17.355 16.094,17.339 16.145,17.313 C16.267,17.479 16.432,17.581 16.615,17.581 C16.784,17.581 16.937,17.491 17.056,17.347 C17.082,17.352 17.108,17.355 17.136,17.355 L19.303,17.962 C19.514,17.962 19.685,17.791 19.685,17.58 L19.685,15.673 C19.684,15.462 19.513,15.292 19.302,15.292 L19.302,15.292 Z" id="Shape"></path>
                        <circle id="Oval" cx="16.555" cy="20.7" r="1.006"></circle>
                        <circle id="Oval" cx="16.555" cy="24.609" r="1.006"></circle>
                        <circle id="Oval" cx="16.555" cy="28.518" r="1.006"></circle>
                        <circle id="Oval" cx="16.555" cy="32.427" r="1.006"></circle>
                        <path d="M37.323,0.833 C30.933,0.833 27.268,4.845 27.268,11.84 L29.349,11.84 C29.349,7.768 30.732,2.913 37.323,2.913 C43.915,2.913 45.299,7.767 45.299,11.84 L47.378,11.84 C47.377,4.845 43.713,0.833 37.323,0.833 L37.323,0.833 Z" id="Shape"></path>
                        <path d="M61.437,90.832 L49.033,55.779 L49.033,20.362 L31.455,20.362 C31.455,20.362 30.84,16.626 24.946,16.626 L21.167,16.626 L21.167,32.003 C21.167,32.003 21.132,35.54 16.556,35.54 C11.98,35.54 11.945,31.969 11.945,31.969 L11.876,16.627 L5.497,16.627 C5.497,16.627 0.435,16.991 0.435,21.291 L0.435,53.466 C0.435,53.466 0.435,55.651 3.399,55.651 C6.364,55.651 6.675,54.016 6.675,54.016 L6.675,95.254 L18.221,95.254 C18.221,95.254 19.703,95.28 19.703,94.37 C20.509,95.15 23.071,96.255 24.956,94.37 C25.918,95.02 27.66,96.399 30.026,94.37 C30.026,94.37 32.782,96.684 35.097,94.37 C36.371,95.15 37.437,96.216 40.219,94.526 C41.52,95.202 43.366,96.242 45.29,94.448 C46.954,95.332 47.839,96.294 50.361,94.448 C52.415,95.489 53.715,96.164 55.691,94.162 C57.302,96.214 62.451,96.162 61.437,90.832 L61.437,90.832 Z M7.748,27.443 C6.503,27.443 5.495,26.434 5.495,25.189 C5.495,23.945 6.504,22.936 7.748,22.936 C8.993,22.936 10.002,23.945 10.002,25.189 C10.002,26.434 8.993,27.443 7.748,27.443 L7.748,27.443 Z M58.195,93.892 C57.244,93.892 56.471,93.153 56.471,92.243 C56.471,91.755 56.695,91.318 57.046,91.016 L57.051,91.016 C57.051,90.52 56.395,90.119 55.586,90.119 C54.776,90.119 54.12,90.521 54.12,91.016 L54.131,91.016 C54.484,91.317 54.706,91.754 54.706,92.243 C54.706,93.154 53.935,93.892 52.983,93.892 C52.032,93.892 51.26,93.153 51.26,92.243 C51.26,91.754 51.484,91.316 51.837,91.014 L51.83,91.014 C51.829,90.519 51.218,90.118 50.465,90.118 C49.711,90.118 49.1,90.52 49.1,91.015 L49.103,91.015 C49.456,91.316 49.678,91.753 49.678,92.242 C49.678,93.153 48.906,93.891 47.954,93.891 C47.002,93.891 46.23,93.152 46.23,92.242 C46.23,91.753 46.455,91.315 46.808,91.013 L46.78,91.013 C46.778,90.518 46.132,90.117 45.334,90.117 C44.536,90.117 43.889,90.518 43.888,91.013 L43.882,91.013 C44.236,91.314 44.46,91.752 44.46,92.242 C44.46,93.153 43.688,93.891 42.736,93.891 C41.784,93.891 41.012,93.152 41.012,92.242 C41.012,91.754 41.236,91.317 41.587,91.015 L41.599,91.015 C41.599,90.519 40.972,90.118 40.199,90.118 C39.427,90.118 38.8,90.52 38.8,91.015 L38.818,91.015 C39.171,91.316 39.393,91.753 39.393,92.242 C39.393,93.153 38.621,93.891 37.67,93.891 C36.718,93.891 35.946,93.152 35.946,92.242 C35.946,91.753 36.17,91.315 36.523,91.013 L36.517,91.013 C36.515,90.518 35.858,90.117 35.049,90.117 C34.238,90.117 33.583,90.518 33.581,91.013 L33.56,91.013 C33.914,91.314 34.137,91.752 34.137,92.242 C34.137,93.153 33.366,93.891 32.414,93.891 C31.462,93.891 30.69,93.152 30.69,92.242 C30.69,91.753 30.914,91.315 31.268,91.013 L31.251,91.013 C31.25,90.518 30.679,90.117 29.977,90.117 C29.275,90.117 28.706,90.518 28.704,91.013 L28.684,91.013 C29.038,91.314 29.262,91.752 29.262,92.242 C29.262,93.153 28.491,93.891 27.539,93.891 C26.587,93.891 25.816,93.152 25.816,92.242 C25.816,91.754 26.039,91.317 26.391,91.015 L26.425,91.015 C26.425,90.519 25.735,90.118 24.884,90.118 C24.033,90.118 23.343,90.52 23.343,91.015 L23.351,91.015 C23.703,91.316 23.926,91.753 23.926,92.242 C23.926,93.153 23.155,93.891 22.203,93.891 C21.251,93.891 20.48,93.152 20.48,92.242 C20.48,91.753 20.704,91.315 21.058,91.013 L21.038,91.013 C21.036,90.518 20.422,90.117 19.665,90.117 C18.907,90.117 18.292,90.519 18.292,91.014 L18.301,91.014 C18.653,91.315 18.876,91.752 18.876,92.241 C18.876,93.152 18.105,93.89 17.152,93.89 C16.201,93.89 15.429,93.151 15.429,92.241 C15.429,91.752 17.575,84.165 17.575,84.165 L17.558,57.936 C17.558,57.936 17.454,56.827 18.529,56.827 C19.604,56.827 19.586,57.781 19.586,57.781 L19.794,76.659 L29.676,43.929 L34.391,43.929 C39.072,43.842 37.165,37.844 37.165,37.844 L32.226,22.78 C31.949,22.07 32.365,22.052 32.365,22.052 L46.876,22.052 C47.482,22.052 47.465,22.433 47.465,22.433 L47.43,51.211 L41.934,36.787 L44.292,30.737 C44.292,30.737 44.777,30.027 43.927,29.697 C43.078,29.367 42.766,29.991 42.766,29.991 L40.357,36.873 L59.72,91.013 C59.72,91.013 59.918,91.752 59.918,92.242 C59.918,93.153 59.146,93.892 58.195,93.892 L58.195,93.892 Z" id="Shape"></path>
                    </g>
                </g>
            </g>
        </g>
    </g>
</svg>