<?xml version="1.0" encoding="UTF-8" standalone="no"?>
<svg width="204px" height="192px" viewBox="0 0 204 192" version="1.1" xmlns="http://www.w3.org/2000/svg" xmlns:xlink="http://www.w3.org/1999/xlink" xmlns:sketch="http://www.bohemiancoding.com/sketch/ns">
    <!-- Generator: Sketch 3.3.2 (12043) - http://www.bohemiancoding.com/sketch -->
    <title>confetti</title>
    <desc>Created with Sketch.</desc>
    <defs></defs>
    <g id="Page-1" stroke="none" stroke-width="1" fill="none" fill-rule="evenodd" sketch:type="MSPage">
        <g id="home" sketch:type="MSArtboardGroup" transform="translate(-275.000000, -10421.000000)" fill="#000000">
            <g id="noun_98497_cc" sketch:type="MSLayerGroup" transform="translate(281.000000, 10428.000000)">
                <path d="M190.438235,109.40625 C189.595588,108 187.910294,107.71875 186.505882,108.28125 C180.607353,111.65625 176.113235,108 168.248529,101.25 C162.630882,96.46875 156.170588,90.84375 148.025,89.15625 C139.317647,87.46875 131.733824,91.40625 126.958824,96.75 C125.554412,96.46875 124.15,96.46875 122.745588,96.46875 C122.745588,96.46875 122.745588,96.46875 122.464706,96.46875 C119.094118,96.46875 115.442647,97.03125 112.072059,98.15625 C109.544118,93.09375 105.892647,88.03125 101.398529,83.25 C106.735294,80.71875 110.386765,75.09375 110.386765,68.90625 C110.386765,60.1875 103.364706,52.875 94.3764706,52.875 C86.7926471,52.875 80.3323529,58.21875 78.9279412,65.25 C76.1191176,63.84375 73.3102941,62.71875 70.7823529,61.875 C71.9058824,60.1875 73.3102941,58.21875 74.9955882,56.25 C79.2088235,51.75 80.6132353,46.40625 78.9279412,41.34375 C78.6470588,40.21875 78.0852941,39.09375 77.2426471,37.96875 C80.0514706,31.78125 79.4897059,25.03125 77.5235294,20.25 C80.0514706,16.875 82.2985294,12.9375 83.4220588,8.15625 C83.7029412,6.75 82.8602941,5.0625 81.4558824,4.78125 C80.0514706,4.5 78.3661765,5.34375 78.0852941,6.75 C77.2426471,9.84375 76.1191176,12.65625 74.4338235,14.90625 C72.4676471,12.375 69.6588235,10.6875 67.1308824,10.40625 C58.4235294,9.5625 54.2102941,13.21875 53.0867647,17.15625 C51.9632353,20.8125 53.6485294,24.75 57.0191176,26.71875 C60.3897059,28.6875 64.6029412,28.6875 68.8161765,27 C70.2205882,26.4375 71.625,25.59375 73.0294118,24.46875 C73.5911765,27 73.8720588,30.09375 73.0294118,33.1875 C71.3441176,32.0625 69.3779412,31.21875 67.4117647,30.65625 C62.9176471,29.8125 58.7044118,30.9375 55.8955882,34.3125 C53.9294118,36.5625 53.3676471,39.375 54.2102941,42.1875 C55.3338235,45.28125 58.1426471,47.8125 61.5132353,48.375 C64.0411765,48.9375 68.8161765,48.65625 73.5911765,43.3125 C74.4338235,46.40625 73.3102941,49.5 70.7823529,52.3125 C68.2544118,55.125 66.2882353,57.65625 64.8838235,60.1875 C62.6367647,59.90625 60.6705882,59.625 58.7044118,59.625 C52.8058824,59.625 47.75,61.59375 44.0985294,64.96875 C42.4132353,66.65625 41.0088235,68.90625 40.1661765,71.4375 L40.1661765,71.4375 L0.561764706,168.75 C-0.280882353,170.71875 -8.11434253e-14,172.96875 1.12352941,174.9375 C2.24705882,176.90625 4.49411765,177.75 6.46029412,177.75 C7.30294118,177.75 8.14558824,177.46875 8.98823529,177.1875 L69.0970588,152.4375 L69.0970588,152.4375 L105.892647,137.25 L105.892647,137.25 C108.420588,136.40625 110.667647,135 112.352941,133.3125 C119.094118,126.5625 119.375,115.3125 114.319118,103.21875 C116.847059,102.375 119.655882,102.09375 122.183824,102.09375 L123.026471,102.09375 C119.094118,109.6875 119.936765,117.84375 124.711765,123.46875 C127.520588,126.5625 130.891176,127.6875 133.980882,127.6875 C136.789706,127.6875 139.598529,126.5625 141.564706,124.875 C146.058824,120.9375 148.305882,113.34375 142.126471,105.46875 C139.598529,102.375 136.508824,99.84375 132.857353,98.4375 C136.508824,95.34375 141.283824,93.65625 146.620588,94.78125 C153.361765,96.1875 158.979412,100.96875 164.316176,105.46875 C171.9,111.9375 179.483824,118.40625 189.033824,113.0625 C190.719118,112.5 191.280882,110.8125 190.438235,109.40625 L190.438235,109.40625 Z M66.85,21.9375 C65.1647059,22.78125 62.6367647,23.34375 60.1088235,21.9375 C58.9852941,21.375 58.4235294,19.96875 58.7044118,18.84375 C59.2661765,17.4375 60.9514706,16.03125 65.1647059,16.03125 L66.85,16.03125 C67.9735294,16.03125 69.6588235,17.15625 71.0632353,19.125 C69.6588235,20.53125 68.2544118,21.375 66.85,21.9375 L66.85,21.9375 Z M70.2205882,39.65625 C67.9735294,42.46875 65.4455882,43.875 63.1985294,43.3125 C61.7941176,43.03125 60.6705882,42.1875 60.1088235,40.78125 C59.8279412,39.9375 60.1088235,39.09375 60.6705882,38.53125 C62.075,36.84375 63.7602941,36.5625 65.1647059,36.5625 C65.7264706,36.5625 66.2882353,36.5625 66.85,36.84375 C68.2544118,37.125 69.9397059,37.96875 71.0632353,39.09375 C70.5014706,39.09375 70.2205882,39.375 70.2205882,39.65625 L70.2205882,39.65625 Z M94.6573529,58.5 C100.275,58.5 105.05,63 105.05,68.90625 C105.05,73.96875 101.117647,78.46875 96.0617647,79.03125 L96.0617647,79.03125 C95.5,79.03125 95.2191176,79.3125 94.6573529,79.3125 C94.0955882,79.3125 93.2529412,79.3125 92.6911765,79.03125 L92.1294118,79.03125 C91.5676471,79.03125 91.2867647,78.75 90.725,78.46875 C90.4441176,78.46875 90.4441176,78.1875 90.1632353,78.1875 C89.8823529,77.90625 89.3205882,77.90625 89.0397059,77.625 C88.7588235,77.34375 88.4779412,77.34375 88.4779412,77.0625 C88.1970588,76.78125 87.9161765,76.78125 87.6352941,76.5 C87.3544118,76.21875 87.0735294,75.9375 86.7926471,75.65625 C86.7926471,75.375 86.5117647,75.375 86.5117647,75.09375 C86.2308824,74.53125 85.95,74.25 85.6691176,73.6875 L85.6691176,73.6875 C85.1073529,72.5625 84.8264706,71.4375 84.5455882,70.03125 L84.5455882,70.03125 L84.5455882,69.1875 C84.2647059,63.28125 89.0397059,58.5 94.6573529,58.5 L94.6573529,58.5 Z M62.3558824,122.0625 C62.6367647,122.34375 62.9176471,122.625 63.1985294,122.625 C64.3220588,123.46875 65.4455882,124.59375 66.5691176,125.4375 C66.85,125.71875 66.85,125.71875 67.1308824,126 C68.2544118,126.84375 69.0970588,127.40625 70.2205882,128.25 C70.5014706,128.53125 70.7823529,128.53125 70.7823529,128.8125 C71.9058824,129.65625 73.0294118,130.21875 74.1529412,131.0625 C74.4338235,131.34375 74.7147059,131.34375 74.9955882,131.625 C76.1191176,132.1875 77.2426471,133.03125 78.3661765,133.59375 L78.6470588,133.59375 C79.7705882,134.15625 80.8941176,134.71875 82.2985294,135.28125 C82.2985294,135.28125 82.5794118,135.28125 82.5794118,135.5625 C57.8617647,132.75 38.7617647,119.25 33.1441176,105.1875 L35.9529412,98.15625 C39.6044118,103.5 44.9411765,107.71875 51.6823529,111.09375 C53.9294118,113.90625 56.1764706,116.71875 58.9852941,119.53125 C60.1088235,120.09375 61.2323529,121.21875 62.3558824,122.0625 L62.3558824,122.0625 Z M67.9735294,147.09375 C56.4573529,145.6875 30.8970588,140.625 24.9985294,124.3125 L30.0544118,111.65625 C39.6044118,128.25 61.5132353,138.375 83.1411765,140.90625 L67.9735294,147.09375 L67.9735294,147.09375 Z M46.9073529,155.8125 C36.5147059,154.96875 23.5941176,151.03125 19.1,138.65625 L22.1897059,131.34375 C29.4926471,143.15625 44.9411765,148.5 58.1426471,151.3125 L46.9073529,155.8125 L46.9073529,155.8125 Z M28.0882353,163.40625 C19.3808824,163.40625 13.2014706,159.75 12.0779412,155.8125 L16.2911765,145.6875 C20.5044118,152.71875 27.5264706,157.21875 37.0764706,159.75 L28.0882353,163.40625 L28.0882353,163.40625 Z M44.3794118,99.28125 C41.8514706,97.03125 40.1661765,94.5 38.4808824,91.40625 L40.1661765,87.46875 C41.0088235,91.40625 42.4132353,95.34375 44.3794118,99.28125 L44.3794118,99.28125 Z M7.02205882,172.125 C6.46029412,172.40625 6.17941176,172.125 5.89852941,171.84375 C5.61764706,171.5625 5.89852941,171 5.89852941,171 L9.55,162.28125 C11.7970588,164.53125 14.6058824,166.5 18.2573529,167.625 L7.02205882,172.125 L7.02205882,172.125 Z M108.701471,129.375 C107.577941,130.5 105.892647,131.625 104.207353,132.1875 L104.207353,132.1875 C102.522059,132.75 100.275,133.03125 98.0279412,133.03125 C88.7588235,133.03125 77.2426471,127.6875 67.1308824,118.96875 C66.85,118.6875 66.2882353,118.40625 66.0073529,117.84375 C64.8838235,117 64.0411765,115.875 62.9176471,115.03125 C62.075,114.1875 60.9514706,113.0625 60.1088235,112.21875 C59.8279412,111.9375 59.5470588,111.375 59.2661765,111.09375 C58.7044118,110.53125 58.1426471,109.96875 57.5808824,109.125 C57.3,108.5625 57.0191176,108.28125 56.4573529,107.71875 C55.8955882,107.15625 55.6147059,106.59375 55.0529412,106.03125 C54.7720588,105.46875 54.4911765,105.1875 54.2102941,104.625 C53.9294118,104.0625 53.3676471,103.5 53.0867647,102.9375 C52.8058824,102.375 52.525,102.09375 52.2441176,101.53125 C51.6823529,100.96875 51.4014706,100.125 51.1205882,99.5625 C50.8397059,99.28125 50.8397059,99 50.5588235,98.71875 C49.9970588,97.59375 49.4352941,96.75 48.8735294,95.625 C48.8735294,95.34375 48.5926471,95.0625 48.5926471,95.0625 C48.3117647,94.21875 47.75,93.375 47.4691176,92.53125 C47.4691176,92.25 47.1882353,91.96875 47.1882353,91.6875 C46.9073529,90.84375 46.6264706,90.28125 46.3455882,89.4375 C46.3455882,89.15625 46.0647059,88.875 46.0647059,88.59375 C45.7838235,87.75 45.5029412,86.90625 45.5029412,86.34375 C45.5029412,86.0625 45.5029412,86.0625 45.2220588,85.78125 C44.9411765,84.9375 44.9411765,84.09375 44.6602941,83.25 L44.6602941,82.96875 C44.3794118,81 44.3794118,79.3125 44.6602941,77.625 L44.6602941,77.34375 C44.6602941,76.78125 44.9411765,75.9375 44.9411765,75.375 C44.9411765,75.09375 45.2220588,74.8125 45.2220588,74.53125 C45.7838235,72.28125 46.9073529,70.59375 48.3117647,69.1875 C50.8397059,66.65625 54.2102941,65.53125 58.7044118,65.53125 C59.8279412,65.53125 60.9514706,65.53125 62.075,65.8125 C59.5470588,71.4375 59.2661765,75.375 59.2661765,76.5 C59.2661765,78.1875 60.3897059,79.3125 62.075,79.3125 L62.075,79.3125 C63.4794118,79.3125 64.8838235,78.1875 64.8838235,76.5 C64.8838235,75.9375 65.1647059,72 67.6926471,66.65625 C71.3441176,67.78125 74.9955882,69.1875 78.6470588,71.4375 C79.2088235,74.25 80.3323529,76.78125 82.0176471,79.03125 C82.0176471,79.03125 82.0176471,79.03125 82.2985294,79.3125 C82.8602941,79.875 83.1411765,80.4375 83.7029412,80.71875 C83.9838235,80.71875 83.9838235,81 84.2647059,81 C84.8264706,81.5625 85.3882353,81.84375 85.95,82.125 C86.2308824,82.125 86.5117647,82.40625 86.5117647,82.40625 C87.0735294,82.6875 87.6352941,82.96875 88.4779412,83.25 C88.7588235,83.25 89.0397059,83.53125 89.0397059,83.53125 C89.8823529,83.8125 90.4441176,84.09375 91.2867647,84.09375 L91.8485294,84.09375 C92.6911765,84.09375 93.5338235,84.375 94.3764706,84.375 L95.2191176,84.375 C99.9941176,89.15625 103.645588,94.5 106.454412,99.84375 C99.4323529,102.9375 92.9720588,108 87.9161765,114.75 C87.0735294,115.875 87.0735294,117.84375 88.4779412,118.6875 C89.6014706,119.53125 91.5676471,119.53125 92.4102941,118.125 C97.1852941,112.21875 102.802941,107.71875 108.982353,104.90625 C113.476471,115.3125 113.757353,124.59375 108.701471,129.375 L108.701471,129.375 Z M138.194118,109.125 C142.407353,114.46875 141.002941,118.96875 138.475,120.9375 C136.227941,122.90625 132.295588,123.46875 129.205882,119.8125 C124.992647,115.03125 126.116176,108.5625 128.644118,104.0625 C128.925,103.78125 128.925,103.5 129.205882,103.21875 C132.857353,104.34375 135.947059,106.3125 138.194118,109.125 L138.194118,109.125 Z M164.597059,45 C169.933824,45 174.427941,40.5 174.427941,35.15625 C174.427941,29.8125 169.933824,25.3125 164.597059,25.3125 C159.260294,25.3125 154.766176,29.8125 154.766176,35.15625 C154.766176,40.5 158.979412,45 164.597059,45 L164.597059,45 Z M164.597059,30.9375 C166.844118,30.9375 168.810294,32.90625 168.810294,35.15625 C168.810294,37.40625 166.844118,39.375 164.597059,39.375 C162.35,39.375 160.383824,37.40625 160.383824,35.15625 C160.383824,32.90625 162.069118,30.9375 164.597059,30.9375 L164.597059,30.9375 Z M95.5,95.34375 C95.5,91.125 92.1294118,87.75 87.9161765,87.75 C83.7029412,87.75 80.3323529,91.125 80.3323529,95.34375 C80.3323529,99.5625 83.7029412,102.9375 87.9161765,102.9375 C92.1294118,102.9375 95.5,99.28125 95.5,95.34375 L95.5,95.34375 Z M85.95,95.34375 C85.95,94.21875 86.7926471,93.375 87.9161765,93.375 C89.0397059,93.375 89.8823529,94.21875 89.8823529,95.34375 C89.8823529,96.46875 89.0397059,97.3125 87.9161765,97.3125 C86.7926471,97.3125 85.95,96.1875 85.95,95.34375 L85.95,95.34375 Z M103.364706,24.46875 L112.914706,29.53125 L114.038235,40.21875 C114.038235,41.34375 114.880882,42.1875 115.723529,42.46875 C116.004412,42.46875 116.285294,42.75 116.566176,42.75 C117.408824,42.75 117.970588,42.46875 118.532353,41.90625 L126.397059,34.59375 L137.070588,36.84375 C138.194118,37.125 139.317647,36.5625 139.879412,35.71875 C140.441176,34.875 140.722059,33.75 140.160294,32.90625 L135.666176,23.0625 L141.002941,13.78125 C141.564706,12.9375 141.564706,11.8125 141.002941,10.6875 C140.441176,9.84375 139.317647,9.28125 138.194118,9.5625 L127.520588,11.25 L120.217647,3.09375 C119.375,2.25 118.532353,1.96875 117.408824,2.25 C116.285294,2.53125 115.723529,3.375 115.442647,4.5 L113.476471,15.1875 L103.645588,19.6875 C102.802941,20.25 101.960294,21.09375 101.960294,22.21875 C101.960294,23.34375 102.522059,23.90625 103.364706,24.46875 L103.364706,24.46875 Z M117.127941,19.6875 C117.970588,19.40625 118.532353,18.5625 118.813235,17.71875 L119.936765,11.25 L124.430882,16.03125 C124.992647,16.59375 125.835294,17.15625 126.958824,16.875 L133.419118,16.03125 L130.048529,21.65625 C129.486765,22.5 129.486765,23.34375 130.048529,24.1875 L132.857353,30.09375 L126.397059,28.96875 C125.554412,28.6875 124.430882,28.96875 123.869118,29.8125 L119.094118,34.3125 L118.532353,27.84375 C118.532353,27 117.970588,26.15625 117.127941,25.59375 L111.229412,22.5 L117.127941,19.6875 L117.127941,19.6875 Z M130.610294,54.84375 C129.486765,54.5625 128.363235,54.84375 127.801471,55.40625 C126.958824,56.25 126.677941,57.375 127.239706,58.21875 L129.486765,64.96875 L125.273529,70.59375 C124.711765,71.4375 124.430882,72.5625 124.992647,73.6875 C125.554412,74.53125 126.397059,75.09375 127.520588,75.375 L134.542647,75.375 L138.475,81.28125 C139.036765,82.125 139.879412,82.40625 140.722059,82.40625 L141.002941,82.40625 C142.126471,82.125 142.969118,81.5625 143.25,80.4375 L145.497059,73.6875 L152.238235,71.71875 C153.361765,71.4375 153.923529,70.59375 154.204412,69.46875 C154.485294,68.34375 153.923529,67.21875 153.080882,66.65625 L147.463235,62.4375 L147.744118,55.40625 C147.744118,54.28125 147.182353,53.4375 146.339706,52.875 C145.497059,52.3125 144.373529,52.59375 143.25,53.15625 L137.632353,57.375 L130.610294,54.84375 L130.610294,54.84375 Z M139.317647,62.4375 L141.564706,60.75 L141.564706,63.5625 C141.564706,64.40625 141.845588,65.25 142.688235,65.8125 L144.935294,67.5 L142.126471,68.34375 C141.283824,68.625 140.441176,69.1875 140.160294,70.3125 L139.317647,73.125 L137.632353,70.875 C137.070588,70.03125 136.227941,69.75 135.385294,69.75 L135.385294,69.75 L132.576471,69.75 L134.261765,67.5 C134.823529,66.65625 135.104412,65.8125 134.823529,64.96875 L133.980882,62.15625 L136.789706,63 C137.632353,63.28125 138.755882,63 139.317647,62.4375 L139.317647,62.4375 Z" id="Shape" sketch:type="MSShapeGroup"></path>
            </g>
        </g>
    </g>
</svg>