<?xml version="1.0" encoding="UTF-8" standalone="no"?>
<svg width="89px" height="94px" viewBox="0 0 89 94" version="1.1" xmlns="http://www.w3.org/2000/svg" xmlns:xlink="http://www.w3.org/1999/xlink" xmlns:sketch="http://www.bohemiancoding.com/sketch/ns">
    <!-- Generator: Sketch 3.3.2 (12043) - http://www.bohemiancoding.com/sketch -->
    <title>drinks</title>
    <desc>Created with Sketch.</desc>
    <defs></defs>
    <g id="Page-1" stroke="none" stroke-width="1" fill="none" fill-rule="evenodd" sketch:type="MSPage">
        <g id="home" sketch:type="MSArtboardGroup" transform="translate(-348.000000, -4430.000000)" fill="#000000">
            <g id="PRE-GAMING-@-5:45-+-Drinks-will-be-serve-+-Drinks" sketch:type="MSLayerGroup" transform="translate(119.000000, 4430.000000)">
                <g id="Drinks" transform="translate(233.000000, 0.000000)" sketch:type="MSShapeGroup">
                    <g id="Group">
                        <path d="M17.6,62.5 C8.8,59.2 7.3,51.7 9.8,45 C11.2,41.3 36,51.5 34.9,54.4 C32.4,61 26.4,65.8 17.6,62.5 L17.6,62.5 Z" id="Shape"></path>
                        <path d="M40.9,33.4 L40.7,33 L19.4,25.1 L19,25.2 C13.4,26.9 4.3,39.2 3.9,50.6 C3.8,56 5.6,63.1 14.7,67 L8.1,84.6 L1.3,82 L0.5,84.2 L15.8,90 L16.6,87.8 L10.3,85.4 L16.9,67.8 C19,68.5 21.1,68.8 23,68.8 C29.3,68.8 34.5,65.3 38.1,58.7 C43.1,49.8 43.7,37.8 40.9,33.4 L40.9,33.4 Z M36,57.6 C33.8,61.6 29.7,66.5 22.9,66.5 C20.9,66.5 18.7,66.1 16.5,65.2 C9.5,62.6 6.1,57.7 6.3,50.7 C6.6,40.4 14.9,29.4 19.3,27.6 L39.1,35 C41,38.7 40.6,49.4 36,57.6 L36,57.6 Z" id="Shape"></path>
                        <rect id="Rectangle-path" transform="translate(27.593035, 16.663575) rotate(45.000000) translate(-27.593035, -16.663575) " x="20.2431055" y="15.4635865" width="14.699859" height="2.39997698"></rect>
                        <rect id="Rectangle-path" x="40.8" y="0" width="2.4" height="14.7"></rect>
                        <rect id="Rectangle-path" transform="translate(56.882740, 16.493040) rotate(45.000000) translate(-56.882740, -16.493040) " x="55.6827515" y="9.09311097" width="2.39997698" height="14.7998581"></rect>
                        <path d="M66.4,62.5 C75.2,59.2 76.7,51.7 74.2,45 C72.8,41.3 48,51.5 49.1,54.4 C51.6,61 57.6,65.8 66.4,62.5 L66.4,62.5 Z" id="Shape"></path>
                        <path d="M82.7,82 L75.9,84.5 L69.3,67 C78.4,63.1 80.2,56 80,50.7 C79.7,39.3 70.5,27 64.9,25.3 L64.5,25.2 L43.3,33 L43.1,33.3 C40.3,37.7 41,49.8 45.9,58.7 C49.5,65.3 54.8,68.8 61,68.8 L61,68.8 C62.9,68.8 65,68.4 67.1,67.8 L73.7,85.4 L67.4,87.8 L68.2,90 L83.6,84.3 L82.7,82 L82.7,82 Z M61,66.5 C54.3,66.5 50.2,61.7 47.9,57.6 C43.4,49.4 43,38.7 44.9,35 L64.6,27.7 C69,29.5 77.3,40.5 77.6,50.8 C77.8,57.8 74.4,62.6 67.4,65.3 C65.2,66 63,66.5 61,66.5 L61,66.5 L61,66.5 Z" id="Shape"></path>
                    </g>
                </g>
            </g>
        </g>
    </g>
</svg>