<?xml version="1.0" encoding="UTF-8" standalone="no"?>
<svg width="229px" height="228px" viewBox="0 0 229 228" version="1.1" xmlns="http://www.w3.org/2000/svg" xmlns:xlink="http://www.w3.org/1999/xlink" xmlns:sketch="http://www.bohemiancoding.com/sketch/ns">
    <!-- Generator: Sketch 3.3.2 (12043) - http://www.bohemiancoding.com/sketch -->
    <title>giftsgifts</title>
    <desc>Created with Sketch.</desc>
    <defs></defs>
    <g id="Page-1" stroke="none" stroke-width="1" fill="none" fill-rule="evenodd" sketch:type="MSPage">
        <g id="home" sketch:type="MSArtboardGroup" transform="translate(-270.000000, -9507.000000)" fill="#000000">
            <g id="Imported-Layers-Copy-+-Gift" sketch:type="MSLayerGroup" transform="translate(273.000000, 9510.000000)">
                <g id="Imported-Layers-Copy" sketch:type="MSShapeGroup">
                    <path d="M111.5,0 C49.92,0 0,49.92 0,111.5 C0,173.08 49.92,223 111.5,223 C173.08,223 223,173.08 223,111.5 C223,49.92 173.08,0 111.5,0 L111.5,0 Z M111.5,220.77 C51.152,220.77 2.231,171.848 2.231,111.5 C2.231,51.151 51.152,2.231 111.5,2.231 C171.848,2.231 220.769,51.151 220.769,111.5 C220.769,171.848 171.848,220.77 111.5,220.77 L111.5,220.77 Z" id="Fill-1"></path>
                    <path d="M116.215,205.882 L116.131,203.581 L113.83,203.666 L113.914,205.967 L116.215,205.882" id="Fill-2"></path>
                    <path d="M127.146,204.709 L126.796,202.434 L124.521,202.782 L124.87,205.059 L127.146,204.709" id="Fill-3"></path>
                    <path d="M137.855,202.274 L137.241,200.055 L135.023,200.668 L135.635,202.887 L137.855,202.274" id="Fill-4"></path>
                    <path d="M148.191,198.61 L147.324,196.478 L145.191,197.346 L146.059,199.478 L148.191,198.61" id="Fill-5"></path>
                    <path d="M158.058,193.752 L156.947,191.735 L154.93,192.846 L156.041,194.862 L158.058,193.752" id="Fill-6"></path>
                    <path d="M167.289,187.78 L165.951,185.906 L164.077,187.243 L165.414,189.117 L167.289,187.78" id="Fill-7"></path>
                    <path d="M175.75,180.796 L174.205,179.088 L172.498,180.633 L174.042,182.34 L175.75,180.796" id="Fill-8"></path>
                    <path d="M183.364,172.865 L181.633,171.348 L180.115,173.078 L181.847,174.596 L183.364,172.865" id="Fill-9"></path>
                    <path d="M190.001,164.124 L188.106,162.816 L186.799,164.711 L188.693,166.019 L190.001,164.124" id="Fill-10"></path>
                    <path d="M195.586,154.665 L193.552,153.586 L192.473,155.619 L194.507,156.698 L195.586,154.665" id="Fill-11"></path>
                    <path d="M200.027,144.63 L197.882,143.795 L197.047,145.94 L199.192,146.775 L200.027,144.63" id="Fill-12"></path>
                    <path d="M203.269,134.134 L201.041,133.556 L200.464,135.784 L202.692,136.362 L203.269,134.134" id="Fill-13"></path>
                    <path d="M205.268,123.309 L202.986,122.995 L202.673,125.275 L204.953,125.59 L205.268,123.309" id="Fill-14"></path>
                    <path d="M205.994,112.363 L203.692,112.314 L203.643,114.615 L205.944,114.665 L205.994,112.363" id="Fill-15"></path>
                    <path d="M205.464,101.394 L203.172,101.607 L203.386,103.9 L205.678,103.685 L205.464,101.394" id="Fill-16"></path>
                    <path d="M203.667,90.549 L201.416,91.029 L201.896,93.28 L204.146,92.801 L203.667,90.549" id="Fill-17"></path>
                    <path d="M200.618,79.993 L198.438,80.732 L199.178,82.913 L201.357,82.173 L200.618,79.993" id="Fill-18"></path>
                    <path d="M196.359,69.875 L194.281,70.863 L195.269,72.942 L197.349,71.953 L196.359,69.875" id="Fill-19"></path>
                    <path d="M190.944,60.309 L188.995,61.533 L190.219,63.483 L192.169,62.259 L190.944,60.309" id="Fill-20"></path>
                    <path d="M184.471,51.453 L182.675,52.895 L184.116,54.69 L185.912,53.248 L184.471,51.453" id="Fill-21"></path>
                    <path d="M177.011,43.396 L175.394,45.035 L177.033,46.651 L178.649,45.013 L177.011,43.396" id="Fill-22"></path>
                    <path d="M168.657,36.241 L167.24,38.056 L169.055,39.473 L170.472,37.658 L168.657,36.241" id="Fill-23"></path>
                    <path d="M159.536,30.105 L158.339,32.071 L160.306,33.269 L161.502,31.302 L159.536,30.105" id="Fill-24"></path>
                    <path d="M149.789,25.081 L148.828,27.173 L150.921,28.134 L151.881,26.041 L149.789,25.081" id="Fill-25"></path>
                    <path d="M139.498,21.219 L138.789,23.409 L140.979,24.118 L141.688,21.928 L139.498,21.219" id="Fill-26"></path>
                    <path d="M128.828,18.588 L128.381,20.846 L130.639,21.294 L131.087,19.036 L128.828,18.588" id="Fill-27"></path>
                    <path d="M117.915,17.217 L117.732,19.512 L120.027,19.694 L120.21,17.399 L117.915,17.217" id="Fill-28"></path>
                    <path d="M106.955,17.109 L107.035,19.41 L109.336,19.33 L109.256,17.029 L106.955,17.109" id="Fill-29"></path>
                    <path d="M96.02,18.264 L96.364,20.54 L98.641,20.194 L98.295,17.919 L96.02,18.264" id="Fill-30"></path>
                    <path d="M85.304,20.681 L85.912,22.9 L88.133,22.292 L87.523,20.071 L85.304,20.681" id="Fill-31"></path>
                    <path d="M74.941,24.334 L75.806,26.468 L77.94,25.603 L77.075,23.47 L74.941,24.334" id="Fill-32"></path>
                    <path d="M65.082,29.169 L66.19,31.187 L68.208,30.08 L67.102,28.061 L65.082,29.169" id="Fill-33"></path>
                    <path d="M55.854,35.115 L57.188,36.991 L59.065,35.658 L57.731,33.781 L55.854,35.115" id="Fill-34"></path>
                    <path d="M47.367,42.096 L48.909,43.806 L50.619,42.265 L49.077,40.555 L47.367,42.096" id="Fill-35"></path>
                    <path d="M39.751,50 L41.479,51.522 L43,49.793 L41.272,48.272 L39.751,50" id="Fill-36"></path>
                    <path d="M33.088,58.743 L34.981,60.055 L36.292,58.162 L34.399,56.851 L33.088,58.743" id="Fill-37"></path>
                    <path d="M27.48,68.208 L29.512,69.29 L30.594,67.258 L28.562,66.176 L27.48,68.208" id="Fill-38"></path>
                    <path d="M23.023,78.235 L25.168,79.073 L26.006,76.929 L23.861,76.091 L23.023,78.235" id="Fill-39"></path>
                    <path d="M19.765,88.725 L21.992,89.306 L22.574,87.078 L20.347,86.497 L19.765,88.725" id="Fill-40"></path>
                    <path d="M17.754,99.525 L20.034,99.843 L20.352,97.562 L18.071,97.245 L17.754,99.525" id="Fill-41"></path>
                    <path d="M17.008,110.484 L19.31,110.538 L19.362,108.236 L17.061,108.184 L17.008,110.484" id="Fill-42"></path>
                    <path d="M17.521,121.457 L19.813,121.246 L19.602,118.954 L17.31,119.165 L17.521,121.457" id="Fill-43"></path>
                    <path d="M19.296,132.289 L21.549,131.814 L21.073,129.562 L18.82,130.037 L19.296,132.289" id="Fill-44"></path>
                    <path d="M22.328,142.854 L24.509,142.117 L23.773,139.936 L21.592,140.672 L22.328,142.854" id="Fill-45"></path>
                    <path d="M26.577,152.996 L28.657,152.011 L27.672,149.931 L25.591,150.916 L26.577,152.996" id="Fill-46"></path>
                    <path d="M31.959,162.541 L33.911,161.32 L32.69,159.369 L30.738,160.589 L31.959,162.541" id="Fill-47"></path>
                    <path d="M38.44,171.438 L40.236,169.999 L38.798,168.201 L37.001,169.641 L38.44,171.438" id="Fill-48"></path>
                    <path d="M45.887,179.506 L47.506,177.869 L45.87,176.25 L44.251,177.887 L45.887,179.506" id="Fill-49"></path>
                    <path d="M54.216,186.662 L55.636,184.85 L53.823,183.43 L52.403,185.242 L54.216,186.662" id="Fill-50"></path>
                    <path d="M63.31,192.805 L64.512,190.84 L62.547,189.64 L61.347,191.604 L63.31,192.805" id="Fill-51"></path>
                    <path d="M73.08,197.861 L74.044,195.77 L71.953,194.807 L70.989,196.898 L73.08,197.861" id="Fill-52"></path>
                    <path d="M83.363,201.738 L84.076,199.549 L81.887,198.837 L81.174,201.025 L83.363,201.738" id="Fill-53"></path>
                    <path d="M94.026,204.386 L94.479,202.128 L92.221,201.677 L91.769,203.934 L94.026,204.386" id="Fill-54"></path>
                    <path d="M104.898,205.77 L105.085,203.477 L102.79,203.289 L102.603,205.583 L104.898,205.77" id="Fill-55"></path>
                </g>
                <g id="Gift" transform="translate(76.000000, 51.000000)">
                    <text id="GIFTS" sketch:type="MSTextLayer" font-family="Bebas Neue" font-size="40" font-weight="normal" letter-spacing="2.35294151">
                        <tspan x="0" y="111">GIFTS</tspan>
                    </text>
                    <g id="Your_Icon" transform="translate(11.000000, 12.000000)" sketch:type="MSShapeGroup">
                        <path d="M53.4520976,19.9865854 L53.4455122,19.9865854 L53.4455122,9.87804878 C53.4455122,4.44512195 49.0003902,0 43.5674634,0 L9.88595122,0 C4.45302439,0 0.00790243902,4.44512195 0.00790243902,9.87804878 L0.00790243902,19.9892195 L0,19.9892195 L0,27.4115854 L0.00790243902,27.4115854 L0.00790243902,43.559561 C0.00790243902,48.9924878 4.45302439,53.4376098 9.88595122,53.4376098 L43.5674634,53.4376098 C49.0003902,53.4376098 53.4455122,48.9924878 53.4455122,43.559561 L53.4455122,27.4168537 L53.4494634,27.4168537 C53.4494634,27.1784634 53.451439,22.2321951 53.4520976,19.9865854 L53.4520976,19.9865854 Z M43.5674634,2.63414634 C47.5614878,2.63414634 50.8113659,5.88402439 50.8113659,9.87804878 L50.8113659,19.9879024 C50.409,19.9872439 49.9374878,19.9865854 49.455439,19.9865854 L49.094561,19.9865854 C48.1923659,19.9865854 47.3198049,19.988561 46.8983415,19.9958049 C46.6230732,20.0004146 46.4702927,19.9115122 46.3425366,19.665878 C45.4785366,18.0024146 44.8542439,16.254 44.4696585,14.4212927 C44.3399268,13.8022683 44.0916585,13.4598293 43.4680244,13.4690488 C42.570439,13.481561 41.6478293,13.5375366 40.7811951,13.7568293 C38.1766829,14.4133902 35.9080244,15.7732683 33.7704146,17.352439 C32.7477073,18.1077805 31.7921707,18.9559756 30.7990976,19.7534634 C30.6522439,19.8706829 30.4724634,19.9457561 30.2307805,20.0853659 L30.2307805,8.80858537 L30.2307805,2.63480488 L43.5674634,2.63480488 L43.5674634,2.63414634 Z M2.64204878,9.87804878 C2.64204878,5.88402439 5.89192683,2.63414634 9.88595122,2.63414634 L22.7748293,2.63414634 L22.7748293,7.6554878 L22.7748293,20.0748293 C22.4363415,19.9589268 22.1281463,19.9069024 21.8759268,19.7580732 C21.3688537,19.4564634 20.8907561,19.1087561 20.4093659,18.7676341 C17.6013659,16.7735854 14.3883659,15.777878 11.0943659,14.9830244 C10.8474146,14.9237561 10.5899268,14.8987317 10.3370488,14.8849024 C8.9514878,14.8098293 8.49907317,15.056122 8.02690244,16.3481707 C7.63573171,17.4222439 7.36441463,18.539122 7.02,19.6303171 C6.97521951,19.7705854 6.80531707,19.9727561 6.69073171,19.9734146 C5.81026829,19.9852683 4.92914634,19.9879024 4.04078049,19.9892195 L2.64204878,19.9892195 L2.64204878,9.87804878 L2.64204878,9.87804878 Z M2.64204878,43.559561 L2.64204878,27.4056585 L12.2869756,27.4056585 C11.9590244,27.7586341 11.7015366,28.053 11.4249512,28.3289268 C10.4206829,29.3285854 9.41443902,30.3269268 8.39568293,31.3127561 C8.04204878,31.6558537 8.02031707,32.0503171 8.08419512,32.498122 C8.53726829,35.621561 8.90341463,38.7529024 8.87246341,41.9171707 C8.86587805,42.4868049 8.82373171,43.0584146 8.79409756,43.7334146 C8.95609756,43.640561 9.08319512,43.6069756 9.153,43.5220244 C9.747,42.8002683 10.2692195,42.0100244 10.9277561,41.3547805 C13.1839024,39.1065366 15.5157805,36.9307317 17.7653415,34.6759024 C19.3846829,33.0519512 20.9203902,31.3443659 22.4923171,29.6736585 C22.5667317,29.5952927 22.6418049,29.5162683 22.7754878,29.3727073 L22.7754878,47.2776585 L22.7754878,50.8034634 L9.88595122,50.8034634 C5.89126829,50.8034634 2.64204878,47.5535854 2.64204878,43.559561 L2.64204878,43.559561 Z M43.5674634,50.8034634 L30.2334146,50.8034634 L30.2334146,49.1979512 L30.2334146,28.1662683 C31.7934878,29.9838293 33.2672927,31.7849268 34.8352683,33.5017317 C36.306439,35.1118537 37.9159024,36.5968537 39.3962927,38.2003902 C40.8957805,39.8269756 42.3136098,41.5306098 43.767,43.1993415 C43.8493171,43.2941707 43.9303171,43.3870244 44.0745366,43.5529756 C44.1120732,43.3461951 44.1476341,43.2197561 44.1568537,43.0906829 C44.4426585,39.3890488 44.7199024,35.6874146 45.018878,31.9877561 C45.0485122,31.6044878 44.9767317,31.2890488 44.7113415,31.0322195 C43.5924878,29.9462927 42.4683659,28.8656341 41.3429268,27.7849756 C41.2296585,27.6769756 41.1065122,27.5795122 40.9175122,27.4168537 L50.0290244,27.4168537 L50.8120244,27.4168537 L50.8120244,43.559561 C50.8113659,47.5535854 47.5621463,50.8034634 43.5674634,50.8034634 L43.5674634,50.8034634 Z" id="Shape"></path>
                    </g>
                </g>
            </g>
        </g>
    </g>
</svg>