<?xml version="1.0" encoding="UTF-8" standalone="no"?>
<svg width="162px" height="228px" viewBox="0 0 162 228" version="1.1" xmlns="http://www.w3.org/2000/svg" xmlns:xlink="http://www.w3.org/1999/xlink" xmlns:sketch="http://www.bohemiancoding.com/sketch/ns">
    <!-- Generator: Sketch 3.3.2 (12043) - http://www.bohemiancoding.com/sketch -->
    <title>H</title>
    <desc>Created with Sketch.</desc>
    <defs></defs>
    <g id="Page-1" stroke="none" stroke-width="1" fill="none" fill-rule="evenodd" sketch:type="MSPage">
        <g id="home" sketch:type="MSArtboardGroup" transform="translate(-299.000000, -10727.000000)" fill="#B6B6B6">
            <path d="M447.544532,10906.0191 L449.921581,10906.0191 L449.921581,10908 L406.738526,10908 L406.738526,10906.0191 L409.313662,10906.0191 C412.615136,10906.0191 415.487374,10904.8636 417.930464,10902.5526 C420.373555,10900.2416 421.727138,10897.3693 421.991256,10893.9358 L421.991256,10842.4331 L345.33143,10842.4331 L345.33143,10894.1339 C345.33143,10912.6221 340.841493,10925.0355 331.861486,10931.3743 C327.767659,10934.2796 322.485381,10936.4586 316.014493,10937.9112 L315.024056,10936.1284 C320.966708,10932.959 325.357602,10928.0729 328.196869,10921.4699 C331.036136,10914.867 332.455748,10905.7551 332.455748,10894.1339 L332.455748,10783.6011 C332.455748,10780.1676 331.201207,10777.2623 328.692087,10774.8853 C326.182968,10772.5082 323.211686,10771.3197 319.778154,10771.3197 L317.401105,10771.3197 L317.401105,10769.3388 L360.58416,10769.3388 L360.58416,10771.3197 L358.009024,10771.3197 C354.575491,10771.3197 351.637224,10772.5082 349.194134,10774.8853 C346.751044,10777.2623 345.463489,10780.1676 345.33143,10783.6011 L345.33143,10836.4904 L421.991256,10836.4904 L421.991256,10787.1667 C422.123315,10770.2631 425.886938,10758.5101 433.282239,10751.9071 C437.772242,10747.9454 443.846862,10745.1061 451.50628,10743.3894 L452.496717,10745.1722 C446.554065,10748.3416 442.130157,10753.2277 439.224861,10759.8306 C436.319564,10766.4336 434.866938,10775.5455 434.866938,10787.1667 L434.866938,10893.5396 C434.866938,10896.9732 436.088465,10899.9114 438.531555,10902.3545 C440.974645,10904.7976 443.978941,10906.0191 447.544532,10906.0191 L447.544532,10906.0191 Z" id="H" sketch:type="MSShapeGroup"></path>
        </g>
    </g>
</svg>