<?xml version="1.0" encoding="UTF-8" standalone="no"?>
<svg width="58px" height="104px" viewBox="0 0 58 104" version="1.1" xmlns="http://www.w3.org/2000/svg" xmlns:xlink="http://www.w3.org/1999/xlink" xmlns:sketch="http://www.bohemiancoding.com/sketch/ns">
    <!-- Generator: Sketch 3.3.2 (12043) - http://www.bohemiancoding.com/sketch -->
    <title>hanging</title>
    <desc>Created with Sketch.</desc>
    <defs></defs>
    <g id="Page-1" stroke="none" stroke-width="1" fill="none" fill-rule="evenodd" sketch:type="MSPage">
        <g id="home" sketch:type="MSArtboardGroup" transform="translate(-367.000000, -3689.000000)" fill="#000000">
            <g id="HANGING-OUT-@-11-AM-Copy-+-We-will-be-hanging-o-+-Hanging-Out" sketch:type="MSLayerGroup" transform="translate(119.000000, 3689.000000)">
                <g id="Hanging-Out" transform="translate(251.000000, 0.000000)" sketch:type="MSShapeGroup">
                    <g id="Group" transform="translate(0.189189, 0.000000)">
                        <path d="M27.827027,39.9 C24.8756757,40.32 21.7135135,36.54 21.7135135,33.81 C21.5027027,30.03 25.9297297,28.56 28.8810811,29.19 C31.6216216,29.82 33.9405405,32.34 34.1513514,35.28 C34.3621622,38.64 30.3567568,39.27 27.827027,39.9 C26.3513514,40.11 26.9837838,42.63 28.6702703,42.21 C32.8864865,41.37 37.1027027,39.48 36.6810811,34.65 C36.2594595,30.03 31.8324324,27.09 27.6162162,26.46 C22.9783784,25.83 19.3945946,29.61 18.972973,33.81 C18.5513514,38.01 23.8216216,42.84 27.827027,42.42 C29.5135135,42.21 29.5135135,39.69 27.827027,39.9 L27.827027,39.9 L27.827027,39.9 Z" id="Shape"></path>
                        <path d="M5.9027027,26.04 C4.63783784,23.31 2.74054054,20.79 3.37297297,17.85 C4.21621622,14.49 7.8,13.23 10.7513514,13.23 C14.5459459,13.23 18.1297297,15.96 18.3405405,19.74 C18.5513514,22.68 16.8648649,25.41 14.3351351,26.88 C12.8594595,27.72 14.1243243,30.03 15.6,29.19 C19.3945946,27.09 20.8702703,22.89 20.8702703,18.69 C20.6594595,14.07 16.2324324,11.76 12.227027,10.92 C8.01081081,10.08 4.21621622,11.76 1.68648649,15.12 C-1.26486486,19.32 1.68648649,23.52 3.37297297,27.51 C4.21621622,28.98 6.53513514,27.51 5.9027027,26.04 L5.9027027,26.04 L5.9027027,26.04 Z" id="Shape"></path>
                        <path d="M11.8054054,11.34 L11.8054054,2.73 C11.8054054,1.05 9.06486486,1.05 9.06486486,2.73 C9.27567568,5.67 9.27567568,8.4 9.06486486,11.34 C9.06486486,13.02 11.8054054,13.02 11.8054054,11.34 L11.8054054,11.34 L11.8054054,11.34 Z" id="Shape"></path>
                        <path d="M38.3675676,25.41 C34.572973,24.15 34.9945946,18.06 37.1027027,15.54 C39.2108108,13.23 43.427027,13.02 46.1675676,13.65 C52.9135135,15.12 52.4918919,23.94 47.6432432,27.09 C46.1675676,27.93 47.4324324,30.24 48.9081081,29.4 C57.5513514,23.94 54.1783784,11.55 44.0594595,10.71 C39.6324324,10.29 34.572973,12.6 33.0972973,17.01 C31.6216216,21.21 32.8864865,26.46 37.3135135,27.93 C39.4216216,28.56 40.0540541,26.04 38.3675676,25.41 L38.3675676,25.41 L38.3675676,25.41 Z" id="Shape"></path>
                        <path d="M44.2702703,12.18 C44.4810811,8.82 44.2702703,5.25 43.8486486,1.89 C43.6378378,0.21 41.1081081,0.84 41.3189189,2.52 C41.7405405,5.67 41.9513514,8.82 41.7405405,11.97 C41.5297297,13.86 44.2702703,13.86 44.2702703,12.18 L44.2702703,12.18 L44.2702703,12.18 Z" id="Shape"></path>
                        <path d="M12.6486486,28.35 C12.6486486,35.07 11.172973,39.06 17.4972973,42.42 C24.0324324,45.78 29.5135135,45.57 35.8378378,42 C40.8972973,39.06 42.7945946,36.54 41.7405405,30.45 C40.8972973,26.04 46.3783784,26.88 47.2216216,30.24 C48.0648649,33.18 48.0648649,36.54 48.0648649,39.48 C48.0648649,44.73 38.7891892,47.46 34.9945946,49.14 C33.5189189,49.77 34.7837838,52.08 36.2594595,51.45 C40.2648649,49.56 49.9621622,47.25 50.3837838,41.58 C50.8054054,36.54 51.227027,26.25 45.7459459,23.1 C41.9513514,21 38.3675676,23.31 38.1567568,27.09 C38.1567568,28.35 39,32.13 39,32.76 C39.4216216,36.96 34.9945946,39.06 32.2540541,40.74 C27.4054054,43.47 23.1891892,42.21 18.7621622,40.11 C14.3351351,38.01 15.1783784,32.34 15.3891892,28.35 C15.1783784,26.67 12.6486486,26.67 12.6486486,28.35 L12.6486486,28.35 L12.6486486,28.35 Z" id="Shape"></path>
                        <path d="M33.9405405,50.4 C33.7297297,61.11 36.8918919,70.56 40.6864865,80.43 C41.5297297,82.53 42.372973,84.63 43.0054054,86.94 C40.6864865,89.46 38.3675676,91.77 36.0486486,94.29 C35.2054054,93.03 34.572973,91.56 33.9405405,90.3 C30.9891892,84.21 28.8810811,77.91 28.2486486,71.4 C28.0378378,69.72 25.5081081,69.72 25.5081081,71.4 C25.9297297,75.39 31.8324324,103.74 40.2648649,99.96 C44.9027027,97.86 47.8540541,94.29 46.3783784,89.04 C42.5837838,75.6 36.0486486,64.26 36.4702703,50.4 C36.4702703,48.72 33.9405405,48.72 33.9405405,50.4 L33.9405405,50.4 L33.9405405,50.4 Z" id="Shape"></path>
                        <path d="M24.6648649,70.35 C23.4,74.97 21.7135135,79.59 20.027027,84 C18.7621622,87.36 17.0756757,90.72 15.3891892,94.08 C13.2810811,91.98 11.3837838,89.67 9.27567568,87.57 C9.90810811,85.68 10.5405405,83.58 11.3837838,81.69 C14.9675676,71.82 18.972973,62.37 20.027027,51.87 C20.2378378,50.19 17.4972973,50.19 17.2864865,51.87 C16.2324324,63.21 11.5945946,73.5 7.8,84 C6.32432432,87.99 3.79459459,95.34 8.85405405,98.28 C20.027027,104.79 25.5081081,77.07 27.4054054,71.19 C27.6162162,69.51 25.0864865,68.88 24.6648649,70.35 L24.6648649,70.35 L24.6648649,70.35 Z" id="Shape"></path>
                        <path d="M18.3405405,49.98 C15.1783784,49.98 8.43243243,44.94 7.37837838,41.79 C6.74594595,39.9 6.95675676,36.75 6.74594595,34.65 C6.74594595,33.39 6.53513514,31.92 6.53513514,30.66 C5.9027027,27.72 7.8,26.88 12.0162162,27.93 C12.227027,29.61 14.7567568,28.98 14.5459459,27.3 C14.1243243,24.78 12.227027,21.84 9.27567568,22.47 C4.84864865,23.31 4.00540541,26.67 4.00540541,30.87 C4.00540541,35.28 3.58378378,41.79 6.53513514,45.57 C9.06486486,48.72 14.3351351,53.13 18.5513514,52.92 C20.027027,52.5 20.027027,49.98 18.3405405,49.98 L18.3405405,49.98 L18.3405405,49.98 Z" id="Shape"></path>
                    </g>
                </g>
            </g>
        </g>
    </g>
</svg>