<?xml version="1.0" encoding="UTF-8" standalone="no"?>
<svg width="114px" height="116px" viewBox="0 0 114 116" version="1.1" xmlns="http://www.w3.org/2000/svg" xmlns:xlink="http://www.w3.org/1999/xlink" xmlns:sketch="http://www.bohemiancoding.com/sketch/ns">
    <!-- Generator: Sketch 3.3.2 (12043) - http://www.bohemiancoding.com/sketch -->
    <title>henna</title>
    <desc>Created with Sketch.</desc>
    <defs></defs>
    <g id="Page-1" stroke="none" stroke-width="1" fill="none" fill-rule="evenodd" sketch:type="MSPage">
        <g id="home" sketch:type="MSArtboardGroup" transform="translate(-336.000000, -3170.000000)" fill="#000000">
            <g id="HENNA-PARTY-@-6:30-P-+-Jennifer’s-family-wi-+-Imported-Layers" sketch:type="MSLayerGroup" transform="translate(119.000000, 3172.000000)">
                <g id="Imported-Layers" transform="translate(221.000000, 0.000000)" sketch:type="MSShapeGroup">
                    <path d="M61.7290569,0.14972093 C63.1492846,0.800232558 63.9679837,4.0725814 61.7290569,4.35309302 C61.720439,4.06053488 61.3602114,4.11990698 61.1275285,4.0527907 C60.3200325,2.7922093 61.4093333,1.24337209 61.7290569,0.14972093" id="Fill-1"></path>
                    <path d="M67.4418537,6.45348837 C67.081626,7.659 65.6441626,9.73444186 64.435935,8.25530233 C63.8774959,6.59804651 66.343935,7.96102326 66.2387967,6.75465116 C64.9323252,4.43655814 62.6106667,5.85546512 62.6313496,7.955 C62.6477236,9.74648837 66.580065,12.4982558 68.643187,14.5599302 C72.5875935,18.4965581 76.4251382,22.5166512 77.665252,28.9701395 C77.6936911,29.7411163 78.8381463,29.3995116 78.8674472,30.1704884 C86.2546992,27.0977674 91.6055447,37.4388372 97.809561,35.2747674 C98.5050244,35.0329767 99.1729106,34.4771163 99.3142439,33.1735116 C99.595187,32.1684884 96.8262602,32.6847674 98.111187,31.6728605 C98.8781789,30.229 100.989561,32.3104651 100.817203,33.7732558 C101.135203,33.9341628 102.393415,33.682907 102.620065,34.6750233 C102.445122,35.298 101.989236,35.6447674 101.719496,36.174814 C100.703447,36.1903023 100.413886,35.4761163 99.9149106,34.9736047 C99.4822927,35.1431163 99.1815285,35.4425581 99.0134797,35.8753721 C99.1461951,37.444 101.535935,36.7582093 102.320163,37.6763256 C103.121626,38.875814 102.46322,41.3969767 100.817203,40.0778837 C100.043317,39.3335814 101.019724,39.0083256 101.418732,38.5772326 C101.093837,37.7004186 99.9855772,37.604907 98.7118537,37.6763256 C95.2414309,43.2177209 95.5327154,52.5133256 90.5938049,56.5910698 C95.1078537,60.9897674 94.5476911,70.4557442 99.9149106,74.0025814 C100.689659,73.5749302 101.616943,73.2987209 101.719496,72.2016279 C101.169675,70.731093 100.44922,71.7034186 99.6141463,72.2016279 C99.3461301,71.6672791 98.7739024,71.4383953 99.0134797,70.399814 C103.111285,68.8518372 103.211252,74.1187442 100.817203,75.504093 C101.598846,75.491186 105.101154,74.0395814 105.326943,76.4041395 C105.16148,77.9237209 102.081447,77.3343023 101.418732,76.7044419 C101.468715,78.1964884 100.294098,80.8527442 97.809561,79.7066047 C97.4243415,78.7850465 97.4208943,77.083907 98.7118537,77.0047442 C99.4254146,77.3231163 98.0672358,78.3875116 99.0134797,78.8056977 C100.105366,78.9984419 100.193268,78.1835814 100.214813,77.3050465 C99.778748,75.7510465 98.8023415,75.5823953 97.2088943,76.1046977 C92.1829431,77.7490465 86.0358049,84.3694651 78.8674472,84.2094186 C78.0375447,92.5877674 72.0196748,95.7852558 71.350065,104.323651 C72.5315772,106.444698 76.1588455,104.26514 74.6576098,101.922093 C74.1052033,102.271442 74.4490569,103.515674 73.1546504,103.123302 C72.259252,102.00986 73.5329756,101.056465 74.0569431,100.421442 C77.685935,101.248349 75.4099512,107.972884 71.6516911,105.825163 C70.200439,105.887977 70.3572846,108.105395 68.643187,108.527884 C64.5195285,109.544093 62.9157398,104.325372 67.7417561,104.624814 C68.0244228,105.221116 68.720748,106.054047 68.0425203,106.72607 C66.8041301,106.962698 67.4780488,105.288233 66.2387967,105.525721 C64.888374,106.399953 66.4421789,107.375721 67.1402276,107.927279 C68.6000976,107.682047 69.4162114,106.795767 70.1478699,105.825163 C66.5016423,97.9579302 52.1468293,100.782837 49.1004065,92.3158605 C45.4429756,96.6061395 27.2713008,93.745093 26.850748,100.120279 C26.7499187,101.634698 28.0391545,103.555256 29.5559024,102.222395 C29.9686992,101.275884 27.5824065,101.639 28.6544715,101.021186 C28.9319675,99.3983488 30.711561,100.504907 31.0597236,101.321488 C30.8684065,103.131907 29.3723415,103.640442 27.1506504,103.422744 C26.4017561,102.570884 25.6606179,101.707837 25.9484553,99.8208372 C23.7577886,99.7657674 19.2420163,100.353465 20.2356585,96.2180698 C20.8759675,95.1562558 22.6779675,95.2543488 24.4446341,95.3180233 C24.6066504,96.3798372 24.1895447,96.8634186 23.5423415,97.1181163 C22.4530407,97.4072326 23.2372683,95.8222558 22.6409106,95.6183256 C22.0118049,95.990907 21.5102439,96.4916977 21.1370894,97.1181163 C21.1758699,99.5936744 24.8720813,99.604 26.2492195,98.3193256 C28.0555285,92.1945349 22.6771057,86.7013256 22.6409106,80.6066512 C22.6253984,77.9469535 23.9706504,76.0255349 24.4446341,73.1016744 C19.9417886,71.620814 17.2081951,68.5661628 13.9213333,64.9952326 C11.8133984,62.7055349 8.73595122,58.2182093 6.10318699,61.3933256 C5.8144878,62.9826047 6.6702439,63.430907 7.60700813,63.7948837 C9.19786992,63.3044186 6.45479675,62.6212093 7.60700813,61.6936279 C8.99707317,61.7065349 9.55895935,62.5454884 9.41073171,64.095186 C6.4582439,66.5543953 2.97058537,61.0198837 6.40395122,59.5923721 C5.44478049,58.6484419 4.56230894,57.6296512 3.99869919,56.289907 C4.50112195,53.2972093 9.00741463,52.8273953 10.013122,55.6893023 C10.0105366,57.128 7.46739837,57.893814 7.00547967,56.289907 C6.81243902,54.734186 8.43777236,56.6513023 8.50930081,55.6893023 C5.03284553,52.8583721 4.34427642,59.5682791 8.80920325,58.9926279 C12.2891057,58.5426047 17.518439,44.634907 23.5423415,43.3803488 C19.7392683,37.0602326 23.5621626,28.6810233 22.9416748,20.264814 C22.5685203,19.635814 22.0669593,19.1350233 21.4378537,18.7633023 C20.3002927,18.9276512 19.6987642,19.6280698 19.6341301,20.8645581 C20.0046992,21.7766512 20.6674146,20.5384419 21.4378537,20.8645581 C21.6334797,21.9590698 21.2353333,22.4633023 20.837187,22.965814 C16.8315935,22.6827209 18.8318049,17.3306279 21.7386179,17.2609302 C21.1750081,11.3426512 30.4719837,14.3198605 25.9484553,18.1618372 C24.8677724,17.9415581 23.9387642,17.5672558 24.1447317,16.0605814 C25.4753333,15.6329302 24.9306829,17.0767907 25.9484553,16.9614884 C26.830065,15.9315116 25.7243902,14.9626279 25.0461626,14.5599302 C23.6793659,14.9540233 22.740878,15.6114186 22.6409106,16.6603256 C22.1453821,21.842907 32.2265854,19.2451628 37.9755772,19.3630465 C42.6085528,19.4585581 45.7075447,21.016 47.2966829,22.6663721 C50.1267967,15.5838837 59.6262927,15.1622558 61.1275285,6.75465116 C60.676813,6.4035814 60.3924228,5.88730233 59.6237073,5.85374419 C58.8713659,5.80297674 58.6826341,6.31495349 58.4215122,6.75465116 C58.0371545,8.13827907 59.9270569,7.252 59.3238049,8.85590698 C58.0535285,9.12265116 57.6252195,8.54872093 57.2193171,7.955 C57.2667154,6.30118605 58.2276098,5.56032558 59.3238049,4.95369767 C60.7448943,4.7334186 61.2998862,5.38134884 62.0289593,5.85374419 C63.7378862,4.13883721 66.3404878,4.09151163 67.4418537,6.45348837 L67.4418537,6.45348837 Z M61.7290569,10.0562558 C58.2129593,15.7525349 50.1466179,16.9055581 47.8982114,23.8667209 C45.9798699,23.7970233 45.4179837,22.1414884 43.688374,21.4651628 C38.2582439,19.3423953 30.1401951,22.4572791 24.4446341,20.5633953 C24.3946504,28.5493721 21.0552195,37.1858605 24.7453984,43.6806512 C17.7942114,46.9469767 15.2088455,54.5732791 10.013122,59.5923721 C15.3406992,63.8783488 18.4853659,70.3456047 25.6476911,72.8013721 C21.2844553,81.3062093 27.8969593,89.2835814 27.7521789,97.1181163 C33.296065,93.4482326 43.7719675,94.7002093 49.4011707,91.1155116 C52.3527967,99.0756744 64.8125366,97.5423256 70.1478699,103.123302 C71.7706179,95.5374419 76.793122,91.3461163 77.9651545,83.3085116 C87.4887805,83.311093 90.5015935,76.8128605 98.111187,74.9034884 C97.7544065,72.901186 96.0877073,71.7774186 95.1044065,69.498907 C93.1636585,65.0038372 92.6172846,59.1406279 89.390748,56.5910698 C94.2701951,52.255186 94.458065,43.2357907 97.2088943,36.7754186 C90.149122,35.2145349 85.1352358,30.3615116 77.363626,30.4716512 C74.5903902,21.2336977 68.3269106,15.477186 61.7290569,10.0562558 L61.7290569,10.0562558 Z" id="Fill-2"></path>
                    <path d="M61.7290569,11.8580698 C67.5375122,17.9665116 74.8058374,22.6173256 76.1622927,33.1735116 C83.8037724,31.0619302 88.6211707,36.3890698 94.8036423,37.6763256 C93.5092358,45.5891628 92.419935,53.711093 86.3839675,56.8896512 C91.6038211,60.3848605 91.9037236,68.7907442 95.705935,73.7014186 C89.5286341,76.3654186 85.3308618,82.5246279 75.26,80.3063488 C76.5492358,88.935093 71.1785691,93.4172558 69.246439,99.8208372 C61.4946504,96.8522326 51.8452033,95.7792326 49.4011707,87.5118837 C45.8023415,93.1255581 35.5686016,92.1136512 29.256,95.0177209 C27.2600976,87.7373256 23.263122,78.2463953 28.0529431,71.2998605 C20.4149106,69.9213953 17.3116098,64.0134419 12.1176098,60.1921163 C16.9996423,54.660186 19.7659837,47.0149535 27.4522764,44.2803953 C22.1798537,39.652814 25.0125528,30.253093 25.6476911,22.6663721 C34.1121789,22.817814 43.4453496,20.8757442 48.498878,25.9679767 C50.7283252,19.0876977 58.4887317,17.7298837 61.7290569,11.8580698 L61.7290569,11.8580698 Z M61.7290569,14.2596279 C57.5106016,18.0981628 43.9624228,25.777814 53.3093821,31.6728605 C55.4836748,30.7960465 55.9283577,30.1687674 57.5192195,29.8710465 C66.1741626,28.2464884 66.7644878,38.8844186 74.6576098,34.3738605 C74.2620488,23.7617442 67.8494797,19.1556744 61.7290569,14.2596279 L61.7290569,14.2596279 Z M48.498878,28.3695349 C47.141561,22.2559302 33.3822439,23.557814 27.4522764,23.8667209 C24.7385041,30.5232791 23.6716098,48.0845116 34.6680325,42.1791395 C35.7616423,38.269186 38.1987805,35.6981163 42.1845528,34.6750233 C41.8165691,32.7604884 39.1226179,29.6636744 42.1845528,28.6689767 C44.128748,29.2360233 43.9201951,32.7088605 43.0868455,34.3738605 C46.6580976,36.2298837 49.0607642,30.9027442 48.498878,28.3695349 L48.498878,28.3695349 Z M43.688374,41.8796977 C38.4762764,41.9795116 34.5094634,43.3226977 31.0597236,45.1813023 C33.7226504,48.5267907 33.222813,55.030186 36.7725203,57.4902558 C33.4175772,60.0449767 32.492878,65.0253488 31.0597236,69.498907 C35.9969106,69.8732093 37.7670244,73.4097209 43.688374,72.8013721 C44.6027317,77.392814 47.7835935,79.7203721 49.7010732,83.3085116 C52.0856423,79.8847209 57.847561,79.833093 59.9244715,76.1046977 C63.9360976,77.2439535 68.5613171,74.690093 72.2523577,76.4041395 C72.0033008,72.3074651 73.0081463,68.6995349 72.2523577,64.9952326 C75.1203902,62.1556977 77.2533171,58.5804651 80.9727967,56.5910698 C77.6506016,54.2032791 76.0373333,50.109186 72.553122,47.8831628 C74.2534309,44.7149302 71.5517236,40.2456744 72.854748,36.4759767 C68.5121951,36.7435814 62.8355935,35.679186 60.2252358,37.6763256 C57.3451382,34.6492093 52.7242276,33.3585116 49.7010732,30.4716512 C48.3230732,34.8213023 43.684065,37.1032558 43.688374,41.8796977 L43.688374,41.8796977 Z M55.1139675,32.5720465 C56.5764228,34.200907 57.5123252,32.0970698 59.0221789,31.9723023 C62.2349268,31.7072791 63.6818699,34.077 66.2387967,35.2747674 C66.490439,31.7021163 58.0871382,29.3478837 55.1139675,32.5720465 L55.1139675,32.5720465 Z M74.0569431,39.7784419 C78.5727154,40.922 80.9185041,47.1526279 78.5675447,52.3876977 C79.8352358,54.9036977 82.2835772,56.5919302 85.1826341,55.9896047 C91.4185366,54.6928837 92.158813,44.4937907 93.3006829,38.2769302 C88.3436748,36.2419302 74.6722602,28.7274884 74.0569431,39.7784419 L74.0569431,39.7784419 Z M36.4717561,41.8796977 C38.0677886,41.7712791 38.1513821,40.1544651 38.5771057,38.8775349 C39.6293496,37.0249535 43.6711382,38.159907 44.2899024,35.8753721 C40.4454634,35.4606279 36.9336748,37.9215581 36.4717561,41.8796977 L36.4717561,41.8796977 Z M77.363626,46.0830698 C77.7376423,47.6121163 76.3458537,49.4276977 77.665252,50.886186 C79.1432195,47.039907 77.6988618,42.1713953 74.0569431,41.5785349 C73.9707642,43.9542791 76.8439675,43.9534186 77.363626,46.0830698 L77.363626,46.0830698 Z M28.0529431,55.9896047 C28.4778049,53.3944419 31.4475285,51.5366977 31.661252,49.6849767 C31.9266829,47.384093 30.4125203,46.4780233 29.256,44.8818605 C21.0250569,46.9702093 18.5655122,54.822814 13.6205691,60.1921163 C18.7869919,63.4403721 20.7208455,69.9145116 29.256,69.7992093 C30.4849106,68.5257209 30.2642927,65.8023488 31.0597236,64.095186 C28.5777724,61.6032791 27.4557236,59.6371163 28.0529431,55.9896047 L28.0529431,55.9896047 Z M31.661252,62.5936744 C32.5919837,61.0147209 30.878748,60.396907 30.7589593,58.9926279 C30.5340325,56.3527209 32.8324228,54.5156279 32.2627805,52.0865349 C28.6372358,53.365186 28.4890081,60.7333488 31.661252,62.5936744 L31.661252,62.5936744 Z M84.8810081,57.4902558 C82.1344878,57.35 80.3531707,58.1743256 79.1682114,59.5923721 C79.6887317,60.0725116 80.0489593,60.7144186 80.3704065,61.3933256 C82.0095285,60.6817209 84.2294959,56.930093 86.3839675,59.5923721 C85.2903577,61.6015581 83.7244878,63.1417907 80.6711707,63.1942791 C80.409187,68.4362326 77.2731382,70.8093953 73.4554146,72.5010698 C72.3988618,78.0553721 76.487187,79.7522093 80.3704065,79.7066047 C85.8470732,79.6437907 90.8799187,74.2521163 93.9013496,73.1016744 C90.7135935,68.0791395 90.5886341,59.9976512 84.8810081,57.4902558 L84.8810081,57.4902558 Z M77.363626,61.3933256 C80.1394472,65.5063488 75.4926829,68.2787674 73.7553171,70.7001163 C77.1774797,70.7190465 81.0994797,64.2646977 77.9651545,60.4932791 C77.9375772,60.9656744 77.1990244,60.7273256 77.363626,61.3933256 L77.363626,61.3933256 Z M29.5559024,71.0004186 C24.5695935,77.515 27.8038862,85.9466977 29.8566667,93.215907 C37.7756423,92.1489302 53.1172033,90.2378372 46.9959187,81.2072558 C39.9800976,82.6528372 37.1198211,77.4986512 35.8710894,72.2016279 C34.0234146,71.5433721 32.3713659,70.6923721 29.5559024,71.0004186 L29.5559024,71.0004186 Z M45.7928618,80.0060465 C45.4490081,78.0484884 42.3646667,78.8263488 40.9823577,77.9047907 C39.6491707,76.5340698 39.1562276,74.3243953 37.674813,73.1016744 C38.2754797,77.318814 41.0625041,80.9086744 45.7928618,80.0060465 L45.7928618,80.0060465 Z M73.4554146,78.8056977 C72.0196748,77.786907 67.2781138,75.505814 66.841187,78.8056977 C69.2697073,79.3830698 72.5177886,79.1421395 72.553122,82.1081628 C70.4176098,84.5226279 66.9514959,81.5944651 65.6372683,80.3063488 C63.9722927,82.0487907 61.0422114,83.0899535 57.8199837,82.4084651 C59.5797561,87.0016279 54.6873821,89.786093 54.2116748,86.0112326 C53.9462439,83.9056744 57.5717886,83.0796279 56.6169268,81.5075581 C48.1550244,80.9379302 49.954439,88.3603023 53.3093821,92.0146977 C57.1236585,96.1707442 64.3850894,96.2662558 68.643187,98.3193256 C70.9312358,92.4931163 76.3139675,87.0618605 73.4554146,78.8056977 L73.4554146,78.8056977 Z M56.9185528,80.3063488 C59.6676585,82.88 65.1762114,80.9396512 65.6372683,77.6044884 C63.1656585,78.9132558 60.6595772,81.1969302 56.9185528,80.3063488 L56.9185528,80.3063488 Z" id="Fill-3"></path>
                    <path d="M20.5364228,16.6603256 C18.7361463,16.4933953 17.1478699,14.7277209 17.5296423,13.3587209 C18.7430407,12.9775349 21.7067317,14.6623256 20.5364228,16.6603256" id="Fill-4"></path>
                    <path d="M59.9244715,21.4651628 C63.9102439,22.2886279 61.8031707,27.9547907 59.9244715,29.5707442 C58.8119024,27.650186 58.6171382,23.2635349 59.9244715,21.4651628" id="Fill-5"></path>
                    <path d="M54.512439,22.965814 C57.2770569,23.1542558 58.5680163,27.1760698 57.2193171,29.5707442 C55.5302114,28.3213488 53.4593333,25.9636744 54.512439,22.965814" id="Fill-6"></path>
                    <path d="M66.2387967,23.5664186 C67.110065,26.4782326 65.6924228,29.5948372 62.931252,29.8710465 C62.7838862,26.6916279 63.6379187,23.0122791 66.2387967,23.5664186" id="Fill-7"></path>
                    <path d="M52.7087154,26.2674186 C53.6782276,27.3008372 54.7209919,28.2628372 54.8132033,30.1704884 C52.7974797,31.5523953 48.5850569,26.4472558 52.7087154,26.2674186" id="Fill-8"></path>
                    <path d="M65.9388943,31.9723023 C65.5631545,29.8555581 67.3677398,27.6966512 69.246439,26.8688837 C71.4293496,28.6887674 69.2490244,32.7630698 65.9388943,31.9723023" id="Fill-9"></path>
                    <path d="M37.0732846,28.9701395 C39.464748,29.0957674 40.5428455,33.0160465 39.1777724,34.9736047 C37.5334797,34.1036744 35.4634634,31.1729302 37.0732846,28.9701395" id="Fill-10"></path>
                    <path d="M36.7725203,36.4759767 C35.4453659,36.1188837 31.9413333,34.8953023 31.661252,33.1735116 C30.890813,28.4314884 37.7894309,32.2502326 36.7725203,36.4759767" id="Fill-11"></path>
                    <path d="M35.269561,38.8775349 C32.6988455,38.6658605 29.5507317,38.5866977 29.256,36.7754186 C28.6432683,33.016907 35.5151707,35.3771628 35.269561,38.8775349" id="Fill-12"></path>
                    <path d="M76.7629593,35.5750698 C78.7123252,35.9975581 77.8169268,39.0522093 77.0628618,40.0778837 C75.4418374,40.0417442 74.6722602,35.7187674 76.7629593,35.5750698" id="Fill-13"></path>
                    <path d="M82.1749919,36.4759767 C82.736878,38.7785814 80.9883089,40.9942791 78.8674472,41.5785349 C78.0134146,39.0728605 78.8605528,35.8065349 82.1749919,36.4759767" id="Fill-14"></path>
                    <path d="M87.8869268,39.7784419 C87.360374,43.2538605 84.4027154,44.3044884 80.6711707,44.5815581 C82.0534797,42.2453953 84.2329431,37.8854186 87.8869268,39.7784419" id="Fill-15"></path>
                    <path d="M34.6680325,40.3790465 C34.2319675,42.1438605 32.0335447,42.1516047 30.1582927,42.4803023 C29.7506667,41.785907 28.9492033,41.4856047 29.256,40.0778837 C30.5779837,39.1055581 33.6278537,39.3318605 34.6680325,40.3790465" id="Fill-16"></path>
                    <path d="M87.2862602,47.8831628 C85.8203577,48.902814 81.770813,48.7677209 80.9727967,47.2834186 C81.9578211,45.6459535 87.5689268,44.0704419 87.2862602,47.8831628" id="Fill-17"></path>
                    <path d="M28.9552358,52.0865349 C26.9231382,52.5090233 23.3622276,51.8705581 23.5423415,49.0843721 C26.0673821,47.3720465 28.0986179,50.2528837 28.9552358,52.0865349" id="Fill-18"></path>
                    <path d="M80.0705041,49.6849767 C82.696374,49.765 86.0220163,49.1454651 86.3839675,51.4867907 C85.1369593,54.2247907 79.1966504,51.8688372 80.0705041,49.6849767" id="Fill-19"></path>
                    <path d="M27.7521789,55.6893023 C25.0565041,56.5325581 21.4740488,55.7882558 20.5364228,53.8883488 C22.3073984,50.9025349 26.6870081,54.1361628 27.7521789,55.6893023" id="Fill-20"></path>
                    <path d="M26.850748,58.3911628 C25.1590569,59.6672326 21.6653659,61.2754419 19.6341301,59.5923721 C19.7246179,56.6702326 25.4503415,56.5506279 26.850748,58.3911628" id="Fill-21"></path>
                    <path d="M4.60022764,58.9926279 C4.86134959,60.1533953 3.86598374,60.0604651 3.69793496,60.7918605 C2.38112195,60.6068605 1.10912195,60.3762558 0.390390244,59.5923721 C0.921252033,57.9557674 3.76170732,57.1374651 4.60022764,58.9926279" id="Fill-22"></path>
                    <path d="M28.0529431,61.3933256 C27.5643089,63.8542558 24.4006829,66.0036977 22.0393821,64.6957907 C22.1695122,61.8915349 25.7760976,61.0654884 28.0529431,61.3933256" id="Fill-23"></path>
                    <path d="M29.5559024,63.1942791 C29.6972358,65.8376279 29.7808293,68.4224651 26.850748,67.9982558 C25.9958537,65.7791163 27.5565528,63.5470698 29.5559024,63.1942791" id="Fill-24"></path>
                    <path d="M88.1885528,64.095186 C88.1213333,66.8942791 82.1344878,66.7996279 80.9727967,64.9952326 C82.4016423,63.8086512 86.3391545,62.097186 88.1885528,64.095186" id="Fill-25"></path>
                    <path d="M80.3704065,67.9982558 C83.1557073,68.720186 87.9627642,67.4217442 88.4901789,70.399814 C86.7545366,74.2263023 81.3528455,70.4213256 80.3704065,67.9982558" id="Fill-26"></path>
                    <path d="M78.5675447,70.0995116 C80.9038537,71.0692558 83.1729431,72.1052558 83.0764228,75.504093 C80.2014959,76.1666512 78.5890894,73.2574186 78.5675447,70.0995116" id="Fill-27"></path>
                    <path d="M76.1622927,71.9013256 C77.8626016,72.7032791 79.0406667,74.0301163 78.8674472,76.7044419 C76.2682927,76.9505349 75.3272195,74.0989535 76.1622927,71.9013256" id="Fill-28"></path>
                    <path d="M36.1709919,75.2029302 C35.3497073,76.8283488 32.8057073,78.1870233 30.4581951,77.3050465 C30.1626016,74.5842558 34.3646829,73.9122326 36.1709919,75.2029302" id="Fill-29"></path>
                    <path d="M36.7725203,78.2059535 C35.8641951,80.3820698 34.3327967,83.262907 31.661252,82.7087674 C30.634,79.6670233 34.2078374,77.6182558 36.7725203,78.2059535" id="Fill-30"></path>
                    <path d="M39.1777724,80.6066512 C38.4573171,83.9091163 37.7877073,88.8008605 33.4649756,87.5118837 C33.5390894,83.3825116 35.7116585,81.3483721 39.1777724,80.6066512" id="Fill-31"></path>
                    <path d="M42.1845528,81.5075581 C42.9670569,84.0407674 42.5163415,87.8070233 40.080065,88.1116279 C38.0764065,86.2323721 39.6577886,81.6942791 42.1845528,81.5075581" id="Fill-32"></path>
                    <path d="M44.2899024,82.1081628 C46.289252,82.9204419 47.3268455,88.935093 43.688374,88.713093 C42.6171707,86.9586047 42.9670569,83.2568837 44.2899024,82.1081628" id="Fill-33"></path>
                    <path d="M64.7349756,82.1081628 C67.0445691,83.2061163 70.4089919,83.2482791 70.7493984,86.3115349 C70.3167805,86.4793256 70.0151545,86.7796279 69.8471057,87.2115814 C66.8558374,86.7959767 65.508,84.7403256 64.7349756,82.1081628" id="Fill-34"></path>
                    <path d="M59.6237073,83.9099767 C61.5205041,84.8435814 63.0484553,89.6759535 60.8267642,91.1155116 C57.7725854,90.7945581 58.6998699,85.8563488 59.6237073,83.9099767" id="Fill-35"></path>
                    <path d="M66.539561,92.0146977 C62.8330081,91.7143953 63.1277398,87.418093 62.3297236,84.2094186 C64.3902602,84.7996977 67.4918374,88.4179535 66.539561,92.0146977" id="Fill-36"></path>
                    <path d="M25.0461626,101.321488 C25.1159675,103.392628 23.7629593,104.04314 22.3401463,104.624814 C21.4593984,103.004558 22.969252,99.9886279 25.0461626,101.321488" id="Fill-37"></path>
                    <path d="M71.9524553,107.026372 C73.4493821,107.332698 73.4640325,109.119023 73.4554146,110.929442 C72.0317398,110.848558 71.9102276,109.470093 71.0501626,108.827326 C71.0372358,107.913512 71.6853008,107.659674 71.9524553,107.026372" id="Fill-38"></path>
                    <path d="M59.3238049,39.7784419 C62.3719512,36.4880233 67.1419512,37.7520465 71.350065,39.1778372 C71.5103577,42.4192093 72.9857398,47.274814 70.7493984,49.3846744 C74.9842276,50.2597674 76.2381301,54.1120698 78.8674472,56.5910698 C75.4504553,58.3816977 74.4654309,62.6022791 70.7493984,64.095186 C72.1782439,67.1016512 71.4810569,71.5872558 70.4477724,74.603186 C66.6300488,74.3493488 62.5736098,76.1855814 59.3238049,74.603186 C57.4132195,77.798093 54.0289756,79.5250465 50.0018374,80.6066512 C47.8654634,77.9374884 45.5575935,75.4378372 44.8905691,71.2998605 C39.8749593,72.6043256 37.1629106,69.2837907 34.0665041,67.6979535 C35.5134472,64.3386977 35.069626,59.0933023 38.2763415,57.4902558 C35.9641626,54.8589535 32.8401789,51.5573488 34.3672683,46.0830698 C37.4076585,44.6039302 41.1978049,41.9149767 45.1913333,43.980093 C44.5337886,38.9885349 48.2980813,36.1713721 50.6033659,33.1735116 C53.5860163,35.2988605 57.888065,36.1068372 59.3238049,39.7784419 L59.3238049,39.7784419 Z M51.2048943,35.2747674 C49.306374,36.4802791 47.8258211,38.1039767 46.6951545,40.0778837 C46.5193496,42.8554651 46.774439,45.2019535 47.8982114,46.682814 C49.0693821,46.7516512 49.4563252,46.0383256 50.3034634,45.781907 C43.9787967,40.761093 54.6710081,32.6090465 56.3170244,40.9787907 C55.4940163,46.0099302 47.8370244,41.3763256 53.0086179,39.1778372 C49.3037886,37.6126512 48.6608943,43.9542791 52.4079512,44.8818605 C53.6144553,45.1804419 55.0777724,44.079907 57.2193171,44.5815581 C57.7286341,43.29 58.1698699,41.9278837 58.7222764,40.6784884 C57.1891545,37.9052093 54.3374959,36.4493023 51.2048943,35.2747674 L51.2048943,35.2747674 Z M64.1343089,38.5772326 C60.9749919,38.8964651 56.9168293,44.0850698 60.8267642,45.4816047 C60.4277561,38.6701628 68.4785854,38.4584884 69.246439,43.0800465 C70.4744878,50.4817674 59.5961301,46.2809767 64.7349756,42.4803023 C66.2853333,42.1335349 66.5145691,43.105 67.4418537,43.3803488 C66.8713496,42.0474884 66.4059837,40.9486744 65.0366016,40.9787907 C61.0594472,41.0665581 62.5132846,48.5250698 65.0366016,50.2855814 C71.0148293,51.0522558 70.7830081,45.6166977 70.4477724,40.0778837 C68.0244228,40.2413721 66.6231545,38.3251163 64.1343089,38.5772326 L64.1343089,38.5772326 Z M52.7087154,41.5785349 C53.513626,42.0672791 53.8514472,42.2694884 54.512439,41.5785349 C54.4779675,40.8144419 54.455561,40.034 53.6101463,40.0778837 C53.9298699,41.1982093 52.4829268,40.5528605 52.7087154,41.5785349 L52.7087154,41.5785349 Z M65.3365041,44.2803953 C65.2434309,45.4755814 65.9147642,45.9066744 67.1402276,45.781907 C67.0574959,45.2561628 67.9873659,44.2846977 67.1402276,43.980093 C66.7817236,45.0307209 66.1121138,44.819907 65.3365041,44.2803953 L65.3365041,44.2803953 Z M35.5694634,46.9831163 C34.4793008,53.8857674 38.3668293,57.3861395 44.2899024,56.289907 L44.2899024,54.1886512 C37.6153496,56.2787209 34.1630244,46.015093 41.8837886,45.781907 C47.4302602,46.7981163 42.2362602,55.7779302 39.7793008,49.6849767 C39.9800976,48.6842558 40.5523252,48.0552558 41.8837886,48.1834651 C42.2698699,49.506 40.4454634,49.4139302 41.2822602,50.2855814 C42.5525366,50.5523256 42.9808455,49.9792558 43.3876098,49.3846744 C43.4410407,48.3306047 42.371561,48.3977209 42.1845528,47.5837209 C40.7238211,47.7256977 39.6224553,48.2282093 38.8770081,49.0843721 C39.1820813,55.3692093 47.0364228,52.0951395 46.9959187,47.8831628 C46.1599837,46.9168605 45.824748,45.4497674 44.8905691,44.5815581 C40.8255122,43.6651628 37.9876423,45.387814 35.5694634,46.9831163 L35.5694634,46.9831163 Z M50.0018374,49.3846744 C51.2488455,49.0404884 51.1738699,50.0162558 52.107187,49.9852791 C52.2709268,48.7479302 53.0965203,48.1705581 53.9109106,47.5837209 C54.8502602,47.9468372 55.2182439,48.8804419 56.3170244,49.0843721 C56.4437073,48.1103256 57.5666179,48.1309767 57.8199837,47.2834186 C54.6193008,46.3859535 51.3212358,47.4572326 50.0018374,49.3846744 L50.0018374,49.3846744 Z M59.9244715,49.6849767 C59.3505203,50.1117674 59.0626829,50.825093 58.1198862,50.886186 C57.056439,51.048814 57.3813333,49.8217907 56.3170244,49.9852791 C56.3377073,51.108186 55.833561,51.7044884 55.1139675,52.0865349 C52.6233984,52.6131395 52.0753008,49.2306512 50.9041301,51.7862326 C52.4682764,52.1897907 55.0088293,53.0046512 53.9109106,55.0886977 L55.4147317,55.0886977 C53.9445203,50.4533721 59.2229756,52.293907 61.4274309,51.4867907 C62.0306829,51.9858605 62.825252,52.292186 62.931252,53.2877442 C62.5020813,53.3600233 62.4245203,53.7816512 62.0289593,53.8883488 C60.5328943,54.3762326 60.2381626,52.762 59.3238049,53.5880465 C59.3737886,54.0372093 59.2160813,54.6963256 59.6237073,54.7892558 C60.7845366,54.0423721 62.7037398,55.1076279 63.2320163,55.9896047 C63.0450081,56.8036047 61.9763902,56.7364884 62.0289593,57.7914186 C62.4305528,58.0908605 62.6192846,58.6011163 63.2320163,58.6914651 C64.798748,54.3306279 62.7339024,49.4586744 59.3238049,48.1834651 C59.0997398,49.1076047 60.1485366,48.7608372 59.9244715,49.6849767 L59.9244715,49.6849767 Z M58.7222764,49.9852791 C58.7007317,49.1058837 58.6136911,48.2927442 57.5192195,48.4846279 C57.3933984,49.5103023 57.6105691,50.1943721 58.7222764,49.9852791 L58.7222764,49.9852791 Z M52.7087154,50.2855814 C53.5231057,50.4723023 53.456748,51.5392791 54.512439,51.4867907 C54.6055122,50.7786279 55.556065,50.9274884 55.4147317,49.9852791 C54.9441951,48.3891163 52.922439,48.6360698 52.7087154,50.2855814 L52.7087154,50.2855814 Z M47.5974472,52.3876977 C48.4730244,52.6131395 49.0874797,53.1001628 49.7010732,53.5880465 C50.5085691,52.2267907 50.2508943,50.7605581 48.7996423,50.2855814 C48.4618211,51.048814 48.0610894,51.750093 47.5974472,52.3876977 L47.5974472,52.3876977 Z M74.6576098,58.6914651 C77.5876911,56.2090233 74.2077561,52.2035581 71.9524553,51.1856279 C69.7074959,51.2467209 67.3203415,51.1649767 65.9388943,52.0865349 C66.156065,52.7697442 66.2060488,53.6198837 66.539561,54.1886512 C70.3331545,51.7698837 75.8253333,54.4244186 74.6576098,58.6914651 L74.6576098,58.6914651 Z M61.7290569,53.2877442 C61.8135122,52.503 61.618748,51.996186 60.8267642,52.0865349 C60.7423089,52.8712791 60.9362114,53.378093 61.7290569,53.2877442 L61.7290569,53.2877442 Z M50.6033659,56.5910698 C50.4318699,58.1201163 47.8844228,57.276 47.2966829,58.3911628 C48.3110081,60.2798837 49.1167805,62.3785581 51.2048943,63.1942791 C51.1643902,61.9354186 51.7521301,61.5172326 51.2048943,60.4932791 C50.2793333,60.2686977 50.6274959,61.3176047 49.7010732,61.0930233 C49.0547317,60.5380233 48.1748455,60.2153488 48.498878,58.6914651 C49.306374,58.0486977 50.0966341,58.0486977 50.9041301,58.6914651 C51.1583577,57.251907 52.201122,56.7201395 53.6101463,57.190814 L53.6101463,55.3898605 C51.7960813,56.1367442 50.5516585,55.2263721 49.7010732,54.1886512 C48.6720976,55.3666279 51.0695935,55.0456744 50.6033659,56.5910698 L50.6033659,56.5910698 Z M46.9959187,55.6893023 C47.5190244,55.7116744 47.9309593,55.622186 48.1981138,55.3898605 C48.2886016,54.5982326 47.7818699,54.4046279 46.9959187,54.488093 L46.9959187,55.6893023 L46.9959187,55.6893023 Z M70.1478699,63.1942791 C72.442813,63.133186 73.620878,59.3445581 74.0569431,59.2920698 C72.8297561,59.4392093 72.748748,60.5646977 71.6516911,60.4932791 C66.6300488,60.162 69.3171057,52.5124651 72.2523577,57.190814 C71.5793008,57.990186 70.7459512,56.7666047 70.1478699,57.4902558 C70.4477724,59.7455349 74.0414309,58.484093 73.1546504,55.9896047 C69.6351057,52.8385814 65.3158211,56.4318837 65.6372683,60.7918605 C68.353626,60.6954884 68.064065,63.2510698 70.1478699,63.1942791 L70.1478699,63.1942791 Z M56.3170244,55.6893023 C55.8706179,57.4360465 57.3615122,57.2476047 58.7222764,57.190814 C59.2100488,58.2044419 60.3855285,58.5305581 60.2252358,60.1921163 C59.3755122,59.9443023 59.4470407,60.6154651 58.7222764,60.4932791 C59.1066341,61.4096744 59.8460488,61.9715581 60.2252358,62.8948372 C60.9396585,61.9053023 62.2332033,61.4974419 62.3297236,59.891814 C61.0758211,60.0656279 60.1313008,58.9341163 60.8267642,58.0908605 C59.6590407,57.6563256 58.4034146,57.3086977 58.7222764,55.3898605 C57.753626,55.3236047 57.4502764,55.919907 56.3170244,55.6893023 L56.3170244,55.6893023 Z M59.9244715,56.8896512 C60.158878,56.9567674 60.5182439,56.8982558 60.5251382,57.190814 C61.3722764,57.1340233 61.8066179,56.6685116 61.7290569,55.6893023 C61.0042927,55.8114884 61.0758211,55.141186 60.2252358,55.3898605 C59.9735935,55.7374884 59.828813,56.1952558 59.9244715,56.8896512 L59.9244715,56.8896512 Z M47.8982114,56.8896512 C48.5161138,57.5126279 49.4227154,56.8887907 49.4011707,55.9896047 C48.4566504,55.8467674 48.1722602,56.363907 47.8982114,56.8896512 L47.8982114,56.8896512 Z M41.2822602,66.4967442 C46.0720813,66.8271628 46.415935,60.0587442 43.688374,57.7914186 C37.222374,56.1642791 36.1546179,62.9748605 36.1709919,67.6979535 C39.3372033,72.951093 52.4941301,68.721907 46.9959187,63.1942791 C46.7080813,69.3663953 37.5722602,68.6358605 37.9755772,63.7948837 C38.0643415,62.7201628 39.6302114,60.1783488 41.5830244,60.1921163 C47.2699675,60.2325581 41.6778211,69.5014884 40.3808293,63.1942791 C41.7269431,62.7511395 41.3046667,64.0736744 42.4853171,63.7948837 C42.4792846,62.9008605 42.5137561,61.9663953 41.5830244,61.9939302 C40.0921301,61.8786279 39.0700488,65.6311163 41.2822602,66.4967442 L41.2822602,66.4967442 Z M54.512439,59.891814 C55.0415772,59.7197209 56.2791057,60.2557907 56.3170244,59.5923721 C55.6525854,59.5553721 56.1886179,58.3188837 56.0162602,57.7914186 L54.512439,57.7914186 C54.8261301,58.6406977 54.8261301,59.0416744 54.512439,59.891814 L54.512439,59.891814 Z M52.4079512,61.6936279 C53.0051707,61.6970698 52.7897236,62.5119302 53.6101463,62.2933721 C53.4464065,61.8579767 53.9617561,60.7419535 53.3093821,60.7918605 C53.2766341,61.3597674 52.3157398,61.001814 52.4079512,61.6936279 L52.4079512,61.6936279 Z M54.512439,62.5936744 C55.3819837,62.4620233 55.8835447,61.9612326 56.0162602,61.0930233 C55.6094959,60.9992326 55.4414472,60.6662326 54.8132033,60.7918605 C54.4667642,61.1472326 54.4727967,61.8545349 54.512439,62.5936744 L54.512439,62.5936744 Z M69.246439,72.5010698 C73.6760325,67.8166977 66.2163902,58.4651628 63.2320163,64.095186 C67.5263089,65.0563256 68.598374,67.1524186 68.0425203,70.0995116 C67.175561,74.7116047 60.2493659,73.0663953 60.2252358,69.7992093 C60.1855935,64.4841163 69.356748,67.5542558 63.8335447,70.399814 C62.9407317,69.6357209 64.598813,68.9361628 63.8335447,68.2985581 C62.7537236,68.1221628 62.3788455,68.6470465 61.7290569,68.8983023 C61.630813,71.0615116 64.1024228,71.7051395 65.9388943,71.0004186 C68.8138211,66.2721628 60.7405854,63.2837674 58.4215122,67.0982093 C59.266065,68.4069767 59.6521463,71.2611395 59.0221789,73.1016744 C61.8117886,74.9637209 66.7877561,74.1436977 69.246439,72.5010698 L69.246439,72.5010698 Z M53.3093821,64.3954884 C55.0743252,64.2569535 57.6088455,64.8842326 58.1198862,63.4945814 C56.8978699,62.320907 53.8436911,62.7915814 53.3093821,64.3954884 L53.3093821,64.3954884 Z M46.3943902,71.0004186 C45.5524228,74.4431395 48.8634146,76.4695349 50.6033659,78.8056977 C56.8711545,79.2118372 59.8072683,72.1224651 56.6169268,66.7970465 L54.512439,66.7970465 C56.8840813,70.2716047 55.4517886,75.1556047 52.4079512,75.8043953 C49.8243089,76.3542326 47.5319512,74.7692558 47.5974472,72.2016279 C47.6844878,68.7640698 53.3136911,67.4561628 53.6101463,71.6010233 C53.0198211,72.6318605 51.4091382,74.1832791 50.6033659,72.5010698 C49.9613333,70.9591163 52.1347642,72.2283023 51.8064228,71.0004186 C48.5773008,69.0316744 48.8384228,74.5369302 51.8064228,74.3028837 C55.605187,74.0017209 54.1746179,66.2549535 50.3034634,65.5958372 C50.4456585,68.3080233 46.8993984,68.9327209 46.3943902,71.0004186 L46.3943902,71.0004186 Z" id="Fill-39"></path>
                </g>
            </g>
        </g>
    </g>
</svg>