<?xml version="1.0" encoding="UTF-8" standalone="no"?>
<svg width="404px" height="85px" viewBox="0 0 404 85" version="1.1" xmlns="http://www.w3.org/2000/svg" xmlns:xlink="http://www.w3.org/1999/xlink" xmlns:sketch="http://www.bohemiancoding.com/sketch/ns">
    <!-- Generator: Sketch 3.3.2 (12043) - http://www.bohemiancoding.com/sketch -->
    <title>home</title>
    <desc>Created with Sketch.</desc>
    <defs></defs>
    <g id="Page-1" stroke="none" stroke-width="1" fill="none" fill-rule="evenodd" sketch:type="MSPage">
        <g id="home" sketch:type="MSArtboardGroup" transform="translate(-192.000000, -93.000000)">
            <g id="Header" sketch:type="MSLayerGroup" transform="translate(0.000000, 72.000000)">
                <g id="Jacob-&amp;-Jennifer-Black" transform="translate(203.000000, 20.000000)">
                    <g id="Group-Copy-6-+-&amp;" transform="translate(129.540636, 0.000000)">
                        <path d="M21.678214,11.9178197 L20.8655974,11.9178197 C15.8794658,11.9178197 11.8560536,15.9500985 11.8560536,20.9241665 L11.8560536,22.238777 L11.8560536,22.238777 L10.6371679,22.7312388 C6.01423715,24.5990241 3.797683,29.8450666 5.6616631,34.4585793 L6.26545119,35.9530073 L5.18221119,37.0362473 C1.65658284,40.5618756 1.66602612,46.25696 5.18447185,49.7754057 L6.60193509,51.192869 L5.91386289,52.9853583 C4.12704337,57.6401823 6.45206973,62.8390598 11.0974106,64.6222391 L11.8560536,64.9134549 L11.8560536,65.6552884 C11.8560536,70.6412799 15.8897637,74.6616352 20.8655974,74.6616352 L21.9047521,74.6616352 L22.2940262,75.6251226 C24.161864,80.2481834 29.4077246,82.468108 34.0196001,80.6047893 L35.4399834,80.0309172 L36.5796928,81.1706266 C40.1054202,84.6963541 45.801654,84.6900845 49.3188512,81.1728873 L50.6765075,79.815231 L52.5479589,80.5336138 C57.2029138,82.3204836 62.4041322,79.997889 64.1866787,75.3541965 L64.4525281,74.6616352 L65.2651446,74.6616352 C70.2512762,74.6616352 74.2746885,70.6293564 74.2746885,65.6552884 L74.2746885,64.3406779 L75.4935741,63.8482161 C80.1165049,61.9804309 82.3330591,56.7343883 80.469079,52.1208756 L79.8652909,50.6264477 L80.9485309,49.5432077 C84.4741592,46.0175793 84.4647159,40.3224949 80.9462702,36.8040492 L79.528807,35.386586 L80.2168792,33.5940966 C82.0036987,28.9392726 79.6786723,23.7403951 75.0333314,21.9572158 L74.2746885,21.6660001 L74.2746885,20.9241665 C74.2746885,15.9381751 70.2409783,11.9178197 65.2651446,11.9178197 L64.22599,11.9178197 L63.8367158,10.9543323 C61.968878,6.33127158 56.7230175,4.11134693 52.1111419,5.9746656 L50.6907587,6.54853769 L49.5510493,5.40882829 C46.0253218,1.88310081 40.329088,1.88937042 36.8118908,5.40656763 L35.4542345,6.76422395 L33.5827832,6.04584109 C28.9278283,4.25897133 23.7266099,6.5815659 21.9440633,11.2252584 L21.678214,11.9178197 Z" id="Rectangle-26" fill="#000000" sketch:type="MSShapeGroup"></path>
                        <text id="&amp;" sketch:type="MSTextLayer" font-family="Great Vibes" font-size="53.1008547" font-weight="normal" fill="#FFFFFF">
                            <tspan x="23.7533321" y="61.1056604">&amp;</tspan>
                        </text>
                    </g>
                    <text id="Jacob" sketch:type="MSTextLayer" font-family="Arizonia" font-size="51.4531802" font-weight="normal" fill="#000000">
                        <tspan x="0" y="50.8356976">Jacob</tspan>
                    </text>
                    <text id="Jennifer" sketch:type="MSTextLayer" font-family="Arizonia" font-size="51.4531802" font-weight="normal" fill="#000000">
                        <tspan x="232.897527" y="51.5265115">Jennifer</tspan>
                    </text>
                </g>
            </g>
        </g>
    </g>
</svg>
