<?xml version="1.0" encoding="UTF-8" standalone="no"?>
<svg width="111px" height="97px" viewBox="0 0 111 97" version="1.1" xmlns="http://www.w3.org/2000/svg" xmlns:xlink="http://www.w3.org/1999/xlink" xmlns:sketch="http://www.bohemiancoding.com/sketch/ns">
    <!-- Generator: Sketch 3.3.2 (12043) - http://www.bohemiancoding.com/sketch -->
    <title>pool</title>
    <desc>Created with Sketch.</desc>
    <defs></defs>
    <g id="Page-1" stroke="none" stroke-width="1" fill="none" fill-rule="evenodd" sketch:type="MSPage">
        <g id="home" sketch:type="MSArtboardGroup" transform="translate(-334.000000, -2756.000000)" fill="#000000">
            <g id="POOL-PARTY-@-11-AM-+-Its-fall-but-it-will-+-Pool" sketch:type="MSLayerGroup" transform="translate(119.000000, 2760.000000)">
                <g id="Pool" transform="translate(220.000000, 0.000000)" sketch:type="MSShapeGroup">
                    <path d="M48.335,58.634 C48.334,58.634 48.334,58.634 48.335,58.634 C44.665,58.634 41.706,56.977 40.004,53.965 C37.022,48.691 37.942,44.833 39.24,42.527 C41.439,38.617 46.379,36.391 49.909,36.281 L50.229,36.276 C52.221,36.276 58.916,37.001 61.477,46.318 C62.073,48.489 61.507,50.854 59.886,52.981 C57.348,56.309 52.596,58.634 48.335,58.634 L48.335,58.634 Z M50.229,40.431 C48.047,40.496 44.388,41.852 42.862,44.564 C41.736,46.564 41.991,49.04 43.622,51.92 C44.581,53.618 46.167,54.479 48.334,54.479 L48.335,54.479 C51.289,54.479 54.834,52.752 56.58,50.459 C57.158,49.702 57.783,48.559 57.469,47.416 C55.737,41.111 51.83,40.431 50.229,40.431 L50.229,40.431 Z" id="Shape"></path>
                    <path d="M86.776,61.234 C86.4,61.063 85.907,60.803 85.319,60.491 C82.393,58.949 77.504,56.373 72.417,56.373 L72.366,56.373 C66.759,56.393 62.856,57.78 59.416,59.008 C56.354,60.098 53.463,61.129 49.604,61.129 C45.293,61.129 42.342,60.069 39.218,58.947 C35.717,57.689 32.095,56.388 26.5,56.368 L26.453,56.368 C21.45,56.368 16.454,59.132 13.849,60.828 C10.154,63.221 6.935,67.297 7.931,70.457 C8.134,71.103 9.063,73.213 12.355,73.091 C15.099,72.994 17.31,71.85 19.261,70.841 C20.862,70.013 22.243,69.297 23.607,69.285 C27.117,69.222 32.555,70.472 34.544,71.75 C37.184,73.448 36.201,80.882 35.832,83.68 C35.706,84.636 35.621,85.363 35.621,85.745 L39.776,85.745 C39.777,85.459 39.858,84.926 39.951,84.225 C40.543,79.735 41.648,71.378 36.792,68.253 C33.81,66.336 27.538,65.159 23.566,65.129 C21.212,65.153 19.251,66.167 17.352,67.15 C15.638,68.035 14.02,68.875 12.209,68.935 C12.109,68.944 12.021,68.939 11.95,68.935 C12.2,68.055 13.464,66.026 16.184,64.265 C19.84,61.887 23.581,60.523 26.455,60.523 L26.487,60.523 C31.366,60.54 34.499,61.666 37.816,62.857 C41.137,64.049 44.572,65.284 49.606,65.284 C54.184,65.284 57.553,64.083 60.812,62.922 C64.245,61.7 67.485,60.544 72.381,60.528 L72.419,60.528 C76.478,60.528 80.799,62.804 83.384,64.168 C84.064,64.524 84.634,64.825 85.066,65.02 C89.678,67.106 90.637,68.977 90.668,69.224 C90.577,69.333 89.907,69.723 88.264,69.618 C85.978,69.472 83.491,68.458 81.086,67.475 C78.174,66.288 75.178,65.078 72.132,65.155 C68.097,65.28 64.676,69.245 62.838,71.373 C59.234,75.547 59.547,81.224 59.696,83.951 C59.717,84.316 59.735,84.62 59.735,84.851 L63.89,84.851 C63.89,84.563 63.869,84.182 63.845,83.723 C63.715,81.371 63.474,76.994 65.982,74.087 C67.302,72.558 70.05,69.374 72.259,69.307 C74.426,69.245 76.891,70.251 79.515,71.323 C82.23,72.43 85.034,73.575 87.995,73.765 C92.235,74.041 94.202,72.154 94.664,70.304 C95.034,68.818 95.007,64.958 86.776,61.234 L86.776,61.234 Z" id="Shape"></path>
                    <rect id="Rectangle-path" x="0" y="62.686" width="12.289" height="4.155"></rect>
                    <rect id="Rectangle-path" x="88.977" y="62.686" width="10.749" height="4.155"></rect>
                    <path d="M76.282,34.482 L76.282,34.482 C73.413,34.482 69.284,33.381 65.9,28.135 C63.23,23.998 62.43,20.26 63.526,17.025 C65.23,11.984 71.003,9.908 73.173,9.127 C78.821,7.096 84.858,9.258 88.277,14.363 C90.612,17.848 91.272,21.935 89.998,25.03 C88.126,29.576 82.35,34.482 76.282,34.482 L76.282,34.482 Z M77.592,12.485 C76.611,12.485 75.596,12.671 74.579,13.036 C72.924,13.633 68.522,15.215 67.462,18.357 C66.792,20.331 67.441,22.863 69.389,25.883 C71.292,28.831 73.612,30.326 76.282,30.326 C80.431,30.327 84.816,26.701 86.155,23.448 C86.885,21.674 86.351,18.952 84.826,16.674 C83.982,15.415 81.587,12.485 77.592,12.485 L77.592,12.485 Z" id="Shape"></path>
                    <path d="M76.844,6.926 C75.696,6.926 74.766,5.996 74.766,4.848 L74.766,2.078 C74.766,0.931 75.696,0 76.844,0 C77.992,0 78.921,0.931 78.921,2.078 L78.921,4.849 C78.921,5.996 77.993,6.926 76.844,6.926 L76.844,6.926 Z" id="Shape"></path>
                    <path d="M65.128,11.254 C64.563,11.254 63.998,11.024 63.588,10.57 L60.144,6.762 C59.373,5.911 59.44,4.597 60.29,3.827 C61.141,3.058 62.455,3.122 63.225,3.974 L66.669,7.783 C67.44,8.634 67.373,9.948 66.523,10.718 C66.125,11.076 65.625,11.254 65.128,11.254 L65.128,11.254 Z" id="Shape"></path>
                    <path d="M59.214,22.173 L55.331,22.173 C54.183,22.173 53.253,21.243 53.253,20.095 C53.253,18.947 54.183,18.017 55.331,18.017 L59.214,18.017 C60.362,18.017 61.292,18.947 61.292,20.095 C61.292,21.243 60.363,22.173 59.214,22.173 L59.214,22.173 Z" id="Shape"></path>
                    <path d="M60.873,36.806 C60.292,36.806 59.712,36.562 59.302,36.089 C58.552,35.221 58.645,33.909 59.514,33.158 L63.113,30.041 C63.975,29.291 65.291,29.382 66.043,30.251 C66.794,31.12 66.7,32.431 65.832,33.182 L62.233,36.298 C61.84,36.64 61.355,36.806 60.873,36.806 L60.873,36.806 Z" id="Shape"></path>
                    <path d="M76.844,44.917 C75.696,44.917 74.766,43.988 74.766,42.84 L74.766,37.398 C74.766,36.251 75.696,35.32 76.844,35.32 C77.992,35.32 78.921,36.25 78.921,37.398 L78.921,42.84 C78.921,43.988 77.993,44.917 76.844,44.917 L76.844,44.917 Z" id="Shape"></path>
                    <path d="M93.934,36.014 C93.684,36.014 93.432,35.969 93.187,35.874 L89.212,34.344 C88.141,33.932 87.607,32.73 88.019,31.659 C88.433,30.588 89.64,30.058 90.706,30.467 L94.681,31.997 C95.752,32.409 96.286,33.611 95.874,34.682 C95.555,35.506 94.767,36.014 93.934,36.014 L93.934,36.014 Z" id="Shape"></path>
                    <path d="M93.931,21.123 C92.865,21.123 91.957,20.307 91.864,19.225 C91.765,18.082 92.611,17.075 93.756,16.976 L97.744,16.63 C98.898,16.501 99.893,17.378 99.992,18.52 C100.092,19.663 99.246,20.67 98.101,20.769 L94.112,21.115 C94.051,21.121 93.991,21.123 93.931,21.123 L93.931,21.123 Z" id="Shape"></path>
                    <path d="M88.559,10.735 C88.287,10.735 88.011,10.681 87.746,10.568 C86.69,10.119 86.198,8.899 86.648,7.843 L88.047,4.554 C88.498,3.498 89.715,3.005 90.773,3.456 C91.828,3.905 92.321,5.125 91.871,6.181 L90.471,9.47 C90.133,10.261 89.367,10.735 88.559,10.735 L88.559,10.735 Z" id="Shape"></path>
                    <path d="M99.726,75.899 C98.387,77.329 92.521,82.941 82.687,83.293 C79.904,83.392 77.878,82.824 76.59,81.612 C75.153,80.259 75.095,78.492 75.093,78.443 C75.093,77.511 74.474,76.694 73.579,76.442 C72.686,76.191 71.73,76.564 71.243,77.355 C71.201,77.426 66.719,84.491 53.987,84.678 C52.449,84.706 51.255,84.3 50.384,83.454 C48.699,81.81 48.65,78.978 48.65,78.962 C48.65,78.008 48.003,77.179 47.081,76.945 C46.155,76.714 45.195,77.135 44.744,77.975 C44.702,78.052 40.398,85.77 28.385,84.683 C21.8,84.09 21.166,79.481 21.117,78.982 C21.054,78.126 20.473,77.401 19.654,77.15 C18.839,76.898 17.946,77.176 17.415,77.845 C17.38,77.89 13.945,82.167 9.309,83.354 C6.376,84.102 2.141,80.821 0,78.796 L0,84.229 C2.801,86.299 6.673,88.32 10.34,87.38 C13.613,86.542 16.331,84.625 18.157,83.012 C19.618,85.646 22.593,88.336 28.013,88.823 C28.943,88.904 29.834,88.945 30.691,88.945 C38.088,88.945 42.803,86.027 45.494,83.513 C45.93,84.501 46.556,85.514 47.453,86.398 C49.134,88.054 51.396,88.872 54.048,88.834 C63.448,88.695 69.123,85.22 72.106,82.554 C72.488,83.226 72.993,83.913 73.663,84.563 C75.793,86.617 78.918,87.588 82.834,87.444 C90.718,87.165 96.387,83.998 99.727,81.443 L99.727,75.899 L99.726,75.899 Z" id="Shape"></path>
                </g>
            </g>
        </g>
    </g>
</svg>