<?xml version="1.0" encoding="UTF-8" standalone="no"?>
<svg width="53px" height="71px" viewBox="0 0 53 71" version="1.1" xmlns="http://www.w3.org/2000/svg" xmlns:xlink="http://www.w3.org/1999/xlink" xmlns:sketch="http://www.bohemiancoding.com/sketch/ns">
    <!-- Generator: Sketch 3.3.2 (12043) - http://www.bohemiancoding.com/sketch -->
    <title>reception</title>
    <desc>Created with Sketch.</desc>
    <defs></defs>
    <g id="Page-1" stroke="none" stroke-width="1" fill="none" fill-rule="evenodd" sketch:type="MSPage">
        <g id="home" sketch:type="MSArtboardGroup" transform="translate(-371.000000, -4721.000000)">
            <g id="reception-+-RECEPTION-@-7-PM-+-The-vows-have-been-s-+-Rock-On" sketch:type="MSLayerGroup" transform="translate(119.000000, 4721.000000)">
                <g id="reception-+-RECEPTION-@-7-PM-+-The-vows-have-been-s">
                    <g></g>
                </g>
                <path d="M293,4 C289.14,4 286,7.14 286,11 L286,24.68 C285.09,24.24 284.07,24 283,24 C281.04,24 279.27,24.81 278,26.11 C276.73,24.81 274.96,24 273,24 C271.93,24 270.91,24.24 270,24.68 L270,11 C270,7.14 266.86,4 263,4 C259.14,4 256,7.14 256,11 L256,46 C256,58.13 265.87,68 278,68 C290.06,68 299.89,58.24 299.99,46.2 C300,46.13 300,46.07 300,46 L300,11 C300,7.14 296.86,4 293,4 L293,4 Z M290,11 C290,9.35 291.35,8 293,8 C294.65,8 296,9.35 296,11 L296,36.78 C294.13,35.27 291.91,34.49 290,34.17 L290,11 L290,11 Z M280,31 C280,29.35 281.35,28 283,28 C284.65,28 286,29.35 286,31 L286,34 L280,34 L280,31 L280,31 Z M270,31 C270,29.35 271.35,28 273,28 C274.65,28 276,29.35 276,31 L276,34 L270,34 L270,31 L270,31 Z M278,64 C268.07,64 260,55.92 260,46 L260,11 C260,9.35 261.35,8 263,8 C264.65,8 266,9.35 266,11 L266,36 C266,37.64 266.39,39.85 267.44,41.92 C269.06,45.11 272.25,48 278,48 L278.73,48 C277.12,49.83 276,52.42 276,56 C276,57.1 276.9,58 278,58 C279.1,58 280,57.1 280,56 C280,48.29 287.19,48.01 288,48 C289.1,48 290,47.1 290,46 C290,44.9 289.1,44 288,44 L278,44 C275.34,44 273.57,43.15 272.39,42 C271.13,40.78 270.54,39.23 270.25,38 L287.99,38 C288.23,38 289.01,38.03 290,38.26 C292.07,38.731 295.06,40.1 295.82,44 C295.94,44.6 296,45.27 296,46 C296,46.68 295.96,47.34 295.89,48 C294.89,56.98 287.24,64 278,64 L278,64 Z" id="Rock-On" fill="#000000" sketch:type="MSShapeGroup"></path>
            </g>
        </g>
    </g>
</svg>