<?xml version="1.0" encoding="UTF-8" standalone="no"?>
<svg width="228px" height="226px" viewBox="0 0 228 226" version="1.1" xmlns="http://www.w3.org/2000/svg" xmlns:xlink="http://www.w3.org/1999/xlink" xmlns:sketch="http://www.bohemiancoding.com/sketch/ns">
    <!-- Generator: Sketch 3.3.2 (12043) - http://www.bohemiancoding.com/sketch -->
    <title>schedule</title>
    <desc>Created with Sketch.</desc>
    <defs></defs>
    <g id="Page-1" stroke="none" stroke-width="1" fill="none" fill-rule="evenodd" sketch:type="MSPage">
        <g id="home" sketch:type="MSArtboardGroup" transform="translate(-274.000000, -1797.000000)">
            <g id="Schedule-Badge-2" sketch:type="MSLayerGroup" transform="translate(275.000000, 1797.000000)">
                <path d="M217.306,122.321 L224.325,115.806 L217.965,109.218 L223.959,102.109 L216.395,95.982 L221.576,87.922 L213.799,83.137 L217.833,74.768 L208.961,70.704 L211.978,61.598 L203.277,58.903 L205.102,49.809 L195.477,48.076 L196.137,38.487 L187.057,38.042 L186.561,28.8 L176.795,29.516 L175.045,20.043 L166.15,21.867 L163.38,13.063 L154.091,16.186 L150.028,7.423 L141.871,11.4 L137.013,3.584 L128.792,8.921 L122.66,1.421 L115.746,7.304 L109.117,0.96 L102.485,8.17 L94.658,2.414 L89.42,9.839 L81.445,5.356 L76.82,13.978 L67.784,10.339 L64.551,18.848 L55.735,16.496 L53.405,25.979 L43.725,24.699 L42.707,33.766 L33.604,33.68 L33.705,43.422 L23.991,44.591 L25.264,53.65 L16.442,55.828 L18.955,65.213 L9.826,68.766 L13.322,77.249 L5.326,81.548 L10.081,89.988 L2.117,95.703 L7.63,103.073 L0.957,109.224 L7.642,116.196 L1.351,123.712 L8.544,129.497 L3.606,137.117 L11.794,142.195 L7.572,151.031 L16.001,154.855 L13.11,163.476 L22.281,166.351 L20.394,175.945 L29.527,177.557 L28.871,186.642 L38.451,187.145 L39.007,196.888 L48.269,196.176 L49.896,205.161 L59.291,203.269 L62.244,212.543 L71.047,209.548 L74.868,217.869 L83.492,213.702 L88.645,221.928 L96.427,216.837 L102.215,223.969 L109.533,217.786 L116.55,224.452 L122.817,217.59 L130.22,223.075 L135.776,215.26 L144.206,219.958 L148.565,211.764 L157.123,215.245 L160.566,206.278 L169.876,208.727 L172.055,199.724 L181.233,200.971 L182.341,191.408 L191.946,191.465 L191.817,182.226 L201.036,181.149 L199.728,171.587 L209.029,169.256 L206.615,160.365 L215.287,157.025 L211.632,148.064 L220.054,143.497 L215.518,135.51 L223.092,130.114 L217.306,122.321 L217.306,122.321 Z M214.684,141.957 L206.683,146.295 L210.155,154.809 L201.916,157.982 L204.21,166.429 L195.373,168.643 L196.616,177.727 L187.858,178.75 L187.98,187.526 L178.856,187.474 L177.804,196.558 L169.084,195.373 L167.015,203.926 L158.17,201.6 L154.898,210.118 L146.768,206.81 L142.628,214.595 L134.619,210.132 L129.341,217.557 L122.309,212.346 L116.354,218.865 L109.689,212.532 L102.736,218.405 L97.237,211.63 L89.845,216.467 L84.949,208.652 L76.757,212.611 L73.127,204.705 L64.764,207.551 L61.958,198.74 L53.034,200.538 L51.488,192.002 L42.688,192.679 L42.16,183.423 L33.06,182.945 L33.684,174.314 L25.006,172.783 L26.8,163.668 L18.087,160.936 L20.833,152.748 L12.826,149.115 L16.836,140.721 L9.059,135.896 L13.749,128.657 L6.915,123.161 L12.892,116.021 L6.541,109.397 L12.881,103.555 L7.644,96.554 L15.209,91.124 L10.692,83.105 L18.288,79.022 L14.967,70.963 L23.64,67.587 L21.252,58.672 L29.633,56.603 L28.424,47.997 L37.652,46.886 L37.557,37.631 L46.203,37.712 L47.17,29.1 L56.367,30.315 L58.581,21.307 L66.955,23.541 L70.026,15.457 L78.611,18.914 L83.005,10.724 L90.581,14.981 L95.558,7.928 L102.993,13.397 L109.293,6.547 L115.591,12.573 L122.159,6.985 L127.984,14.11 L135.794,9.039 L140.41,16.466 L148.159,12.686 L152.018,21.013 L160.843,18.044 L163.475,26.409 L171.925,24.676 L173.587,33.675 L182.865,32.995 L183.335,41.775 L191.962,42.198 L191.336,51.307 L200.478,52.953 L198.746,61.593 L207.012,64.152 L204.146,72.805 L212.574,76.664 L208.741,84.614 L216.129,89.16 L211.207,96.818 L218.393,102.639 L212.698,109.392 L218.741,115.65 L212.072,121.84 L217.569,129.244 L210.374,134.37 L214.684,141.957 L214.684,141.957 Z" id="Fill-1" fill="#000000" sketch:type="MSShapeGroup"></path>
                <path d="M113,17.807 C59.874,17.807 16.807,60.874 16.807,114 C16.807,167.126 59.874,210.193 113,210.193 C166.126,210.193 209.193,167.126 209.193,114 C209.193,60.874 166.126,17.807 113,17.807" id="Fill-2" fill="#000000" sketch:type="MSShapeGroup"></path>
                <path d="M114.657,46.711 L120.325,40.969 L119.377,40.008 L113.709,45.75 L113.5,45.538 L113.299,45.741 L107.833,40.203 L106.867,41.182 L112.333,46.72 L93,66.308 L93,76 L109.4,76 L113.5,64.23 L117.6,76 L134,76 L134,66.308 L114.657,46.711" id="Fill-3" fill="#FFFFFF" sketch:type="MSShapeGroup"></path>
                <path d="M127.996,184.139 L123.542,179.687 C122.96,180.111 120.862,180.011 120.812,179.991 L114.26,173.444 L125.158,162.561 C125.269,163.559 125.795,164.446 126.334,165.119 C126.454,163.135 126.801,161.008 127.915,158.993 C125.878,160.086 123.741,160.539 121.781,160.572 C122.362,161.108 123.33,161.639 124.321,161.754 L113.438,172.622 L102.621,161.814 C103.617,161.697 104.592,161.163 105.177,160.624 C103.204,160.59 101.055,160.134 99.004,159.033 C100.125,161.062 100.474,163.204 100.595,165.202 C101.138,164.524 101.666,163.631 101.778,162.627 L112.608,173.449 L106.244,179.805 C106.194,179.825 104.109,179.925 103.53,179.504 L99.103,183.924 C100.039,184.648 101.526,184.746 102.944,183.913 C102.126,185.372 102.233,186.734 102.935,187.749 L107.361,183.329 C106.945,182.782 106.997,180.778 107.05,180.645 L113.432,174.271 L120,180.836 C120.054,180.971 120.106,182.989 119.687,183.539 L124.142,187.99 C124.848,186.969 124.955,185.597 124.132,184.128 C125.559,184.967 127.056,184.868 127.996,184.139" id="Fill-4" fill="#FFFFFF" sketch:type="MSShapeGroup"></path>
                <path d="M72.277,99.761 C75.487,99.761 77.137,101.681 77.137,105.041 L77.137,105.7 L74.017,105.7 L74.017,104.83 C74.017,103.331 73.417,102.761 72.367,102.761 C71.317,102.761 70.717,103.331 70.717,104.83 C70.717,109.15 77.167,109.96 77.167,115.96 C77.167,119.32 75.487,121.24 72.247,121.24 C69.007,121.24 67.327,119.32 67.327,115.96 L67.327,114.67 L70.447,114.67 L70.447,116.17 C70.447,117.67 71.107,118.21 72.157,118.21 C73.207,118.21 73.867,117.67 73.867,116.17 C73.867,111.851 67.417,111.04 67.417,105.041 C67.417,101.681 69.067,99.761 72.277,99.761" id="Fill-5" fill="#FFFFFF" sketch:type="MSShapeGroup"></path>
                <path d="M88.626,113.17 L88.626,115.96 C88.626,119.32 86.947,121.24 83.707,121.24 C80.467,121.24 78.787,119.32 78.787,115.96 L78.787,105.041 C78.787,101.681 80.467,99.761 83.707,99.761 C86.947,99.761 88.626,101.681 88.626,105.041 L88.626,107.08 L85.507,107.08 L85.507,104.83 C85.507,103.331 84.847,102.761 83.797,102.761 C82.747,102.761 82.087,103.331 82.087,104.83 L82.087,116.17 C82.087,117.67 82.747,118.21 83.797,118.21 C84.847,118.21 85.507,117.67 85.507,116.17 L85.507,113.17 L88.626,113.17" id="Fill-6" fill="#FFFFFF" sketch:type="MSShapeGroup"></path>
                <path d="M93.936,121 L90.637,121 L90.637,100.001 L93.936,100.001 L93.936,109 L97.686,109 L97.686,100.001 L101.046,100.001 L101.046,121 L97.686,121 L97.686,112 L93.936,112 L93.936,121" id="Fill-7" fill="#FFFFFF" sketch:type="MSShapeGroup"></path>
                <path d="M106.746,108.851 L111.276,108.851 L111.276,111.851 L106.746,111.851 L106.746,118 L112.446,118 L112.446,121 L103.446,121 L103.446,100.001 L112.446,100.001 L112.446,103.001 L106.746,103.001 L106.746,108.851" id="Fill-8" fill="#FFFFFF" sketch:type="MSShapeGroup"></path>
                <path d="M114.486,100.001 L119.706,100.001 C123.006,100.001 124.626,101.831 124.626,105.19 L124.626,115.811 C124.626,119.17 123.006,121 119.706,121 L114.486,121 L114.486,100.001 L114.486,100.001 Z M117.786,103.001 L117.786,118 L119.646,118 C120.696,118 121.326,117.46 121.326,115.96 L121.326,105.041 C121.326,103.541 120.696,103.001 119.646,103.001 L117.786,103.001 L117.786,103.001 Z" id="Fill-9" fill="#FFFFFF" sketch:type="MSShapeGroup"></path>
                <path d="M129.876,100.001 L129.876,116.2 C129.876,117.7 130.535,118.24 131.586,118.24 C132.636,118.24 133.296,117.7 133.296,116.2 L133.296,100.001 L136.415,100.001 L136.415,115.99 C136.415,119.35 134.735,121.27 131.495,121.27 C128.256,121.27 126.576,119.35 126.576,115.99 L126.576,100.001 L129.876,100.001" id="Fill-10" fill="#FFFFFF" sketch:type="MSShapeGroup"></path>
                <path d="M138.666,100.001 L141.966,100.001 L141.966,118 L147.396,118 L147.396,121 L138.666,121 L138.666,100.001" id="Fill-11" fill="#FFFFFF" sketch:type="MSShapeGroup"></path>
                <path d="M152.135,108.851 L156.665,108.851 L156.665,111.851 L152.135,111.851 L152.135,118 L157.835,118 L157.835,121 L148.835,121 L148.835,100.001 L157.835,100.001 L157.835,103.001 L152.135,103.001 L152.135,108.851" id="Fill-12" fill="#FFFFFF" sketch:type="MSShapeGroup"></path>
                <path d="M66.954,129.995 L71.717,129.995 L71.717,131.395 L70.106,131.395 L70.106,139.8 L68.565,139.8 L68.565,131.395 L66.954,131.395 L66.954,129.995" id="Fill-13" fill="#FFFFFF" sketch:type="MSShapeGroup"></path>
                <path d="M73.436,129.995 L74.977,129.995 L74.977,139.8 L73.436,139.8 L73.436,129.995 Z" id="Fill-14" fill="#FFFFFF" sketch:type="MSShapeGroup"></path>
                <path d="M80.41,136.956 L81.46,129.995 L83.603,129.995 L83.603,139.8 L82.147,139.8 L82.147,132.769 L81.082,139.8 L79.625,139.8 L78.477,132.866 L78.477,139.8 L77.132,139.8 L77.132,129.995 L79.275,129.995 L80.41,136.956" id="Fill-15" fill="#FFFFFF" sketch:type="MSShapeGroup"></path>
                <path d="M87.31,134.127 L89.426,134.127 L89.426,135.527 L87.31,135.527 L87.31,138.399 L89.972,138.399 L89.972,139.8 L85.77,139.8 L85.77,129.995 L89.972,129.995 L89.972,131.395 L87.31,131.395 L87.31,134.127" id="Fill-16" fill="#FFFFFF" sketch:type="MSShapeGroup"></path>
                <path d="M94.744,129.995 L99.506,129.995 L99.506,131.395 L97.895,131.395 L97.895,139.8 L96.354,139.8 L96.354,131.395 L94.744,131.395 L94.744,129.995" id="Fill-17" fill="#FFFFFF" sketch:type="MSShapeGroup"></path>
                <path d="M101.1,132.348 C101.1,130.779 101.926,129.883 103.439,129.883 C104.952,129.883 105.778,130.779 105.778,132.348 L105.778,137.446 C105.778,139.016 104.952,139.912 103.439,139.912 C101.926,139.912 101.1,139.016 101.1,137.446 L101.1,132.348 L101.1,132.348 Z M102.64,137.545 C102.64,138.245 102.948,138.512 103.439,138.512 C103.929,138.512 104.237,138.245 104.237,137.545 L104.237,132.25 C104.237,131.55 103.929,131.283 103.439,131.283 C102.948,131.283 102.64,131.55 102.64,132.25 L102.64,137.545 L102.64,137.545 Z" id="Fill-18" fill="#FFFFFF" sketch:type="MSShapeGroup"></path>
                <path d="M112.58,139.8 L111.04,139.8 L111.04,129.995 L112.58,129.995 L112.58,134.197 L114.331,134.197 L114.331,129.995 L115.9,129.995 L115.9,139.8 L114.331,139.8 L114.331,135.598 L112.58,135.598 L112.58,139.8" id="Fill-19" fill="#FFFFFF" sketch:type="MSShapeGroup"></path>
                <path d="M123.054,139.8 L121.499,139.8 L121.233,138.021 L119.342,138.021 L119.076,139.8 L117.661,139.8 L119.229,129.995 L121.485,129.995 L123.054,139.8 L123.054,139.8 Z M119.538,136.69 L121.022,136.69 L120.28,131.731 L119.538,136.69 L119.538,136.69 Z" id="Fill-20" fill="#FFFFFF" sketch:type="MSShapeGroup"></path>
                <path d="M126.791,137.993 L127.967,129.995 L129.382,129.995 L127.869,139.8 L125.572,139.8 L124.059,129.995 L125.614,129.995 L126.791,137.993" id="Fill-21" fill="#FFFFFF" sketch:type="MSShapeGroup"></path>
                <path d="M132.684,134.127 L134.799,134.127 L134.799,135.527 L132.684,135.527 L132.684,138.399 L135.346,138.399 L135.346,139.8 L131.144,139.8 L131.144,129.995 L135.346,129.995 L135.346,131.395 L132.684,131.395 L132.684,134.127" id="Fill-22" fill="#FFFFFF" sketch:type="MSShapeGroup"></path>
                <path d="M142.105,134.351 L144.095,134.351 L144.095,135.752 L142.105,135.752 L142.105,139.8 L140.565,139.8 L140.565,129.995 L144.642,129.995 L144.642,131.395 L142.105,131.395 L142.105,134.351" id="Fill-23" fill="#FFFFFF" sketch:type="MSShapeGroup"></path>
                <path d="M147.902,129.995 L147.902,137.559 C147.902,138.259 148.21,138.512 148.7,138.512 C149.19,138.512 149.499,138.259 149.499,137.559 L149.499,129.995 L150.955,129.995 L150.955,137.461 C150.955,139.029 150.171,139.926 148.658,139.926 C147.145,139.926 146.361,139.029 146.361,137.461 L146.361,129.995 L147.902,129.995" id="Fill-24" fill="#FFFFFF" sketch:type="MSShapeGroup"></path>
                <path d="M154.426,132.698 L154.426,139.8 L153.039,139.8 L153.039,129.995 L154.972,129.995 L156.555,135.864 L156.555,129.995 L157.928,129.995 L157.928,139.8 L156.345,139.8 L154.426,132.698" id="Fill-25" fill="#FFFFFF" sketch:type="MSShapeGroup"></path>
                <path d="M163,136 L184,136 L184,134 L163,134 L163,136 Z M42,136 L63,136 L63,134 L42,134 L42,136 Z" id="Fill-26" fill="#FFFFFF" sketch:type="MSShapeGroup"></path>
            </g>
        </g>
    </g>
</svg>