<?xml version="1.0" encoding="UTF-8" standalone="no"?>
<svg width="104px" height="63px" viewBox="0 0 104 63" version="1.1" xmlns="http://www.w3.org/2000/svg" xmlns:xlink="http://www.w3.org/1999/xlink" xmlns:sketch="http://www.bohemiancoding.com/sketch/ns">
    <!-- Generator: Sketch 3.3.2 (12043) - http://www.bohemiancoding.com/sketch -->
    <title>sleephotel</title>
    <desc>Created with Sketch.</desc>
    <defs></defs>
    <g id="Page-1" stroke="none" stroke-width="1" fill="none" fill-rule="evenodd" sketch:type="MSPage">
        <g id="home" sketch:type="MSArtboardGroup" transform="translate(-333.000000, -6359.000000)" fill="#000000">
            <g id="sleep-+-SLEEP" sketch:type="MSLayerGroup" transform="translate(111.000000, 6359.000000)">
                <g id="Sleep-Icon" transform="translate(224.000000, 0.376000)" sketch:type="MSShapeGroup">
                    <path d="M91.669,45.384 L91.669,60.921 L99.872,60.921 L99.872,37.693 L8.139,37.693 L8.139,4.088 C8.139,1.84 6.337,0 4.063,0 L4.063,0 C1.814,0 0,1.84 0,4.088 L0,60.921 L8.139,60.921 L8.139,45.384 L91.669,45.384 L91.669,45.384 Z" id="Shape"></path>
                    <path d="M20.661,20.469 C24.737,20.469 28.033,17.173 28.033,13.084 C28.033,9.021 24.737,5.725 20.661,5.725 C16.585,5.725 13.288,9.021 13.288,13.084 C13.288,17.172 16.584,20.469 20.661,20.469 L20.661,20.469 Z" id="Shape"></path>
                    <path d="M100,31.585 L99.975,21.44 C99.949,18.22 97.241,15.997 94.097,15.614 L36.185,9.838 C36.07,9.813 35.968,9.761 35.866,9.761 C33.86,9.761 32.238,11.396 32.238,13.389 L32.238,24.327 L17.096,24.327 C15.064,24.327 13.442,25.963 13.442,27.956 C13.442,29.975 15.065,31.585 17.096,31.585 L100,31.585 L100,31.585 Z" id="Shape"></path>
                </g>
            </g>
        </g>
    </g>
</svg>