<?xml version="1.0" encoding="UTF-8" standalone="no"?>
<svg width="95px" height="95px" viewBox="0 0 95 95" version="1.1" xmlns="http://www.w3.org/2000/svg" xmlns:xlink="http://www.w3.org/1999/xlink" style="background: #FFFFFF;">
    <!-- Generator: Sketch 3.8.3 (29802) - http://www.bohemiancoding.com/sketch -->
    <title>noun_449258_cc</title>
    <desc>Created with Sketch.</desc>
    <defs></defs>
    <g id="Page-1" stroke="none" stroke-width="1" fill="none" fill-rule="evenodd">
        <g id="home" transform="translate(-337.000000, -2755.000000)" fill="#000000">
            <g id="noun_449258_cc" transform="translate(337.000000, 2755.000000)">
                <g id="Group">
                    <path d="M78.9,28.1 C68.9,19.2 54.3,18 42.4,25 C39.5,24.2 36.2,25 34,27.2 C32.5,28.7 31.7,30.5 31.5,32.6 C30.8,32.9 30.2,33.3 29.7,33.8 C27.9,33.8 26.1,34.6 24.8,35.9 C23.5,37.2 22.8,38.9 22.7,40.7 C21.8,41.1 21,41.7 20.3,42.4 C19.4,43.3 18.8,44.3 18.3,45.4 C17.4,45.7 16.5,46.1 15.8,46.8 C14.2,48.4 13.7,50.8 14.6,52.8 C14.5,52.9 14.5,52.9 14.4,53 C11,56.4 11,61.9 14.4,65.3 C15,65.9 15.8,66.5 16.6,66.9 C17.4,72.8 19.8,78.4 23.9,83.1 C25.3,84.7 27.3,85.6 29.4,85.7 L29.6,85.7 C31.7,85.7 33.6,84.9 35,83.4 L77.5,40.9 L77.5,40.9 L77.5,40.9 L78.8,39.6 C78.9,39.5 78.9,39.5 79,39.4 L79.1,39.3 C80.6,37.8 81.4,35.8 81.4,33.6 C81.5,31.5 80.5,29.5 78.9,28.1 L78.9,28.1 Z M77.6,29.6 C78.8,30.7 79.5,32.1 79.5,33.7 L79.5,34.1 C79.2,32.9 78.6,31.8 77.7,30.9 C75.6,28.8 72.4,28.3 69.7,29.5 C69.6,29.4 69.5,29.2 69.3,29.1 C67.5,27.3 64.7,26.7 62.3,27.5 C62.1,27.2 61.8,27 61.5,26.8 C58.9,24.7 55.3,24.4 52.5,26.1 C50.4,24.5 47.3,24.6 45.3,26.4 C45.1,26.2 44.9,26.1 44.6,25.9 C55.6,20.2 68.6,21.6 77.6,29.6 L77.6,29.6 Z M26.2,37.2 C27.2,36.2 28.6,35.6 30.1,35.7 C30.4,35.7 30.7,35.6 30.9,35.4 C30.9,35.3 31,35.3 31.1,35.2 C31.5,34.8 32.1,34.5 32.7,34.3 C33.1,34.2 33.4,33.8 33.4,33.3 C33.4,31.5 34.1,29.9 35.4,28.6 C38,26 42.2,26 44.8,28.5 C45,28.7 45.3,28.8 45.6,28.7 C45.9,28.7 46.2,28.5 46.3,28.3 C46.4,28.2 46.5,28.1 46.6,28 C48,26.6 50.3,26.6 51.7,28 L51.8,28.1 C52.1,28.5 52.7,28.5 53.1,28.2 C55.3,26.6 58.3,26.7 60.3,28.4 C60.6,28.7 61,29 61.2,29.4 C61.5,29.8 62,29.9 62.4,29.7 C64.2,28.8 66.4,29.2 67.8,30.6 C68,30.8 68.3,31.1 68.4,31.4 C68.5,31.6 68.8,31.8 69,31.8 C69.3,31.9 69.5,31.8 69.8,31.7 C71.8,30.4 74.4,30.7 76.1,32.4 C77.8,34.1 78,36.8 76.7,38.8 C75.7,39.5 74.5,39.9 73.3,39.9 C71.7,39.9 70.1,39.3 69,38.1 C57.9,26.8 38.2,27.7 26,39.9 C25.6,40.3 25.2,40.7 24.8,41.2 L24.8,41.2 C24.6,39.7 25.2,38.2 26.2,37.2 L26.2,37.2 Z M15.9,63.9 C13.3,61.3 13.3,57 15.9,54.4 C16.1,54.2 16.3,54 16.5,53.8 C16.9,53.5 17,52.9 16.7,52.5 C15.9,51.1 16.1,49.3 17.2,48.1 C17.7,47.6 18.4,47.2 19.2,47.1 C19.6,47 19.9,46.8 20,46.4 C20.3,45.3 20.9,44.4 21.7,43.6 C22.3,43 23,42.6 23.7,42.2 C18.5,48.6 16,56.5 16.4,64.2 C16.2,64.2 16.1,64 15.9,63.9 L15.9,63.9 Z M33.8,82 C32.7,83.1 31.2,83.7 29.6,83.7 C29.3,83.7 29.1,83.7 28.8,83.6 L39.8,72.6 C40.2,72.2 40.2,71.6 39.8,71.2 C39.4,70.8 38.8,70.8 38.4,71.2 L26.7,82.8 C26.2,82.5 25.8,82.2 25.4,81.7 C25.2,81.5 25.1,81.3 24.9,81.1 L35.1,70.9 C35.5,70.5 35.5,69.9 35.1,69.5 C34.7,69.1 34.1,69.1 33.7,69.5 L23.7,79.5 C23.2,78.8 22.8,78.1 22.4,77.4 L30.7,69.1 C31.1,68.7 31.1,68.1 30.7,67.7 C30.3,67.3 29.7,67.3 29.3,67.7 L21.4,75.6 C21,74.8 20.7,74 20.4,73.2 L26.9,66.7 C27.3,66.3 27.3,65.7 26.9,65.3 C26.5,64.9 25.9,64.9 25.5,65.3 L19.7,71.1 C19.4,70.2 19.2,69.3 19,68.4 L24.5,62.9 C24.9,62.5 24.9,61.9 24.5,61.5 C24.1,61.1 23.5,61.1 23.1,61.5 L18.6,66 C18.5,64.9 18.4,63.9 18.4,62.8 L22.8,58.4 C23.2,58 23.2,57.4 22.8,57 C22.4,56.6 21.8,56.6 21.4,57 L18.6,59.8 C18.7,58.4 19,57 19.3,55.6 C19.3,55.6 19.4,55.6 19.4,55.5 L22.5,52.4 C22.9,52 22.9,51.4 22.5,51 C22.1,50.6 21.5,50.6 21.1,51 L20.7,51.4 C22.2,47.7 24.4,44.2 27.4,41.2 C38.8,29.9 57.3,29 67.7,39.4 C69.2,40.9 71.3,41.8 73.4,41.8 L73.9,41.8 L33.8,82 L33.8,82 Z" id="Shape"></path>
                    <path d="M93.8,35.6 L94.3,35.1 C94.7,34.7 94.7,34.1 94.3,33.7 C93.9,33.3 93.3,33.3 92.9,33.7 L92.4,34.2 L91.9,33.7 C91.5,33.3 90.9,33.3 90.5,33.7 C90.1,34.1 90.1,34.7 90.5,35.1 L91,35.6 L90.5,36.1 C90.1,36.5 90.1,37.1 90.5,37.5 C90.7,37.7 91,37.8 91.2,37.8 C91.4,37.8 91.7,37.7 91.9,37.5 L92.4,37 L92.9,37.5 C93.1,37.7 93.4,37.8 93.6,37.8 C93.8,37.8 94.1,37.7 94.3,37.5 C94.7,37.1 94.7,36.5 94.3,36.1 L93.8,35.6 L93.8,35.6 Z" id="Shape"></path>
                    <path d="M22.1,17.3 C22.3,17.5 22.6,17.6 22.8,17.6 C23,17.6 23.3,17.5 23.5,17.3 L24,16.8 L24.5,17.3 C24.7,17.5 25,17.6 25.2,17.6 C25.4,17.6 25.7,17.5 25.9,17.3 C26.3,16.9 26.3,16.3 25.9,15.9 L25.4,15.4 L25.9,14.9 C26.3,14.5 26.3,13.9 25.9,13.5 C25.5,13.1 24.9,13.1 24.5,13.5 L24,14 L23.5,13.5 C23.1,13.1 22.5,13.1 22.1,13.5 C21.7,13.9 21.7,14.5 22.1,14.9 L22.6,15.4 L22.1,15.9 C21.7,16.3 21.7,17 22.1,17.3 L22.1,17.3 Z" id="Shape"></path>
                    <path d="M74.8,67.1 L74.1,67.1 L74.1,66.4 C74.1,65.8 73.7,65.4 73.1,65.4 C72.5,65.4 72.1,65.8 72.1,66.4 L72.1,67.1 L71.4,67.1 C70.8,67.1 70.4,67.5 70.4,68.1 C70.4,68.7 70.8,69.1 71.4,69.1 L72.1,69.1 L72.1,69.8 C72.1,70.4 72.5,70.8 73.1,70.8 C73.7,70.8 74.1,70.4 74.1,69.8 L74.1,69.1 L74.8,69.1 C75.4,69.1 75.8,68.7 75.8,68.1 C75.8,67.5 75.4,67.1 74.8,67.1 L74.8,67.1 Z" id="Shape"></path>
                    <path d="M9.2,74.6 C8.8,74.2 8.2,74.2 7.8,74.6 L7.5,74.9 L7.2,74.6 C6.8,74.2 6.2,74.2 5.8,74.6 C5.4,75 5.4,75.6 5.8,76 L6.1,76.3 L5.8,76.6 C5.4,77 5.4,77.6 5.8,78 C6,78.2 6.3,78.3 6.5,78.3 C6.7,78.3 7,78.2 7.2,78 L7.5,77.7 L7.8,78 C8,78.2 8.3,78.3 8.5,78.3 C8.7,78.3 9,78.2 9.2,78 C9.6,77.6 9.6,77 9.2,76.6 L8.9,76.3 L9.2,76 C9.6,75.6 9.6,75 9.2,74.6 L9.2,74.6 Z" id="Shape"></path>
                    <path d="M73,11.6 C73.2,11.8 73.5,11.9 73.7,11.9 C73.9,11.9 74.2,11.8 74.4,11.6 L74.7,11.3 L75,11.6 C75.2,11.8 75.5,11.9 75.7,11.9 C75.9,11.9 76.2,11.8 76.4,11.6 C76.8,11.2 76.8,10.6 76.4,10.2 L76.1,9.9 L76.4,9.6 C76.8,9.2 76.8,8.6 76.4,8.2 C76,7.8 75.4,7.8 75,8.2 L74.7,8.5 L74.4,8.2 C74,7.8 73.4,7.8 73,8.2 C72.6,8.6 72.6,9.2 73,9.6 L73.3,9.9 L73,10.2 C72.6,10.6 72.6,11.2 73,11.6 L73,11.6 Z" id="Shape"></path>
                    <path d="M59.2,77.7 C57.4,77.7 55.9,79.2 55.9,81 C55.9,82.8 57.4,84.3 59.2,84.3 C61,84.3 62.5,82.8 62.5,81 C62.5,79.2 61,77.7 59.2,77.7 L59.2,77.7 Z M59.2,82.4 C58.5,82.4 57.9,81.8 57.9,81.1 C57.9,80.4 58.5,79.8 59.2,79.8 C59.9,79.8 60.5,80.4 60.5,81.1 C60.5,81.8 59.9,82.4 59.2,82.4 L59.2,82.4 Z" id="Shape"></path>
                    <path d="M83.5,77.1 C82.1,77.1 81,78.2 81,79.6 C81,81 82.1,82.1 83.5,82.1 C84.9,82.1 86,81 86,79.6 C86,78.2 84.8,77.1 83.5,77.1 L83.5,77.1 Z M83.5,80.1 C83.2,80.1 83,79.9 83,79.6 C83,79.3 83.2,79.1 83.5,79.1 C83.8,79.1 84,79.3 84,79.6 C84,79.9 83.7,80.1 83.5,80.1 L83.5,80.1 Z" id="Shape"></path>
                    <path d="M13.7,32.5 C13.7,30.9 12.4,29.5 10.7,29.5 C9,29.5 7.7,30.8 7.7,32.5 C7.7,34.2 9,35.5 10.7,35.5 C12.4,35.5 13.7,34.1 13.7,32.5 L13.7,32.5 Z M10.7,33.5 C10.2,33.5 9.7,33.1 9.7,32.5 C9.7,32 10.1,31.5 10.7,31.5 C11.3,31.5 11.7,31.9 11.7,32.5 C11.7,33 11.2,33.5 10.7,33.5 L10.7,33.5 Z" id="Shape"></path>
                    <circle id="Oval" transform="translate(10.680930, 15.411910) rotate(-83.678790) translate(-10.680930, -15.411910) " cx="10.68093" cy="15.41191" r="1.19997553"></circle>
                    <circle id="Oval" transform="translate(71.140580, 85.327540) rotate(-83.678790) translate(-71.140580, -85.327540) " cx="71.14058" cy="85.32754" r="1.19997553"></circle>
                    <circle id="Oval" transform="translate(68.407000, 56.819700) rotate(-30.000728) translate(-68.407000, -56.819700) " cx="68.407" cy="56.8197" r="1.1999736"></circle>
                    <circle id="Oval" transform="translate(90.163830, 63.904310) rotate(-83.678790) translate(-90.163830, -63.904310) " cx="90.16383" cy="63.90431" r="1.19997553"></circle>
                    <circle id="Oval" transform="translate(41.016990, 93.211130) rotate(-83.678790) translate(-41.016990, -93.211130) " cx="41.01699" cy="93.21113" r="1.19997553"></circle>
                    <circle id="Oval" transform="translate(22.277150, 27.720990) rotate(-83.678790) translate(-22.277150, -27.720990) " cx="22.27715" cy="27.72099" r="1.19997553"></circle>
                    <circle id="Oval" transform="translate(44.730620, 81.099560) rotate(-55.750564) translate(-44.730620, -81.099560) " cx="44.73062" cy="81.09956" r="1.20000684"></circle>
                    <circle id="Oval" transform="translate(5.295680, 63.926940) rotate(-55.750564) translate(-5.295680, -63.926940) " cx="5.29568" cy="63.92694" r="1.20000684"></circle>
                    <circle id="Oval" cx="21" cy="89.8" r="1.2"></circle>
                    <circle id="Oval" cx="59.2" cy="14.2" r="1.2"></circle>
                    <circle id="Oval" cx="43.5" cy="11.2" r="1.2"></circle>
                    <circle id="Oval" cx="34.3" cy="3.4" r="1.2"></circle>
                    <circle id="Oval" cx="86.1" cy="20.3" r="1.2"></circle>
                    <path d="M84.1,54.6 C84.6,54.6 85,54.3 85.1,53.8 C85.2,53.3 84.8,52.7 84.3,52.6 L80.9,52 C80.4,51.9 79.8,52.3 79.7,52.8 C79.6,53.3 80,53.9 80.5,54 L83.9,54.6 L84.1,54.6 L84.1,54.6 Z" id="Shape"></path>
                    <path d="M53.2,6.1 L53.4,6.1 C53.9,6.1 54.3,5.8 54.4,5.3 L55,1.9 C55.1,1.4 54.7,0.8 54.2,0.7 C53.6,0.7 53.1,1 53,1.6 L52.4,5 C52.3,5.5 52.6,6 53.2,6.1 L53.2,6.1 Z" id="Shape"></path>
                    <path d="M5.5,46.4 C5.2,46 4.6,45.8 4.1,46.2 L1.3,48.2 C0.9,48.5 0.7,49.1 1.1,49.6 C1.3,49.8 1.6,50 1.9,50 C2.1,50 2.3,49.9 2.5,49.8 L5.3,47.8 C5.7,47.5 5.8,46.9 5.5,46.4 L5.5,46.4 Z" id="Shape"></path>
                    <path d="M59.3,71.6 L59.5,71.6 C60,71.5 60.4,71 60.3,70.5 L60,68.8 C59.9,68.3 59.4,67.9 58.9,68 C58.4,68.1 58,68.6 58.1,69.1 L58.4,70.8 C58.4,71.3 58.9,71.6 59.3,71.6 L59.3,71.6 Z" id="Shape"></path>
                </g>
            </g>
        </g>
    </g>
</svg>